<svg xmlns="http://www.w3.org/2000/svg" xmlns:xlink="http://www.w3.org/1999/xlink" viewBox="0 0 62.19 55.54"><defs><style>.cls-1{isolation:isolate;}.cls-2{fill:#b8b5aa;mix-blend-mode:multiply;}.cls-3{fill:#222c36;}.cls-4{fill:#3c4e5e;}.cls-11,.cls-5,.cls-6{opacity:0.5;}.cls-5,.cls-6{mix-blend-mode:screen;}.cls-5{fill:url(#linear-gradient);}.cls-6{fill:url(#linear-gradient-2);}.cls-10,.cls-11,.cls-7{fill:#fff;}.cls-7{opacity:0.1;}.cls-8{fill:#e61300;}.cls-9{fill:#ff685a;}.cls-12{fill:#f4493a;}.cls-13{opacity:0.2;mix-blend-mode:color-dodge;}</style><linearGradient id="linear-gradient" x1="34.12" y1="29.8" x2="56.1" y2="29.8" gradientUnits="userSpaceOnUse"><stop offset="0"/><stop offset="0.99" stop-color="#fff"/></linearGradient><linearGradient id="linear-gradient-2" x1="44.27" y1="32.23" x2="56.1" y2="32.23" xlink:href="#linear-gradient"/></defs><title>Recurso 13</title><g class="cls-1"><g id="Capa_2" data-name="Capa 2"><g id="Layer_1" data-name="Layer 1"><path class="cls-2" d="M50.37,22.39c-17-7.59-41.54-9-46.59-1.47s-7.36,27.57,26,33.89c6.87,1.3,28.87,1.41,27-4.41-1.59-5-29.76-11.63-26.26-16.87,2.83-4.23,23.9,4.27,30.15,3.13C65.77,35.73,56.75,25.24,50.37,22.39Z"/><path class="cls-3" d="M55.72,18.94C55.88,15,52.52,8.47,43.48,4.4,26.48-3.26,8.08,0,2.77,7.33-.38,11.7,0,17.18.05,23.8c.11,8.7-.76,18.57,21.89,26.66,6.58,2.35,28.94,0,28-3s-.71-11.8,0-13.75a12.4,12.4,0,0,0,3.92,0C57.53,32.91,55.55,22.88,55.72,18.94Z"/><path class="cls-4" d="M49.92,47.5c-1-3-.71-11.8,0-13.75a12.4,12.4,0,0,0,3.92,0c3.71-.84,1.73-10.87,1.9-14.81S52.52,8.47,43.48,4.4c-1.1-.5-2.21-1-3.32-1.35a67.36,67.36,0,0,0-17.5,45.56c0,.7,0,1.39.05,2.08C30.1,52.65,50.84,50.4,49.92,47.5Z"/><path class="cls-5" d="M34.12,43.62a53.75,53.75,0,0,0,.55,7.69c7.85-.42,15.83-2,15.25-3.81-1-3-.71-11.8,0-13.75a12.4,12.4,0,0,0,3.92,0c3.71-.84,1.73-10.87,1.9-14.81.11-2.82-1.61-7-5.95-10.65C40.46,15,34.12,28.3,34.12,43.62Z"/><path class="cls-6" d="M44.27,43.62a57.19,57.19,0,0,0,.37,6.49c3.36-.7,5.6-1.62,5.28-2.61-1-3-.71-11.8,0-13.75a12.4,12.4,0,0,0,3.92,0c3.71-.84,1.73-10.87,1.9-14.81a10.18,10.18,0,0,0-1.1-4.59C48.47,19.86,44.27,30.89,44.27,43.62Z"/><path class="cls-7" d="M8.55,10C5,10,2.08,20.49,2.11,33.45c0,1.1,0,2.2.1,3.28,1.83,3.53,5.27,7,11.71,10.32.22-4,.25-8.69.24-13.44C14.14,20.65,12.12,10,8.55,10Z"/><path class="cls-8" d="M54.78,18.38S25.07,6,17.38,11.54c-3.84,2.79-2.07,15.52,1.2,19C24,36.22,49.75,34.18,49.9,33.75a12.4,12.4,0,0,0,3.92,0,2,2,0,0,0,1-.53Z"/><path class="cls-9" d="M43.48,5.34c-17-7.59-35-5.46-40.09,2.09S-2.19,27.69,21.94,36.31c6.58,2.36,28.94,0,28-3-1.59-5-29.76-11.64-26.26-16.87,2.84-4.24,24,4.52,30.16,3.12C57.53,18.77,49.86,8.19,43.48,5.34Z"/><path class="cls-10" d="M22.31,15.55c.32-1.11-.78-2.39-2.44-2.87s-3.28,0-3.6,1.14.78,2.39,2.45,2.86S22,16.65,22.31,15.55Z"/><path class="cls-10" d="M4.15,31.13c.27,0,.47-1,.46-2.24s-.25-2.23-.51-2.23-.48,1-.46,2.24S3.88,31.13,4.15,31.13Z"/><path class="cls-10" d="M3.79,35.85c.27,0,.48-.51.47-1.13S4,33.61,3.77,33.61s-.48.51-.48,1.12S3.52,35.85,3.79,35.85Z"/><path class="cls-11" d="M15.34,13.14c.13-.45-.32-1-1-1.17s-1.34,0-1.47.46.32,1,1,1.17S15.21,13.59,15.34,13.14Z"/><path class="cls-11" d="M11.34,11.54c.09-.32-.21-.68-.68-.81s-.93,0-1,.32.22.67.69.81S11.26,11.85,11.34,11.54Z"/><path class="cls-11" d="M7.9,10.3c.07-.26-.18-.56-.57-.67s-.77,0-.84.26.18.56.57.67S7.82,10.56,7.9,10.3Z"/><path class="cls-11" d="M5,9c.07-.26-.18-.56-.57-.67s-.77,0-.84.27.18.55.57.67S4.92,9.3,5,9Z"/><path class="cls-11" d="M41.43,27.79c-8.54-3.8-20-7.86-17.71-11.31,1.9-2.83,12,.15,20.29,2a45.9,45.9,0,0,0-6.53-2.18c-8.51-2.11-14.3-2.72-15.19,0S27,23,34.69,25.81A53.4,53.4,0,0,0,41.43,27.79Z"/><path class="cls-12" d="M16.21,18.34c-5-4.82-10.48-7.35-13-4.78s-.44,8.55,4.54,13.37,13,6.16,15.49,3.59S21.2,23.15,16.21,18.34Z"/><path class="cls-12" d="M19.52,1.64C13.6,2.21,9,4.72,9.24,7.26s5.24,4.13,11.16,3.56,13-1.34,12.7-3.88S25.43,1.07,19.52,1.64Z"/><g class="cls-13"><path class="cls-10" d="M8.22,18.15c2.23-1.53,6.15-.2,8.52.07s4.38.42,6.35-.74c.23-.13.22-.56-.08-.6-3.7-.51-7.51-.79-11.25-1.16a7.07,7.07,0,0,0-6.3,2.37A12.72,12.72,0,0,0,2.92,23.7a19.73,19.73,0,0,0,2,2.59,9.46,9.46,0,0,1,0-2.32A8.44,8.44,0,0,1,8.22,18.15Z"/><path class="cls-10" d="M6.49,14.11c2.14,0,4.12,1,6.24.73.25,0,.21-.41,0-.47-4.64-1.27-9.6-3.1-12,2.38-.05.11-.09.23-.14.35a13.8,13.8,0,0,0,.7,3.36c0-.41.09-.82.16-1.23C2,16.45,3.36,14.12,6.49,14.11Z"/><path class="cls-10" d="M47.61,8.76c.17-.1.35-.17.53-.26-.52-.45-1-.89-1.57-1.28a15.91,15.91,0,0,0-3.51,2.6c-1.48,1.43-4.48,4.5-5.25,7.24l2.12.5a25.85,25.85,0,0,1,3.46-5.32A16.65,16.65,0,0,1,47.61,8.76Z"/><path class="cls-10" d="M29.29,22.48a31.78,31.78,0,0,0-2.73,14.65q1,.09,2.16.12a17.25,17.25,0,0,1-.41-2.59,37.83,37.83,0,0,1,1.48-12h0l-.46-.23S29.3,22.46,29.29,22.48Z"/><path class="cls-10" d="M15.35,21.06c.37-.07.28-.67-.09-.66-4.35.2-7.18,3.74-8.28,7.87q.6.51,1.26,1c0-.22,0-.44.08-.66C9,24.66,11.33,21.81,15.35,21.06Z"/><path class="cls-10" d="M36.81,32.07a19,19,0,0,1-.66-6.53l-1.69-.73c-.89,3.55,0,8.58,2.06,12.24.9-.07,1.79-.16,2.67-.25A17.35,17.35,0,0,1,36.81,32.07Z"/><path class="cls-10" d="M37.88,6.59A34.43,34.43,0,0,0,33,15.83.25.25,0,0,0,33,16l.45.09a.18.18,0,0,0,0-.07,61.3,61.3,0,0,1,4.35-7.65,16.47,16.47,0,0,1,3.56-3.75l.15-.09L40.25,4A21.73,21.73,0,0,0,37.88,6.59Z"/><path class="cls-10" d="M24.77,19.65c-2.21,2.12-3.39,5.61-4.47,8.31a20.81,20.81,0,0,0-1.51,7.14c.63.26,1.28.51,2,.77a26.36,26.36,0,0,1,1-7.5,24.86,24.86,0,0,1,4.27-7.76A11.84,11.84,0,0,1,24.77,19.65Z"/><path class="cls-10" d="M24.57.67,23.22.62c-2.61,4.9-2.74,10.94,2.37,14.65.07.05.15,0,.14-.1-.8-3.34-3.74-5.23-3.06-9.1A20.23,20.23,0,0,1,24.57.67Z"/><path class="cls-10" d="M44.64,33.63a16.71,16.71,0,0,1-3.07-5.75l-1.49-.66a19,19,0,0,0,3.32,7.36A16.43,16.43,0,0,0,44.49,36c.72-.15,1.39-.3,2-.47A19.43,19.43,0,0,1,44.64,33.63Z"/><path class="cls-10" d="M11.73,31.46a7.78,7.78,0,0,1,3.34-6.63c1.54-1.17,3.38-2,5-3,1.41-.89,2.45-2.1,4-2.8a3.29,3.29,0,0,1-.49-.72c-1.71.07-2.81,1.39-4.2,2.37-2.19,1.56-4.76,2.41-6.84,4.17a8.89,8.89,0,0,0-2.77,5.6c.61.42,1.26.82,1.94,1.23Z"/><path class="cls-10" d="M29.71,4.92a23.08,23.08,0,0,0-2.15,10.4l1.13.06a29.43,29.43,0,0,1,2.43-9.63A15.89,15.89,0,0,1,33.72,2c-.76-.18-1.51-.34-2.26-.49A29.82,29.82,0,0,0,29.71,4.92Z"/><path class="cls-10" d="M52.26,13c-.37,0-.73.07-1.08.13a9.6,9.6,0,0,0-6.91,5.44l1.82.39a11.57,11.57,0,0,1,5.66-3.77,8,8,0,0,1,1.78-.3A22.35,22.35,0,0,0,52.26,13Z"/><path class="cls-10" d="M7,4.76A4,4,0,0,0,9,7.57a.32.32,0,0,0,.38-.5A5.89,5.89,0,0,1,7.83,4.2a4.58,4.58,0,0,1-.07-.55c-.32.18-.64.36-.94.55Z"/><path class="cls-10" d="M18.07.79a14.23,14.23,0,0,0-.4,7.3c.07.39.72.22.61-.17C17.47,5.15,18.58,3,19.6.67Q18.82.71,18.07.79Z"/><path class="cls-10" d="M13.72,1.47c-.69.16-1.35.34-2,.53a5.92,5.92,0,0,0-.86,4.46C11.56,9,14,10.29,16,11.53c2.26,1.39,4.24,3.62,7,3.69.29,0,.31-.38.07-.47C19.45,13.48,10.79,8,12.91,3.11,13.15,2.55,13.43,2,13.72,1.47Z"/></g></g></g></g></svg>