<svg xmlns="http://www.w3.org/2000/svg" viewBox="0 0 73.06 63.69"><defs><style>.cls-1{isolation:isolate;}.cls-2{fill:#b4703d;}.cls-3{fill:#030800;}.cls-4{fill:#fcfbe6;}.cls-5{fill:#6b6f72;opacity:0.9;mix-blend-mode:multiply;}.cls-6{fill:#ece2ac;}.cls-7{fill:#fff;}.cls-8{fill:#e61300;}.cls-9{fill:#f4493a;}.cls-10{fill:#ff685a;}.cls-11{opacity:0.3;mix-blend-mode:color-dodge;}</style></defs><title>top_image_call_2</title><g class="cls-1"><g id="Capa_2" data-name="Capa 2"><g id="Layer_1" data-name="Layer 1"><path class="cls-2" d="M59.49,46.35c.32-.42-24-21.17-54.36-46.35L4,1.5C34.31,26.68,59.17,46.76,59.49,46.35Z"/><path class="cls-3" d="M5.13,0,4,1.5C9.81,6.35,15.45,11,20.74,15.37l1.11-1.43C16.59,9.53,11,4.85,5.13,0Z"/><path class="cls-4" d="M58.83,45.47C58.89,45.4,34.77,25.14,5,.23L4.74.5C34.55,25.42,58.77,45.55,58.83,45.47Z"/><path class="cls-5" d="M46.64,61.89a.63.63,0,0,1,.12-.18c-.23-.14-.3-.47-.13-.86a1.88,1.88,0,0,1,.35-.5,1,1,0,0,1-.37-.36.84.84,0,0,1,.36-1.1c-.39-.16-.55-.43-.35-.68a1.85,1.85,0,0,1,1.47-.43s0,0,0-.05a.47.47,0,0,1-.1-.1.73.73,0,0,1,.23-1.18,1.63,1.63,0,0,1,.31-.11,2.07,2.07,0,0,1,1.09-.91,3.81,3.81,0,0,1,.83-.27,1.11,1.11,0,0,1,0-.17,1.45,1.45,0,0,1,1.14-1.06h.13a2.3,2.3,0,0,1,1.43-.6,3.32,3.32,0,0,1,.54,0s0,0,0-.06A1.1,1.1,0,0,1,54.53,52a1,1,0,0,1,.39,0,2.44,2.44,0,0,1,1.57-.61,2.55,2.55,0,0,1,.75,0,1.56,1.56,0,0,1,1.2-1,.55.55,0,0,1,.64.44.32.32,0,0,1,0-.09,1.61,1.61,0,0,1,1.27-1,.53.53,0,0,1,.34.09,2.58,2.58,0,0,1,1.37-.39,2,2,0,0,1,.73.09A1.62,1.62,0,0,1,64,48.7a.57.57,0,0,1,.62.74h0a1.88,1.88,0,0,1,1.47-.88c.37,0,.52.31.43.69a2,2,0,0,1,1.56-.79c.42.08.46.53.11,1l.16-.08c.76-.34,1.51-.38,1.68-.1.07.11,0,.25-.08.41a1.22,1.22,0,0,1,.64-.14c.45.06.51.54.14,1.07a1,1,0,0,1,.65.46.78.78,0,0,1,0,.89c.35,0,.59.12.62.3s-.33.58-.87.82a.61.61,0,0,1,.52.18c.17.29-.31.8-1.08,1.14l-.15.06c.13.06.22.13.23.24,0,.34-.59.8-1.42,1h0c.18.06.3.16.29.3,0,.34-.65.75-1.46.92l-.36.06c.28.2.35.47.14.7a1.82,1.82,0,0,1-1.44.37,2,2,0,0,1-1.24.85,3.3,3.3,0,0,1-.81.16.53.53,0,0,1,0,.12,1.51,1.51,0,0,1-1.16,1.13.7.7,0,0,1-.56-.15,1,1,0,0,1-.07.15,1.74,1.74,0,0,1-1.37.88.46.46,0,0,1-.27-.09.68.68,0,0,1-.32.42,1.35,1.35,0,0,1-1.21,0,.24.24,0,0,1-.06.15,2,2,0,0,1-1.71.48,1.49,1.49,0,0,1-.45-.1,1.25,1.25,0,0,1-.93,1.08.8.8,0,0,1-.85-.26.73.73,0,0,1-.29.32,1.39,1.39,0,0,1-1.52-.14h0a.67.67,0,0,1-.27.29,1.47,1.47,0,0,1-1.59-.15h0a.7.7,0,0,1-.23.22,1.44,1.44,0,0,1-1.55-.11.75.75,0,0,1-.31-.46,1.66,1.66,0,0,1-1.39.27c-.24-.15-.11-.51.27-.87h0a2.62,2.62,0,0,1-.56.09C47.08,62.49,46.53,62.25,46.64,61.89Z"/><path class="cls-6" d="M45.19,54.9a.87.87,0,0,1,.14-.27,2,2,0,0,1-.08-1.58,2.28,2.28,0,0,1,.38-.71,2.44,2.44,0,0,1-.34-.82,1.59,1.59,0,0,1,.43-1.76,1.24,1.24,0,0,1-.31-1.37c.26-.42.91-.43,1.53-.06a.41.41,0,0,1,.05-.09,1.24,1.24,0,0,1-.1-.2c-.33-.87-.19-1.76.32-2a.58.58,0,0,1,.32,0,1.7,1.7,0,0,1,1.18-1.1,1.85,1.85,0,0,1,.86-.09,1.36,1.36,0,0,1,0-.29c.16-.88.71-1.48,1.23-1.36a.52.52,0,0,1,.13.06,1.36,1.36,0,0,1,1.51-.4,1.93,1.93,0,0,1,.55.23S53,43,53,43c-.07-.94.32-1.74.88-1.77a.67.67,0,0,1,.39.1,1.46,1.46,0,0,1,1.65-.35,2.12,2.12,0,0,1,.77.42c.22-.83.79-1.36,1.29-1.21a1.17,1.17,0,0,1,.62,1.09l0-.15c.26-.83.87-1.34,1.37-1.14a.67.67,0,0,1,.34.31,1.51,1.51,0,0,1,1.42-.06,2,2,0,0,1,.74.51c.28-.73.82-1.17,1.29-1s.69.84.59,1.59h0c.41-.77,1.09-1.16,1.56-.88a1.31,1.31,0,0,1,.4,1.41c.48-.7,1.2-1,1.64-.66a1.55,1.55,0,0,1,0,1.88l.17-.07c.8-.24,1.57,0,1.72.6a.88.88,0,0,1-.11.68.72.72,0,0,1,.66.06c.46.32.49,1.18.08,2a2.25,2.25,0,0,1,.64,1.11,2.06,2.06,0,0,1-.12,1.54,1,1,0,0,1,.62.82,1.16,1.16,0,0,1-.94,1,.84.84,0,0,1,.51.55c.17.58-.36,1.26-1.17,1.51l-.16,0a.93.93,0,0,1,.23.54c0,.61-.66,1.12-1.52,1.14h0a.92.92,0,0,1,.28.66c0,.59-.72,1-1.55,1A1.51,1.51,0,0,1,67,56.1a1.24,1.24,0,0,1,.09,1.31c-.28.38-.9.36-1.48,0a1.47,1.47,0,0,1-1.33.91,1.93,1.93,0,0,1-.84-.09,1.5,1.5,0,0,1,0,.2c-.14.92-.71,1.57-1.26,1.45a.86.86,0,0,1-.55-.51,2.18,2.18,0,0,1-.09.23c-.34.76-1,1.18-1.45.92a.59.59,0,0,1-.27-.29.82.82,0,0,1-.36.59c-.36.2-.86,0-1.23-.53a.73.73,0,0,1-.08.25c-.26.5-1.06.53-1.78.06a2.43,2.43,0,0,1-.45-.39c-.07.85-.5,1.49-1,1.47-.36,0-.68-.36-.85-.86a.77.77,0,0,1-.32.44c-.46.27-1.15-.16-1.55-1h0a.69.69,0,0,1-.3.37c-.48.28-1.2-.17-1.61-1h0A.71.71,0,0,1,50,60c-.46.28-1.17-.12-1.58-.91a2.58,2.58,0,0,1-.29-1c-.58.3-1.18.25-1.43-.16A1.26,1.26,0,0,1,47,56.52l0,0a2.43,2.43,0,0,1-.58-.1C45.6,56.14,45.06,55.47,45.19,54.9Z"/><path class="cls-4" d="M50.07,49.72h0a1.18,1.18,0,0,1-.11-.19c-.38-.77-.33-1.62.12-1.88a.79.79,0,0,1,.8.08c-.31-.69-.26-1.41.14-1.66a.69.69,0,0,1,.64,0,1.78,1.78,0,0,1,.71-1,1.85,1.85,0,0,1,.61-.28.74.74,0,0,1,0-.44c.13-.55.86-.79,1.63-.55a2.15,2.15,0,0,1,.46.21,2.72,2.72,0,0,1,.1-.46c.26-.78.85-1.26,1.31-1.06h0s0-.05,0-.07a.79.79,0,0,1,.33-.45.77.77,0,0,1,.46-.46.81.81,0,0,1,.76.32l.11,0a2.31,2.31,0,0,1,.73.39c.21-.78.75-1.29,1.22-1.14a1.11,1.11,0,0,1,.58,1,.57.57,0,0,1,0-.14c.24-.79.82-1.27,1.29-1.08a.69.69,0,0,1,.37.38,1.48,1.48,0,0,1,1.29,0,1.8,1.8,0,0,1,.83.63c.28-.48.69-.75,1.06-.62s.66.82.54,1.56c.38-.75,1-1.15,1.5-.88s.54,1.09.21,1.86a.9.9,0,0,1,1.08-.13c.44.34.43,1.2,0,1.92a.76.76,0,0,1-.08.11c.73-.18,1.4.07,1.54.58a1.13,1.13,0,0,1-.62,1.17,1.57,1.57,0,0,1,0,1.81,2.2,2.2,0,0,1-.55.64c0,.12.1.25.14.38.22.85,0,1.65-.5,1.79h-.09c0,.54-.57,1-1.32,1,.1.54-.38,1.13-1.12,1.36a2,2,0,0,1-.47.08,1.42,1.42,0,0,1-1.41.86h-.26c-.06.53-.7.91-1.46.85a1.9,1.9,0,0,1-.44-.09,1,1,0,0,1-.11.72c-.32.43-1.09.33-1.71-.23l-.06-.06a1.57,1.57,0,0,1-1.08.52,1.61,1.61,0,0,1-1.06-.22c-.2.71-.66,1.18-1.12,1.08s-.75-.73-.71-1.48l0,.12c-.32.72-.94,1.11-1.37.87a.88.88,0,0,1-.39-.73.57.57,0,0,1-.16.15c-.43.23-1.06-.17-1.41-.9a1.88,1.88,0,0,1-.12-.3,1.63,1.63,0,0,1-1.07-.3,2.07,2.07,0,0,1-.76-.87c-.5-.06-.9-.78-.89-1.65a2.46,2.46,0,0,1,.16-.84,2.47,2.47,0,0,1-.38-.54C49.58,50.78,49.64,50,50.07,49.72Z"/><path class="cls-7" d="M58.87,52.21c-.58-1.45.77-3.45,3-4.45s4.5-.64,5.08.81-.78,3.45-3,4.45S59.44,53.66,58.87,52.21Z"/><path class="cls-8" d="M72.54,44.58c-1.74-2-8.06-7.94-13.84-6.52S43.82,44.62,44,55.22c.09,7.57,1.84,3.72,5.71.9S62.53,47,68.82,46.56,72.54,44.58,72.54,44.58Z"/><path class="cls-9" d="M45,58.83a6.23,6.23,0,0,0,2-1.48,28.28,28.28,0,0,1,2.35-2c7.91-5.77,14.17-9,18.59-9.55.25,0,.5-.06.75-.07q.87-.06,1.56-.15c2.18-.28,2.34-.73,2.34-.73a.87.87,0,0,0-.33-.35l0,0,0,0c-.27-.3-6.59-7.33-12.7-6.55a5,5,0,0,0-.79.15c-1.5.37-14.62,4-14.47,16.76,0,2.29.21,3.62.56,4A.24.24,0,0,0,45,58.83Z"/><path class="cls-10" d="M58.7,38.06c5.78-1.42,12.1,4.56,13.84,6.52a1.42,1.42,0,0,1,.17.13,17.31,17.31,0,0,1-2.39,0c-6-.4-14.72,3.15-18.66,5.72s-7.33,3.06-6.86-.68C47.17,42.8,54,39.22,58.7,38.06Z"/><g class="cls-11"><path class="cls-7" d="M60.67,39.08c-.58-.38-1.18-.73-1.78-1a5.59,5.59,0,0,1,.59-.11,28.57,28.57,0,0,1,9.25,8.65l-.33,0A28.32,28.32,0,0,0,60.67,39.08Z"/><path class="cls-7" d="M62.66,48.24a27,27,0,0,0-2.9-3,24.71,24.71,0,0,0-2.46-1.92,28.89,28.89,0,0,0-5.12-2.51c.28-.18.57-.35.86-.51a16.73,16.73,0,0,1,2.1,1,22.24,22.24,0,0,1,2.63,1.53,21,21,0,0,1,2.41,1.91,24.9,24.9,0,0,1,2.84,3l.16.21-.5.22Z"/><path class="cls-7" d="M65.11,47.33A31.7,31.7,0,0,0,60,42.27a25.13,25.13,0,0,0-3.14-2.13c-.57-.31-1.16-.59-1.75-.85.39-.17.76-.32,1.14-.46.28.14.56.27.83.42A24.62,24.62,0,0,1,60.3,41.4a27.72,27.72,0,0,1,5.43,5.74Z"/><path class="cls-7" d="M64.11,38.54a17.53,17.53,0,0,1,3.31,1.7A33,33,0,0,1,72.21,46a4,4,0,0,1-.63.18l-.19-.27A42.44,42.44,0,0,0,64.11,38.54Z"/><path class="cls-7" d="M44.1,52.76a11.78,11.78,0,0,1,4.09,1.13,19,19,0,0,1,2.48,1.51l-.25.17A13.19,13.19,0,0,0,44,53.78C44,53.43,44.05,53.09,44.1,52.76Z"/><path class="cls-7" d="M44.28,51.68A12.67,12.67,0,0,1,44.72,50a14.81,14.81,0,0,1,8.49,3.64l-.32.21C50.46,52.14,47.46,51.65,44.28,51.68Z"/><path class="cls-7" d="M44,56.3c0-.15,0-.3,0-.46a14.34,14.34,0,0,1,4.23,1.46l-.25.23A12.68,12.68,0,0,0,44,56.3Z"/><path class="cls-7" d="M57.75,46.87a21,21,0,0,0-8.29-4c.37-.33.75-.63,1.13-.93a17.24,17.24,0,0,1,8.76,5.11,16.46,16.46,0,0,1,1.61,2l-.55.27A21.75,21.75,0,0,0,57.75,46.87Z"/><path class="cls-7" d="M45.47,48.1c.16-.33.32-.64.5-1a14.2,14.2,0,0,1,10.16,4.59l-.66.41A17.17,17.17,0,0,0,45.47,48.1Z"/><path class="cls-7" d="M47.17,45.33c.18-.23.35-.44.54-.66a17.41,17.41,0,0,1,10.56,5.8l-.36.21A18.8,18.8,0,0,0,47.17,45.33Z"/></g><path class="cls-7" d="M52.29,41.69c-.18-.67,1.72-1.84,4.24-2.6s4.72-.84,4.9-.17-2,.62-4.57,1.39S52.47,42.36,52.29,41.69Z"/><path class="cls-7" d="M45.3,52.6c-.55-.38-.13-2.18.93-4s2.36-3,2.9-2.63-1.61,1.16-1.92,3.32C46.68,53,45.84,53,45.3,52.6Z"/><path class="cls-2" d="M59.49,51.47C59.77,51,33.59,32.84,1,10.86L0,12.47C32.57,34.46,59.21,51.92,59.49,51.47Z"/><path class="cls-3" d="M1,10.86,0,12.47c6.27,4.24,12.32,8.3,18,12.1L19,23C13.32,19.18,7.28,15.09,1,10.86Z"/><path class="cls-4" d="M58.75,50.67c.06-.09-25.86-17.8-57.89-39.57l-.19.3C32.7,33.17,58.7,50.75,58.75,50.67Z"/></g></g></g></svg>