<svg xmlns="http://www.w3.org/2000/svg" viewBox="0 0 71.53 60.19"><defs><style>.cls-1{isolation:isolate;}.cls-2{fill:#b4703d;}.cls-3{fill:#030800;}.cls-4{fill:#fcfbe6;}.cls-5{fill:#6b6f72;opacity:0.58;mix-blend-mode:multiply;}.cls-6{fill:#ece2ac;}.cls-7{fill:#fff;}.cls-8{fill:#e61300;}.cls-9{fill:#f4493a;}.cls-10{fill:#ff685a;}.cls-11{opacity:0.3;mix-blend-mode:color-dodge;}</style></defs><title>top_image_call_1</title><g class="cls-1"><g id="Capa_2" data-name="Capa 2"><g id="Layer_1" data-name="Layer 1"><path class="cls-2" d="M63.13,46.35c.32-.42-24-21.17-54.36-46.35L7.61,1.5C38,26.68,62.81,46.76,63.13,46.35Z"/><path class="cls-3" d="M8.77,0,7.61,1.5C13.45,6.35,19.09,11,24.39,15.37l1.11-1.43C20.23,9.53,14.62,4.85,8.77,0Z"/><path class="cls-4" d="M62.48,45.47C62.54,45.4,38.42,25.14,8.6.23L8.39.5C38.2,25.42,62.42,45.55,62.48,45.47Z"/><path class="cls-5" d="M45.11,58.39a.63.63,0,0,1,.12-.18c-.23-.15-.3-.48-.13-.87a1.64,1.64,0,0,1,.35-.49,1,1,0,0,1-.37-.36.84.84,0,0,1,.35-1.1c-.38-.16-.54-.43-.34-.69a1.82,1.82,0,0,1,1.47-.42l0-.06-.09-.09A.72.72,0,0,1,46.74,53a1.15,1.15,0,0,1,.31-.11,2.07,2.07,0,0,1,1.09-.91,3.81,3.81,0,0,1,.83-.27,1.11,1.11,0,0,1,0-.17,1.48,1.48,0,0,1,1.14-1.07h.13a2.25,2.25,0,0,1,1.43-.6,2.48,2.48,0,0,1,.54,0,.14.14,0,0,0,0-.06A1.1,1.1,0,0,1,53,48.54a1,1,0,0,1,.39,0A2.49,2.49,0,0,1,55,47.88a2.92,2.92,0,0,1,.75,0,1.59,1.59,0,0,1,1.2-1,.56.56,0,0,1,.64.45.32.32,0,0,1,0-.09,1.61,1.61,0,0,1,1.27-1,.59.59,0,0,1,.34.08A2.75,2.75,0,0,1,60.56,46a2.18,2.18,0,0,1,.73.1,1.6,1.6,0,0,1,1.2-.89.57.57,0,0,1,.62.74h0a1.92,1.92,0,0,1,1.47-.89c.37,0,.52.32.43.69A2,2,0,0,1,66.59,45c.42.08.46.53.11,1l.16-.08c.76-.34,1.51-.38,1.68-.1.07.11,0,.25-.08.4a1.31,1.31,0,0,1,.64-.13c.45.06.51.54.14,1.07a1,1,0,0,1,.65.46.78.78,0,0,1,0,.89c.35,0,.59.11.62.3s-.33.58-.87.82a.61.61,0,0,1,.52.18c.17.28-.31.79-1.08,1.14l-.15.06c.13.05.22.13.23.24,0,.34-.59.79-1.42,1h0c.18.06.3.16.29.3,0,.33-.65.75-1.46.92l-.36.06c.28.2.35.46.14.7a1.82,1.82,0,0,1-1.44.37,2,2,0,0,1-1.24.85,3.85,3.85,0,0,1-.81.16.41.41,0,0,1,0,.11,1.48,1.48,0,0,1-1.16,1.13.66.66,0,0,1-.56-.14,1,1,0,0,1-.07.15,1.76,1.76,0,0,1-1.37.88.54.54,0,0,1-.27-.09.68.68,0,0,1-.32.42,1.35,1.35,0,0,1-1.21,0,.31.31,0,0,1-.06.16,2,2,0,0,1-1.71.48,1.87,1.87,0,0,1-.45-.1,1.26,1.26,0,0,1-.93,1.08.81.81,0,0,1-.85-.27.7.7,0,0,1-.29.33A1.39,1.39,0,0,1,52,59.65h0a.72.72,0,0,1-.27.28,1.47,1.47,0,0,1-1.59-.14h0a.72.72,0,0,1-.23.23,1.47,1.47,0,0,1-1.56-.11.77.77,0,0,1-.3-.46,1.66,1.66,0,0,1-1.39.27c-.24-.16-.11-.51.27-.87h0a3.44,3.44,0,0,1-.56.09C45.55,59,45,58.75,45.11,58.39Z"/><path class="cls-6" d="M43.66,51.39a.82.82,0,0,1,.14-.26,1.94,1.94,0,0,1-.08-1.59,2.28,2.28,0,0,1,.38-.71,2.3,2.3,0,0,1-.34-.81,1.6,1.6,0,0,1,.42-1.76,1.25,1.25,0,0,1-.3-1.37c.25-.42.91-.44,1.53-.07l0-.08-.09-.2c-.33-.87-.19-1.76.32-2a.69.69,0,0,1,.32,0,1.71,1.71,0,0,1,1.17-1.09,2.05,2.05,0,0,1,.87-.1,1.5,1.5,0,0,1,0-.29c.16-.87.71-1.48,1.23-1.35a.31.31,0,0,1,.13.06,1.36,1.36,0,0,1,1.51-.4,1.93,1.93,0,0,1,.55.23s0-.07,0-.11c-.07-1,.32-1.74.88-1.77a.69.69,0,0,1,.39.1,1.46,1.46,0,0,1,1.65-.35,2.12,2.12,0,0,1,.77.42c.22-.83.79-1.37,1.29-1.21a1.16,1.16,0,0,1,.62,1.08l0-.14c.26-.83.87-1.34,1.37-1.15a.75.75,0,0,1,.34.32,1.51,1.51,0,0,1,1.42-.06,2.1,2.1,0,0,1,.74.5c.28-.72.82-1.17,1.29-1s.69.83.59,1.59h0c.41-.76,1.09-1.15,1.56-.88a1.32,1.32,0,0,1,.4,1.42c.48-.7,1.2-1,1.64-.66s.44,1.14,0,1.88l.17-.07c.8-.24,1.57,0,1.72.6a.92.92,0,0,1-.11.68.72.72,0,0,1,.66.06c.46.32.49,1.18.08,1.94a2.29,2.29,0,0,1,.64,1.12,2.06,2.06,0,0,1-.12,1.54,1,1,0,0,1,.62.82c0,.47-.37.87-1,1a.9.9,0,0,1,.52.56c.17.58-.36,1.25-1.17,1.51l-.16,0a.93.93,0,0,1,.23.53c0,.62-.66,1.13-1.52,1.15h0a.92.92,0,0,1,.28.66c0,.59-.72,1-1.56,1a2.2,2.2,0,0,1-.37-.07,1.22,1.22,0,0,1,.09,1.3c-.28.39-.9.37-1.48,0a1.49,1.49,0,0,1-1.33.91,2.09,2.09,0,0,1-.84-.09,1.5,1.5,0,0,1,0,.2c-.15.92-.71,1.57-1.26,1.45a.86.86,0,0,1-.55-.51l-.09.22c-.34.77-1,1.18-1.45.93a.63.63,0,0,1-.27-.29.78.78,0,0,1-.36.58c-.36.21-.86,0-1.23-.52a.73.73,0,0,1-.08.25c-.26.5-1.06.52-1.78,0a2.38,2.38,0,0,1-.45-.38c-.07.85-.5,1.49-1,1.47s-.68-.36-.85-.86a.77.77,0,0,1-.32.44c-.46.26-1.15-.16-1.55-1h0a.73.73,0,0,1-.3.38c-.48.27-1.2-.17-1.61-1h0a.71.71,0,0,1-.25.29c-.46.28-1.17-.12-1.58-.91a2.41,2.41,0,0,1-.29-1,1.07,1.07,0,0,1-1.43-.16A1.25,1.25,0,0,1,45.48,53v0a2,2,0,0,1-.58-.09C44.07,52.64,43.52,52,43.66,51.39Z"/><path class="cls-4" d="M48.54,46.21h0a1.08,1.08,0,0,1-.11-.18c-.39-.78-.33-1.62.12-1.88a.77.77,0,0,1,.79.08c-.3-.69-.25-1.41.15-1.66a.69.69,0,0,1,.64,0,1.78,1.78,0,0,1,.71-1,2.12,2.12,0,0,1,.61-.29.79.79,0,0,1,0-.43c.14-.55.87-.79,1.64-.55a2.15,2.15,0,0,1,.46.21,2.52,2.52,0,0,1,.1-.46c.26-.78.85-1.26,1.31-1.06h0s0-.05,0-.07a.8.8,0,0,1,.33-.46.75.75,0,0,1,.46-.45.81.81,0,0,1,.76.32l.11,0a2,2,0,0,1,.73.39c.21-.78.75-1.29,1.22-1.14a1.1,1.1,0,0,1,.58,1,.65.65,0,0,1,0-.13c.24-.79.82-1.27,1.29-1.09a.78.78,0,0,1,.37.39,1.47,1.47,0,0,1,1.29,0,2.08,2.08,0,0,1,.83.63c.28-.48.69-.74,1.06-.61s.66.82.54,1.56c.38-.76,1-1.15,1.5-.88s.54,1.09.21,1.86a.9.9,0,0,1,1.08-.13c.44.33.42,1.19,0,1.92a.76.76,0,0,1-.08.11c.72-.18,1.4.07,1.54.58A1.13,1.13,0,0,1,68.2,44a1.56,1.56,0,0,1,0,1.81,2,2,0,0,1-.54.64,3.35,3.35,0,0,1,.14.38c.22.85,0,1.65-.5,1.79h-.1c0,.54-.56,1-1.31,1,.1.53-.38,1.13-1.12,1.36a2,2,0,0,1-.47.08,1.44,1.44,0,0,1-1.41.86l-.27,0c-.05.54-.69.92-1.45.86a2.11,2.11,0,0,1-.45-.09.92.92,0,0,1-.1.72c-.32.43-1.09.32-1.71-.23l-.06-.06a1.57,1.57,0,0,1-1.08.52,1.72,1.72,0,0,1-1.06-.22c-.2.71-.66,1.18-1.12,1.08s-.75-.74-.71-1.49c0,0,0,.08,0,.13-.32.72-.94,1.11-1.37.87a.89.89,0,0,1-.39-.73.43.43,0,0,1-.16.14c-.43.24-1.06-.16-1.42-.89,0-.1-.08-.2-.11-.3a1.69,1.69,0,0,1-1.07-.3,2.07,2.07,0,0,1-.76-.87c-.5-.06-.9-.79-.89-1.65a2.68,2.68,0,0,1,.15-.84,2.84,2.84,0,0,1-.37-.54C48.05,47.28,48.11,46.47,48.54,46.21Z"/><path class="cls-7" d="M57.34,48.71c-.58-1.45.77-3.45,3-4.45s4.5-.64,5.07.81-.77,3.45-3,4.45S57.91,50.16,57.34,48.71Z"/><path class="cls-8" d="M71,41.08c-1.74-2-8.06-7.94-13.84-6.52S42.29,41.11,42.42,51.72c.09,7.57,1.84,3.72,5.71.9S61,43.46,67.29,43.06,71,41.08,71,41.08Z"/><path class="cls-9" d="M43.5,55.33a6.23,6.23,0,0,0,2-1.48,26.45,26.45,0,0,1,2.35-2c7.91-5.77,14.17-9,18.59-9.55.25,0,.5-.06.75-.08.57,0,1.1-.08,1.56-.14,2.18-.28,2.34-.73,2.34-.73a.87.87,0,0,0-.33-.35l0,0,0,0c-.27-.3-6.6-7.34-12.7-6.55a5,5,0,0,0-.79.15c-1.5.36-14.62,4-14.47,16.76,0,2.28.21,3.61.56,4A.24.24,0,0,0,43.5,55.33Z"/><path class="cls-10" d="M57.17,34.56C63,33.14,69.27,39.12,71,41.08l.17.12a14.61,14.61,0,0,1-2.39,0c-6-.39-14.72,3.16-18.66,5.73S42.8,50,43.27,46.24C45.64,39.3,52.49,35.72,57.17,34.56Z"/><g class="cls-11"><path class="cls-7" d="M59.14,35.58c-.58-.38-1.18-.73-1.78-1.06l.59-.1a28.56,28.56,0,0,1,9.25,8.65l-.33,0A28.32,28.32,0,0,0,59.14,35.58Z"/><path class="cls-7" d="M61.13,44.74a28.13,28.13,0,0,0-2.91-3,24.81,24.81,0,0,0-2.45-1.91,27.58,27.58,0,0,0-5.12-2.51c.28-.18.57-.35.86-.51a14.34,14.34,0,0,1,2.1,1,21.37,21.37,0,0,1,5,3.44,24.19,24.19,0,0,1,2.84,3l.16.21-.51.22Z"/><path class="cls-7" d="M63.58,43.83a32.11,32.11,0,0,0-5.1-5.06,26.35,26.35,0,0,0-3.14-2.14c-.57-.3-1.16-.58-1.75-.84.38-.17.76-.32,1.14-.46.28.14.56.27.83.42a24.62,24.62,0,0,1,3.21,2.15,27.47,27.47,0,0,1,5.43,5.74Z"/><path class="cls-7" d="M62.57,35a17.28,17.28,0,0,1,3.32,1.69,33.44,33.44,0,0,1,4.79,5.8,4,4,0,0,1-.63.18l-.19-.27A41.81,41.81,0,0,0,62.57,35Z"/><path class="cls-7" d="M42.57,49.26a11.78,11.78,0,0,1,4.09,1.13,20,20,0,0,1,2.47,1.5l-.24.18a13.09,13.09,0,0,0-6.42-1.79C42.49,49.93,42.52,49.59,42.57,49.26Z"/><path class="cls-7" d="M42.75,48.18a13.23,13.23,0,0,1,.44-1.7,14.83,14.83,0,0,1,8.48,3.65l-.31.21C48.93,48.64,45.93,48.15,42.75,48.18Z"/><path class="cls-7" d="M42.45,52.8c0-.15,0-.3,0-.46a14.34,14.34,0,0,1,4.23,1.46L46.4,54A12.54,12.54,0,0,0,42.45,52.8Z"/><path class="cls-7" d="M56.22,43.36a21.15,21.15,0,0,0-8.29-4c.37-.33.75-.64,1.13-.93a17.24,17.24,0,0,1,8.76,5.11,16.36,16.36,0,0,1,1.61,2l-.55.28A22.68,22.68,0,0,0,56.22,43.36Z"/><path class="cls-7" d="M43.94,44.59c.16-.32.32-.64.5-.94A14.22,14.22,0,0,1,54.6,48.24l-.66.41A17.25,17.25,0,0,0,43.94,44.59Z"/><path class="cls-7" d="M45.64,41.83c.18-.23.35-.45.54-.66A17.36,17.36,0,0,1,56.74,47l-.36.2A18.85,18.85,0,0,0,45.64,41.83Z"/></g><path class="cls-7" d="M50.76,38.19c-.18-.68,1.72-1.84,4.24-2.61s4.72-.83,4.9-.16-2,.62-4.57,1.38S50.94,38.86,50.76,38.19Z"/><path class="cls-7" d="M43.77,49.1c-.55-.38-.13-2.18.93-4s2.36-3,2.9-2.64S46,43.61,45.68,45.77C45.15,49.48,44.31,49.48,43.77,49.1Z"/><path class="cls-2" d="M59.49,48.26C59.77,47.81,33.59,29.63,1,7.64L0,9.26C32.57,31.24,59.21,48.7,59.49,48.26Z"/><path class="cls-3" d="M1,7.64,0,9.26c6.27,4.23,12.32,8.29,18,12.1l1-1.54C13.32,16,7.28,11.88,1,7.64Z"/><path class="cls-4" d="M58.75,47.45C58.81,47.37,32.89,29.66.86,7.89l-.19.29C32.7,30,58.7,47.53,58.75,47.45Z"/></g></g></g></svg>