<?xml version="1.0" encoding="UTF-8"?>
<svg xmlns="http://www.w3.org/2000/svg" xmlns:xlink="http://www.w3.org/1999/xlink" viewBox="0 0 40 40" width="40px" height="40px">
<g id="surface90821073">
<path style=" stroke:none;fill-rule:nonzero;fill:rgb(69.01961%,27.450982%,28.627452%);fill-opacity:1;" d="M 20 38.5 C 9.800781 38.5 1.5 30.199219 1.5 20 C 1.5 9.800781 9.800781 1.5 20 1.5 C 30.199219 1.5 38.5 9.800781 38.5 20 C 38.5 30.199219 30.199219 38.5 20 38.5 Z M 20 38.5 "/>
<path style=" stroke:none;fill-rule:nonzero;fill:rgb(69.01961%,27.450982%,28.627452%);fill-opacity:1;" d="M 20 2 C 29.898438 2 38 10.101562 38 20 C 38 29.898438 29.898438 38 20 38 C 10.101562 38 2 29.898438 2 20 C 2 10.101562 10.101562 2 20 2 M 20 1 C 9.5 1 1 9.5 1 20 C 1 30.5 9.5 39 20 39 C 30.5 39 39 30.5 39 20 C 39 9.5 30.5 1 20 1 Z M 20 1 "/>
<path style="fill:none;stroke-width:12.9;stroke-linecap:butt;stroke-linejoin:miter;stroke:rgb(100%,100%,100%);stroke-opacity:1;stroke-miterlimit:10;" d="M 48.156641 86.436719 L 73.1 111.363281 L 129.856641 54.606641 " transform="matrix(0.232558,0,0,0.232558,0,0)"/>
</g>
</svg>
