<svg xmlns="http://www.w3.org/2000/svg" viewBox="0 0 216.66 64.73"><defs><style>.cls-1{isolation:isolate;}.cls-2{fill:#1e0f00;}.cls-3{fill:#b8b5aa;}.cls-15,.cls-23,.cls-3{mix-blend-mode:multiply;}.cls-4{fill:#ece2ac;}.cls-5{fill:#fcfbe6;}.cls-20,.cls-6{fill:#fff;}.cls-7{fill:#e61300;}.cls-8{fill:#f4493a;}.cls-9{fill:#ff685a;}.cls-10,.cls-20{opacity:0.3;mix-blend-mode:color-dodge;}.cls-11,.cls-15{fill:#fde471;}.cls-12{fill:#fdd459;}.cls-13{fill:#fdbb42;}.cls-14{fill:#fe9;}.cls-16{fill:#030800;}.cls-17{fill:#113000;}.cls-18{fill:#9cbf1d;}.cls-19{fill:#556810;}.cls-21{fill:#de4900;}.cls-22{fill:#ff6a21;}.cls-24{fill:#ff9447;}.cls-25{fill:#e3e1ba;}.cls-26{font-size:50px;font-family:RoundedMplus1c-Regular, "Rounded Mplus 1c";}.cls-27{font-size:14px;font-family:RoundedMplus1c-Light, "Rounded Mplus 1c";font-weight:300;}.cls-28{letter-spacing:-0.01em;}.cls-29{letter-spacing:-0.02em;}</style></defs><title>Logo</title><g class="cls-1"><g id="Capa_2" data-name="Capa 2"><g id="Layer_1" data-name="Layer 1"><rect class="cls-2" x="80.27" y="2.65" width="3.75" height="61.52" rx="1.55"/><path class="cls-3" d="M70.8,25.25a.55.55,0,0,0-.14-.17c.22-.17.24-.51,0-.87a1.71,1.71,0,0,0-.4-.45.85.85,0,0,0,.31-.41.81.81,0,0,0-.49-1c.36-.2.48-.49.25-.72a1.78,1.78,0,0,0-1.5-.23l-.06-.06.09-.1a.74.74,0,0,0-.39-1.15,1.55,1.55,0,0,0-.31-.06,2.06,2.06,0,0,0-1.2-.76,3.63,3.63,0,0,0-.86-.17.94.94,0,0,0,0-.16A1.48,1.48,0,0,0,64.82,18l-.13,0a2.3,2.3,0,0,0-1.5-.42,2.23,2.23,0,0,0-.54.06s0,0,0-.06a1.09,1.09,0,0,0-.94-1.1.81.81,0,0,0-.38,0,2.48,2.48,0,0,0-1.64-.41,2.52,2.52,0,0,0-.74.13,1.56,1.56,0,0,0-1.32-.84.55.55,0,0,0-.57.53.36.36,0,0,0,0-.09A1.64,1.64,0,0,0,55.64,15a.55.55,0,0,0-.33.13,2.53,2.53,0,0,0-1.4-.21,1.94,1.94,0,0,0-.72.18,1.61,1.61,0,0,0-1.3-.73.57.57,0,0,0-.52.82h0a1.89,1.89,0,0,0-1.57-.69c-.36.07-.48.37-.34.74a2,2,0,0,0-1.64-.58c-.42.13-.4.58,0,1l-.18-.06c-.79-.23-1.54-.18-1.67.11a.38.38,0,0,0,.13.4,1.15,1.15,0,0,0-.65,0c-.44.12-.44.59,0,1.07a1,1,0,0,0-.6.54.81.81,0,0,0,.17.88c-.35.06-.57.19-.58.38s.4.53,1,.7c-.25,0-.43.11-.49.25-.14.3.41.74,1.22,1l.15,0a.33.33,0,0,0-.2.27c0,.34.69.71,1.54.83h0c-.17.09-.27.2-.25.34,0,.33.75.66,1.56.73h.37c-.25.23-.29.5,0,.71a1.81,1.81,0,0,0,1.46.19,2.08,2.08,0,0,0,1.35.68,3.4,3.4,0,0,0,.82.05.53.53,0,0,0,0,.12,1.49,1.49,0,0,0,1.29,1,.7.7,0,0,0,.53-.21l.09.13a1.75,1.75,0,0,0,1.47.71.49.49,0,0,0,.26-.13.63.63,0,0,0,.38.37,1.3,1.3,0,0,0,1.19-.13.55.55,0,0,0,.08.15A2,2,0,0,0,60,27a1.94,1.94,0,0,0,.43-.16,1.25,1.25,0,0,0,1.06.95.8.8,0,0,0,.81-.37.71.71,0,0,0,.34.29,1.41,1.41,0,0,0,1.49-.34h0a.72.72,0,0,0,.31.25A1.44,1.44,0,0,0,66,27.27h0a.88.88,0,0,0,.26.19,1.45,1.45,0,0,0,1.53-.3.76.76,0,0,0,.24-.5,1.64,1.64,0,0,0,1.42.09c.21-.18,0-.52-.38-.83h0a3.54,3.54,0,0,0,.57,0C70.44,25.89,71,25.59,70.8,25.25Z"/><path class="cls-4" d="M71.35,18.12a1,1,0,0,0-.16-.24,2,2,0,0,0-.13-1.58,2.23,2.23,0,0,0-.47-.66,2.42,2.42,0,0,0,.24-.85,1.62,1.62,0,0,0-.65-1.7,1.25,1.25,0,0,0,.13-1.39c-.31-.39-1-.32-1.52.13l-.06-.08c0-.07,0-.14.07-.21.22-.91,0-1.77-.57-1.93a.69.69,0,0,0-.32,0,1.71,1.71,0,0,0-1.31-.94,2.1,2.1,0,0,0-.87,0,2.86,2.86,0,0,0-.07-.28c-.27-.85-.89-1.38-1.39-1.19l-.12.07a1.38,1.38,0,0,0-1.55-.2,2.21,2.21,0,0,0-.52.3.41.41,0,0,0,0-.11c0-1-.54-1.68-1.1-1.65a.68.68,0,0,0-.37.16,1.46,1.46,0,0,0-1.68-.14,2.12,2.12,0,0,0-.71.51c-.33-.79-1-1.25-1.44-1a1.15,1.15,0,0,0-.47,1.15l-.05-.14c-.37-.79-1-1.22-1.5-1a.65.65,0,0,0-.3.35A1.53,1.53,0,0,0,53,5.66a1.93,1.93,0,0,0-.67.59c-.37-.69-1-1.06-1.41-.83s-.58.91-.38,1.65h0c-.5-.71-1.22-1-1.66-.68a1.34,1.34,0,0,0-.21,1.46C48.13,7.22,47.38,7,47,7.41s-.3,1.19.19,1.87l-.18,0c-.82-.14-1.55.22-1.63.81a.86.86,0,0,0,.19.66.73.73,0,0,0-.65.14c-.41.37-.33,1.23.18,1.94a2.21,2.21,0,0,0-.5,1.19,2.09,2.09,0,0,0,.31,1.51,1,1,0,0,0-.51.9,1.17,1.17,0,0,0,1.08.91.88.88,0,0,0-.45.62c-.09.59.52,1.19,1.36,1.34l.16,0a.93.93,0,0,0-.16.55c.06.61.8,1,1.65,1h0a.92.92,0,0,0-.2.69c.1.59.85.92,1.66.75a2.29,2.29,0,0,0,.37-.12A1.23,1.23,0,0,0,50,23.4c.33.34.94.24,1.47-.2a1.49,1.49,0,0,0,1.43.74,1.91,1.91,0,0,0,.82-.2c0,.06,0,.13,0,.19.26.9.9,1.47,1.43,1.29a.88.88,0,0,0,.49-.58,2.12,2.12,0,0,0,.11.21c.44.72,1.14,1,1.56.73a.77.77,0,0,0,.24-.32.79.79,0,0,0,.42.54c.39.15.85-.14,1.16-.68a.6.6,0,0,0,.1.23c.33.47,1.13.39,1.78-.16a3.16,3.16,0,0,0,.39-.44c.18.83.69,1.41,1.2,1.33s.63-.45.74-1a.77.77,0,0,0,.37.4c.49.2,1.13-.31,1.41-1.14h0a.7.7,0,0,0,.34.34c.51.21,1.17-.32,1.47-1.19h0a.8.8,0,0,0,.29.26c.49.22,1.14-.27,1.45-1.1a2.39,2.39,0,0,0,.16-1c.62.22,1.21.09,1.4-.35a1.23,1.23,0,0,0-.5-1.35l0,0a2.1,2.1,0,0,0,.56-.17C71.1,19.41,71.56,18.68,71.35,18.12Z"/><path class="cls-5" d="M65.85,13.61h0a1.19,1.19,0,0,0,.08-.2c.28-.82.12-1.65-.36-1.85a.79.79,0,0,0-.78.18c.22-.72.08-1.43-.35-1.62a.68.68,0,0,0-.64.08A1.72,1.72,0,0,0,63,9.26a1.92,1.92,0,0,0-.64-.21.82.82,0,0,0,0-.44c-.2-.52-1-.67-1.69-.33a1.57,1.57,0,0,0-.43.27A2.69,2.69,0,0,0,60,8.1c-.36-.74-1-1.14-1.44-.89l0,0a.17.17,0,0,0,0-.07.78.78,0,0,0-.39-.41.74.74,0,0,0-.52-.39.8.8,0,0,0-.71.41l-.1,0a2.15,2.15,0,0,0-.67.49c-.31-.75-.91-1.19-1.36-1a1.1,1.1,0,0,0-.45,1.09.69.69,0,0,0,0-.13c-.34-.75-1-1.16-1.42-.91a.72.72,0,0,0-.32.43A1.47,1.47,0,0,0,51.26,7a1.86,1.86,0,0,0-.74.73c-.34-.44-.78-.65-1.13-.48s-.55.9-.34,1.62c-.47-.7-1.18-1-1.6-.68s-.4,1.15,0,1.87a.89.89,0,0,0-1.09,0c-.39.38-.27,1.24.28,1.9l.08.09c-.73-.08-1.37.25-1.45.78a1.14,1.14,0,0,0,.77,1.08,1.55,1.55,0,0,0,.24,1.79,2.19,2.19,0,0,0,.62.57,3.82,3.82,0,0,0-.08.39c-.11.87.21,1.64.72,1.72h.09c.06.54.69.91,1.44.87,0,.54.52,1.07,1.29,1.2a1.89,1.89,0,0,0,.47,0,1.43,1.43,0,0,0,1.5.67l.27-.05c.12.52.8.82,1.56.66a1.5,1.5,0,0,0,.42-.15.9.9,0,0,0,.2.7c.37.39,1.12.19,1.66-.44l.05-.07a1.66,1.66,0,0,0,1.14.39,1.72,1.72,0,0,0,1-.36c.29.68.82,1.08,1.26.93s.64-.83.51-1.57l.06.12c.42.68,1.08,1,1.48.69a.91.91,0,0,0,.29-.77.57.57,0,0,0,.18.12c.45.18,1-.3,1.29-1.07a1.55,1.55,0,0,0,.07-.31,1.66,1.66,0,0,0,1-.44,2.06,2.06,0,0,0,.64-.95c.49-.13.79-.89.67-1.76a2.35,2.35,0,0,0-.26-.8,2.33,2.33,0,0,0,.3-.59C66.47,14.6,66.32,13.8,65.85,13.61Z"/><path class="cls-6" d="M57.45,17.2c.38-1.52-1.21-3.32-3.55-4S49.35,13.1,49,14.62s1.21,3.32,3.55,4S57.07,18.71,57.45,17.2Z"/><path class="cls-7" d="M42.91,11.37c1.48-2.17,7-8.9,12.91-8.22S71.4,7.75,72.63,18.28c.87,7.53-1.36,3.93-5.55,1.63s-13.93-7.45-20.22-7S42.91,11.37,42.91,11.37Z"/><path class="cls-8" d="M72,22a6,6,0,0,1-2.18-1.21,28.6,28.6,0,0,0-2.59-1.65C58.66,14.42,52,12,47.58,12l-.74,0c-.58,0-1.11.06-1.57.06-2.2,0-2.41-.43-2.41-.43s.14-.28.27-.39l0,0,0,0C43.44,10.88,48.82,3.1,55,3.1a7.26,7.26,0,0,1,.8,0c1.53.18,15,2.08,16.48,14.79.26,2.27.25,3.61-.05,4A.23.23,0,0,1,72,22Z"/><path class="cls-9" d="M55.82,3.15c-5.92-.68-11.43,6-12.91,8.22l-.14.14a14.85,14.85,0,0,0,2.36-.31c5.94-1.15,15,1.26,19.24,3.31S72,16.61,71.09,13C67.85,6.37,60.61,3.69,55.82,3.15Z"/><g class="cls-10"><path class="cls-6" d="M54,4.41c.53-.45,1.08-.88,1.63-1.28q-.3,0-.6,0a28.71,28.71,0,0,0-8.08,9.76h.34A28.15,28.15,0,0,1,54,4.41Z"/><path class="cls-6" d="M53.18,13.75a28,28,0,0,1,2.5-3.32,25.5,25.5,0,0,1,2.2-2.21,27.77,27.77,0,0,1,4.76-3.14l-.92-.4a15.77,15.77,0,0,0-1.95,1.26A20.73,20.73,0,0,0,57.35,7.8,20.33,20.33,0,0,0,55.2,10a24.76,24.76,0,0,0-2.43,3.38l-.13.23.53.15Z"/><path class="cls-6" d="M50.63,13.15a32.46,32.46,0,0,1,4.42-5.67A26.84,26.84,0,0,1,57.89,5c.53-.38,1.08-.73,1.63-1.06-.4-.12-.8-.22-1.19-.32l-.77.53a24.73,24.73,0,0,0-2.91,2.54A27.73,27.73,0,0,0,50,13Z"/><path class="cls-6" d="M50.51,4.31a17.54,17.54,0,0,0-3.07,2.1,33.45,33.45,0,0,0-4,6.36c.18,0,.4.07.65.1.05-.1.09-.2.15-.3A42,42,0,0,1,50.51,4.31Z"/><path class="cls-6" d="M72.17,15.86a11.68,11.68,0,0,0-3.91,1.65A17.17,17.17,0,0,0,66,19.32l.27.14a13.06,13.06,0,0,1,6.14-2.6C72.33,16.52,72.25,16.19,72.17,15.86Z"/><path class="cls-6" d="M71.85,14.81a16.58,16.58,0,0,0-.65-1.62,14.91,14.91,0,0,0-8,4.69l.34.18C65.78,16.06,68.69,15.19,71.85,14.81Z"/><path class="cls-6" d="M72.74,19.37c0-.15,0-.3,0-.46a14.29,14.29,0,0,0-4,2l.29.2A12.18,12.18,0,0,1,72.74,19.37Z"/><path class="cls-6" d="M57.88,11.75a21.14,21.14,0,0,1,7.71-5c-.41-.28-.82-.54-1.24-.78a17.27,17.27,0,0,0-8,6.18A15.52,15.52,0,0,0,55,14.33l.57.2A23.7,23.7,0,0,1,57.88,11.75Z"/><path class="cls-6" d="M70.21,11.41c-.19-.3-.4-.59-.61-.87a14.23,14.23,0,0,0-9.5,5.84l.71.33A17.21,17.21,0,0,1,70.21,11.41Z"/><path class="cls-6" d="M68.17,8.89c-.2-.2-.4-.4-.61-.59a17.49,17.49,0,0,0-9.75,7.09l.39.17A18.79,18.79,0,0,1,68.17,8.89Z"/></g><path class="cls-6" d="M62.63,5.93c.1-.69-1.93-1.61-4.53-2s-4.79-.23-4.89.46,2.11.36,4.71.79S62.54,6.62,62.63,5.93Z"/><path class="cls-6" d="M71,15.86c.49-.45-.16-2.18-1.44-3.87S66.8,9.3,66.31,9.75s1.74.95,2.32,3.05C69.63,16.42,70.47,16.31,71,15.86Z"/><path class="cls-3" d="M31.11,25.21A.53.53,0,0,0,31,25c.25-.18.27-.53,0-.91a1.83,1.83,0,0,0-.46-.46,1,1,0,0,0,.36-.43.83.83,0,0,0-.56-1.08c.42-.22.55-.52.29-.76a2.27,2.27,0,0,0-1.73-.24l-.06,0,.1-.11a.75.75,0,0,0-.44-1.2,1.43,1.43,0,0,0-.36-.06,2.39,2.39,0,0,0-1.38-.8,4.59,4.59,0,0,0-1-.17.64.64,0,0,0-.05-.17,1.64,1.64,0,0,0-1.44-.95h-.15a2.81,2.81,0,0,0-1.72-.43,2.87,2.87,0,0,0-.61.06s0,0,0-.06a1.18,1.18,0,0,0-1.07-1.15,1.08,1.08,0,0,0-.44,0,3.08,3.08,0,0,0-1.88-.43,3.76,3.76,0,0,0-.85.14A1.79,1.79,0,0,0,16,14.92a.61.61,0,0,0-.65.55l-.05-.09a1.9,1.9,0,0,0-1.59-.85.65.65,0,0,0-.37.13,3.3,3.3,0,0,0-1.61-.22,2.75,2.75,0,0,0-.82.19,1.86,1.86,0,0,0-1.5-.75.6.6,0,0,0-.59.84h0A2.29,2.29,0,0,0,7,14a.5.5,0,0,0-.39.77,2.39,2.39,0,0,0-1.88-.61c-.47.14-.45.61,0,1.09L4.6,15.2c-.91-.25-1.77-.2-1.92.11-.06.13,0,.27.15.41a1.65,1.65,0,0,0-.75-.05c-.5.12-.5.62,0,1.12a1.11,1.11,0,0,0-.68.57.78.78,0,0,0,.19.91c-.39.06-.66.2-.66.39s.46.56,1.11.74c-.28,0-.49.11-.56.25-.16.32.46.78,1.39,1l.18.05c-.14.07-.23.16-.23.27,0,.36.78.75,1.76.87h0c-.19.09-.31.2-.28.35,0,.34.85.68,1.79.75a3.1,3.1,0,0,0,.42,0c-.29.24-.33.52,0,.74a2.3,2.3,0,0,0,1.68.2,2.41,2.41,0,0,0,1.53.7,4,4,0,0,0,1,.06.53.53,0,0,0,0,.12,1.67,1.67,0,0,0,1.48,1,.8.8,0,0,0,.61-.22.71.71,0,0,0,.1.14,2.09,2.09,0,0,0,1.68.74.6.6,0,0,0,.3-.14.73.73,0,0,0,.43.39,1.62,1.62,0,0,0,1.37-.14.34.34,0,0,0,.09.15,2.76,2.76,0,0,0,2.51.11,1.38,1.38,0,0,0,1.21,1,1,1,0,0,0,.93-.38.91.91,0,0,0,.38.3,1.73,1.73,0,0,0,1.71-.35h0a.93.93,0,0,0,.36.26,1.79,1.79,0,0,0,1.77-.36h0a.79.79,0,0,0,.29.2,1.77,1.77,0,0,0,1.75-.31.8.8,0,0,0,.28-.52,2.11,2.11,0,0,0,1.62.09c.25-.19.05-.54-.43-.86h0a4.66,4.66,0,0,0,.65,0C30.7,25.88,31.29,25.56,31.11,25.21Z"/><path class="cls-4" d="M31.74,17.78a.79.79,0,0,0-.19-.26,1.88,1.88,0,0,0-.14-1.64,2.35,2.35,0,0,0-.54-.68,2.45,2.45,0,0,0,.28-.89,1.62,1.62,0,0,0-.75-1.77,1.2,1.2,0,0,0,.15-1.45c-.35-.4-1.1-.33-1.74.13l-.07-.07.08-.23c.25-.94,0-1.84-.65-2a.67.67,0,0,0-.37,0,1.93,1.93,0,0,0-1.5-1,2.52,2.52,0,0,0-1,0c0-.1,0-.2-.08-.3-.31-.88-1-1.43-1.59-1.24a.71.71,0,0,0-.15.08,1.65,1.65,0,0,0-1.77-.21,2.2,2.2,0,0,0-.59.31V6.48c-.06-1-.62-1.75-1.26-1.71a.84.84,0,0,0-.43.16,1.79,1.79,0,0,0-1.92-.14,2.38,2.38,0,0,0-.81.53c-.38-.83-1.1-1.3-1.65-1.07a1.15,1.15,0,0,0-.54,1.2l-.06-.15C14,4.48,13.27,4,12.74,4.3a.69.69,0,0,0-.34.37,1.85,1.85,0,0,0-1.63.13,2.39,2.39,0,0,0-.77.61c-.42-.71-1.1-1.1-1.6-.87S7.73,5.5,8,6.27h0c-.57-.73-1.39-1-1.89-.7A1.28,1.28,0,0,0,5.8,7.09c-.65-.66-1.51-.88-2-.47s-.33,1.24.22,2l-.21-.05c-.94-.14-1.77.24-1.86.85a.87.87,0,0,0,.22.69.89.89,0,0,0-.74.15c-.47.38-.38,1.28.2,2a2.24,2.24,0,0,0-.57,1.23A2,2,0,0,0,1.46,15,1.07,1.07,0,0,0,.87,16c.05.49.56.85,1.23,1a1,1,0,0,0-.51.65c-.1.62.6,1.24,1.56,1.4h.18a.85.85,0,0,0-.18.58c.06.64.91,1.08,1.89,1h0a.89.89,0,0,0-.22.72c.11.61,1,1,1.9.78a3.31,3.31,0,0,0,.42-.12,1.18,1.18,0,0,0,.07,1.36,1.36,1.36,0,0,0,1.69-.21,1.73,1.73,0,0,0,1.64.77,2.5,2.5,0,0,0,.94-.21c0,.07,0,.14.05.21.3.93,1,1.53,1.64,1.33a.91.91,0,0,0,.56-.6,2.53,2.53,0,0,0,.13.22c.5.75,1.3,1.09,1.79.76a.66.66,0,0,0,.26-.33.88.88,0,0,0,.5.56c.43.16,1-.15,1.32-.71a.55.55,0,0,0,.12.24c.37.49,1.28.41,2-.17a2.39,2.39,0,0,0,.45-.45c.21.86.79,1.47,1.38,1.38a1.19,1.19,0,0,0,.84-1,.82.82,0,0,0,.43.41c.56.22,1.28-.31,1.61-1.18h0a.84.84,0,0,0,.4.35c.59.22,1.34-.33,1.68-1.23v0a.7.7,0,0,0,.32.27c.56.23,1.31-.28,1.67-1.14a2.47,2.47,0,0,0,.18-1c.7.22,1.38.09,1.61-.37a1.24,1.24,0,0,0-.58-1.4l0,0a2.35,2.35,0,0,0,.64-.17C31.46,19.13,32,18.36,31.74,17.78Z"/><path class="cls-5" d="M25.45,13.08h0l.09-.2c.33-.86.14-1.72-.41-1.93a.92.92,0,0,0-.89.19c.25-.76.08-1.49-.41-1.7a.85.85,0,0,0-.72.08,1.9,1.9,0,0,0-1-1,2.15,2.15,0,0,0-.74-.22.72.72,0,0,0,0-.46c-.23-.54-1.09-.7-1.93-.34a2,2,0,0,0-.5.28,2.07,2.07,0,0,0-.18-.47c-.41-.77-1.14-1.19-1.64-.92h0s0,0,0-.07a.81.81,0,0,0-.45-.42A.84.84,0,0,0,16,5.53a.91.91,0,0,0-.81.43l-.12,0a2.39,2.39,0,0,0-.77.5c-.35-.78-1-1.23-1.55-1a1.08,1.08,0,0,0-.52,1.13,1.21,1.21,0,0,0-.05-.14c-.4-.77-1.13-1.2-1.63-.94A.8.8,0,0,0,10.2,6a1.8,1.8,0,0,0-1.46.15,2,2,0,0,0-.85.76,1.18,1.18,0,0,0-1.3-.5c-.48.22-.63.94-.38,1.69-.54-.73-1.35-1-1.84-.71s-.45,1.2,0,2a1.11,1.11,0,0,0-1.25,0c-.45.4-.31,1.29.32,2l.1.1c-.85-.09-1.58.25-1.66.81s.3.87.87,1.12a1.52,1.52,0,0,0,.28,1.87,2.28,2.28,0,0,0,.71.59,2.46,2.46,0,0,0-.1.41c-.12.9.25,1.7.83,1.78a.41.41,0,0,0,.11,0c.07.56.78.95,1.64.9,0,.57.6,1.12,1.48,1.26a2.44,2.44,0,0,0,.54,0,1.7,1.7,0,0,0,1.72.7l.3-.05c.15.54.93.85,1.79.69a2.44,2.44,0,0,0,.48-.15.88.88,0,0,0,.23.72c.43.41,1.28.2,1.9-.46,0,0,0-.05.06-.07a2.19,2.19,0,0,0,2.48,0c.33.71.93,1.13,1.43,1s.74-.86.59-1.63a.75.75,0,0,1,.07.12c.48.7,1.23,1,1.69.72a.89.89,0,0,0,.33-.81.57.57,0,0,0,.21.13c.52.19,1.18-.31,1.47-1.11a2.23,2.23,0,0,0,.09-.32,2.15,2.15,0,0,0,1.18-.46,2.12,2.12,0,0,0,.73-1c.56-.13.91-.93.77-1.82a2.45,2.45,0,0,0-.3-.85,2,2,0,0,0,.34-.6C26.16,14.11,26,13.28,25.45,13.08Z"/><path class="cls-6" d="M15.82,16.82c.44-1.58-1.38-3.46-4.06-4.2s-5.21-.07-5.64,1.51,1.38,3.46,4.06,4.2S15.39,18.4,15.82,16.82Z"/><path class="cls-11" d="M0,9.88c1-2.65,4.62-5.31,6.9-6C11.29,3.7,25.17,3.32,32,9a14.79,14.79,0,0,1,0,3.71c-1.37.36-5.88,1-8.92,5.16-4.16-1.7-16.8-5.65-22.66-4.31C.14,11.82,0,9.88,0,9.88Z"/><path class="cls-12" d="M23.08,17.89a11.73,11.73,0,0,1,2.21-2.28,7.34,7.34,0,0,0-3-2.38C15.67,9.7,3.16,9.34,0,9.88c0,0,.14,1.94.42,3.7C6.28,12.24,18.92,16.19,23.08,17.89Z"/><path class="cls-13" d="M32,12.73A14.79,14.79,0,0,0,32,9c-4.15-.54-8.57,3-9.7,4.21.85,1.55.78,4.66.78,4.66C26.12,13.77,30.63,13.09,32,12.73Z"/><path class="cls-14" d="M27.81,8.11c1.27-.38-3-2.79-7.16-3.32s-7.6.11-7.77,1.42S14.2,7.92,17.79,10C24,13.6,20.34,10.4,27.81,8.11Z"/><path class="cls-13" d="M10.38,3.79h0Z"/><path class="cls-13" d="M8.62,3.8h0Z"/><path class="cls-13" d="M32,9C26.53,4.46,16.55,3.79,10.53,3.79c6.83,0,16,.89,21.06,5a14.67,14.67,0,0,1,0,3.17l-.19,0A14.27,14.27,0,0,0,22.94,17c-3.79-1.49-13.39-4.49-19.68-4.49a15.17,15.17,0,0,0-2.48.19C.57,11.28.46,9.89.43,9.52,1.43,7,4.87,4.54,7,3.85l1.54,0-1.61,0C4.62,4.57,1,7.23,0,9.88c0,0,.14,1.94.42,3.7,5.86-1.34,18.5,2.61,22.66,4.31,3-4.12,7.55-4.8,8.92-5.16A14.79,14.79,0,0,0,32,9Z"/><path class="cls-15" d="M26.55,12.05a.56.56,0,1,0-.55.55A.55.55,0,0,0,26.55,12.05Z"/><path class="cls-15" d="M16.71,13.42a.38.38,0,0,0-.37-.37.37.37,0,0,0-.37.37.36.36,0,0,0,.37.37A.37.37,0,0,0,16.71,13.42Z"/><path class="cls-15" d="M5.36,10.94a.49.49,0,1,0-.49.49A.49.49,0,0,0,5.36,10.94Z"/><path class="cls-15" d="M19.5,13.16a.61.61,0,1,0-1.22,0,.61.61,0,0,0,1.22,0Z"/><path class="cls-15" d="M2,11.36a.46.46,0,1,0-.46.46A.47.47,0,0,0,2,11.36Z"/><path class="cls-15" d="M4,7.84c0-.16-.16-.32-.42-.36s-.49,0-.51.2.16.31.41.36S3.93,8,4,7.84Z"/><path class="cls-15" d="M8,4.68c0-.13-.14-.27-.36-.31s-.41,0-.43.17.13.27.35.3S8,4.81,8,4.68Z"/><path class="cls-15" d="M8.05,7.14c0-.14-.15-.28-.38-.33s-.45,0-.47.18.14.29.38.33S8,7.29,8.05,7.14Z"/><path class="cls-15" d="M21.42,8.34c0-.1-.11-.22-.28-.25s-.34,0-.36.14.11.22.29.25S21.4,8.45,21.42,8.34Z"/><path class="cls-15" d="M9.74,5.19c0-.08-.08-.17-.21-.19s-.26,0-.27.1.08.17.21.19S9.73,5.27,9.74,5.19Z"/><path class="cls-15" d="M18.63,10.16c0-.11-.12-.23-.31-.26S18,9.93,18,10s.11.23.3.26S18.61,10.27,18.63,10.16Z"/><path class="cls-15" d="M26.25,7.38c0-.08-.09-.17-.22-.19s-.27,0-.28.1.08.17.22.2S26.23,7.46,26.25,7.38Z"/><path class="cls-15" d="M23,6.82c0-.15-.16-.3-.4-.35s-.47,0-.49.19.15.3.39.35S23,7,23,6.82Z"/><path class="cls-15" d="M22.39,10.93c0-.18-.18-.36-.47-.41s-.55.05-.58.22.18.36.47.41S22.36,11.1,22.39,10.93Z"/><path class="cls-15" d="M25.22,9.05c0-.15-.16-.3-.4-.34s-.46,0-.49.19.15.29.4.34S25.19,9.2,25.22,9.05Z"/><path class="cls-15" d="M21.81,15.13a.64.64,0,1,0-.63.64A.64.64,0,0,0,21.81,15.13Z"/><path class="cls-15" d="M30.94,10.84a.48.48,0,1,0-.48.47A.48.48,0,0,0,30.94,10.84Z"/><path class="cls-15" d="M25,14.79a.37.37,0,1,0-.37.36A.37.37,0,0,0,25,14.79Z"/><path class="cls-16" d="M15.76,3.38C13,3.86,8.61,8.06,7.62,9.83c-.07.79-.78,9.49,1.44,13.83.4.44,5.2,2.3,7,2.15C15.3,24.12,14.21,15,15.65,11c1.07-1.55,4.45-5.18,7.84-5.81S15.76,3.38,15.76,3.38Z"/><path class="cls-17" d="M16.05,7.47c-1.85,3.14-2,3.34-4.09,2.82s-4.58-.12-1.58-2.95C13.73,4.19,17,3.3,18.69,4,19.5,4.34,17.67,4.71,16.05,7.47Z"/><path class="cls-6" d="M20.25,5.05c0-.34-1.08-.77-2.5-1s-2.61-.06-2.66.28,1.33-.25,2.58.34C19.82,5.73,20.2,5.39,20.25,5.05Z"/><path class="cls-3" d="M5.44,61.93C5.08,59.45.71,46.36,7.92,41.79s26-2.58,26.93-2.58,1.64.32,1,1.33-9.68,15-12.81,18.26C17.66,64.5,5.44,61.93,5.44,61.93Z"/><path class="cls-16" d="M3.61,61.21C3.24,58.79-1.26,45,6.16,40.54S33,38,33.93,38s2.07.32,1.46,1.31S23.15,53.9,19.92,57.11C14.32,62.66,3.61,61.21,3.61,61.21Z"/><path class="cls-4" d="M23.07,40a.59.59,0,0,0-.23,0,1.34,1.34,0,0,0-1.09-.48,1.75,1.75,0,0,0-.62.11,1.73,1.73,0,0,0-.46-.48A1.17,1.17,0,0,0,19.29,39c-.2-.42-.55-.67-.87-.59s-.58.57-.51,1.14h-.07l-.12-.12c-.51-.48-1.18-.61-1.49-.28a.58.58,0,0,0-.13.23A1.4,1.4,0,0,0,15,40a1.92,1.92,0,0,0-.33.63l-.22,0c-.66-.1-1.26.15-1.33.58v.12a1.16,1.16,0,0,0-.74,1,1.56,1.56,0,0,0,0,.48l-.07,0c-.65-.3-1.32-.21-1.52.21a.59.59,0,0,0-.05.32A1.29,1.29,0,0,0,10,44.47a1.73,1.73,0,0,0,.06.69c-.65,0-1.21.24-1.25.66a.83.83,0,0,0,.57.75H9.22c-.66,0-1.21.31-1.23.74a.56.56,0,0,0,.12.34,1.31,1.31,0,0,0-.48,1.06,1.49,1.49,0,0,0,.13.69c-.6,0-1.08.32-1.11.72s.38.74.95.86h0c-.66.11-1.14.52-1.1,1s.4.6.88.67c-.64.18-1.07.65-1,1.07s.67.64,1.31.53l-.1.11c-.42.55-.46,1.2-.11,1.46a.6.6,0,0,0,.51.1.65.65,0,0,0-.16.52c.08.43.68.67,1.34.56a1.64,1.64,0,0,0,.59.78A1.45,1.45,0,0,0,10.9,58a.74.74,0,0,0,.39.69c.32.14.73-.06,1-.45a.64.64,0,0,0,.23.54c.36.28,1,0,1.42-.5a.61.61,0,0,0,.07-.1.62.62,0,0,0,.31.31c.42.18,1-.2,1.27-.85v0A.6.6,0,0,0,16,58c.42.14.93-.28,1.14-.92a1.73,1.73,0,0,0,.07-.31.86.86,0,0,0,.89.42c.35-.12.53-.59.45-1.13a1.23,1.23,0,0,0,1.05-.77,1.7,1.7,0,0,0,.19-.66l.15,0c.69.13,1.32-.13,1.41-.57a.69.69,0,0,0-.19-.56h.18c.65-.06,1.14-.45,1.1-.86a.53.53,0,0,0-.12-.29.61.61,0,0,0,.52-.11.87.87,0,0,0,0-1.07.67.67,0,0,0,.2,0c.43-.07.7-.67.59-1.34a1.89,1.89,0,0,0-.13-.44c.61.17,1.2,0,1.34-.39a.83.83,0,0,0-.34-.87.59.59,0,0,0,.41-.13c.32-.28.24-.91-.2-1.42h0a.63.63,0,0,0,.36-.13c.34-.29.25-.95-.21-1.48h0a.58.58,0,0,0,.28-.12c.34-.27.27-.91-.15-1.43a1.7,1.7,0,0,0-.59-.47c.39-.36.53-.83.32-1.13a.9.9,0,0,0-1.09-.12v0a2.21,2.21,0,0,0,.11-.46C23.82,40.62,23.52,40,23.07,40Z"/><path class="cls-5" d="M17.92,42.32s0,0,0,0a1.13,1.13,0,0,0-.1-.13c-.43-.49-1-.67-1.36-.4a.66.66,0,0,0-.18.62c-.4-.41-.92-.56-1.22-.32a.63.63,0,0,0-.2.49,1.38,1.38,0,0,0-.94.27,1.57,1.57,0,0,0-.39.38.54.54,0,0,0-.3-.13c-.42,0-.82.44-.88,1.09a1.87,1.87,0,0,0,0,.41,1.34,1.34,0,0,0-.35,0c-.63,0-1.15.31-1.15.72v0l-.05,0a.64.64,0,0,0-.43.14.62.62,0,0,0-.46.23.65.65,0,0,0,0,.65.44.44,0,0,0,0,.1,2,2,0,0,0,0,.65c-.61-.05-1.13.23-1.17.63s.19.54.54.71H9.19c-.63,0-1.15.29-1.16.69a.61.61,0,0,0,.16.39,1.28,1.28,0,0,0-.41,1,1.52,1.52,0,0,0,.19.79c-.43.09-.74.33-.76.64s.38.72.93.82c-.65.09-1.13.49-1.08.91s.6.69,1.25.64a.8.8,0,0,0-.43.79c.1.42.71.63,1.37.48l.09,0C9,56,9,56.55,9.28,56.8a.85.85,0,0,0,1-.17,1.09,1.09,0,0,0,1.28.46,1.64,1.64,0,0,0,.62-.24,1.5,1.5,0,0,0,.23.2c.52.39,1.15.43,1.41.09l0-.07c.38.15.87-.17,1.14-.72.35.21.91,0,1.3-.5a1.12,1.12,0,0,0,.2-.33,1.21,1.21,0,0,0,1-.84,1.72,1.72,0,0,0,.07-.21c.39.1.86-.28,1.05-.88a1.53,1.53,0,0,0,.07-.36.64.64,0,0,0,.54.11c.4-.13.57-.74.37-1.35l0-.06a1.43,1.43,0,0,0,.7-.68,1.4,1.4,0,0,0,.17-.86c.56,0,1-.2,1.11-.57s-.29-.76-.83-.93h.1c.61-.05,1.08-.42,1-.81a.63.63,0,0,0-.4-.48.51.51,0,0,0,.16-.09c.29-.26.21-.84-.2-1.3-.06-.06-.11-.12-.17-.17a1.42,1.42,0,0,0,.11-.89,1.5,1.5,0,0,0-.38-.8c.11-.4-.27-.89-.89-1.11a2.06,2.06,0,0,0-.63-.1,1.5,1.5,0,0,0-.27-.42C18.82,42.23,18.24,42.06,17.92,42.32Z"/><path class="cls-18" d="M14.21,53.88c4.39-4.15,7.6-7.89,7.16-8.34s-4.35,2.54-8.74,6.7S5,60.13,5.47,60.58,9.82,58,14.21,53.88Z"/><path class="cls-19" d="M14.16,53.83c4.4-4.15,7.6-7.89,7.17-8.34S18,49.1,13.6,53.25,5,60.08,5.42,60.53,9.77,58,14.16,53.83Z"/><path class="cls-6" d="M7.48,58.44c.32-.32.51-.66.43-.74s-.42.12-.74.45-.5.66-.42.74S7.16,58.77,7.48,58.44Z"/><path class="cls-6" d="M6.18,59.81c.21-.22.33-.44.28-.49s-.28.07-.49.29-.34.44-.28.49S6,60,6.18,59.81Z"/><path class="cls-6" d="M8.37,57.07c.15-.15.23-.3.2-.34s-.19.05-.34.2-.23.31-.19.34S8.23,57.22,8.37,57.07Z"/><path class="cls-18" d="M14,52.46c4.91-3.54,8.6-6.81,8.22-7.32s-4.65,2-9.56,5.48-8.6,6.81-8.22,7.32S9.13,56,14,52.46Z"/><path class="cls-19" d="M14,52.4c4.92-3.53,8.6-6.8,8.23-7.31s-3.79,3.13-8.7,6.66-9.46,5.63-9.09,6.14S9.09,55.94,14,52.4Z"/><path class="cls-6" d="M6.76,56.09c.36-.29.59-.59.52-.68s-.43.06-.79.34-.59.59-.52.68S6.4,56.37,6.76,56.09Z"/><path class="cls-6" d="M5.28,57.26c.24-.18.39-.38.34-.45s-.28,0-.52.23-.39.39-.34.45S5,57.45,5.28,57.26Z"/><path class="cls-6" d="M7.83,54.84c.16-.13.27-.27.23-.31s-.19,0-.36.16-.27.27-.23.31S7.66,55,7.83,54.84Z"/><path class="cls-18" d="M15.22,49.62c5.27-3,9.29-5.84,9-6.38s-4.84,1.43-10.11,4.41S4.79,53.5,5.1,54,10,52.61,15.22,49.62Z"/><path class="cls-19" d="M15.18,49.57c5.27-3,9.29-5.84,9-6.39s-4.11,2.71-9.38,5.69S4.76,53.44,5.07,54,9.91,52.55,15.18,49.57Z"/><path class="cls-6" d="M7.58,52.45c.39-.25.65-.52.59-.62s-.43,0-.82.26-.66.51-.59.61S7.19,52.69,7.58,52.45Z"/><path class="cls-6" d="M6,53.46c.26-.16.43-.35.39-.41s-.28,0-.54.17-.44.34-.4.41S5.72,53.62,6,53.46Z"/><path class="cls-6" d="M8.77,51.32c.18-.11.3-.23.28-.28s-.2,0-.38.12-.3.24-.27.28S8.6,51.43,8.77,51.32Z"/><path class="cls-7" d="M28.94,44.82c-1.3-1.71-6.12-7-11.3-6.5S4,42,2.93,50.28c-.77,5.94,1.19,3.1,4.85,1.28S20,45.68,25.48,46,28.94,44.82,28.94,44.82Z"/><path class="cls-8" d="M3.47,53.22a5.67,5.67,0,0,0,1.91-1c.66-.41,1.41-.88,2.26-1.3,7.52-3.73,13.31-5.62,17.21-5.62.22,0,.44,0,.65,0,.51,0,1,0,1.38,0,1.92,0,2.1-.34,2.11-.34a.69.69,0,0,0-.25-.3l0,0,0,0c-.2-.26-4.91-6.4-10.3-6.4-.24,0-.47,0-.7,0C16.34,38.46,4.54,40,3.25,50,3,51.79,3,52.85,3.3,53.15A.2.2,0,0,0,3.47,53.22Z"/><path class="cls-9" d="M17.64,38.32c5.18-.53,10,4.79,11.3,6.5l.12.11A15.92,15.92,0,0,1,27,44.69c-5.2-.92-13.14,1-16.85,2.61S3.45,49,4.27,46.08C7.11,40.87,13.45,38.76,17.64,38.32Z"/><g class="cls-10"><path class="cls-6" d="M19.24,39.32c-.46-.36-.94-.69-1.43-1l.53,0A23.29,23.29,0,0,1,25.41,46h-.3A22.62,22.62,0,0,0,19.24,39.32Z"/><path class="cls-6" d="M20,46.7a22.69,22.69,0,0,0-2.19-2.62,21.06,21.06,0,0,0-1.92-1.75,24.79,24.79,0,0,0-4.17-2.48l.81-.31a13.49,13.49,0,0,1,1.71,1A17.27,17.27,0,0,1,16.3,42a17.13,17.13,0,0,1,1.88,1.73,19.58,19.58,0,0,1,2.13,2.68l.12.18-.47.12Z"/><path class="cls-6" d="M22.18,46.23a25.32,25.32,0,0,0-3.87-4.48,22.51,22.51,0,0,0-2.48-2c-.47-.3-.94-.57-1.43-.83.35-.1.7-.18,1-.25.23.13.45.27.67.41a20.48,20.48,0,0,1,2.55,2,22.33,22.33,0,0,1,4.08,5Z"/><path class="cls-6" d="M22.28,39.24A15.53,15.53,0,0,1,25,40.9a25.88,25.88,0,0,1,3.51,5,3.76,3.76,0,0,1-.56.08l-.13-.23A33.75,33.75,0,0,0,22.28,39.24Z"/><path class="cls-6" d="M3.33,48.37a10.67,10.67,0,0,1,3.42,1.3,16.82,16.82,0,0,1,2,1.42l-.23.12a12.16,12.16,0,0,0-5.38-2.05C3.19,48.89,3.26,48.63,3.33,48.37Z"/><path class="cls-6" d="M3.61,47.54a10.58,10.58,0,0,1,.57-1.28,13.34,13.34,0,0,1,7,3.7l-.29.14A13.54,13.54,0,0,0,3.61,47.54Z"/><path class="cls-6" d="M2.83,51.13c0-.11,0-.23,0-.36a13.11,13.11,0,0,1,3.51,1.57l-.25.15A11.89,11.89,0,0,0,2.83,51.13Z"/><path class="cls-6" d="M15.84,45.12a19,19,0,0,0-6.75-3.95c.35-.22.71-.42,1.08-.61a15,15,0,0,1,7,4.88,11.75,11.75,0,0,1,1.17,1.71l-.5.16A17.74,17.74,0,0,0,15.84,45.12Z"/><path class="cls-6" d="M5,44.85q.25-.36.54-.69a12.73,12.73,0,0,1,8.31,4.62l-.62.25A15.54,15.54,0,0,0,5,44.85Z"/><path class="cls-6" d="M6.83,42.86c.17-.16.35-.32.54-.47A15.26,15.26,0,0,1,15.89,48l-.33.12A16.76,16.76,0,0,0,6.83,42.86Z"/></g><path class="cls-6" d="M3.92,49.21c-.43-.35.4-2.07,1.85-3.84s3-2.92,3.42-2.57S8,44.23,6.56,46,4.35,49.56,3.92,49.21Z"/><path class="cls-16" d="M33.93,38c-1,0-20.34-1.93-27.77,2.52a8.07,8.07,0,0,0-3.4,4.25C4.1,42.7,5.58,41.15,7,40.66,12,38.94,17.55,42.05,19.51,47.6c1.61,4.58.24,9.39-3.07,11.9a12.63,12.63,0,0,0,3.48-2.39c3.23-3.21,14.86-16.8,15.47-17.78S34.9,38,33.93,38Z"/><path class="cls-17" d="M17.87,43.9A22.11,22.11,0,0,1,22.54,42a49.74,49.74,0,0,1,6.14-1.44c1.71-.26,3.41-.54,5.14-.69a5.22,5.22,0,0,0,.82-.14c.23-.28.38-.49.44-.58s.16-.31.1-.42-.55-.33-1.26-.33h0L33,38.33c-1.69-.12-5.21-.36-9.31-.36-6.8,0-12.08.69-15.48,2a8.72,8.72,0,0,1,1.62-.15A10.41,10.41,0,0,1,17.87,43.9Z"/><path class="cls-20" d="M12.31,39.24c0-.62,4.38-.64,6.35-.79s4.44-.39,4.49.23-2.49-.25-4.58.15C15.24,39.45,12.36,39.86,12.31,39.24Z"/><path class="cls-3" d="M72.81,58.85c.18-3.08-5.82-5.92-13.4-6.33s-13.87,1.74-14,4.82,5.82,5.92,13.4,6.34S72.64,61.93,72.81,58.85Z"/><path class="cls-16" d="M57.77,36.05c-6.76,0-12.23,2.06-12.23,4.61V56.1c0,3.68,5.47,6.65,12.23,6.65S70,59.78,70,56.1V40.66C70,38.11,64.52,36.05,57.77,36.05Z"/><path class="cls-5" d="M69.46,40.66c0-2.29-5.23-4.15-11.69-4.15s-11.7,1.86-11.7,4.15,5.24,4.15,11.7,4.15S69.46,43,69.46,40.66Z"/><path class="cls-17" d="M53.5,54c2.43-.25,1-1.7.62-2.36-1.8-1-1.48-1.39-.8-2.1.25-1.33.72-1.34-.24-1.45-.75-.71-1.08,0-.28-.83,0,0,.79.18-1.15-.36-.23,0-.22-.09.32-.57s.34-.19-1.1-.43c1-.34-2.64-1.17-3.14-1.46-1.49-.85-2-.61-1.48,7.62a33.24,33.24,0,0,0,.43,4,7.36,7.36,0,0,0,.67,2.11A20.9,20.9,0,0,0,50.1,60c2,1.56,1.75.59,3.1.66-.2.9,1.48.17,3.34.16.1-.34-2.83-1.4-3.12-1.64s2.06.34,3.83-.17A30.2,30.2,0,0,1,53,56.3C55.1,55.35,54.42,54.72,53.5,54Z"/><path class="cls-21" d="M52.75,38.36c2-.56,2.34-2,7.76-.84s4.92,1.11,2,2.64-1.41.7-6.33.56C46.73,40.44,52.75,38.36,52.75,38.36Z"/><path class="cls-22" d="M60.27,40.39a6.5,6.5,0,0,1-.72-.07A26.11,26.11,0,0,0,56.23,40c-4.76-.14-4.95-.73-4.95-.74,0-.17.71-.65,1.63-1a7.94,7.94,0,0,0,1.31-.53,5.63,5.63,0,0,1,2.86-.7,17.37,17.37,0,0,1,3.33.41,24.15,24.15,0,0,1,3.81,1,9.51,9.51,0,0,1-1.39.81l-.52.27C61.06,40.2,60.68,40.39,60.27,40.39Z"/><g class="cls-23"><path class="cls-24" d="M55,39.83a19.31,19.31,0,0,1,4.48-2.49,16.28,16.28,0,0,0-1.7-.21,14.35,14.35,0,0,0-4.17,3l-.39.43.82.07C54.39,40.34,54.71,40.08,55,39.83Z"/><path class="cls-24" d="M53.09,39A21.52,21.52,0,0,1,55,37.51l.38-.22a16.49,16.49,0,0,0-2.13.88c-.21.17-.42.33-.62.51a16.88,16.88,0,0,0-1.42,1.38,1.78,1.78,0,0,0,.47.18C52.15,39.8,52.61,39.38,53.09,39Z"/><path class="cls-24" d="M62.54,40.16c.75-.4,1.34-.69,1.71-.93A15,15,0,0,0,59.4,41C60.63,41.15,60.61,41.18,62.54,40.16Z"/><path class="cls-24" d="M62.3,37.9a16.31,16.31,0,0,0-5.72,2.83l.68,0a19.1,19.1,0,0,1,6.09-2.62Z"/></g><path class="cls-13" d="M58.49,43c-2,.57-.55,1.35-6,.29s-4.1-1.85-3.82-2c2.67-1.56,1.3-.58,6.22-.47C64.4,41,58.49,43,58.49,43Z"/><path class="cls-11" d="M56.36,42.94a19,19,0,0,1-3.79-.52c-2.87-.56-3.6-1-3.78-1.17l.09,0a4.77,4.77,0,0,1,1.75-.81,4.24,4.24,0,0,1,.75.08,20.87,20.87,0,0,0,3.49.32c3.81.08,4.72.45,4.94.59a5,5,0,0,1-1.49.77,4.26,4.26,0,0,0-1.15.51A1.5,1.5,0,0,1,56.36,42.94Z"/><g class="cls-23"><path class="cls-25" d="M65.32,43.1c0-.11-.11-.22-.3-.26s-.34,0-.36.14.11.22.29.25S65.3,43.2,65.32,43.1Z"/><path class="cls-25" d="M61.37,37.16c0-.11-.11-.22-.3-.25s-.34,0-.36.14.11.22.29.25S61.35,37.27,61.37,37.16Z"/><path class="cls-25" d="M57.28,44.43c0-.12-.12-.24-.31-.27s-.37,0-.39.15.12.23.31.26S57.26,44.54,57.28,44.43Z"/><path class="cls-25" d="M52.6,37.87c0-.12-.12-.24-.31-.27s-.37,0-.39.14.12.24.31.27S52.58,38,52.6,37.87Z"/><path class="cls-25" d="M67.14,39.21c0-.09-.09-.18-.23-.2s-.28,0-.29.11.09.17.23.19S67.12,39.29,67.14,39.21Z"/><path class="cls-25" d="M65.13,38c0-.15-.16-.31-.41-.35s-.49,0-.51.19.15.3.41.35S65.1,38.13,65.13,38Z"/><path class="cls-25" d="M50.18,40c0-.15-.16-.31-.41-.35s-.48,0-.51.19.16.3.41.35S50.15,40.1,50.18,40Z"/><path class="cls-25" d="M49.25,38.55c0-.15-.15-.31-.41-.35s-.48,0-.5.19.15.3.41.35S49.23,38.7,49.25,38.55Z"/><path class="cls-25" d="M67.16,42.05c0-.18-.19-.36-.48-.42s-.57,0-.6.23.18.36.48.41S67.13,42.22,67.16,42.05Z"/><path class="cls-25" d="M68.39,40.74c0-.15-.16-.31-.41-.35s-.47,0-.5.19.15.3.41.35S68.36,40.88,68.39,40.74Z"/><path class="cls-25" d="M50.62,43.24c0-.08-.09-.17-.23-.19s-.27,0-.29.1.09.18.23.2S50.6,43.33,50.62,43.24Z"/><path class="cls-25" d="M48,41.11c0-.14-.16-.3-.41-.34s-.48,0-.51.19.16.3.41.34S48,41.26,48,41.11Z"/></g><path class="cls-20" d="M47.62,57.08c-.75.07-.89-5.12-1.13-7.43s-.59-5.21.16-5.28-.23,2.94.3,5.37C47.79,53.64,48.36,57,47.62,57.08Z"/><path class="cls-19" d="M65,39.24c-.33-.42-1.48.86-3.35,2.26s-4.17,2-3.75,2.39c.65.52,4.33,0,6.2-1.41S66,40.5,65,39.24Z"/><path class="cls-18" d="M61.62,41.5a30.56,30.56,0,0,1-3.52,2c.8.27,3.79-.37,5.42-1.59s1.76-1.76,1-2.71C64,39.47,63,40.45,61.62,41.5Z"/><text class="cls-26" transform="translate(91.48 43)">Nobu</text><text class="cls-27" transform="translate(91.48 59.94)"><tspan class="cls-28">J</tspan><tspan x="7.1" y="0">apanese de</tspan><tspan class="cls-29" x="77.62" y="0">l</tspan><tspan x="81.48" y="0">icacies</tspan></text></g></g></g></svg>