<svg xmlns="http://www.w3.org/2000/svg" viewBox="0 0 111.83 108.66"><defs><style>.cls-1{isolation:isolate;}.cls-2{fill:#b4703d;}.cls-3{fill:#030800;}.cls-4{fill:#fcfbe6;}.cls-5{fill:#b8b5aa;}.cls-11,.cls-5{mix-blend-mode:multiply;}.cls-6{fill:#113000;}.cls-7{fill:#e61300;}.cls-8{fill:#f4493a;}.cls-13,.cls-9{opacity:0.3;mix-blend-mode:color-dodge;}.cls-10,.cls-13{fill:#fff;}.cls-12{fill:#e3e1ba;}</style></defs><title>Recurso 12</title><g class="cls-1"><g id="Capa_2" data-name="Capa 2"><g id="Layer_1" data-name="Layer 1"><path class="cls-2" d="M10.33,89.93C9.67,89.28,48.55,49,97.16,0l2.36,2.34C50.91,51.36,11,90.58,10.33,89.93Z"/><path class="cls-3" d="M97.16,0l2.36,2.34c-9.35,9.44-18.39,18.51-26.89,27l-2.25-2.23C78.81,18.55,87.8,9.44,97.16,0Z"/><path class="cls-4" d="M11.31,88.3C11.19,88.18,49.78,48.81,97.52.35L98,.78C50.22,49.24,11.43,88.42,11.31,88.3Z"/><path class="cls-5" d="M29.51,104.78c-.07-1.89-4.93-3.22-10.86-3s-10.65,2-10.58,3.85,4.94,3.22,10.86,3S29.59,106.66,29.51,104.78Z"/><path class="cls-3" d="M9.33,76.49C3.08,79.64-1,84.14.21,86.54l7.35,14.57c1.75,3.46,8.22,3.72,14.47.57s9.88-8.51,8.14-12L22.82,75.14C21.61,72.74,15.57,73.34,9.33,76.49Z"/><path class="cls-4" d="M22.33,75.39c-1.09-2.16-6.81-1.47-12.78,1.54S-.39,84.13.71,86.29s6.81,1.47,12.78-1.54S23.42,77.55,22.33,75.39Z"/><path class="cls-6" d="M13.92,95.42c2.13-1.37.14-2.08-.55-2.52-2.12-.05-2-.62-1.74-1.6-.4-1.37,0-1.6-.91-1.26-1-.31-1,.47-.65-.64,0-.05.82-.21-1.23.19-.23.08-.25,0,0-.69s.22-.33-1.22.11c.78-.8-3,.13-3.59.09C2.26,89,1.94,89.43,6.3,97a33.54,33.54,0,0,0,2.29,3.55,7.79,7.79,0,0,0,1.62,1.69,23.32,23.32,0,0,0,3.42.44c2.6.54,1.9-.25,3.17-.82.25.94,1.46-.53,3.18-1.4-.08-.37-3.3,0-3.68-.1s2.07-.63,3.46-2a29.86,29.86,0,0,1-5.17-.59C16,95.94,15.11,95.67,13.92,95.42Z"/><path class="cls-7" d="M7.33,81.52c1.08-1.27.6-2.87,5-3.61s4-.55,2.81,2.07-.6,1.24-4.11,2.81C4.24,85.84,7.33,81.52,7.33,81.52Z"/><path class="cls-8" d="M13.66,81a3.18,3.18,0,0,1-.54.17,14.39,14.39,0,0,0-2.47.88c-3.39,1.52-3.84,1-3.84,1-.12-.17.14-.94.62-1.6a5.52,5.52,0,0,0,.63-1,3.29,3.29,0,0,1,1.62-1.74,9.21,9.21,0,0,1,2.55-.74,13,13,0,0,1,3.15-.34,6.69,6.69,0,0,1-.53,1.34l-.22.47C14.11,80.55,13.94,80.88,13.66,81Z"/><g class="cls-9"><path class="cls-10" d="M9.71,82.28a14.87,14.87,0,0,1,1.8-4.21,9,9,0,0,0-1.3.38A12.82,12.82,0,0,0,8.88,83c0,.2,0,.39,0,.59l.62-.2C9.53,83,9.61,82.65,9.71,82.28Z"/><path class="cls-10" d="M7.89,82a19.35,19.35,0,0,1,.59-2.21c0-.12.1-.24.15-.37a9.67,9.67,0,0,0-1,1.68c-.06.25-.12.5-.16.75a18.11,18.11,0,0,0-.26,2,1.38,1.38,0,0,0,.42,0C7.68,83.26,7.77,82.65,7.89,82Z"/><path class="cls-10" d="M15.11,80c.32-.68.57-1.2.7-1.58A9.82,9.82,0,0,0,13.36,82C14.31,81.7,14.31,81.73,15.11,80Z"/><path class="cls-10" d="M13.75,77.68a12,12,0,0,0-2.49,5l.49-.2a13,13,0,0,1,2.86-4.91Z"/></g><g class="cls-11"><path class="cls-12" d="M14.9,83.26c0-.11-.21-.15-.4-.1s-.3.19-.27.3.21.16.4.1S14.93,83.37,14.9,83.26Z"/><path class="cls-12" d="M12.81,76.64c0-.1-.21-.15-.4-.09s-.3.18-.27.29.21.16.39.11S12.84,76.75,12.81,76.64Z"/><path class="cls-12" d="M11.33,84.83c0-.12-.22-.17-.42-.11s-.33.2-.29.32.22.16.42.1S11.36,84.94,11.33,84.83Z"/><path class="cls-12" d="M7.91,78.86c0-.12-.22-.16-.42-.1s-.32.2-.29.32.22.16.42.1S7.94,79,7.91,78.86Z"/><path class="cls-12" d="M19.49,75.1c0-.08-.16-.12-.31-.07s-.24.14-.21.23.16.12.31.08S19.52,75.19,19.49,75.1Z"/><path class="cls-12" d="M16.11,76.14c0-.16-.29-.22-.54-.14s-.43.26-.38.41.29.22.54.14S16.16,76.29,16.11,76.14Z"/><path class="cls-12" d="M6.64,85.55c0-.15-.29-.21-.55-.14s-.42.27-.38.42.29.22.55.14S6.69,85.71,6.64,85.55Z"/><path class="cls-12" d="M5.76,81.69c0-.15-.29-.22-.54-.14s-.43.26-.38.42.29.21.54.14S5.81,81.84,5.76,81.69Z"/><path class="cls-12" d="M17.51,80.35c-.05-.18-.34-.25-.64-.16s-.5.31-.45.49.34.25.64.17S17.56,80.54,17.51,80.35Z"/><path class="cls-12" d="M19.31,77.2c0-.15-.29-.21-.54-.14s-.43.26-.38.41.29.22.54.14S19.35,77.35,19.31,77.2Z"/><path class="cls-12" d="M2.88,83.73c0-.08-.16-.12-.3-.08s-.24.15-.22.24.17.12.31.08S2.91,83.82,2.88,83.73Z"/><path class="cls-12" d="M2.7,85.83c0-.16-.29-.22-.54-.14s-.42.26-.38.41.29.22.55.14S2.75,86,2.7,85.83Z"/></g><path class="cls-13" d="M9.94,101.06c-.66.41-3.25-4.41-4.57-6.48s-3-4.64-2.36-5.06,1.18,2.88,2.83,4.93C8.47,97.74,10.6,100.64,9.94,101.06Z"/><path class="cls-2" d="M14.4,93.07c-.59-.71,42.09-36.93,95.31-80.9l2.12,2.57C58.6,58.71,15,93.78,14.4,93.07Z"/><path class="cls-3" d="M109.71,12.17l2.12,2.57C101.58,23.21,91.69,31.34,82.4,39l-2-2.44C89.61,28.82,99.47,20.64,109.71,12.17Z"/><path class="cls-4" d="M15.53,91.55c-.11-.14,42.2-35.5,94.5-79l.39.48C58.12,56.53,15.64,91.68,15.53,91.55Z"/></g></g></g></svg>