<svg xmlns="http://www.w3.org/2000/svg" viewBox="0 0 65.76 48.53"><defs><style>.cls-1{isolation:isolate;}.cls-2{fill:#b8b5aa;}.cls-2,.cls-9{mix-blend-mode:multiply;}.cls-3{fill:#ece2ac;}.cls-4{fill:#fcfbe6;}.cls-5{fill:#fff;}.cls-6{fill:#de4900;}.cls-7{fill:#ff6a21;}.cls-8{fill:#ff9447;}</style></defs><title>Recurso 3</title><g class="cls-1"><g id="Capa_2" data-name="Capa 2"><g id="Layer_1" data-name="Layer 1"><path class="cls-2" d="M60.07,43.51a1,1,0,0,0-.3-.33c.46-.34.51-1,0-1.72a3.46,3.46,0,0,0-.87-.88,1.75,1.75,0,0,0,.68-.8,1.57,1.57,0,0,0-1-2.05c.78-.41,1-1,.54-1.43a4.21,4.21,0,0,0-3.26-.45l-.11-.11a1.71,1.71,0,0,0,.18-.2,1.41,1.41,0,0,0-.83-2.26,2.62,2.62,0,0,0-.68-.12,4.52,4.52,0,0,0-2.6-1.51A9.59,9.59,0,0,0,50,31.33a1.46,1.46,0,0,0-.1-.32,3.14,3.14,0,0,0-2.72-1.8,1.36,1.36,0,0,0-.29,0,5.28,5.28,0,0,0-3.24-.82,5.79,5.79,0,0,0-1.16.11s0-.07,0-.11a2.23,2.23,0,0,0-2-2.18,2.61,2.61,0,0,0-.84,0,5.8,5.8,0,0,0-3.54-.8,5.81,5.81,0,0,0-1.6.26,3.45,3.45,0,0,0-2.86-1.65,1.15,1.15,0,0,0-1.23,1,.91.91,0,0,0-.09-.17,3.6,3.6,0,0,0-3-1.61,1.31,1.31,0,0,0-.71.26,6.23,6.23,0,0,0-3-.42,4.83,4.83,0,0,0-1.54.37,3.6,3.6,0,0,0-2.83-1.44A1.14,1.14,0,0,0,18,23.71h0a4.33,4.33,0,0,0-3.4-1.36.94.94,0,0,0-.73,1.45,4.62,4.62,0,0,0-3.56-1.14c-.89.26-.85,1.15,0,2.06L10,24.6c-1.72-.46-3.34-.36-3.63.22-.11.23,0,.5.29.78a2.8,2.8,0,0,0-1.41-.1c-1,.23-.94,1.17,0,2.11A2.15,2.15,0,0,0,4,28.68a1.45,1.45,0,0,0,.36,1.72c-.75.11-1.25.38-1.26.75s.87,1.05,2.11,1.38c-.54.07-.94.22-1.07.48-.3.6.88,1.47,2.64,2l.33.07c-.27.14-.44.32-.44.53,0,.67,1.48,1.4,3.33,1.64H10c-.38.17-.59.39-.55.66.1.65,1.62,1.29,3.39,1.43a7.24,7.24,0,0,0,.8,0c-.55.46-.63,1-.11,1.41a4.32,4.32,0,0,0,3.18.37,4.5,4.5,0,0,0,2.9,1.33,7.48,7.48,0,0,0,1.78.11,2,2,0,0,0,.06.23,3.19,3.19,0,0,0,2.8,1.91,1.5,1.5,0,0,0,1.15-.42,2.34,2.34,0,0,0,.2.27,3.9,3.9,0,0,0,3.17,1.38,1.07,1.07,0,0,0,.56-.24,1.44,1.44,0,0,0,.81.73,3.16,3.16,0,0,0,2.59-.26.7.7,0,0,0,.17.28c.61.62,2.32.85,3.82.52a4.71,4.71,0,0,0,.92-.31,2.64,2.64,0,0,0,2.3,1.87,1.82,1.82,0,0,0,1.75-.73,1.45,1.45,0,0,0,.72.56,3.22,3.22,0,0,0,3.22-.65h0a1.52,1.52,0,0,0,.67.49,3.34,3.34,0,0,0,3.35-.68h0a1.58,1.58,0,0,0,.56.38,3.36,3.36,0,0,0,3.3-.59,1.51,1.51,0,0,0,.53-1c1.27.47,2.55.57,3.06.18s.1-1-.81-1.63l0,0a8.34,8.34,0,0,0,1.23,0C59.29,44.77,60.41,44.17,60.07,43.51Z"/><path class="cls-3" d="M61.26,29.48A1.41,1.41,0,0,0,60.9,29a3.54,3.54,0,0,0-.27-3.11,4.32,4.32,0,0,0-1-1.29,4.49,4.49,0,0,0,.52-1.67c.19-1.61-.43-3-1.4-3.34.7-1,.85-2.11.28-2.75s-2.08-.62-3.3.26L55.59,17c0-.14.1-.28.14-.43.48-1.78-.07-3.48-1.22-3.79a1.65,1.65,0,0,0-.7,0A3.69,3.69,0,0,0,51,10.89a4.67,4.67,0,0,0-1.87,0,4.33,4.33,0,0,0-.16-.56C48.37,8.7,47,7.65,46,8a1.15,1.15,0,0,0-.27.14,3.16,3.16,0,0,0-3.35-.4,4.41,4.41,0,0,0-1.12.59c0-.08,0-.15,0-.22C41.11,6.28,40,4.83,38.83,4.9a1.53,1.53,0,0,0-.81.31,3.42,3.42,0,0,0-3.64-.28,4.8,4.8,0,0,0-1.52,1c-.71-1.56-2.08-2.46-3.11-2a2.17,2.17,0,0,0-1,2.27l-.12-.28C27.82,4.35,26.37,3.5,25.36,4a1.43,1.43,0,0,0-.65.7A3.52,3.52,0,0,0,21.65,5,4.29,4.29,0,0,0,20.2,6.12c-.8-1.35-2.08-2.08-3-1.64s-1.26,1.8-.82,3.25l0,0c-1.07-1.4-2.64-2-3.58-1.33-.75.52-.89,1.67-.46,2.86C11,8,9.41,7.63,8.56,8.4s-.63,2.34.41,3.68L8.58,12c-1.78-.26-3.36.45-3.53,1.6a1.65,1.65,0,0,0,.43,1.3,1.73,1.73,0,0,0-1.41.29c-.89.73-.71,2.42.38,3.81a4.22,4.22,0,0,0-1.07,2.33,3.84,3.84,0,0,0,.67,3A2,2,0,0,0,3,26.06c.08.92,1,1.61,2.32,1.8a1.75,1.75,0,0,0-1,1.22c-.19,1.17,1.13,2.35,2.94,2.64.11,0,.23,0,.34,0a1.67,1.67,0,0,0-.34,1.1c.12,1.2,1.72,2,3.58,1.85h0a1.7,1.7,0,0,0-.42,1.36c.22,1.14,1.83,1.8,3.59,1.46a4.94,4.94,0,0,0,.8-.22A2.22,2.22,0,0,0,15,39.86c.72.68,2.05.48,3.2-.38a3.23,3.23,0,0,0,3.09,1.44A4.27,4.27,0,0,0,23,40.53c0,.13.06.26.1.39.57,1.76,2,2.89,3.1,2.52a1.78,1.78,0,0,0,1.06-1.13,3.38,3.38,0,0,0,.24.41c.95,1.41,2.46,2.06,3.37,1.44a1.38,1.38,0,0,0,.51-.63,1.61,1.61,0,0,0,.93,1c.82.3,1.82-.27,2.49-1.32a1.28,1.28,0,0,0,.23.45c.71.92,2.43.77,3.84-.33a4.6,4.6,0,0,0,.85-.86c.39,1.64,1.49,2.78,2.6,2.61A2.2,2.2,0,0,0,44,43.23a1.54,1.54,0,0,0,.81.78c1.06.41,2.43-.6,3.05-2.24h0a1.55,1.55,0,0,0,.76.65c1.1.42,2.52-.62,3.17-2.33v0a1.44,1.44,0,0,0,.62.5c1.05.44,2.46-.53,3.14-2.17a4.31,4.31,0,0,0,.34-1.94c1.33.43,2.61.18,3-.68s-.09-1.88-1.09-2.66l0-.06A5.25,5.25,0,0,0,59,32.72C60.72,32,61.71,30.57,61.26,29.48Z"/><path class="cls-4" d="M49.37,20.59h-.06a3.26,3.26,0,0,0,.18-.38c.61-1.62.26-3.25-.78-3.65a1.79,1.79,0,0,0-1.68.36c.47-1.43.16-2.82-.77-3.2a1.61,1.61,0,0,0-1.37.15A3.58,3.58,0,0,0,43.08,12a4.24,4.24,0,0,0-1.38-.41,1.48,1.48,0,0,0-.07-.86c-.43-1-2.06-1.33-3.65-.66a4.49,4.49,0,0,0-.94.53,3.81,3.81,0,0,0-.34-.88C35.93,8.3,34.54,7.51,33.6,8c0,0,0,0-.05,0a.61.61,0,0,0,0-.13,1.54,1.54,0,0,0-.84-.8,1.6,1.6,0,0,0-1.11-.77A1.72,1.72,0,0,0,30,7.15a2.09,2.09,0,0,0-.23.08,4.45,4.45,0,0,0-1.45.95c-.67-1.47-2-2.33-2.93-1.92a2.05,2.05,0,0,0-1,2.14c0-.08-.07-.17-.11-.26-.75-1.47-2.12-2.27-3.07-1.79a1.49,1.49,0,0,0-.7.85,3.45,3.45,0,0,0-2.77.29,3.91,3.91,0,0,0-1.6,1.44A2.2,2.2,0,0,0,13.76,8c-.91.41-1.2,1.77-.74,3.18-1-1.38-2.54-2-3.46-1.34s-.86,2.27.07,3.69a2.09,2.09,0,0,0-2.36,0c-.85.76-.58,2.44.6,3.75l.19.18c-1.6-.17-3,.49-3.14,1.53-.13.83.57,1.66,1.65,2.11-.7.76-.49,2.29.53,3.54a4.21,4.21,0,0,0,1.35,1.11,4.94,4.94,0,0,0-.19.78c-.24,1.71.45,3.21,1.56,3.37a1.47,1.47,0,0,0,.21,0c.12,1.05,1.48,1.78,3.1,1.7-.06,1.06,1.14,2.11,2.78,2.37a4.51,4.51,0,0,0,1,0c.4.9,1.73,1.47,3.25,1.32a5.4,5.4,0,0,0,.58-.09c.26,1,1.74,1.61,3.36,1.3a4.3,4.3,0,0,0,.92-.28,1.68,1.68,0,0,0,.43,1.37c.81.76,2.42.37,3.6-.87l.11-.14a3.71,3.71,0,0,0,2.46.76,3.85,3.85,0,0,0,2.21-.7c.62,1.34,1.76,2.13,2.71,1.83s1.4-1.63,1.12-3.08a2.53,2.53,0,0,0,.13.22c.9,1.34,2.33,2,3.19,1.37a1.69,1.69,0,0,0,.62-1.52,1.41,1.41,0,0,0,.39.24c1,.35,2.23-.59,2.79-2.11A4.5,4.5,0,0,0,45,33a4.21,4.21,0,0,0,3.59-2.75c1.07-.25,1.72-1.76,1.46-3.45a4.54,4.54,0,0,0-.56-1.59,4.41,4.41,0,0,0,.65-1.15C50.71,22.54,50.37,21,49.37,20.59Z"/><path class="cls-5" d="M31.19,27.66c.82-3-2.61-6.53-7.67-7.93s-9.84-.13-10.67,2.85,2.61,6.53,7.67,7.94S30.36,30.64,31.19,27.66Z"/><path class="cls-6" d="M.23,15.58C1.5,13.36,7.91-1.94,20.92.2s24.4,4.16,34.79,11.3c6.77,4.66,15.14,14.79,6.08,20.76s-13,1.33-20.38-3.51S10.85,14.81,4.66,18.39.23,15.58.23,15.58Z"/><path class="cls-7" d="M54,33.48c-3.24,0-6-1.89-9.4-4.29-.88-.62-1.81-1.26-2.79-1.91-6-4-23.75-11.3-33.12-11.3a9.06,9.06,0,0,0-4.47.92,5.78,5.78,0,0,1-2.63,1,.63.63,0,0,1-.58-.23A4,4,0,0,1,1,15.08c.11-.2.26-.48.43-.82C3.21,10.73,8.67,0,18.46,0a15.57,15.57,0,0,1,2.33.19c12.32,2,24,4,34.47,11.17C60,14.6,65,20.24,65,25c0,2.3-1.24,4.25-3.61,5.82C58.61,32.6,56.22,33.48,54,33.48Z"/><path class="cls-8" d="M55.71,11.5C45.32,4.36,33.93,2.35,20.92.2,13.45-1,8.16,3.49,4.77,8c-1.15,2.2-1.89,3.89-2.08,4.37,0,0-.69,4.78,3.46,1.62s21.76,1.24,27.52,4,19.7,8.91,25.69,3.75a5.62,5.62,0,0,0,2.27-5A32,32,0,0,0,55.71,11.5Z"/><g class="cls-9"><path class="cls-8" d="M9.37,9.33s.06,0,.08,0a71.6,71.6,0,0,0,8.41-7C18.54,1.63,19.34.9,20.14.11a14.35,14.35,0,0,0-2.92,0l-.77.79C13.88,3.43,11,5.74,8.9,8.74A.34.34,0,0,0,8.84,9a.25.25,0,0,0-.08.12c-.56,2.8-.65,5.69-1,8.54a14.85,14.85,0,0,1,1.64,0A31.62,31.62,0,0,0,9.37,9.33Z"/><path class="cls-8" d="M4.22,18.63a28.88,28.88,0,0,0,.66-6.08.21.21,0,0,0-.13-.19A55.07,55.07,0,0,1,10.43,2.5,22,22,0,0,0,5.77,6.73a23.52,23.52,0,0,0-1.59,5.54.32.32,0,0,0,.21.35C4,14.86,3.33,17.08,2.71,19.29A9,9,0,0,0,4.22,18.63Z"/><path class="cls-8" d="M44.68,31a73.79,73.79,0,0,0-2.12-16.26A80.31,80.31,0,0,0,52.65,10.6l1-.45c-.59-.36-1.19-.71-1.79-1.05-.36.18-.72.37-1.1.54C47.82,11,44.61,12,42,14a.42.42,0,0,0-.34.25l-.1.07a.37.37,0,0,0,.17.62,62.42,62.42,0,0,1,1.35,15Z"/><path class="cls-8" d="M65.74,26.17a8,8,0,0,0-.11-1.89L62.76,25c-2.26.55-4.64.77-6.77,1.75a.44.44,0,0,0-.1.73c-.72,2.53-1.36,5.08-2,7.63a10.17,10.17,0,0,0,2-.18,42,42,0,0,0,.56-7.24,27.41,27.41,0,0,0,6.78-.92Q64.52,26.5,65.74,26.17Z"/><path class="cls-8" d="M47.79,7.06c-.68-.31-1.36-.6-2-.88-.85.5-1.7,1-2.57,1.42-2.42,1.19-5.46,2.17-7.26,4.25-.26-.41-1.08-.26-1,.3a83.58,83.58,0,0,1,.66,13.41l1.56.77A57.89,57.89,0,0,0,36,12.27c2.48-.38,4.89-1.73,7.15-2.78A31.81,31.81,0,0,0,47.79,7.06Z"/><path class="cls-8" d="M16.38,18.66A19,19,0,0,0,15.2,8.47c2.6-.15,4.81-3.34,6.5-5,.95-.91,2-1.77,3.15-2.66L22.16.41l-.28.26C19.27,3,16.68,5.5,14.25,8a.28.28,0,0,0,.12.47l.34,0a26.1,26.1,0,0,1,.43,9.92Z"/><path class="cls-8" d="M28.89,22.68c.79-4.22,1.54-9.27-.55-12.73,2.6-.7,5-2.55,7.16-4,1-.65,2-1.36,3.14-2.13q-1.17-.33-2.37-.63c-.54.46-1.08.9-1.62,1.3-2.25,1.63-4.88,3-7,4.81a.48.48,0,0,0-.47.42l-.1.08c-.16.15,0,.34.14.38A46.27,46.27,0,0,1,27.4,22.1Z"/><path class="cls-8" d="M49.86,19c1.85-.33,3.65-.91,5.49-1.32a36.83,36.83,0,0,0,5.72-1.52c-.43-.47-.88-.93-1.34-1.37-1.32.26-2.63.61-3.94.9-2.46.55-5.12,1.12-7.16,2.67-.27.2-.27.73.08.81a104.45,104.45,0,0,1-.43,14.15,19,19,0,0,0,1.92,1A45.08,45.08,0,0,0,49.86,19Z"/><path class="cls-8" d="M23.2,20.61c.43-3.38.9-8.74-1.5-11.59,2.65-.92,5-2.84,7.23-4.46,1-.74,2.13-1.5,3.16-2.34L30,1.8c-.65.56-1.3,1.13-1.95,1.64-2.2,1.74-4.8,3.16-6.78,5.16-.05,0-.09-.11-.14-.15a.14.14,0,0,0-.24.13,33,33,0,0,1,1.2,11.68Z"/></g><path class="cls-5" d="M43.24,7.24c.22-1.33-6-3.48-13.87-4.81s-14.45-1.34-14.68,0S21.08,3.49,29,4.83,43,8.56,43.24,7.24Z"/><path class="cls-5" d="M63,21.86c.83-1.1-1.31-4.1-4.77-6.71s-6.93-3.81-7.76-2.71,4.09,1,6.26,4.71C60.44,23.58,62.15,23,63,21.86Z"/></g></g></g></svg>