<svg xmlns="http://www.w3.org/2000/svg" viewBox="0 0 60.63 46.24"><defs><style>.cls-1{isolation:isolate;}.cls-2{fill:#b8b5aa;}.cls-10,.cls-2{mix-blend-mode:multiply;}.cls-3{fill:#ece2ac;}.cls-4{fill:#fcfbe6;}.cls-5{fill:#fff;}.cls-10,.cls-6{fill:#fde471;}.cls-7{fill:#fdd459;}.cls-8{fill:#fdbb42;}.cls-9{fill:#fe9;}.cls-11{fill:#030800;}.cls-12{fill:#113000;}</style></defs><title>Recurso 5</title><g class="cls-1"><g id="Capa_2" data-name="Capa 2"><g id="Layer_1" data-name="Layer 1"><path class="cls-2" d="M58.77,41.22a1.14,1.14,0,0,0-.3-.33c.46-.34.51-1,0-1.72a3.31,3.31,0,0,0-.88-.87,1.77,1.77,0,0,0,.68-.81,1.57,1.57,0,0,0-1.05-2.05c.78-.41,1-1,.54-1.43a4.3,4.3,0,0,0-3.26-.45l-.11-.1a1.81,1.81,0,0,0,.18-.21A1.4,1.4,0,0,0,53.78,31a2.64,2.64,0,0,0-.68-.13,4.47,4.47,0,0,0-2.6-1.5,8.26,8.26,0,0,0-1.85-.32,1.39,1.39,0,0,0-.1-.33,3.14,3.14,0,0,0-2.72-1.8,2.85,2.85,0,0,0-.29,0,5.28,5.28,0,0,0-3.24-.82,6.57,6.57,0,0,0-1.16.12.5.5,0,0,0,0-.12,2.23,2.23,0,0,0-2-2.17,2.15,2.15,0,0,0-.84,0,5.79,5.79,0,0,0-3.54-.81,6.18,6.18,0,0,0-1.6.27,3.41,3.41,0,0,0-2.86-1.65,1.14,1.14,0,0,0-1.23,1,1.4,1.4,0,0,0-.09-.17,3.56,3.56,0,0,0-3-1.6,1.26,1.26,0,0,0-.71.26,6.22,6.22,0,0,0-3-.43,4.83,4.83,0,0,0-1.54.37,3.59,3.59,0,0,0-2.83-1.43,1.14,1.14,0,0,0-1.12,1.6h0a4.36,4.36,0,0,0-3.4-1.36,1,1,0,0,0-.73,1.46A4.62,4.62,0,0,0,9,20.38c-.89.25-.85,1.14.05,2.05l-.38-.12C7,21.85,5.34,22,5.05,22.53c-.11.24,0,.51.29.78a2.91,2.91,0,0,0-1.41-.1c-1,.23-.94,1.17,0,2.12a2.1,2.1,0,0,0-1.28,1.06A1.45,1.45,0,0,0,3,28.11c-.75.12-1.25.38-1.25.75s.86,1.05,2.1,1.39c-.54.06-.94.22-1.07.48-.3.59.88,1.47,2.64,1.95l.33.08c-.27.14-.44.31-.44.52,0,.67,1.49,1.41,3.33,1.65h0c-.38.17-.59.39-.55.66.1.65,1.62,1.3,3.39,1.43a7.31,7.31,0,0,0,.8,0c-.55.45-.63,1-.11,1.4a4.27,4.27,0,0,0,3.18.37,4.53,4.53,0,0,0,2.9,1.34,8.08,8.08,0,0,0,1.78.11c0,.07,0,.14.06.22A3.21,3.21,0,0,0,23,42.41,1.58,1.58,0,0,0,24.1,42a2.26,2.26,0,0,0,.2.26,3.94,3.94,0,0,0,3.17,1.39,1.15,1.15,0,0,0,.57-.25,1.36,1.36,0,0,0,.8.73,3.15,3.15,0,0,0,2.59-.26.58.58,0,0,0,.18.28c.6.62,2.31.86,3.81.52a4.71,4.71,0,0,0,.92-.31,2.62,2.62,0,0,0,2.3,1.87,1.8,1.8,0,0,0,1.75-.73,1.45,1.45,0,0,0,.72.56,3.22,3.22,0,0,0,3.22-.65h0a1.69,1.69,0,0,0,.67.49,3.36,3.36,0,0,0,3.36-.69h0a1.69,1.69,0,0,0,.56.39,3.39,3.39,0,0,0,3.31-.6,1.47,1.47,0,0,0,.52-1c1.27.47,2.55.56,3.06.18s.1-1-.81-1.63l0,0a8.34,8.34,0,0,0,1.23,0C58,42.49,59.11,41.89,58.77,41.22Z"/><path class="cls-3" d="M60,27.2a1.45,1.45,0,0,0-.36-.49,3.51,3.51,0,0,0-.27-3.11,4.45,4.45,0,0,0-1-1.29,4.49,4.49,0,0,0,.53-1.67c.18-1.6-.44-3-1.41-3.34a2.28,2.28,0,0,0,.28-2.75c-.67-.76-2.08-.62-3.29.26l-.13-.15c.05-.14.1-.28.14-.42.48-1.79-.07-3.48-1.22-3.79a1.46,1.46,0,0,0-.69,0A3.74,3.74,0,0,0,49.68,8.6a4.66,4.66,0,0,0-1.87,0,3.58,3.58,0,0,0-.16-.56c-.58-1.67-1.93-2.71-3-2.34a1.17,1.17,0,0,0-.27.15A3.16,3.16,0,0,0,41,5.48a4.5,4.5,0,0,0-1.11.59,1.61,1.61,0,0,1,0-.22C39.81,4,38.74,2.54,37.54,2.61a1.53,1.53,0,0,0-.82.31,3.39,3.39,0,0,0-3.63-.27,4.72,4.72,0,0,0-1.53,1c-.71-1.55-2.08-2.46-3.11-2a2.14,2.14,0,0,0-1,2.26c0-.09-.07-.18-.12-.27-.79-1.56-2.24-2.41-3.25-1.9a1.5,1.5,0,0,0-.64.7,3.51,3.51,0,0,0-3.07.25A4.27,4.27,0,0,0,18.9,3.83c-.8-1.35-2.08-2.07-3-1.64S14.6,4,15,5.45h0c-1.07-1.39-2.64-2-3.58-1.33C10.67,4.65,10.53,5.8,11,7c-1.23-1.24-2.85-1.65-3.7-.88s-.63,2.35.41,3.68l-.39-.08c-1.77-.27-3.35.45-3.53,1.59a1.63,1.63,0,0,0,.43,1.3,1.73,1.73,0,0,0-1.41.29c-.89.73-.71,2.42.38,3.81A4.25,4.25,0,0,0,2.08,19a3.83,3.83,0,0,0,.67,3,2,2,0,0,0-1.1,1.77c.08.91,1,1.6,2.32,1.79a1.77,1.77,0,0,0-1,1.22C2.82,28,4.14,29.15,6,29.44l.34,0A1.66,1.66,0,0,0,6,30.56c.12,1.2,1.72,2,3.58,1.86h0a1.71,1.71,0,0,0-.42,1.36c.22,1.15,1.83,1.8,3.6,1.47a5.14,5.14,0,0,0,.79-.23,2.21,2.21,0,0,0,.15,2.56c.71.69,2,.49,3.19-.38A3.24,3.24,0,0,0,20,38.64a4.61,4.61,0,0,0,1.77-.39c0,.12.06.25.1.38.57,1.77,2,2.9,3.1,2.53A1.78,1.78,0,0,0,26,40a4.49,4.49,0,0,0,.24.42c1,1.41,2.46,2.05,3.37,1.44a1.43,1.43,0,0,0,.51-.63,1.64,1.64,0,0,0,.93,1c.82.3,1.82-.28,2.49-1.33a1.42,1.42,0,0,0,.23.46c.71.91,2.43.76,3.84-.33a4.92,4.92,0,0,0,.85-.86c.39,1.63,1.49,2.78,2.6,2.61A2.23,2.23,0,0,0,42.65,41a1.61,1.61,0,0,0,.81.78c1.06.4,2.43-.6,3-2.24h0a1.44,1.44,0,0,0,.75.65c1.1.42,2.52-.62,3.17-2.33v0a1.54,1.54,0,0,0,.62.51c1,.43,2.46-.54,3.14-2.17a4.35,4.35,0,0,0,.34-1.95c1.33.43,2.61.18,3-.68s-.09-1.87-1.09-2.66l0-.06a4.76,4.76,0,0,0,1.21-.33C59.42,29.73,60.42,28.28,60,27.2Z"/><path class="cls-4" d="M48.07,18.31l0,0a3.34,3.34,0,0,0,.17-.38c.61-1.61.26-3.25-.78-3.64a1.79,1.79,0,0,0-1.68.35c.47-1.42.16-2.81-.77-3.2a1.58,1.58,0,0,0-1.37.16,3.56,3.56,0,0,0-1.81-1.83,4.24,4.24,0,0,0-1.38-.41,1.4,1.4,0,0,0-.07-.86c-.43-1-2.06-1.32-3.65-.66a4.61,4.61,0,0,0-.93.53,4,4,0,0,0-.35-.88C34.63,6,33.24,5.23,32.3,5.73c0,0,0,0,0,0a.7.7,0,0,0,0-.14,1.54,1.54,0,0,0-.84-.8,1.58,1.58,0,0,0-1.11-.77,1.77,1.77,0,0,0-1.54.81l-.23.08a4.62,4.62,0,0,0-1.45.95c-.67-1.47-2-2.33-2.93-1.92a2.06,2.06,0,0,0-1,2.15c0-.09-.07-.18-.11-.26-.75-1.47-2.12-2.28-3.07-1.8a1.52,1.52,0,0,0-.7.86,3.44,3.44,0,0,0-2.77.28,3.91,3.91,0,0,0-1.6,1.44,2.21,2.21,0,0,0-2.44-.94c-.91.42-1.2,1.78-.74,3.19-1-1.38-2.54-2-3.46-1.34s-.86,2.26.07,3.68a2.07,2.07,0,0,0-2.36,0c-.85.76-.58,2.43.6,3.74l.19.19c-1.6-.18-3,.48-3.14,1.52-.13.83.57,1.66,1.65,2.12-.7.76-.49,2.28.53,3.53a4.51,4.51,0,0,0,1.35,1.12,4.45,4.45,0,0,0-.19.78c-.24,1.7.46,3.21,1.56,3.36a1.47,1.47,0,0,0,.21,0c.12,1.05,1.48,1.79,3.1,1.7-.06,1.07,1.14,2.11,2.78,2.37a4.53,4.53,0,0,0,1,.05c.4.89,1.73,1.46,3.25,1.32a5.4,5.4,0,0,0,.58-.1c.26,1,1.74,1.61,3.36,1.3a4.3,4.3,0,0,0,.92-.28,1.68,1.68,0,0,0,.43,1.37c.81.76,2.42.37,3.6-.87l.11-.13a3.71,3.71,0,0,0,2.46.75,3.82,3.82,0,0,0,2.21-.7c.62,1.34,1.76,2.14,2.71,1.83s1.4-1.62,1.12-3.08l.13.23c.9,1.33,2.33,1.94,3.19,1.36a1.65,1.65,0,0,0,.62-1.52,1.33,1.33,0,0,0,.39.24c1,.36,2.23-.59,2.79-2.11a4.5,4.5,0,0,0,.17-.6A4.21,4.21,0,0,0,47.27,28c1.07-.25,1.72-1.75,1.46-3.45A4.35,4.35,0,0,0,48.17,23a4.35,4.35,0,0,0,.65-1.14C49.41,20.26,49.08,18.69,48.07,18.31Z"/><path class="cls-5" d="M29.89,25.38c.83-3-2.61-6.54-7.67-7.94s-9.84-.13-10.67,2.85,2.61,6.54,7.67,7.94S29.06,28.36,29.89,25.38Z"/><path class="cls-6" d="M0,12.27c1.87-5,8.73-10,13-11.38,8.3-.3,34.52-1,47.41,9.75.36,5.42.13,5.75,0,7-2.57.67-11.11,1.95-16.84,9.73C35.73,24.19,11.87,16.73.8,19.26.27,15.93,0,12.27,0,12.27Z"/><path class="cls-7" d="M43.6,27.39a22.15,22.15,0,0,1,4.17-4.29c-.77-1.34-2.48-2.83-5.64-4.51C29.6,11.93,6,11.25,0,12.27c0,0,.27,3.66.8,7C11.87,16.73,35.73,24.19,43.6,27.39Z"/><path class="cls-8" d="M60.44,17.66c.13-1.27.36-1.6,0-7-7.83-1-16.17,5.69-18.31,8,1.6,2.94,1.47,8.8,1.47,8.8C49.33,19.61,57.87,18.33,60.44,17.66Z"/><path class="cls-9" d="M52.54,8.94C54.93,8.2,46.8,3.65,39,2.66s-14.36.21-14.67,2.68,2.48,3.22,9.27,7.18C45.25,19.3,38.43,13.26,52.54,8.94Z"/><path class="cls-8" d="M19.62.76h0Z"/><path class="cls-8" d="M16.28.79l1.42,0Z"/><path class="cls-8" d="M60.44,10.64C50.12,2,31.27.77,19.9.76,32.79.77,50,2.44,59.66,10.24a27.92,27.92,0,0,1,.05,6l-.35.09c-3.23.74-10.69,2.46-16,9.32-7.15-2.81-25.28-8.47-37.17-8.47a27.56,27.56,0,0,0-4.7.36c-.37-2.6-.59-5.23-.65-5.92C2.7,6.81,9.2,2.18,13.17.88L16.08.8c-1.17,0-2.21.06-3,.09C8.73,2.25,1.87,7.26,0,12.27c0,0,.27,3.66.8,7,11.07-2.53,34.93,4.93,42.8,8.13,5.73-7.78,14.27-9.06,16.84-9.73C60.57,16.39,60.8,16.06,60.44,10.64Z"/><path class="cls-10" d="M50.16,16.37a1,1,0,1,0-1,1.05A1,1,0,0,0,50.16,16.37Z"/><path class="cls-10" d="M31.56,19a.7.7,0,0,0-1.4,0,.7.7,0,0,0,1.4,0Z"/><path class="cls-10" d="M10.13,14.27a.93.93,0,1,0-.93.93A.93.93,0,0,0,10.13,14.27Z"/><path class="cls-10" d="M36.83,18.47a1.15,1.15,0,1,0-1.15,1.15A1.14,1.14,0,0,0,36.83,18.47Z"/><path class="cls-10" d="M3.81,15.07a.87.87,0,1,0-.86.86A.86.86,0,0,0,3.81,15.07Z"/><path class="cls-10" d="M7.49,8.42c0-.3-.31-.6-.8-.69s-.92.08-1,.37.31.61.8.69S7.43,8.71,7.49,8.42Z"/><path class="cls-10" d="M15.15,2.44c0-.25-.26-.51-.67-.58s-.78.07-.83.32.26.5.67.58S15.1,2.69,15.15,2.44Z"/><path class="cls-10" d="M15.2,7.1c.05-.26-.27-.54-.71-.62s-.85.07-.9.34.28.54.72.62S15.16,7.37,15.2,7.1Z"/><path class="cls-10" d="M40.47,9.36c0-.2-.21-.41-.54-.47s-.64.06-.67.26.2.41.54.47S40.43,9.56,40.47,9.36Z"/><path class="cls-10" d="M18.4,3.4c0-.15-.15-.31-.41-.35s-.48,0-.5.19.15.31.41.36S18.38,3.55,18.4,3.4Z"/><path class="cls-10" d="M35.19,12.8c0-.21-.22-.44-.58-.5s-.67.06-.71.27.22.44.58.5S35.15,13,35.19,12.8Z"/><path class="cls-10" d="M49.58,7.55c0-.16-.16-.32-.42-.37s-.49,0-.52.2.16.32.42.37S49.56,7.7,49.58,7.55Z"/><path class="cls-10" d="M43.44,6.49c.05-.28-.29-.57-.75-.66s-.88.08-.93.36.29.57.75.65S43.39,6.77,43.44,6.49Z"/><path class="cls-10" d="M42.29,14.25c.05-.33-.34-.67-.89-.77s-1,.09-1.09.42.34.67.89.77S42.23,14.58,42.29,14.25Z"/><path class="cls-10" d="M47.63,10.7c0-.27-.28-.56-.74-.64s-.87.07-.92.35.28.57.74.65S47.58,11,47.63,10.7Z"/><path class="cls-10" d="M41.2,22.19a1.2,1.2,0,1,0-1.2,1.2A1.19,1.19,0,0,0,41.2,22.19Z"/><path class="cls-10" d="M58.44,14.08a.9.9,0,1,0-.9.9A.9.9,0,0,0,58.44,14.08Z"/><path class="cls-10" d="M47.16,21.54a.7.7,0,1,0-.69.69A.69.69,0,0,0,47.16,21.54Z"/><path class="cls-11" d="M29.78,0C24.58.89,16.27,8.82,14.4,12.17c-.13,1.49-1.48,17.93,2.71,26.13.75.84,9.82,4.34,13.25,4.06-1.46-3.19-3.51-20.37-.8-28.07,2-2.93,8.41-9.78,14.81-11S29.78,0,29.78,0Z"/><path class="cls-12" d="M30.32,7.72C26.83,13.65,26.46,14,22.58,13c-3.67-.93-8.65-.23-3-5.58C25.94,1.52,32.16-.15,35.31,1.17,36.83,1.8,33.38,2.5,30.32,7.72Z"/><path class="cls-5" d="M38.24,3.15c.09-.65-2-1.46-4.71-1.82s-4.93-.12-5,.53,2.5-.48,4.87.64C37.44,4.43,38.16,3.8,38.24,3.15Z"/></g></g></g></svg>