<svg xmlns="http://www.w3.org/2000/svg" xmlns:xlink="http://www.w3.org/1999/xlink" viewBox="0 0 90.82 72.26"><defs><style>.cls-1{isolation:isolate;}.cls-2{fill:#b8b5aa;mix-blend-mode:multiply;}.cls-3{fill:#9c5723;}.cls-4,.cls-5{fill:#b4703d;}.cls-11,.cls-5{opacity:0.5;}.cls-5,.cls-8{mix-blend-mode:screen;}.cls-6{fill:#e6be8a;}.cls-7{fill:#d6b300;}.cls-8{opacity:0.6;fill:url(#linear-gradient);}.cls-9{fill:#fff;}.cls-10{fill:#7fa100;}.cls-11,.cls-12{fill:#fcfbe6;}</style><linearGradient id="linear-gradient" x1="34.37" y1="9.85" x2="66.7" y2="45.93" gradientUnits="userSpaceOnUse"><stop offset="0" stop-color="#fff"/><stop offset="1"/></linearGradient></defs><title>Recurso 17</title><g class="cls-1"><g id="Capa_2" data-name="Capa 2"><g id="Layer_1" data-name="Layer 1"><path class="cls-2" d="M71.45,64.18c.29-5.11-9.47-9.81-21.78-10.5s-22.53,2.9-22.81,8,9.46,9.81,21.78,10.5S71.16,69.28,71.45,64.18Z"/><path class="cls-3" d="M27.82,61c0,3.6,7.88,6.52,17.59,6.52S63,64.59,63,61s-7.88-17.2-17.59-17.2S27.82,57.4,27.82,61Z"/><path class="cls-4" d="M90.82,16.82C90.82,7.53,70.49,0,45.41,0S0,7.53,0,16.82,20.33,61.25,45.41,61.25,90.82,26.12,90.82,16.82Z"/><path class="cls-5" d="M5.1,10c-2.82,3.71-4,7.72-3,11.45,2.43,9,23.88,39.57,39,35.47s18.2-41.34,15.77-50.3A10.71,10.71,0,0,0,54.26,2c-3.2-.27-6.52-.41-9.93-.41C27.59,1.62,13,5,5.1,10Z"/><path class="cls-6" d="M90.82,16.82C90.82,7.53,70.49,0,45.41,0S0,7.53,0,16.82,20.33,33.65,45.41,33.65,90.82,26.12,90.82,16.82Z"/><ellipse class="cls-4" cx="45.41" cy="16.28" rx="42.6" ry="14.67"/><path class="cls-7" d="M45.41,31c16.94,0,31.94-3.62,38.73-8.68C82.72,15.43,65.57,9.81,45.41,9.81S8.1,15.43,6.68,22.27C13.48,27.33,28.47,31,45.41,31Z"/><path class="cls-8" d="M13,25.66C20.86,28.87,32.58,31,45.41,31c15.47,0,29.3-3,36.77-7.4-5-6.1-18.51-10.61-33.93-10.61C31.1,12.94,16.3,18.52,13,25.66Z"/><path class="cls-9" d="M6.71,24c-.35,1.12,4.12,3.51,10,5.34s10.89,2.4,11.23,1.28-4.74-1.48-10.6-3.31S7.06,22.86,6.71,24Z"/><path class="cls-9" d="M17.89,37c-1.55-2.3-3.35-3.81-4-3.36s.05,2.68,1.59,5,3.35,3.81,4,3.36S19.44,39.3,17.89,37Z"/><path class="cls-9" d="M22.84,44.62c-.92-.75-1.93-1-2.26-.62s.14,1.35,1.05,2.1,1.93,1,2.26.61S23.75,45.37,22.84,44.62Z"/><path class="cls-9" d="M32.06,62c-1-.66-2-.85-2.31-.41s.26,1.33,1.24,2,2,.84,2.3.41S33,62.67,32.06,62Z"/><path class="cls-10" d="M52.45,15.8c-1.53.39-2.66,1.19-2.51,1.78s1.52.75,3.06.35,2.66-1.18,2.51-1.77S54,15.41,52.45,15.8Zm.4,1.56c-1.18.3-2.23.24-2.32-.14s.78-.94,2-1.24,2.23-.24,2.33.14S54,17.06,52.85,17.36Z"/><path class="cls-10" d="M65.59,20.21c-1.71-.8-3.34-.91-3.65-.26s.83,1.83,2.54,2.63,3.34.91,3.65.25S67.3,21,65.59,20.21Zm-.81,1.73c-1.32-.61-2.23-1.46-2-1.88s1.43-.27,2.75.34,2.24,1.46,2,1.89S66.1,22.56,64.78,21.94Z"/><path class="cls-10" d="M36.26,22.79c-1.16.07-2.08.63-2.07,1.26s1,1.07,2.14,1,2.09-.64,2.07-1.26S37.42,22.72,36.26,22.79Zm.05,1.66c-.89.05-1.63-.24-1.64-.64s.7-.78,1.6-.83,1.63.23,1.65.64S37.21,24.39,36.31,24.45Z"/><path class="cls-10" d="M35.13,16.65l-.15.13c.39.34.59.66.49.86s-1.22.19-2.32-.36l-.25-.13a2.56,2.56,0,0,1-1.8-1.87.56.56,0,0,0-.31.25c-.28.55.66,1.57,2.09,2.28s2.81.86,3.08.31C36.14,17.76,35.79,17.2,35.13,16.65Z"/><path class="cls-10" d="M24.4,20.37c-1-.58-2-.73-2.22-.35s.41,1.17,1.42,1.74,2,.73,2.22.35S25.4,20.94,24.4,20.37Zm-.59,1c-.77-.45-1.29-1-1.14-1.26s.89-.09,1.66.35,1.29,1,1.15,1.26S24.59,21.83,23.81,21.39Z"/><path class="cls-10" d="M13.34,21.3c-.93.41-1.55,1-1.39,1.39s1,.31,2-.1,1.55-1,1.39-1.38S14.26,20.89,13.34,21.3Zm.41.94c-.71.32-1.37.39-1.48.16s.4-.67,1.12-1,1.37-.39,1.48-.16S14.47,21.93,13.75,22.24Z"/><path class="cls-10" d="M43.51,13.75l-.2.11c-1,.45-1.87.57-2,.26s.52-.93,1.49-1.39l.36-.16,0-.15a4.34,4.34,0,0,0-.4.17c-1.25.59-2.08,1.45-1.86,1.93s1.43.39,2.68-.2l.24-.12A2.51,2.51,0,0,1,43.51,13.75Z"/><path class="cls-10" d="M29.25,26.35c.12.34.11.61,0,.75s-.9,0-1.65-.48l-1.25.07c1.38,1.22,2.79,1.78,3.33,1.26.31-.31.25-.94-.09-1.69Z"/><path class="cls-10" d="M52.79,28.38c-.6.18-1.07.18-1.17,0s.49-.89,1.4-1.33,1.77-.56,1.91-.27,0,.34-.26.56l.2,0a1.55,1.55,0,0,1,.43,0,.7.7,0,0,0,.19-.68c-.22-.45-1.36-.36-2.54.22s-2,1.4-1.74,1.85.72.35,1.43.18A1.25,1.25,0,0,1,52.79,28.38Z"/><path class="cls-10" d="M61.29,14.07a5.07,5.07,0,0,1-.25.75c-.41,1-1,1.7-1.33,1.57s-.24-1.05.17-2.05a4.47,4.47,0,0,1,.3-.62l-.13-.1c-.11.21-.22.42-.32.65-.53,1.3-.56,2.51-.07,2.72s1.33-.68,1.87-2a7.05,7.05,0,0,0,.32-1A2.1,2.1,0,0,1,61.29,14.07Z"/><path class="cls-10" d="M78.25,21.93a.91.91,0,0,0-.69-.54l-.07,0-.55.17c.25.07.43.17.47.32.13.47-.94,1.16-2.38,1.56a4,4,0,0,1-2.69.07,6.72,6.72,0,0,1-.87.18.19.19,0,0,0,0,.08c.2.72,1.87.88,3.74.37S78.44,22.65,78.25,21.93Z"/><path class="cls-10" d="M67.9,15.62c-1.58,0-2.86.46-2.87,1.07s1.27,1.1,2.85,1.11,2.86-.46,2.87-1.06S69.48,15.63,67.9,15.62Zm0,1.59c-1.22,0-2.21-.33-2.21-.72s1-.7,2.22-.69,2.2.33,2.2.73S69.1,17.23,67.89,17.21Z"/><path class="cls-10" d="M54.59,21.67c.89-.74,1.68-1.06,2-.77s.26.68.07,1.31a4.59,4.59,0,0,1,1,.61c.47-1.23.52-2.24,0-2.66-.69-.54-2.15.09-3.64,1.46Z"/><path class="cls-10" d="M49.81,25l-.1-.15c-1.93.74-3.61.87-3.89.24s.8-1.64,2.44-2.52c-.07-.1-.13-.2-.19-.3-2.24,1.19-3.65,2.74-3.23,3.68s2.89.94,5.54-.14A7.4,7.4,0,0,1,49.81,25Z"/><path class="cls-10" d="M62.1,28.55c-1.45-.69-2.42-1.57-2.21-2.06s1.77-.41,3.45.3a9,9,0,0,1,1,.51c.11-.05.23-.08.34-.12a9.41,9.41,0,0,0-1.27-.64c-2.17-.91-4.22-1-4.57-.14s.71,1.8,2.32,2.67A9.23,9.23,0,0,0,62.1,28.55Z"/><path class="cls-10" d="M43.27,27.73c-1-.1-1.92.14-2,.54s.78.8,1.82.9S45,29,45.08,28.63,44.31,27.83,43.27,27.73Zm-.11,1.05c-.8-.08-1.43-.35-1.41-.61s.7-.4,1.5-.32,1.44.35,1.42.6S44,28.86,43.16,28.78Z"/><path class="cls-11" d="M45,13c2.15-.62,2.56-2.17,8.5-.93s5.37,1.24,2.21,2.95-1.53.78-6.92.62C38.36,15.35,45,13,45,13Z"/><path class="cls-12" d="M53.18,15.3a6,6,0,0,1-.78-.09,29.13,29.13,0,0,0-3.64-.31c-5.21-.15-5.42-.82-5.42-.82,0-.19.78-.73,1.79-1.09a7.77,7.77,0,0,0,1.43-.59,6.08,6.08,0,0,1,3.13-.77,18.61,18.61,0,0,1,3.64.45,25.22,25.22,0,0,1,4.18,1.06A10,10,0,0,1,56,14l-.57.3C54,15.08,53.63,15.3,53.18,15.3Z"/><path class="cls-11" d="M44.21,24.05c-3.86,1.15-1.07,2.72-11.78.57s-8.08-3.71-7.53-4c5.28-3.12,2.57-1.16,12.27-.95C55.87,20,44.21,24.05,44.21,24.05Z"/><path class="cls-12" d="M40,24a35.24,35.24,0,0,1-7.48-1c-5.66-1.13-7.09-2-7.44-2.35l.18-.11c2-1.2,2.77-1.58,3.44-1.63A7.46,7.46,0,0,1,30.2,19a41.21,41.21,0,0,0,6.9.63c7.49.16,9.3.92,9.72,1.2a9.07,9.07,0,0,1-2.94,1.54,8.56,8.56,0,0,0-2.26,1A2.68,2.68,0,0,1,40,24Z"/><path class="cls-11" d="M75.86,17.53c-.65-.85-2.91,1.73-6.6,4.55s-8.23,4.13-7.39,4.8c1.29,1,8.53,0,12.21-2.83S77.8,20.07,75.86,17.53Z"/><path class="cls-12" d="M69.26,22.08c-2.65,2-5.73,3.27-7,4.06,1.58.54,7.48-.75,10.68-3.2s3.49-3.53,2.08-5.45C74,18,72,20,69.26,22.08Z"/></g></g></g></svg>