<svg xmlns="http://www.w3.org/2000/svg" viewBox="0 0 50.18 51.61"><defs><style>.cls-1{isolation:isolate;}.cls-2{fill:#b8b5aa;}.cls-10,.cls-2{mix-blend-mode:multiply;}.cls-3{fill:#030800;}.cls-4{fill:#fcfbe6;}.cls-5{fill:#113000;}.cls-6{fill:#e61300;}.cls-7{fill:#f4493a;}.cls-12,.cls-8{opacity:0.3;mix-blend-mode:color-dodge;}.cls-12,.cls-9{fill:#fff;}.cls-11{fill:#e3e1ba;}</style></defs><title>Recurso 6</title><g class="cls-1"><g id="Capa_2" data-name="Capa 2"><g id="Layer_1" data-name="Layer 1"><path class="cls-2" d="M50.17,42.52c.32-5.75-10.65-11-24.5-11.81S.33,34,0,39.71s10.64,11,24.5,11.81S49.85,48.26,50.17,42.52Z"/><path class="cls-3" d="M22.67,0C10.33,0,.32,3.85.32,8.6V37.4c0,6.85,10,12.4,22.35,12.4S45,44.25,45,37.4V8.6C45,3.85,35,0,22.67,0Z"/><path class="cls-4" d="M44.05,8.6c0-4.27-9.57-7.73-21.38-7.73S1.29,4.33,1.29,8.6s9.58,7.73,21.38,7.73S44.05,12.87,44.05,8.6Z"/><path class="cls-5" d="M14.87,33.5c4.45-.47,1.88-3.17,1.14-4.41-3.3-1.78-2.71-2.59-1.47-3.91.46-2.47,1.32-2.5-.43-2.71-1.38-1.32-2-.06-.52-1.53,0-.09,1.46.33-2.09-.68-.43-.05-.41-.17.58-1.06,1.11-1.13.61-.36-2-.81,1.87-.63-4.81-2.18-5.73-2.71C1.6,14.08.75,14.53,1.63,29.89a60.13,60.13,0,0,0,.78,7.4,13.81,13.81,0,0,0,1.22,4c.74.38,4,3.23,5,3.42,3.67,2.92,3.19,1.11,5.65,1.23-.35,1.68,2.72.32,6.12.31.17-.64-5.19-2.62-5.72-3.07s3.77.64,7-.32A53.69,53.69,0,0,1,14,37.76C17.8,36,16.55,34.83,14.87,33.5Z"/><path class="cls-6" d="M15.53,6.35c2.71-1.16,3.22-4.06,10.7-1.74S33,6.93,29,10.11s-1.93,1.46-8.71,1.16C7.22,10.69,15.53,6.35,15.53,6.35Z"/><path class="cls-7" d="M25.9,10.6a5.47,5.47,0,0,1-1-.16,24.65,24.65,0,0,0-4.58-.58c-6.57-.29-6.83-1.53-6.83-1.55-.05-.35,1-1.35,2.25-2a8.92,8.92,0,0,0,1.8-1.1A5.87,5.87,0,0,1,21.5,3.74a16,16,0,0,1,4.59.85c2.12.66,4.73,1.46,5.26,2a12.31,12.31,0,0,1-1.92,1.69l-.72.56C27,10.2,26.46,10.6,25.9,10.6Z"/><g class="cls-8"><path class="cls-9" d="M18.68,9.43a26.31,26.31,0,0,1,6.18-5.21,17.15,17.15,0,0,0-2.34-.43A22.17,22.17,0,0,0,16.77,10c-.19.29-.36.59-.53.89l1.13.17C17.79,10.48,18.23,9.94,18.68,9.43Z"/><path class="cls-9" d="M16,7.62a32.9,32.9,0,0,1,2.68-3l.53-.46A18.09,18.09,0,0,0,16.27,6c-.29.35-.58.7-.85,1.06a34.93,34.93,0,0,0-2,2.89,3.3,3.3,0,0,0,.66.37C14.71,9.36,15.34,8.47,16,7.62Z"/><path class="cls-9" d="M29,10.11c1.05-.84,1.86-1.45,2.37-1.95a17.31,17.31,0,0,0-6.69,3.65C26.39,12.17,26.37,12.23,29,10.11Z"/><path class="cls-9" d="M28.7,5.39a21.31,21.31,0,0,0-7.89,5.9l.93.07a23.17,23.17,0,0,1,8.4-5.46Z"/></g><g class="cls-10"><path class="cls-11" d="M26.08,15.1c0-.2-.21-.41-.54-.47s-.64.06-.67.26.21.41.54.47S26,15.3,26.08,15.1Z"/><path class="cls-11" d="M28,3c0-.2-.21-.41-.54-.47s-.63,0-.67.26.21.41.54.47S28,3.21,28,3Z"/><path class="cls-11" d="M19.21,14.73c0-.21-.22-.44-.58-.5s-.67.06-.71.27.22.44.58.5S19.17,14.94,19.21,14.73Z"/><path class="cls-11" d="M18.56,2.61c0-.21-.22-.43-.58-.5s-.67.06-.71.28.22.43.58.5S18.52,2.83,18.56,2.61Z"/><path class="cls-11" d="M39.8,5.9c0-.16-.16-.33-.42-.37s-.5,0-.52.2.16.32.42.37S39.78,6.05,39.8,5.9Z"/><path class="cls-11" d="M33.66,4.83c.05-.27-.29-.57-.75-.65s-.88.08-.93.36.28.57.75.65S33.61,5.11,33.66,4.83Z"/><path class="cls-11" d="M11.23,12.15c0-.28-.28-.57-.75-.65s-.88.08-.93.35.29.58.76.66S11.19,12.43,11.23,12.15Z"/><path class="cls-11" d="M12.93,5.36c.05-.28-.29-.57-.76-.65s-.88.08-.93.35.29.58.76.66S12.88,5.64,12.93,5.36Z"/><path class="cls-11" d="M32.51,12.6c.05-.33-.34-.67-.89-.77s-1,.09-1.09.42.34.67.88.76S32.45,12.92,32.51,12.6Z"/><path class="cls-11" d="M37.85,9.05c0-.27-.28-.56-.74-.65s-.88.08-.93.36.29.56.75.64S37.8,9.33,37.85,9.05Z"/><path class="cls-11" d="M6.77,6.3c0-.16-.16-.33-.43-.37s-.49,0-.52.2.16.32.42.37S6.74,6.45,6.77,6.3Z"/><path class="cls-11" d="M4.81,9.45c.05-.27-.28-.56-.74-.64s-.87.07-.92.35.28.56.74.64S4.77,9.73,4.81,9.45Z"/></g><path class="cls-12" d="M4.12,39.22c-1.37.13-1.63-9.54-2.05-13.85S1,15.65,2.36,15.52s-.43,5.47.54,10C4.44,32.81,5.49,39.08,4.12,39.22Z"/></g></g></g></svg>