<svg xmlns="http://www.w3.org/2000/svg" viewBox="0 0 73.16 48.88"><defs><style>.cls-1{isolation:isolate;}.cls-2{fill:#b8b5aa;}.cls-10,.cls-2{mix-blend-mode:multiply;}.cls-3{fill:#ece2ac;}.cls-4{fill:#fcfbe6;}.cls-5,.cls-7{fill:#fff;}.cls-6{fill:#ff7547;}.cls-7{opacity:0.2;mix-blend-mode:color-dodge;}.cls-8{fill:#ff4000;}.cls-9{fill:#ffa36e;}</style></defs><title>Recurso 4</title><g class="cls-1"><g id="Capa_2" data-name="Capa 2"><g id="Layer_1" data-name="Layer 1"><path class="cls-2" d="M59.92,43.86a1.11,1.11,0,0,0-.3-.32c.46-.35.51-1,0-1.72a3.31,3.31,0,0,0-.87-.88,1.84,1.84,0,0,0,.68-.81,1.57,1.57,0,0,0-1.06-2.05c.79-.4,1.05-1,.55-1.42a4.25,4.25,0,0,0-3.26-.46l-.11-.1c.06-.07.13-.13.18-.2a1.41,1.41,0,0,0-.83-2.26,3.14,3.14,0,0,0-.68-.13A4.58,4.58,0,0,0,51.64,32a8.68,8.68,0,0,0-1.84-.32c0-.11-.06-.21-.1-.33A3.13,3.13,0,0,0,47,29.57l-.28,0a5.3,5.3,0,0,0-3.25-.82,6.55,6.55,0,0,0-1.15.12s0-.08,0-.12a2.23,2.23,0,0,0-2-2.17,2.6,2.6,0,0,0-.84,0,5.77,5.77,0,0,0-3.54-.8,6,6,0,0,0-1.61.26,3.4,3.4,0,0,0-2.85-1.65,1.14,1.14,0,0,0-1.23,1c0-.05,0-.11-.09-.17a3.63,3.63,0,0,0-3-1.6,1.3,1.3,0,0,0-.7.26,6.14,6.14,0,0,0-3.05-.42,4.78,4.78,0,0,0-1.53.36A3.59,3.59,0,0,0,19,22.46a1.14,1.14,0,0,0-1.13,1.6h0a4.35,4.35,0,0,0-3.4-1.37,1,1,0,0,0-.73,1.46A4.62,4.62,0,0,0,10.16,23c-.9.25-.85,1.15,0,2.05L9.83,25c-1.72-.47-3.35-.37-3.63.22-.11.23,0,.5.29.77a2.91,2.91,0,0,0-1.41-.1c-1,.23-.94,1.18,0,2.12A2.1,2.1,0,0,0,3.8,29a1.45,1.45,0,0,0,.36,1.72c-.75.12-1.25.38-1.26.75S3.77,32.56,5,32.89c-.54.06-.94.22-1.07.48-.3.59.88,1.47,2.63,2l.34.08c-.27.14-.44.31-.44.53,0,.66,1.48,1.4,3.33,1.64h0c-.37.17-.58.4-.54.66.1.66,1.62,1.3,3.39,1.44.28,0,.54,0,.8,0-.55.45-.64,1-.11,1.4a4.26,4.26,0,0,0,3.18.37,4.47,4.47,0,0,0,2.9,1.34,8,8,0,0,0,1.78.11,1.8,1.8,0,0,0,.06.22,3.21,3.21,0,0,0,2.8,1.92,1.58,1.58,0,0,0,1.15-.42,2.34,2.34,0,0,0,.2.27,3.89,3.89,0,0,0,3.17,1.38,1.08,1.08,0,0,0,.56-.25,1.38,1.38,0,0,0,.81.73,3.08,3.08,0,0,0,2.59-.26.73.73,0,0,0,.17.29c.61.62,2.32.85,3.82.51a4.73,4.73,0,0,0,.92-.3,2.65,2.65,0,0,0,2.29,1.87,1.83,1.83,0,0,0,1.76-.74,1.52,1.52,0,0,0,.72.57A3.23,3.23,0,0,0,45.48,48h0a1.62,1.62,0,0,0,.68.49,3.37,3.37,0,0,0,3.35-.68h0a1.58,1.58,0,0,0,.56.38,3.35,3.35,0,0,0,3.3-.6,1.47,1.47,0,0,0,.53-1c1.27.47,2.55.56,3.05.18s.1-1-.8-1.63l0,0a7.16,7.16,0,0,0,1.23,0C59.14,45.13,60.26,44.53,59.92,43.86Z"/><path class="cls-3" d="M61.11,29.84a1.45,1.45,0,0,0-.36-.49,3.55,3.55,0,0,0-.27-3.11,4.59,4.59,0,0,0-1-1.29A4.49,4.49,0,0,0,60,23.28c.18-1.6-.43-3-1.4-3.34.69-1,.85-2.1.28-2.75s-2.08-.62-3.3.26l-.12-.15c.05-.14.1-.27.14-.42.48-1.79-.07-3.48-1.23-3.79a1.46,1.46,0,0,0-.69,0,3.72,3.72,0,0,0-2.83-1.85,4.91,4.91,0,0,0-1.88,0c0-.19-.09-.37-.15-.56-.58-1.67-1.93-2.71-3-2.33a1.47,1.47,0,0,0-.28.14,3.16,3.16,0,0,0-3.34-.41,5.16,5.16,0,0,0-1.12.59,1.47,1.47,0,0,0,0-.21C41,6.64,39.89,5.19,38.68,5.26a1.5,1.5,0,0,0-.82.3,3.4,3.4,0,0,0-3.63-.27,4.54,4.54,0,0,0-1.52,1c-.72-1.56-2.08-2.47-3.11-2a2.16,2.16,0,0,0-1,2.26l-.11-.27c-.79-1.56-2.24-2.4-3.25-1.9a1.52,1.52,0,0,0-.65.7,3.52,3.52,0,0,0-3.07.25,4.46,4.46,0,0,0-1.44,1.16C19.25,5.12,18,4.4,17,4.83s-1.26,1.81-.82,3.26h0c-1.07-1.39-2.64-2-3.58-1.32a2.4,2.4,0,0,0-.46,2.85C10.88,8.39,9.26,8,8.4,8.76s-.63,2.34.42,3.68l-.39-.09c-1.78-.27-3.36.45-3.53,1.6a1.68,1.68,0,0,0,.42,1.3,1.68,1.68,0,0,0-1.4.28C3,16.26,3.2,18,4.3,19.34a4.19,4.19,0,0,0-1.07,2.34,3.83,3.83,0,0,0,.67,3,2,2,0,0,0-1.1,1.77c.08.91,1,1.61,2.32,1.8a1.75,1.75,0,0,0-1,1.21C4,30.6,5.28,31.79,7.1,32.08c.11,0,.22,0,.34,0A1.66,1.66,0,0,0,7.1,33.2c.12,1.2,1.72,2,3.57,1.86h.05a1.69,1.69,0,0,0-.42,1.37c.22,1.14,1.83,1.79,3.59,1.46a4,4,0,0,0,.79-.23,2.26,2.26,0,0,0,.15,2.57c.72.68,2,.48,3.19-.39a3.24,3.24,0,0,0,3.1,1.45,4.43,4.43,0,0,0,1.77-.39,2.79,2.79,0,0,0,.1.39c.57,1.76,2,2.89,3.1,2.52a1.78,1.78,0,0,0,1.06-1.14,4.49,4.49,0,0,0,.24.42c.95,1.41,2.46,2.05,3.37,1.44a1.38,1.38,0,0,0,.51-.63,1.64,1.64,0,0,0,.93,1c.82.3,1.82-.27,2.49-1.33a1.5,1.5,0,0,0,.22.46c.71.91,2.44.76,3.85-.33a4.93,4.93,0,0,0,.85-.86c.39,1.63,1.49,2.78,2.6,2.61a2.22,2.22,0,0,0,1.59-1.9,1.54,1.54,0,0,0,.81.78c1.06.4,2.43-.6,3-2.24h0a1.59,1.59,0,0,0,.75.66c1.11.42,2.53-.63,3.18-2.34v0a1.5,1.5,0,0,0,.61.51c1.06.44,2.47-.53,3.15-2.17a4.48,4.48,0,0,0,.34-1.94c1.33.43,2.61.17,3-.69s-.08-1.87-1.08-2.66l0-.06a4.76,4.76,0,0,0,1.21-.33C60.57,32.38,61.56,30.93,61.11,29.84Z"/><path class="cls-4" d="M49.22,21h-.06c.06-.13.13-.25.18-.39.61-1.61.26-3.24-.78-3.64a1.77,1.77,0,0,0-1.68.36c.47-1.43.16-2.82-.77-3.2a1.57,1.57,0,0,0-1.37.15,3.6,3.6,0,0,0-1.81-1.83,4.19,4.19,0,0,0-1.39-.4,1.43,1.43,0,0,0-.06-.87c-.43-1-2.07-1.32-3.66-.66a5.23,5.23,0,0,0-.93.53,4.82,4.82,0,0,0-.34-.88c-.77-1.46-2.16-2.24-3.11-1.74l0,0a.89.89,0,0,0,0-.14,1.57,1.57,0,0,0-.84-.8,1.6,1.6,0,0,0-1.11-.77,1.76,1.76,0,0,0-1.54.81l-.23.08a4.62,4.62,0,0,0-1.45.95c-.67-1.47-2-2.32-2.93-1.91a2.05,2.05,0,0,0-1,2.14c0-.09-.07-.18-.11-.26C23.44,7,22.07,6.23,21.12,6.71a1.46,1.46,0,0,0-.7.85,3.41,3.41,0,0,0-2.77.29,4,4,0,0,0-1.6,1.43,2.22,2.22,0,0,0-2.45-.93c-.91.41-1.19,1.77-.73,3.18-1-1.38-2.55-2-3.46-1.34s-.87,2.26.07,3.68a2.09,2.09,0,0,0-2.36,0c-.85.76-.58,2.44.59,3.74.06.07.13.12.19.19-1.59-.17-3,.48-3.13,1.52-.13.83.56,1.66,1.65,2.12-.7.76-.49,2.28.53,3.54a4.43,4.43,0,0,0,1.34,1.11,4.68,4.68,0,0,0-.18.78c-.25,1.7.45,3.21,1.55,3.37a.74.74,0,0,0,.21,0C10,31.31,11.36,32,13,32c-.07,1.06,1.13,2.1,2.78,2.37a5.06,5.06,0,0,0,1,0A3.22,3.22,0,0,0,20,35.69a4.85,4.85,0,0,0,.57-.09c.27,1,1.74,1.6,3.37,1.3a5.2,5.2,0,0,0,.92-.29A1.62,1.62,0,0,0,25.33,38c.81.77,2.41.38,3.59-.87A1.42,1.42,0,0,0,29,37a3.69,3.69,0,0,0,2.46.76,4,4,0,0,0,2.21-.7c.62,1.33,1.75,2.13,2.71,1.82s1.4-1.62,1.12-3.08l.13.23c.9,1.33,2.32,1.94,3.19,1.36a1.67,1.67,0,0,0,.62-1.52,1.21,1.21,0,0,0,.39.24c1,.36,2.23-.58,2.79-2.11.07-.2.12-.4.17-.6a4.25,4.25,0,0,0,3.59-2.74c1.07-.26,1.72-1.76,1.46-3.45a4.73,4.73,0,0,0-.56-1.6A4.47,4.47,0,0,0,50,24.45C50.56,22.9,50.22,21.33,49.22,21Z"/><path class="cls-5" d="M31,28c.82-3-2.61-6.53-7.68-7.94S13.53,20,12.7,22.94s2.61,6.53,7.67,7.93S30.21,31,31,28Z"/><path class="cls-6" d="M67.5,25.24a17.68,17.68,0,0,0-4.89-.9C59.29,16.48,49.69,4.37,34,1A42.44,42.44,0,0,0,5.28,4.78C.53,7.36,5.57,8,2.08,9.87-.43,11.24-1.32,17.61,3.16,19c5.8,1.73,15.06,2.91,25.78,5.22C40.22,26.61,50.71,30,57.2,31a37.48,37.48,0,0,0,.85,4.6c.89,4,1.52,7.25,4,6.69s5.74-4.39,3-8.25c-.81-1.12-1.49-2.26-2.14-3.25a1.76,1.76,0,0,0,.93-1.14c.68.46,1.41,1,2.12,1.52,3.22,2.5,6.58-.13,7.14-2.26S70.89,26.12,67.5,25.24Z"/><path class="cls-7" d="M34,1A42.44,42.44,0,0,0,5.28,4.78C.53,7.36,5.57,8,2.08,9.87A4.36,4.36,0,0,0,.25,12.56c13.79-1,30.46,1.82,39.3,4.83,9.77,3.32,17.6,3.2,17.06-2.55A41.14,41.14,0,0,0,34,1Z"/><path class="cls-8" d="M67.5,25.24a17.68,17.68,0,0,0-4.89-.9C58.88,22.29,48.22,8.39,32.48,5,21.2,2.55,14.88,3.43,7.18,6.51c-5,2-1.61,1.45-5.1,3.36C-.43,11.24,8,8.37,12.58,7.65c7.47-1.18,13.91-2.45,24,1.84C47.53,14.14,61.47,22,57.2,31a37.48,37.48,0,0,0,.85,4.6c.89,4,1.52,7.25,4,6.69s5.74-4.39,3-8.25c-.81-1.12-1.49-2.26-2.14-3.25a1.76,1.76,0,0,0,.93-1.14c.68.46,1.41,1,2.12,1.52,3.22,2.5,6.58-.13,7.14-2.26S70.89,26.12,67.5,25.24Z"/><path class="cls-8" d="M7.56,8c.81.59.77,2-.09,3.26S4.63,15,4.05,12.8a4.26,4.26,0,0,1,.46-3.61C5.38,8,6.74,7.46,7.56,8Z"/><path class="cls-8" d="M56,20.44c.69.73.36,2.15-.73,3.17s-3.51,3.05-3.65.8A4.27,4.27,0,0,1,52.8,21C53.89,19.94,55.33,19.71,56,20.44Z"/><path class="cls-8" d="M16,5.5c1.61.66,2.12,3.14,1.14,5.55S13.79,18.41,12,15a7.43,7.43,0,0,1-.66-6.3C12.28,6.25,14.38,4.84,16,5.5Z"/><path class="cls-8" d="M27.23,6c1.43,1,1.39,3.53-.1,5.66s-4.88,6.45-5.92,2.66A7.41,7.41,0,0,1,22,8C23.44,5.91,25.81,5,27.23,6Z"/><path class="cls-8" d="M38.19,8.67c1.26,1.2.84,3.7-.95,5.58S31.46,19.9,31,16A7.43,7.43,0,0,1,32.66,9.9C34.45,8,36.92,7.47,38.19,8.67Z"/><path class="cls-8" d="M47.88,13.51c1.26,1.2.84,3.7-1,5.58s-5.78,5.65-6.25,1.76a7.43,7.43,0,0,1,1.67-6.11C44.14,12.85,46.61,12.3,47.88,13.51Z"/><path class="cls-9" d="M4.67,19.08a7.44,7.44,0,0,0-2-6c-1-1.17-1.82-1-2.45-.29-.56,2.36.08,5.31,3,6.17.46.14,1,.27,1.45.4Z"/><path class="cls-9" d="M52.18,30c1.43.33,2.76.61,4,.83a6.84,6.84,0,0,0,.05-1.41C56.06,26.92,53.63,28.7,52.18,30Z"/><path class="cls-9" d="M12.36,21a7.58,7.58,0,0,0-2.06-5.62c-2.38-2.76-3.59,1.67-4.1,4.36C8,20.17,10.11,20.58,12.36,21Z"/><path class="cls-9" d="M38.18,20.81C36.6,17.22,33.87,22,32.71,24.3a6.21,6.21,0,0,0-.28.66c2.11.5,4.18,1,6.19,1.53A7.76,7.76,0,0,0,38.18,20.81Z"/><path class="cls-9" d="M21.78,22.39a7.41,7.41,0,0,0-2-6c-2.56-3-3.77,2.39-4.21,4.95l0,.25c2,.36,4,.73,6.2,1.14Z"/><path class="cls-9" d="M48.9,24c-1-3.78-4.43.55-5.92,2.67a8.2,8.2,0,0,0-.47.79c2.21.58,4.31,1.14,6.28,1.64A8.06,8.06,0,0,0,48.9,24Z"/><path class="cls-9" d="M30.54,24.53l.09-.44a7.41,7.41,0,0,0-2-6c-2.56-3-3.77,2.39-4.2,4.95a1.2,1.2,0,0,0,0,.2c1.49.29,3,.6,4.57.93Z"/><path class="cls-8" d="M7.22,8.18c1,.24,2.05-.73,2.42-2.17A6.79,6.79,0,0,0,9.88,2.7c-1.18.44-2.3.92-3.34,1.43a3.45,3.45,0,0,0-.42,1C5.75,6.56,6.24,7.93,7.22,8.18Z"/><path class="cls-8" d="M30.48,3.87A20.19,20.19,0,0,0,32.39.67,43.37,43.37,0,0,0,25.5,0l-.18.22c-1.5,2.12-1.55,4.65-.13,5.66S29,6,30.48,3.87Z"/><path class="cls-8" d="M14.3,7c1.69.43,3.58-1.26,4.22-3.78A25.07,25.07,0,0,0,19.07.4a42.78,42.78,0,0,0-6.73,1.46C11.81,4.29,12.66,6.56,14.3,7Z"/><path class="cls-8" d="M60.91,20.93a41.51,41.51,0,0,0-3.52-5.15c-1.75,1.42-2.48,3.44-1.63,4.76S58.86,22,60.91,20.93Z"/><path class="cls-8" d="M46.46,13.23c.94,1.46,3.48,1.51,5.66.1C52.66,13,53.34,12.51,54,12a43.54,43.54,0,0,0-4.92-4.2c-.13.08-.26.13-.39.22C46.51,9.43,45.51,11.76,46.46,13.23Z"/><path class="cls-8" d="M41,7.86A17.52,17.52,0,0,0,44.6,5a40.14,40.14,0,0,0-6.31-2.78,6.13,6.13,0,0,0-.71.38C35.41,4,34.41,6.29,35.36,7.76S38.84,9.27,41,7.86Z"/><g class="cls-10"><path class="cls-9" d="M33.78,1c16,3.46,25.19,16,28.1,22.9l.22.53.55,0h0C59.29,16.48,49.69,4.37,34,1A43.42,43.42,0,0,0,29.42.25,42.55,42.55,0,0,1,33.78,1Z"/><path class="cls-9" d="M26.58.05c-.45,0-.91,0-1.35,0C25.68,0,26.13,0,26.58.05Z"/><path class="cls-9" d="M67.5,25.24A22,22,0,0,0,63,24.33a19.4,19.4,0,0,1,4,.8l.69.18a19,19,0,0,1,3.84,1.25c.94.51.92.94.82,1.33a4,4,0,0,1-3.61,2.69,3.66,3.66,0,0,1-2.26-.85c-.69-.54-1.37-1-2-1.45l-1.07-.74-.29,1.1a1,1,0,0,1-.54.64l-.75.42.46.72c.18.26.35.54.53.83.5.79,1,1.61,1.63,2.45A4.15,4.15,0,0,1,65,37.77a4.92,4.92,0,0,1-3.13,2.93,2.47,2.47,0,0,1-.36,0c-1.36,0-1.94-2.64-2.62-5.71l-.19-.84A30.39,30.39,0,0,1,58,30.13l0-.64-.63-.09c-3.44-.53-8-1.74-13.34-3.14-4.51-1.19-9.63-2.54-14.87-3.67-4.56-1-8.91-1.77-12.74-2.46-5.2-.95-9.69-1.76-13-2.75A3.59,3.59,0,0,1,.83,14.11c-.19-1.76.56-3.75,1.63-4.34C4.5,8.66,4.33,7.59,4,6.68c-.18-.52-.32-.93,1.64-2A40.31,40.31,0,0,1,22.14.09,41.25,41.25,0,0,0,5.28,4.78C.53,7.36,5.57,8,2.08,9.87-.43,11.24-1.32,17.61,3.16,19c5.8,1.73,15.06,2.91,25.78,5.22C40.22,26.61,50.71,30,57.2,31a37.48,37.48,0,0,0,.85,4.6c.89,4,1.52,7.25,4,6.69s5.74-4.39,3-8.25c-.81-1.12-1.49-2.26-2.14-3.25a1.76,1.76,0,0,0,.93-1.14c.68.46,1.41,1,2.12,1.52,3.22,2.5,6.58-.13,7.14-2.26S70.89,26.12,67.5,25.24Z"/><path class="cls-9" d="M27.34.08c.58,0,1.15.08,1.73.14C28.49.16,27.91.11,27.34.08Z"/><path class="cls-9" d="M22.68.07q.88,0,1.77-.06C23.85,0,23.27,0,22.68.07Z"/></g><path class="cls-5" d="M48.57,17.55c.43-1.31-2.55-3.47-6.66-4.83s-7.79-1.41-8.22-.1,4.18-.39,7.43,2.46C46.71,20,48.13,18.85,48.57,17.55Z"/><path class="cls-5" d="M28.2,2.17c-.07-.84-3.41-1.25-7.45-.91s-7.26,1.31-7.19,2.15,3.28-.28,7.32-.62S28.27,3,28.2,2.17Z"/></g></g></g></svg>