<svg xmlns="http://www.w3.org/2000/svg" xmlns:xlink="http://www.w3.org/1999/xlink" viewBox="0 0 42.7 57.46"><defs><style>.cls-1{isolation:isolate;}.cls-2{fill:#b8b5aa;mix-blend-mode:multiply;}.cls-3{fill:#9c5723;}.cls-4,.cls-5{fill:#b4703d;}.cls-5{opacity:0.5;}.cls-5,.cls-8{mix-blend-mode:screen;}.cls-6{fill:#e6be8a;}.cls-7{fill:#ece2ac;}.cls-8{opacity:0.6;fill:url(#linear-gradient);}.cls-9{fill:#fff;}.cls-10{fill:#93b010;}.cls-11{fill:#adcc21;}.cls-12{fill:#799400;}</style><linearGradient id="linear-gradient" x1="16.41" y1="4.64" x2="30.93" y2="20.84" gradientUnits="userSpaceOnUse"><stop offset="0" stop-color="#fff"/><stop offset="1"/></linearGradient></defs><title>Recurso 14</title><g class="cls-1"><g id="Capa_2" data-name="Capa 2"><g id="Layer_1" data-name="Layer 1"><path class="cls-2" d="M42,51c.23-4-7.51-7.78-17.28-8.32S6.85,45,6.63,49.07s7.51,7.78,17.28,8.32S41.79,55.09,42,51Z"/><path class="cls-3" d="M7.39,48.52c0,2.85,6.25,6.76,14,6.76s14-3.91,14-6.76-6.25-13.66-14-13.66S7.39,45.66,7.39,48.52Z"/><path class="cls-4" d="M42.7,7.91C42.7,4.75,33.08.12,21.35.12S0,4.75,0,7.91c0,7.37,0,40.81,21.35,40.81S42.7,15.28,42.7,7.91Z"/><path class="cls-5" d="M4.32,8c-1.23,2.94-.88.86-1.54,3.78C1,19.78,6.47,42.65,13.49,44.7,27.62,48.81,25.37,13.27,24.32,6.15c-.2-1.35,1.82-3.38,1.28-4.43a28.62,28.62,0,0,0-4.3-.32C14.06,1.4,7.73,4.06,4.32,8Z"/><path class="cls-6" d="M42.7,7.91C42.7,3.54,33.14,0,21.35,0S0,3.54,0,7.91s9.56,7.91,21.35,7.91S42.7,12.28,42.7,7.91Z"/><path class="cls-4" d="M21.35,14C11,14,2.2,11.09,2.2,7.66S11,1.33,21.35,1.33,40.5,4.23,40.5,7.66,31.73,14,21.35,14Z"/><path class="cls-7" d="M21.35,14c7.61,0,14.36-1.56,17.41-3.75-.64-2.95-8.35-5.37-17.41-5.37S4.58,7.29,3.94,10.24C7,12.43,13.74,14,21.35,14Z"/><path class="cls-8" d="M6.77,11.7A42.17,42.17,0,0,0,21.35,14c7,0,13.17-1.31,16.53-3.2-2.25-2.63-8.32-4.57-15.25-4.57C14.92,6.22,8.27,8.62,6.77,11.7Z"/><path class="cls-9" d="M3.93,11.12c-.16.51,1.85,1.58,4.49,2.41s4.9,1.08,5.06.58-2.14-.67-4.78-1.49S4.08,10.62,3.93,11.12Z"/><path class="cls-9" d="M6.36,20.37C6,18.19,5.23,16.51,4.6,16.61s-.87,1.95-.53,4.12,1.14,3.85,1.77,3.75S6.71,22.54,6.36,20.37Z"/><path class="cls-9" d="M7.38,27.51c-.41-.85-1-1.38-1.42-1.2s-.35,1,0,1.86,1,1.38,1.43,1.2S7.79,28.35,7.38,27.51Z"/><path class="cls-9" d="M10.76,49.32c-.78-.52-1.6-.67-1.83-.32s.2,1,1,1.58,1.59.67,1.83.32S11.53,49.85,10.76,49.32Z"/><path class="cls-10" d="M23.33,12.27H23l.15-.06Z"/><path class="cls-11" d="M26.65,8.61l-.18-.1-.26-.2a3.44,3.44,0,0,0-2.92-1.23,4.54,4.54,0,0,0-2,.44l-.26,0a6,6,0,0,0-.61,0,4.18,4.18,0,0,1,2.87-1c1.77,0,3.22.83,3.35,1.88,0,.05,0,.1,0,.15Z"/><path class="cls-10" d="M23,7.45a3.35,3.35,0,0,0-.79.09,4.39,4.39,0,0,0-.53,0l-.39,0a4.54,4.54,0,0,1,2-.44,3.44,3.44,0,0,1,2.92,1.23,4.1,4.1,0,0,0-1.92-.58A2.89,2.89,0,0,0,23,7.45Z"/><path class="cls-10" d="M27.05,9.59c0,1-1.39,1.88-3.11,1.88a4.56,4.56,0,0,1-.92-.09,2.33,2.33,0,0,0,.65-.59,1.93,1.93,0,0,0,1,0,1,1,0,0,0,.68-1.57.69.69,0,0,0,0-.13,1,1,0,0,0-.4-.77,1.4,1.4,0,0,0-.69-.61,4.1,4.1,0,0,1,1.92.58l.26.2A1.42,1.42,0,0,1,27.05,9.59Z"/><path class="cls-12" d="M25.36,9.24a1,1,0,0,1-.68,1.57,1.93,1.93,0,0,1-1,0,1.66,1.66,0,0,0,.2-.4A1.74,1.74,0,0,0,25.36,9.24Z"/><path class="cls-10" d="M19.7,8.22l-.24.07a1,1,0,0,0-.36,1.6,2.09,2.09,0,0,0,2.18.62,1.08,1.08,0,0,0,.28-.16l.3,0a2,2,0,0,0,.35,0,3.37,3.37,0,0,0,.73.12,4,4,0,0,1-2.57.82c-1.6,0-2.93-.74-3.09-1.68a1.36,1.36,0,0,1,0-.2A1.75,1.75,0,0,1,18.39,8a4.48,4.48,0,0,1,2-.43h.05a6,6,0,0,1,.61,0A2.39,2.39,0,0,0,19.7,8.22Z"/><path class="cls-12" d="M20.24,9.89a2.65,2.65,0,0,0,1.32.46,1.08,1.08,0,0,1-.28.16,2.09,2.09,0,0,1-2.18-.62,1,1,0,0,1,.36-1.6l.24-.07a1,1,0,0,0-.27.64A1.26,1.26,0,0,0,20.24,9.89Z"/><path class="cls-11" d="M23.41,9.94c.95-.12,1.67-.63,1.67-1.23a.82.82,0,0,0-.1-.37,1,1,0,0,1,.4.77.69.69,0,0,1,0,.13,1.74,1.74,0,0,1-1.49,1.15,4.3,4.3,0,0,1-.74.08h-.19a3.37,3.37,0,0,1-.73-.12A2.51,2.51,0,0,0,23.41,9.94Z"/><path class="cls-10" d="M25.08,8.71c0,.6-.72,1.11-1.67,1.23a1,1,0,0,0,.53-.83.9.9,0,0,0,0-.16.29.29,0,0,0,0-.09c0-.64-.73-1.17-1.72-1.32A3.35,3.35,0,0,1,23,7.45a2.89,2.89,0,0,1,1.29.28,1.4,1.4,0,0,1,.69.61A.82.82,0,0,1,25.08,8.71Z"/><path class="cls-11" d="M22.21,7.54c1,.15,1.72.68,1.72,1.32a.29.29,0,0,1,0,.09c-.12-.62-1-1.1-2.05-1.1s-2.09.56-2.09,1.26a1,1,0,0,0,.47.78,1.26,1.26,0,0,1-.81-1,1,1,0,0,1,.27-.64A2.39,2.39,0,0,1,21,7.56l.26,0,.39,0A4.39,4.39,0,0,1,22.21,7.54Z"/><path class="cls-10" d="M21.56,10.35l.3,0a2,2,0,0,0,.35,0,2.51,2.51,0,0,0,1.2-.4,1,1,0,0,0,.53-.83.9.9,0,0,0,0-.16c-.12-.62-1-1.1-2.05-1.1s-2.09.56-2.09,1.26a1,1,0,0,0,.47.78A2.65,2.65,0,0,0,21.56,10.35Zm-.18-1.11a.4.4,0,0,1,.19-.63.76.76,0,0,1,.77.37.41.41,0,0,1-.2.63A.75.75,0,0,1,21.38,9.24Z"/><path class="cls-12" d="M21.38,9.24a.4.4,0,0,1,.19-.63.76.76,0,0,1,.77.37.41.41,0,0,1-.2.63A.75.75,0,0,1,21.38,9.24Z"/><path class="cls-9" d="M21.24,8.24c0-.16.32-.4.83-.53s.95-.11,1,0-.45,0-1,.13S21.29,8.39,21.24,8.24Z"/></g></g></g></svg>