<svg xmlns="http://www.w3.org/2000/svg" viewBox="0 0 65.6 48.61"><defs><style>.cls-1{isolation:isolate;}.cls-2{fill:#b8b5aa;mix-blend-mode:multiply;}.cls-3{fill:#ece2ac;}.cls-4{fill:#fcfbe6;}.cls-5{fill:#fff;}.cls-6{fill:#e61300;}.cls-7{fill:#f4493a;}.cls-8{fill:#ff685a;}.cls-9{opacity:0.3;mix-blend-mode:color-dodge;}</style></defs><title>Recurso 1</title><g class="cls-1"><g id="Capa_2" data-name="Capa 2"><g id="Layer_1" data-name="Layer 1"><path class="cls-2" d="M61.24,43.59a1.11,1.11,0,0,0-.3-.32c.47-.35.51-1,0-1.72a3.46,3.46,0,0,0-.87-.88,1.81,1.81,0,0,0,.67-.81,1.58,1.58,0,0,0-1.05-2c.78-.4,1-1,.55-1.42A4.26,4.26,0,0,0,57,35.93l-.11-.1c.06-.07.13-.13.18-.2a1.4,1.4,0,0,0-.83-2.26,2.93,2.93,0,0,0-.68-.13,4.49,4.49,0,0,0-2.6-1.5,8.88,8.88,0,0,0-1.85-.32,1.39,1.39,0,0,0-.1-.33A3.12,3.12,0,0,0,48.3,29.3l-.28,0a5.34,5.34,0,0,0-3.25-.82,6.57,6.57,0,0,0-1.16.12.5.5,0,0,0,0-.12,2.23,2.23,0,0,0-2-2.17,2.55,2.55,0,0,0-.83,0,5.78,5.78,0,0,0-3.55-.8,5.81,5.81,0,0,0-1.6.26,3.42,3.42,0,0,0-2.85-1.65,1.15,1.15,0,0,0-1.24,1c0-.05-.05-.11-.09-.17a3.61,3.61,0,0,0-3-1.6,1.34,1.34,0,0,0-.71.26,6.11,6.11,0,0,0-3-.42,4.85,4.85,0,0,0-1.54.36,3.59,3.59,0,0,0-2.83-1.43,1.14,1.14,0,0,0-1.12,1.6h0a4.36,4.36,0,0,0-3.4-1.36A1,1,0,0,0,15,23.89a4.61,4.61,0,0,0-3.55-1.14c-.9.25-.86,1.15,0,2.05l-.38-.11c-1.72-.47-3.34-.37-3.62.22-.12.23,0,.5.29.77a2.92,2.92,0,0,0-1.41-.1c-1,.23-1,1.17,0,2.12a2.1,2.1,0,0,0-1.28,1.06,1.44,1.44,0,0,0,.37,1.72c-.76.12-1.25.38-1.26.75s.87,1.06,2.1,1.39c-.54.06-.93.22-1.06.48-.3.59.88,1.47,2.63,1.95l.33.08c-.27.14-.43.31-.44.53,0,.66,1.49,1.4,3.33,1.64h.05c-.38.17-.59.39-.55.66.1.66,1.62,1.3,3.39,1.44.28,0,.55,0,.8,0-.55.45-.63,1-.11,1.4a4.28,4.28,0,0,0,3.18.37,4.53,4.53,0,0,0,2.91,1.34,8,8,0,0,0,1.77.11,1.8,1.8,0,0,0,.06.22,3.21,3.21,0,0,0,2.8,1.92,1.62,1.62,0,0,0,1.16-.42l.19.27A4,4,0,0,0,30,46a1.12,1.12,0,0,0,.56-.25,1.32,1.32,0,0,0,.81.73,3.06,3.06,0,0,0,2.58-.26.77.77,0,0,0,.18.29c.61.62,2.31.85,3.81.51a4.84,4.84,0,0,0,.93-.3,2.64,2.64,0,0,0,2.29,1.87,1.81,1.81,0,0,0,1.75-.74,1.57,1.57,0,0,0,.72.57,3.24,3.24,0,0,0,3.23-.66h0a1.52,1.52,0,0,0,.67.49,3.38,3.38,0,0,0,3.36-.68h0a1.63,1.63,0,0,0,.55.38,3.37,3.37,0,0,0,3.31-.6,1.47,1.47,0,0,0,.53-1c1.26.47,2.55.56,3,.18s.1-1-.81-1.63l0,0a7,7,0,0,0,1.22,0C60.46,44.86,61.58,44.26,61.24,43.59Z"/><path class="cls-3" d="M62.43,29.57a1.45,1.45,0,0,0-.36-.49A3.51,3.51,0,0,0,61.8,26a4.56,4.56,0,0,0-1-1.29A4.49,4.49,0,0,0,61.31,23c.18-1.6-.44-3-1.41-3.34a2.28,2.28,0,0,0,.28-2.75c-.67-.75-2.07-.62-3.29.26L56.76,17c.05-.14.1-.27.14-.42.48-1.79-.07-3.48-1.22-3.79a1.46,1.46,0,0,0-.69,0A3.74,3.74,0,0,0,52.16,11a4.9,4.9,0,0,0-1.88,0,3.92,3.92,0,0,0-.16-.56c-.58-1.67-1.92-2.71-3-2.34a2.34,2.34,0,0,0-.27.15,3.16,3.16,0,0,0-3.34-.41,4.57,4.57,0,0,0-1.12.59V8.23C42.28,6.37,41.21,4.91,40,5a1.47,1.47,0,0,0-.82.3A3.41,3.41,0,0,0,35.56,5,4.83,4.83,0,0,0,34,6c-.71-1.55-2.07-2.46-3.1-2a2.16,2.16,0,0,0-1,2.26c0-.09-.07-.18-.12-.27-.78-1.56-2.24-2.4-3.24-1.9a1.52,1.52,0,0,0-.65.7A3.51,3.51,0,0,0,22.82,5,4.39,4.39,0,0,0,21.37,6.2c-.79-1.35-2.08-2.07-3-1.64s-1.25,1.81-.82,3.26h0c-1.08-1.39-2.64-2-3.59-1.33a2.43,2.43,0,0,0-.46,2.86c-1.23-1.24-2.85-1.64-3.7-.88s-.63,2.35.41,3.69a2.46,2.46,0,0,0-.39-.09c-1.77-.27-3.35.45-3.52,1.6A1.64,1.64,0,0,0,6.65,15a1.7,1.7,0,0,0-1.41.28c-.89.73-.71,2.42.38,3.81a4.25,4.25,0,0,0-1.07,2.34,3.87,3.87,0,0,0,.67,3,2,2,0,0,0-1.1,1.77c.08.91,1,1.6,2.32,1.8a1.74,1.74,0,0,0-1,1.21c-.19,1.17,1.13,2.36,2.94,2.65l.34,0a1.6,1.6,0,0,0-.33,1.09c.11,1.2,1.71,2,3.57,1.86h0a1.72,1.72,0,0,0-.41,1.37c.21,1.14,1.82,1.79,3.59,1.46a4,4,0,0,0,.79-.23A2.24,2.24,0,0,0,16.16,40c.72.68,2,.48,3.19-.39A3.24,3.24,0,0,0,22.45,41a4.6,4.6,0,0,0,1.76-.39c0,.13.06.26.1.38.57,1.77,2,2.9,3.1,2.53a1.75,1.75,0,0,0,1.06-1.14c.08.14.15.28.24.42.95,1.41,2.46,2,3.37,1.44a1.38,1.38,0,0,0,.51-.63,1.64,1.64,0,0,0,.93,1.05c.83.3,1.82-.28,2.49-1.33a1.53,1.53,0,0,0,.23.46c.71.91,2.43.76,3.84-.33a5,5,0,0,0,.86-.86c.38,1.63,1.49,2.78,2.59,2.61a2.24,2.24,0,0,0,1.6-1.9,1.56,1.56,0,0,0,.8.78c1.06.4,2.43-.6,3.06-2.24h0a1.55,1.55,0,0,0,.75.66c1.1.42,2.53-.63,3.18-2.34v0a1.52,1.52,0,0,0,.62.51c1.06.44,2.46-.54,3.14-2.17A4.34,4.34,0,0,0,57,36.55c1.33.43,2.62.17,3-.69S60,34,59,33.2l0-.06a4.55,4.55,0,0,0,1.21-.33C61.89,32.11,62.89,30.66,62.43,29.57Z"/><path class="cls-4" d="M50.54,20.68h0c.06-.13.12-.25.17-.39.62-1.61.27-3.24-.78-3.64a1.75,1.75,0,0,0-1.67.36c.46-1.43.15-2.82-.77-3.2a1.59,1.59,0,0,0-1.38.15,3.56,3.56,0,0,0-1.81-1.83,4.34,4.34,0,0,0-1.38-.41,1.4,1.4,0,0,0-.07-.86c-.43-1-2.06-1.32-3.65-.66a4.61,4.61,0,0,0-.93.53,4.55,4.55,0,0,0-.34-.88c-.77-1.46-2.16-2.24-3.11-1.74l0,0c0-.05,0-.09,0-.14a1.57,1.57,0,0,0-.84-.8,1.56,1.56,0,0,0-1.11-.77,1.79,1.79,0,0,0-1.54.81L31,7.31a4.46,4.46,0,0,0-1.44,1c-.67-1.47-2-2.32-2.94-1.91a2.05,2.05,0,0,0-1,2.14c0-.09-.07-.18-.11-.26C24.77,6.76,23.39,6,22.44,6.44a1.41,1.41,0,0,0-.69.85A3.44,3.44,0,0,0,19,7.57,4,4,0,0,0,17.37,9a2.19,2.19,0,0,0-2.44-.93c-.91.41-1.2,1.77-.73,3.18-1-1.38-2.55-2-3.46-1.34s-.87,2.26.06,3.68a2.09,2.09,0,0,0-2.36,0c-.85.76-.58,2.43.6,3.74.06.07.13.12.19.19-1.6-.17-3,.48-3.14,1.52-.12.83.57,1.66,1.65,2.12-.69.76-.49,2.28.54,3.54a4.32,4.32,0,0,0,1.34,1.11,4.68,4.68,0,0,0-.19.78c-.24,1.7.46,3.21,1.56,3.37a.74.74,0,0,0,.21,0c.12,1.06,1.48,1.79,3.1,1.71-.06,1.06,1.14,2.1,2.78,2.37a5.16,5.16,0,0,0,1,0c.4.89,1.73,1.46,3.25,1.32a5.4,5.4,0,0,0,.58-.09c.27,1,1.74,1.6,3.36,1.3a5.31,5.31,0,0,0,.93-.29,1.62,1.62,0,0,0,.43,1.37c.8.77,2.41.38,3.59-.87l.11-.13a3.65,3.65,0,0,0,2.46.75A3.89,3.89,0,0,0,35,36.77c.63,1.33,1.76,2.13,2.71,1.82s1.4-1.62,1.12-3.08l.13.23c.9,1.33,2.33,1.94,3.19,1.36a1.65,1.65,0,0,0,.62-1.52,1.25,1.25,0,0,0,.4.24c1,.36,2.23-.58,2.78-2.11a4.5,4.5,0,0,0,.17-.6,3.9,3.9,0,0,0,2.22-.87,4,4,0,0,0,1.38-1.88c1.06-.25,1.71-1.75,1.45-3.44a4.34,4.34,0,0,0-.56-1.6,4,4,0,0,0,.65-1.14C51.88,22.63,51.55,21.06,50.54,20.68Z"/><path class="cls-5" d="M32.36,27.75c.83-3-2.61-6.54-7.67-7.94S14.85,19.69,14,22.67s2.6,6.53,7.67,7.93S31.53,30.73,32.36,27.75Z"/><path class="cls-6" d="M.92,16.29C4.12,12,16-1.24,28.83.09S62.54,9.16,65.19,29.88c1.89,14.81-2.93,7.74-12,3.21S23.06,18.42,9.46,19.22.92,16.29.92,16.29Z"/><path class="cls-7" d="M63.86,37.21c-.94,0-2.7-1.11-4.73-2.39a63.28,63.28,0,0,0-5.58-3.25C35,22.28,20.67,17.57,11,17.57c-.54,0-1.08,0-1.61.05-1.25.07-2.4.11-3.4.11-4.75,0-5.21-.84-5.21-.85a1.64,1.64,0,0,1,.6-.75l.09-.07.07-.1C2.05,15.31,13.69,0,27,0a16.75,16.75,0,0,1,1.74.09C32.06.43,61.2,4.18,64.4,29.19c.57,4.47.53,7.11-.12,7.85A.49.49,0,0,1,63.86,37.21Z"/><path class="cls-8" d="M28.83.09C16-1.24,4.12,12,.92,16.29a2.76,2.76,0,0,0-.31.27A37.21,37.21,0,0,0,5.72,16c12.85-2.28,32.45,2.47,41.62,6.5s16.56,4.14,14.53-3C54.87,6.45,39.19,1.17,28.83.09Z"/><g class="cls-9"><path class="cls-5" d="M24.88,2.57C26,1.69,27.21.86,28.42.06c-.44,0-.87,0-1.31,0A57.9,57.9,0,0,0,9.64,19.21l.73,0A56.89,56.89,0,0,1,24.88,2.57Z"/><path class="cls-5" d="M23.12,21a55.21,55.21,0,0,1,5.43-6.52,48.56,48.56,0,0,1,4.74-4.35A60.64,60.64,0,0,1,43.59,3.9c-.67-.28-1.33-.54-2-.78A35.51,35.51,0,0,0,37.37,5.6a46.55,46.55,0,0,0-5.23,3.65,43.14,43.14,0,0,0-4.63,4.33,48.11,48.11,0,0,0-5.27,6.65l-.29.46,1.15.3Z"/><path class="cls-5" d="M17.62,19.79A64.52,64.52,0,0,1,27.17,8.63a56,56,0,0,1,6.15-5c1.14-.74,2.32-1.43,3.52-2.08C36,1.36,35.12,1.16,34.28,1c-.56.34-1.13.67-1.67,1a51.79,51.79,0,0,0-6.29,5A54.9,54.9,0,0,0,16.25,19.57Z"/><path class="cls-5" d="M17.36,2.38a38.47,38.47,0,0,0-6.65,4.14A64.56,64.56,0,0,0,2,19a13,13,0,0,0,1.4.2l.32-.58A84.51,84.51,0,0,1,17.36,2.38Z"/><path class="cls-5" d="M64.19,25.12a27,27,0,0,0-8.45,3.24,40.16,40.16,0,0,0-4.91,3.56l.58.28c3.68-2.78,8.27-4.27,13.28-5.11C64.55,26.42,64.38,25.77,64.19,25.12Z"/><path class="cls-5" d="M63.52,23.06a28.81,28.81,0,0,0-1.42-3.19c-6.7,1.52-12.72,4.4-17.2,9.23l.73.34C50.37,25.52,56.67,23.8,63.52,23.06Z"/><path class="cls-5" d="M65.43,32c0-.29-.06-.58-.09-.9A32.21,32.21,0,0,0,56.66,35l.61.38A28.72,28.72,0,0,1,65.43,32Z"/><path class="cls-5" d="M33.29,17A46.49,46.49,0,0,1,50,7.18c-.88-.54-1.77-1-2.67-1.52A36.83,36.83,0,0,0,29.91,17.82,30.42,30.42,0,0,0,27,22.1l1.24.39A46.2,46.2,0,0,1,33.29,17Z"/><path class="cls-5" d="M60,16.37c-.43-.6-.87-1.17-1.33-1.73C50.58,16,43.31,19.35,38.1,26.14l1.53.64C45.25,21.06,52.29,17.91,60,16.37Z"/><path class="cls-5" d="M55.55,11.39c-.43-.39-.87-.78-1.32-1.15-8.37,2.3-15.88,6.78-21.08,14l.84.32C39.49,17.89,47.13,13.61,55.55,11.39Z"/></g><path class="cls-5" d="M43.57,5.57c.21-1.36-4.18-3.16-9.81-4s-10.35-.46-10.56.9,4.56.7,10.19,1.56S43.36,6.93,43.57,5.57Z"/><path class="cls-5" d="M61.58,25.11c1.06-.88-.34-4.29-3.11-7.61s-5.88-5.3-6.94-4.42,3.77,1.88,5,6C58.72,26.21,60.53,26,61.58,25.11Z"/></g></g></g></svg>