<svg xmlns="http://www.w3.org/2000/svg" viewBox="0 0 67.78 78.95"><defs><style>.cls-1{isolation:isolate;}.cls-2{fill:#b8b5aa;}.cls-2,.cls-7{mix-blend-mode:multiply;}.cls-3{fill:#ff4000;}.cls-4{fill:#ff7547;}.cls-5,.cls-6{fill:#fff;}.cls-5{opacity:0.3;mix-blend-mode:screen;}</style></defs><title>Recurso 11</title><g class="cls-1"><g id="Capa_2" data-name="Capa 2"><g id="Layer_1" data-name="Layer 1"><path class="cls-2" d="M53.88,27.8c-.41-4.3,2.9-20.94-13.54-25.58C25.58-1.95,18.05,9.54,15.67,14.76s1.74,1.17,4.33,3.77,10.72,5.53,11.18,0c.52-6.2,8.69-6.64,12.4-4.27S51.36,24,50.39,26.74s-2.94,2.16-2.79,4.85,1,7.21,2.85,4.92S53.88,27.8,53.88,27.8Z"/><path class="cls-3" d="M51.89,26.48C51.47,22.18,54.78,5.54,38.34.89,23.59-3.28,16.06,8.21,13.67,13.44S15.42,14.6,18,17.21s10.71,5.53,11.18,0c.51-6.2,8.68-6.65,12.4-4.27s7.77,9.76,6.81,12.48-2.94,2.16-2.8,4.85,1,7.21,2.86,4.91S51.89,26.48,51.89,26.48Z"/><path class="cls-4" d="M51.9,20.84C51.83,14.13,50.38,4.3,38.34.89,23.59-3.28,16.06,8.21,13.67,13.44S15.42,14.6,18,17.21s10.71,5.53,11.18,0c.51-6.2,8.68-6.65,12.4-4.27,3,2,6.33,7.29,6.87,10.64A19.91,19.91,0,0,0,51.9,20.84Z"/><path class="cls-3" d="M38.34.89C23.59-3.28,16.06,8.21,13.67,13.44S15.42,14.6,18,17.21s10.71,5.53,11.18,0c.51-6.2,8.68-6.65,12.4-4.27a15.8,15.8,0,0,1,4.29,4.67q1.09-.48,2.19-1.05a7.54,7.54,0,0,0,3-2.78C49.83,8.51,46.54,3.21,38.34.89Z"/><path class="cls-4" d="M13.67,13.44C11.3,18.67,15.42,14.6,18,17.21s10.71,5.53,11.18,0c.51-6.2,8.68-6.65,12.4-4.27A9.78,9.78,0,0,1,43,14c2.76-3.58,1.78-7.92-1.27-11.89A24.51,24.51,0,0,0,38.34.89C23.59-3.28,16.06,8.21,13.67,13.44Z"/><path class="cls-3" d="M28.53.38C20.12,2.12,15.46,9.53,13.67,13.44,11.3,18.67,15.42,14.6,18,17.21s10.71,5.53,11.18,0c.29-3.55,3.09-5.21,6.13-5.54C36,7.55,33.12,3.49,28.53.38Z"/><path class="cls-4" d="M18.57,6.14a27.59,27.59,0,0,0-4.9,7.3C11.3,18.67,15.42,14.6,18,17.21s10.71,5.53,11.18,0a5.54,5.54,0,0,1,.89-2.68C27.87,11.11,23.57,8.11,18.57,6.14Z"/><path class="cls-5" d="M50.26,20.22c-1.09-4-4.4-8.78-7.44-10.72A10.81,10.81,0,0,0,38.31,8a10.73,10.73,0,0,0-8.06,2,7.38,7.38,0,0,0-2.7,5.26,1.5,1.5,0,0,1-.44,1.09,2.83,2.83,0,0,1-2,.29A11,11,0,0,1,19.56,14a5.09,5.09,0,0,0-3.07-1.47,6.18,6.18,0,0,0-.94-.05l.06-.14C17.08,9.12,22.81-1.31,34.72.15a23.08,23.08,0,0,1,3.34.69C49.57,4.09,50.32,13.9,50.26,20.22Z"/><path class="cls-6" d="M18.05,11c-.76-1,1.28-3.82,4.56-6.21s6.56-3.48,7.32-2.44S26.08,3.18,24,6.66C20.4,12.63,18.81,12,18.05,11Z"/><g class="cls-7"><path class="cls-4" d="M34.54.14,34,.09Z"/><path class="cls-4" d="M13.55,14.81a6.09,6.09,0,0,1,.58-.66,12.48,12.48,0,0,1,.5-1.26C16.07,9.74,21.4,0,32.34,0,21.5,0,15.71,9,13.67,13.44A6.17,6.17,0,0,0,13,15.69,4.37,4.37,0,0,1,13.55,14.81Z"/><path class="cls-4" d="M38.34.89c-.61-.17-1.21-.31-1.8-.43.55.12,1.1.25,1.65.4,13.27,3.75,13,15.61,12.85,22,0,1.09,0,2,0,2.64-.46,1.84-1.83,6.5-3.21,8.19a1.44,1.44,0,0,1-.19.21,10.84,10.84,0,0,1-1-4.58,1.81,1.81,0,0,1,.85-1.83,5.86,5.86,0,0,0,1.89-2.66,3.18,3.18,0,0,0,.08-.33,4.72,4.72,0,0,1-1.23,1.37c-1,2.24-2.77,1.89-2.63,4.43s1,7.21,2.86,4.91,3.43-8.7,3.43-8.7C51.47,22.18,54.78,5.54,38.34.89Z"/><path class="cls-4" d="M32.63,0l.75,0Z"/><path class="cls-4" d="M36.27.41Q35.61.28,35,.2,35.61.28,36.27.41Z"/></g><path class="cls-2" d="M45,37c-3.65-3-14-18.43-30.27-9.31C.12,35.9,3.18,50.61,5.39,56.49s2.25-.45,6.26-.44,12.57-4,8.65-8.65c-4.4-5.19,1.57-11.85,6.28-12.89S40.15,36,41.51,38.89s-.61,3.94,1.59,5.92,6.35,4.79,6,1.58S45,37,45,37Z"/><path class="cls-3" d="M41.51,35.83c-3.65-3-14-18.43-30.27-9.3C-3.4,34.72-.33,49.43,1.87,55.32s2.25-.45,6.27-.44,12.56-4,8.64-8.65c-4.4-5.19,1.58-11.86,6.29-12.9S36.63,34.87,38,37.72s-.6,3.94,1.59,5.91,6.35,4.8,6,1.59S41.51,35.83,41.51,35.83Z"/><path class="cls-4" d="M37.15,31.46c-5.25-5.13-14-11.61-25.91-4.93C-3.4,34.72-.33,49.43,1.87,55.32s2.25-.45,6.27-.44,12.56-4,8.64-8.65c-4.4-5.19,1.58-11.86,6.29-12.9,3.87-.85,10.54.74,13.54,2.92A21.07,21.07,0,0,0,37.15,31.46Z"/><path class="cls-3" d="M11.24,26.53C-3.4,34.72-.33,49.43,1.87,55.32s2.25-.45,6.27-.44,12.56-4,8.64-8.65c-4.4-5.19,1.58-11.86,6.29-12.9a17.68,17.68,0,0,1,6.94.29q.46-1.21.87-2.49a8.26,8.26,0,0,0,.2-4.52C26,23.54,19.37,22,11.24,26.53Z"/><path class="cls-4" d="M1.87,55.32c2.2,5.88,2.25-.45,6.27-.44s12.56-4,8.64-8.65c-4.4-5.19,1.58-11.86,6.29-12.9A11.83,11.83,0,0,1,25,33.11c-.64-4.91-4.75-7.5-10.18-8.21a25,25,0,0,0-3.53,1.63C-3.4,34.72-.33,49.43,1.87,55.32Z"/><path class="cls-3" d="M3.25,33.73c-5.16,7.85-3,17.19-1.38,21.59,2.2,5.88,2.25-.45,6.27-.44s12.56-4,8.64-8.65c-2.52-3-1.63-6.42.46-9C14.61,33.46,9.21,32.58,3.25,33.73Z"/><path class="cls-4" d="M0,45.88a30.17,30.17,0,0,0,1.86,9.44c2.2,5.88,2.25-.45,6.27-.44s12.56-4,8.64-8.65a6.39,6.39,0,0,1-1.39-2.76C11.05,42.54,5.4,43.54,0,45.88Z"/><path class="cls-5" d="M35.41,32.26c-3.91-2.22-10.19-3.39-14-2.54A11.9,11.9,0,0,0,16.68,32,11.74,11.74,0,0,0,12,39.78a8.14,8.14,0,0,0,2,6.16,1.68,1.68,0,0,1,.52,1.18,3.14,3.14,0,0,1-1.34,1.77,11.92,11.92,0,0,1-6.25,2.32,5.6,5.6,0,0,0-3.52,1.24,8.9,8.9,0,0,0-.77.69L2.53,53c-1.36-3.63-5-16.13,5.34-24.22A23.57,23.57,0,0,1,11,26.71C22.39,20.32,30.56,27.32,35.41,32.26Z"/><path class="cls-6" d="M3.35,50c-1.39-.22-2-4-1.28-8.33s2.38-7.77,3.77-7.54S3.52,37.79,4.6,42.09C6.45,49.48,4.74,50.25,3.35,50Z"/><g class="cls-7"><path class="cls-4" d="M7.71,28.89l-.47.39Z"/><path class="cls-4" d="M2.84,56.48a6.33,6.33,0,0,1-.07-1,11,11,0,0,1-.58-1.35C.86,50.6-2.55,39,5.91,30.49c-8.42,8.34-5.92,19.8-4,24.83a6.65,6.65,0,0,0,1.19,2.29A4.53,4.53,0,0,1,2.84,56.48Z"/><path class="cls-4" d="M11.24,26.53c-.61.34-1.18.7-1.73,1.06.51-.33,1-.66,1.59-1,13.16-7.37,22.12,2,26.93,7,.82.86,1.48,1.55,2,2,1.06,1.78,3.6,6.44,3.85,8.82a1.13,1.13,0,0,1,0,.31,11.93,11.93,0,0,1-4.32-2.77A2,2,0,0,1,38.87,40a6.44,6.44,0,0,0-.6-3.52c-.05-.1-.13-.21-.19-.31a5.22,5.22,0,0,1,.1,2c1,2.51-.67,3.6,1.4,5.46s6.35,4.8,6,1.59-4.08-9.39-4.08-9.39C37.86,32.83,27.54,17.4,11.24,26.53Z"/><path class="cls-4" d="M6.14,30.27c.2-.19.39-.38.6-.56C6.53,29.89,6.34,30.08,6.14,30.27Z"/><path class="cls-4" d="M9.26,27.76c-.4.28-.79.55-1.16.84C8.47,28.31,8.86,28,9.26,27.76Z"/></g><path class="cls-2" d="M67.23,69.11c-.11-4.72,4.82-22.61-12.75-29-15.77-5.72-24.89,6.21-27.91,11.73s1.81,1.41,4.43,4.45,11.26,6.88,12.2.89c1.06-6.72,10-6.56,13.87-3.68s7.7,11.28,6.44,14.16-3.38,2.12-3.44,5.07.52,8,2.73,5.59S67.23,69.11,67.23,69.11Z"/><path class="cls-3" d="M63.71,67.94C63.6,63.22,68.53,45.33,51,39c-15.77-5.72-24.9,6.22-27.91,11.74s1.81,1.41,4.43,4.45S38.74,62,39.68,56c1.06-6.72,10-6.55,13.87-3.67S61.26,63.62,60,66.51s-3.38,2.12-3.44,5.07.53,7.94,2.73,5.59S63.71,67.94,63.71,67.94Z"/><path class="cls-4" d="M64.18,61.79C64.63,54.46,63.83,43.62,51,39c-15.77-5.72-24.9,6.22-27.91,11.74s1.81,1.41,4.43,4.45S38.74,62,39.68,56c1.06-6.72,10-6.55,13.87-3.67,3.18,2.38,6.33,8.46,6.65,12.16A21.53,21.53,0,0,0,64.18,61.79Z"/><path class="cls-3" d="M51,39c-15.77-5.72-24.9,6.22-27.91,11.74s1.81,1.41,4.43,4.45S38.74,62,39.68,56c1.06-6.72,10-6.55,13.87-3.67a17.62,17.62,0,0,1,4.32,5.44c.82-.29,1.64-.61,2.46-1A8.21,8.21,0,0,0,63.88,54C62.89,48.18,59.73,42.13,51,39Z"/><path class="cls-4" d="M23.06,50.69c-3,5.51,1.81,1.41,4.43,4.45S38.74,62,39.68,56c1.06-6.72,10-6.55,13.87-3.67A10.33,10.33,0,0,1,55,53.64c3.3-3.7,2.57-8.51-.44-13.08A25.82,25.82,0,0,0,51,39C35.2,33.23,26.07,45.17,23.06,50.69Z"/><path class="cls-3" d="M40.3,37.61c-9.32,1.24-15,9-17.24,13.08-3,5.51,1.81,1.41,4.43,4.45S38.74,62,39.68,56c.61-3.84,3.8-5.43,7.14-5.54C47.93,46,45.07,41.37,40.3,37.61Z"/><path class="cls-4" d="M29,43.11a30.16,30.16,0,0,0-5.92,7.58c-3,5.51,1.81,1.41,4.43,4.45S38.74,62,39.68,56a6.25,6.25,0,0,1,1.19-2.85C38.73,49.28,34.28,45.66,29,43.11Z"/><path class="cls-5" d="M62.43,61c-.87-4.41-4.09-9.93-7.26-12.29a11.89,11.89,0,0,0-4.8-2,11.8,11.8,0,0,0-8.95,1.5,8.12,8.12,0,0,0-3.37,5.52,1.7,1.7,0,0,1-.55,1.17,3.19,3.19,0,0,1-2.22.15,12,12,0,0,1-5.84-3.22,5.62,5.62,0,0,0-3.24-1.85,7.84,7.84,0,0,0-1-.13l.09-.15c1.86-3.41,8.93-14.34,21.82-11.8a24.14,24.14,0,0,1,3.58,1C63,43.33,63,54.09,62.43,61Z"/><path class="cls-6" d="M28,48.35c-.75-1.2,1.7-4.07,5.47-6.42s7.43-3.27,8.17-2.07-4.27.61-6.82,4.24C30.46,50.33,28.77,49.55,28,48.35Z"/><g class="cls-7"><path class="cls-4" d="M46.88,37.83l-.61-.1Z"/><path class="cls-4" d="M22.81,52.17a8.84,8.84,0,0,1,.69-.68,14.14,14.14,0,0,1,.64-1.32C26,46.84,32.56,36.65,44.49,37.51,32.67,36.59,25.63,46,23.06,50.69a6.6,6.6,0,0,0-1,2.4A5,5,0,0,1,22.81,52.17Z"/><path class="cls-4" d="M51,39c-.66-.23-1.3-.43-1.94-.61.59.17,1.18.35,1.77.57C65,44.05,63.74,57,63.08,63.9c-.11,1.18-.21,2.13-.21,2.87-.65,2-2.52,7-4.15,8.69l-.23.22a12.06,12.06,0,0,1-.73-5.09,2,2,0,0,1,1.08-1.92,6.53,6.53,0,0,0,2.28-2.76,3.57,3.57,0,0,0,.1-.35A5.23,5.23,0,0,1,59.77,67c-1.27,2.36-3.16,1.83-3.22,4.62-.06,3,.53,7.94,2.73,5.59s4.43-9.23,4.43-9.23C63.6,63.22,68.53,45.33,51,39Z"/><path class="cls-4" d="M44.81,37.54l.81.09Z"/><path class="cls-4" d="M48.74,38.26c-.47-.12-.93-.24-1.39-.33C47.81,38,48.27,38.13,48.74,38.26Z"/></g></g></g></g></svg>