<svg xmlns="http://www.w3.org/2000/svg" viewBox="0 0 90.82 65.15"><defs><style>.cls-1{isolation:isolate;}.cls-2{fill:#b8b5aa;}.cls-11,.cls-2,.cls-6{mix-blend-mode:multiply;}.cls-11,.cls-3{fill:#9c5723;}.cls-4,.cls-6{fill:#b4703d;}.cls-5{fill:#e6be8a;}.cls-7{fill:#fff;}.cls-10,.cls-8{fill:#ffc554;}.cls-9{fill:#e39b0e;}.cls-10{mix-blend-mode:screen;}</style></defs><title>Recurso 15</title><g class="cls-1"><g id="Capa_2" data-name="Capa 2"><g id="Layer_1" data-name="Layer 1"><path class="cls-2" d="M71.45,57.06C71.73,52,62,47.25,49.67,46.57s-22.53,2.89-22.81,8,9.46,9.8,21.78,10.49S71.16,62.17,71.45,57.06Z"/><path class="cls-3" d="M27.82,53.88c0,3.6,7.88,6.51,17.59,6.51S63,57.48,63,53.88,55.12,36.67,45.41,36.67,27.82,50.28,27.82,53.88Z"/><path class="cls-4" d="M90.82,32.48c0-6-20.33-10.82-45.41-10.82S0,26.5,0,32.48,20.33,57.59,45.41,57.59,90.82,38.45,90.82,32.48Z"/><ellipse class="cls-5" cx="45.41" cy="32.48" rx="45.41" ry="19.75"/><path class="cls-4" d="M45.41,49.06c-23.09,0-42.59-7.88-42.59-17.22s19.5-17.22,42.59-17.22S88,22.51,88,31.84,68.5,49.06,45.41,49.06Z"/><path class="cls-3" d="M38.17,23.21C22,21.11,7.6,27.59,6.65,37.35a10.21,10.21,0,0,0,0,1.46c6.77,6,21.81,10.25,38.8,10.25a93.52,93.52,0,0,0,20.41-2.18,10,10,0,0,0,.34-1.8C67.11,35.32,54.3,25.3,38.17,23.21Z"/><path class="cls-6" d="M52.66,23.21C97.94,16,54.29,56.8,84.21,38.81c-6.77,6-21.81,10.25-38.8,10.25A93.52,93.52,0,0,1,25,46.88a11,11,0,0,1-.34-1.8C23.71,35.32,36.59,25.76,52.66,23.21Z"/><path class="cls-7" d="M6.71,40.88c-.35,1.31,4.12,4.12,10,6.26S27.58,50,27.92,48.65s-5.09-.89-11-3S7.06,39.57,6.71,40.88Z"/><path class="cls-8" d="M58.06,7.23c7-6.25,5.83-6.09,5.28-6.72S63.08-1.28,56.05,5,43.77,16.81,44.33,17.44,51,13.49,58.06,7.23Z"/><path class="cls-7" d="M57.09,6.14c7-6.25,6.13-5.76,5.94-6s.4-1-6.63,5.21S43.83,16.88,44,17.09,50.06,12.4,57.09,6.14Z"/><path class="cls-8" d="M27.26,32.57c7-6.26,6-5.89,5.7-6.25s.16-1.32-6.87,4.93S13.63,42.88,14,43.24,20.23,38.83,27.26,32.57Z"/><path class="cls-7" d="M26.7,31.93c7-6.26,6.19-5.69,6.08-5.81s.55-.89-6.48,5.37S13.84,43.12,14,43.24,19.67,38.19,26.7,31.93Z"/><path class="cls-8" d="M79.32,8.5C85.77,1.64,84.59,1.9,84,1.33s-.41-1.76-6.86,5.1S66,19.31,66.55,19.88,72.88,15.35,79.32,8.5Z"/><path class="cls-7" d="M78.26,7.5C84.7.64,83.85,1.21,83.65,1S84-.06,77.51,6.79,66,19.37,66.22,19.56,71.81,14.35,78.26,7.5Z"/><path class="cls-8" d="M55,33.14c-.47-.44-.17-1.52-6.61,5.34-3.89,4.13-7.19,7.92-9.1,10.38l.93,0h1c2.3-2.11,5.44-5.24,8.82-8.84C56.49,33.21,55.43,33.59,55,33.14Z"/><path class="cls-7" d="M54.7,32.9c-.16-.15.39-1-6.05,5.86-3.78,4-7,7.71-9,10.12l.52,0h.11c2.13-2.28,5.32-5.75,8.93-9.6C55.67,32.44,54.86,33.05,54.7,32.9Z"/><path class="cls-9" d="M53.61,10.68a6.79,6.79,0,0,0-8.76-2.24,7.22,7.22,0,0,0-3.44,2.41,7.36,7.36,0,0,0-2.69,2.22,5.25,5.25,0,0,0,.1,5.93,6.62,6.62,0,0,0,.71.94c0,.16.08.31.14.46,1.77,4.08,7.34,4.84,11,3a8.56,8.56,0,0,0,1.1-.69,6.44,6.44,0,0,0,3.9-4.32C56.44,15.79,55.1,12.75,53.61,10.68Z"/><path class="cls-8" d="M52.19,10.65a5.93,5.93,0,0,0-7.64-2,6.42,6.42,0,0,0-3,2.1,6.37,6.37,0,0,0-2.34,1.94,4.55,4.55,0,0,0,.09,5.17,5.28,5.28,0,0,0,.61.82,3.1,3.1,0,0,0,.13.4c1.53,3.55,6.39,4.21,9.58,2.6a7.15,7.15,0,0,0,1-.59A5.61,5.61,0,0,0,54,17.36C54.66,15.1,53.48,12.45,52.19,10.65Z"/><path class="cls-10" d="M46.62,16.2c2.36-2.27,3.27-5.17,2-6.47s-4.18-.52-6.55,1.75-3.27,5.16-2,6.46S44.25,18.46,46.62,16.2Z"/><path class="cls-11" d="M51.73,8c-4.88-3.25-11.57,1.51-13.68,5a7.86,7.86,0,0,0-.23.76c-.46.81.44,1.64,1.42,1.63,1.61.09,2.33.72,2.16,1.91a1.38,1.38,0,0,0,1.5,1,7,7,0,0,1,2.46-.05,1.29,1.29,0,0,0,1.49-.9,21.92,21.92,0,0,0,.53,2.22,1.44,1.44,0,0,0,1.38.73c1.47,0,2.32-1.75,2.87-2.68a5.41,5.41,0,0,0,.51-1.3c.47.35.9.76,1.33,1.12a1.45,1.45,0,0,0,1.56.07C58.74,15,54.71,10,51.73,8Z"/><path class="cls-7" d="M39.28,13.77c.19-.28.2-.6,0-.72s-.47,0-.66.29-.2.6,0,.72S39.09,14.05,39.28,13.77Z"/><path class="cls-7" d="M42.73,16.78c.19-.28.2-.6,0-.72s-.47,0-.65.3-.21.59,0,.71S42.54,17.06,42.73,16.78Z"/><path class="cls-7" d="M42.45,15.73c.08-.12.08-.25,0-.3s-.2,0-.27.12-.09.25,0,.3S42.37,15.84,42.45,15.73Z"/><path class="cls-7" d="M54.42,16.28c-.12-.18-.3-.28-.42-.21s-.12.29,0,.47.3.29.42.21S54.53,16.47,54.42,16.28Z"/><path class="cls-7" d="M48.51,18.82c0-.41-.16-.75-.37-.75s-.39.33-.39.74.16.74.37.75S48.5,19.23,48.51,18.82Z"/><path class="cls-7" d="M49.23,7.85c-.22-.47-2.2-.19-4.42.62S41,10.32,41.18,10.78s1.69-1,3.92-1.8S49.45,8.31,49.23,7.85Z"/><path class="cls-9" d="M44.73,18.42A7.58,7.58,0,0,0,35,15.92a8.06,8.06,0,0,0-3.83,2.68,8.32,8.32,0,0,0-3,2.48c-1.46,2.12-1.16,4.49.12,6.61a7.71,7.71,0,0,0,.78,1c.06.16.09.34.16.51,2,4.54,8.17,5.38,12.26,3.33a9.47,9.47,0,0,0,1.23-.77A7.16,7.16,0,0,0,47,27C47.88,24.11,46.38,20.72,44.73,18.42Z"/><path class="cls-8" d="M43.14,18.38a6.61,6.61,0,0,0-8.51-2.18,7.09,7.09,0,0,0-3.33,2.34,7.18,7.18,0,0,0-2.6,2.16,5.08,5.08,0,0,0,.09,5.76,7.43,7.43,0,0,0,.68.91c.06.15.09.3.15.44,1.71,4,7.12,4.7,10.67,2.91a8.93,8.93,0,0,0,1.08-.67,6.24,6.24,0,0,0,3.78-4.19C45.89,23.34,44.58,20.39,43.14,18.38Z"/><path class="cls-10" d="M36.93,24.56c2.64-2.53,3.65-5.75,2.26-7.2s-4.65-.58-7.29,1.94-3.65,5.75-2.26,7.21S34.29,27.09,36.93,24.56Z"/><path class="cls-11" d="M42.62,15.48C37.19,11.86,29.74,17.16,27.39,21c-.1.17-.18.71-.26.84-.51.91.5,1.83,1.58,1.82,1.8.09,2.6.8,2.41,2.12A1.55,1.55,0,0,0,32.8,27a7.86,7.86,0,0,1,2.74-.06,1.44,1.44,0,0,0,1.66-1,21.62,21.62,0,0,0,.59,2.47,1.6,1.6,0,0,0,1.54.82c1.63,0,2.58-2,3.19-3a5.81,5.81,0,0,0,.56-1.45c.52.4,1,.85,1.49,1.25a1.6,1.6,0,0,0,1.73.08C50.43,23.21,45.94,17.69,42.62,15.48Z"/><path class="cls-7" d="M28.76,21.86c.21-.31.23-.67,0-.81s-.51,0-.73.33-.22.67,0,.8S28.55,22.17,28.76,21.86Z"/><path class="cls-7" d="M32.61,25.21c.21-.31.22-.67,0-.8s-.52,0-.73.33-.22.67,0,.8S32.4,25.52,32.61,25.21Z"/><path class="cls-7" d="M32.29,24c.09-.13.09-.28,0-.33s-.21,0-.3.13-.09.28,0,.33S32.2,24.17,32.29,24Z"/><path class="cls-7" d="M45.62,24.66c-.12-.21-.33-.31-.46-.24s-.13.32,0,.53.34.31.47.23S45.75,24.87,45.62,24.66Z"/><path class="cls-7" d="M39,27.48c0-.46-.18-.83-.41-.83s-.43.36-.43.82.18.83.41.83S39,27.94,39,27.48Z"/><path class="cls-7" d="M39.85,15.26c-.25-.52-2.45-.21-4.93.7s-4.29,2.05-4,2.57,1.89-1.1,4.36-2S40.09,15.78,39.85,15.26Z"/><path class="cls-9" d="M34.4,27.39a8,8,0,0,0-10.3-2.64,8.45,8.45,0,0,0-4,2.83,8.6,8.6,0,0,0-3.16,2.61c-1.54,2.24-1.23,4.74.12,7a8.06,8.06,0,0,0,.82,1.1c.07.18.1.37.18.54,2.07,4.8,8.62,5.69,12.93,3.52a8.91,8.91,0,0,0,1.3-.81,7.54,7.54,0,0,0,4.58-5.08C37.73,33.39,36.15,29.82,34.4,27.39Z"/><path class="cls-8" d="M32.73,27.34a7,7,0,0,0-9-2.29,7.45,7.45,0,0,0-3.52,2.46,7.62,7.62,0,0,0-2.75,2.28,5.36,5.36,0,0,0,.11,6.08,6.61,6.61,0,0,0,.71,1c.06.16.09.32.16.47,1.8,4.18,7.51,5,11.26,3.07a8.12,8.12,0,0,0,1.14-.71,6.58,6.58,0,0,0,4-4.43C35.63,32.58,34.25,29.46,32.73,27.34Z"/><path class="cls-10" d="M26.18,33.87C29,31.2,30,27.8,28.56,26.26s-4.91-.61-7.7,2.06-3.85,6.07-2.38,7.6S23.39,36.53,26.18,33.87Z"/><path class="cls-11" d="M32.18,24.28c-5.73-3.82-13.6,1.78-16.07,5.86-.11.18-.2.74-.28.89C15.3,32,16.36,33,17.5,33c1.9.09,2.74.84,2.55,2.24a1.63,1.63,0,0,0,1.76,1.21,8.29,8.29,0,0,1,2.9-.06,1.5,1.5,0,0,0,1.74-1.06,25.73,25.73,0,0,0,.63,2.61,1.68,1.68,0,0,0,1.62.86c1.72,0,2.73-2.06,3.38-3.15a6.74,6.74,0,0,0,.59-1.53c.55.42,1.06.9,1.57,1.32a1.71,1.71,0,0,0,1.83.08C40.43,32.44,35.69,26.62,32.18,24.28Z"/><path class="cls-7" d="M17.55,31c.23-.32.24-.7,0-.84s-.55,0-.77.34-.24.71,0,.85S17.33,31.34,17.55,31Z"/><path class="cls-7" d="M21.61,34.55c.23-.33.24-.7,0-.84s-.55,0-.78.34-.23.71,0,.85S21.39,34.88,21.61,34.55Z"/><path class="cls-7" d="M21.28,33.32c.09-.14.1-.3,0-.36s-.23,0-.32.15-.1.29,0,.35S21.18,33.45,21.28,33.32Z"/><path class="cls-7" d="M35.35,34c-.13-.22-.36-.33-.49-.25s-.14.34,0,.56.36.33.5.24S35.49,34.19,35.35,34Z"/><path class="cls-7" d="M28.4,37c0-.49-.19-.88-.43-.88s-.45.39-.46.87.19.87.44.88S28.4,37.43,28.4,37Z"/><path class="cls-7" d="M29.25,24.05c-.25-.54-2.58-.22-5.2.74S19.53,27,19.79,27.5s2-1.16,4.6-2.11S29.51,24.6,29.25,24.05Z"/><path class="cls-9" d="M74.86,11.21A7.21,7.21,0,0,0,65.34,10,7.73,7.73,0,0,0,62,13a7.78,7.78,0,0,0-2.53,2.68,5.56,5.56,0,0,0,.89,6.23,6.72,6.72,0,0,0,.87.9,4.69,4.69,0,0,0,.21.46c2.39,4.06,8.35,4.12,12,1.7a8.55,8.55,0,0,0,1.08-.87A6.83,6.83,0,0,0,78,19C78.51,16.21,76.69,13.19,74.86,11.21Z"/><path class="cls-8" d="M73.36,11.36a6.29,6.29,0,0,0-8.29-1,6.64,6.64,0,0,0-2.87,2.61A6.76,6.76,0,0,0,60,15.26a4.83,4.83,0,0,0,.78,5.43,6.11,6.11,0,0,0,.75.78,3.62,3.62,0,0,0,.19.4c2.08,3.53,7.27,3.59,10.42,1.48a7.87,7.87,0,0,0,.93-.76,5.92,5.92,0,0,0,3.07-4.41C76.54,15.72,75,13.09,73.36,11.36Z"/><path class="cls-10" d="M68.23,17.93c2.19-2.7,2.76-5.86,1.27-7.07s-4.46,0-6.65,2.7-2.77,5.87-1.28,7.07S66,20.63,68.23,17.93Z"/><path class="cls-11" d="M72.52,8.69c-5.55-2.78-12,3.11-13.72,7-.08.18-.09.69-.15.82-.37.92.69,1.67,1.71,1.53,1.71-.12,2.55.45,2.53,1.72a1.46,1.46,0,0,0,1.71.88,7.49,7.49,0,0,1,2.59-.37,1.35,1.35,0,0,0,1.44-1.14,21.73,21.73,0,0,0,.86,2.26A1.5,1.5,0,0,0,71,22c1.54-.21,2.21-2.15,2.67-3.2a6.38,6.38,0,0,0,.36-1.43c.53.31,1,.68,1.55,1a1.54,1.54,0,0,0,1.64-.13C80.81,15.06,75.92,10.38,72.52,8.69Z"/><path class="cls-7" d="M60.19,16.34c.16-.31.14-.65-.06-.75s-.49.07-.65.39-.14.66.06.76S60,16.66,60.19,16.34Z"/><path class="cls-7" d="M64.22,19.06c.16-.32.13-.66-.06-.76s-.49.08-.66.39-.13.66.07.76S64.06,19.38,64.22,19.06Z"/><path class="cls-7" d="M63.78,18c.07-.13.06-.28,0-.32s-.2,0-.27.17,0,.27,0,.31S63.71,18.12,63.78,18Z"/><path class="cls-7" d="M76.44,17c-.14-.19-.35-.26-.47-.17s-.08.31.06.49.36.26.47.17S76.59,17.18,76.44,17Z"/><path class="cls-7" d="M70.56,20.44c0-.44-.27-.76-.49-.74s-.35.4-.3.83.26.76.48.74S70.61,20.87,70.56,20.44Z"/><path class="cls-7" d="M69.88,8.81c-.3-.46-2.34.09-4.57,1.24S61.5,12.5,61.8,13s1.65-1.26,3.88-2.41S70.17,9.27,69.88,8.81Z"/><path class="cls-9" d="M66.53,20.52a8,8,0,0,0-10.6-1.34,8.6,8.6,0,0,0-3.67,3.33,8.68,8.68,0,0,0-2.81,3c-1.26,2.42-.64,4.88,1,6.94a7.54,7.54,0,0,0,1,1c.08.17.14.34.24.51,2.66,4.52,9.3,4.59,13.32,1.89a8.81,8.81,0,0,0,1.19-1,7.56,7.56,0,0,0,3.93-5.63C70.6,26.09,68.57,22.72,66.53,20.52Z"/><path class="cls-8" d="M64.86,20.69a7,7,0,0,0-9.23-1.17,7.46,7.46,0,0,0-3.2,2.9A7.51,7.51,0,0,0,50,25a5.36,5.36,0,0,0,.86,6,6.83,6.83,0,0,0,.83.87c.08.15.13.31.21.45,2.32,3.94,8.11,4,11.61,1.65a8,8,0,0,0,1-.85A6.6,6.6,0,0,0,68,28.28C68.4,25.54,66.64,22.61,64.86,20.69Z"/><path class="cls-10" d="M59.15,28c2.44-3,3.08-6.52,1.42-7.87s-5,0-7.41,3S50.08,29.67,51.73,31,56.71,31,59.15,28Z"/><path class="cls-11" d="M63.93,17.71c-6.19-3.09-13.32,3.46-15.28,7.84-.09.2-.1.77-.16.92-.42,1,.76,1.85,1.9,1.7,1.9-.14,2.84.5,2.82,1.91a1.61,1.61,0,0,0,1.9,1A8.18,8.18,0,0,1,58,30.65a1.5,1.5,0,0,0,1.61-1.27,22.94,22.94,0,0,0,.95,2.52,1.68,1.68,0,0,0,1.72.65c1.72-.22,2.46-2.38,3-3.56a6.18,6.18,0,0,0,.4-1.59c.6.35,1.17.75,1.73,1.11a1.7,1.7,0,0,0,1.83-.14C73.17,24.81,67.72,19.59,63.93,17.71Z"/><path class="cls-7" d="M50.2,26.24c.18-.36.15-.74-.07-.85s-.55.09-.73.44-.15.74.07.85S50,26.59,50.2,26.24Z"/><path class="cls-7" d="M54.69,29.26c.18-.36.14-.73-.08-.85s-.54.09-.72.44-.15.74.07.85S54.51,29.61,54.69,29.26Z"/><path class="cls-7" d="M54.2,28.07c.07-.15.06-.31,0-.35s-.23,0-.3.18-.07.3,0,.35S54.12,28.22,54.2,28.07Z"/><path class="cls-7" d="M68.3,27c-.16-.2-.4-.28-.52-.18s-.1.35.06.55.4.28.53.18S68.46,27.17,68.3,27Z"/><path class="cls-7" d="M61.75,30.8c0-.49-.3-.85-.54-.82s-.4.44-.35.92.3.85.55.82S61.81,31.28,61.75,30.8Z"/><path class="cls-7" d="M61,17.84c-.33-.51-2.61.11-5.09,1.38S51.66,22,52,22.46s1.84-1.4,4.32-2.68S61.31,18.36,61,17.84Z"/><path class="cls-9" d="M56.86,31.31a8.49,8.49,0,0,0-11.19-1.42,9,9,0,0,0-3.87,3.52,9.23,9.23,0,0,0-3,3.16c-1.32,2.55-.66,5.15,1,7.32a8.36,8.36,0,0,0,1,1,5.36,5.36,0,0,0,.26.54c2.81,4.77,9.82,4.85,14.06,2a9.19,9.19,0,0,0,1.26-1,8,8,0,0,0,4.15-6C61.15,37.19,59,33.64,56.86,31.31Z"/><path class="cls-8" d="M55.1,31.49a7.39,7.39,0,0,0-9.75-1.24A8,8,0,0,0,42,33.31a8.19,8.19,0,0,0-2.59,2.76,5.7,5.7,0,0,0,.91,6.38,7.65,7.65,0,0,0,.89.91,5.11,5.11,0,0,0,.22.48C43.84,48,50,48.06,53.65,45.58a9.92,9.92,0,0,0,1.1-.89,7,7,0,0,0,3.61-5.19C58.83,36.61,57,33.52,55.1,31.49Z"/><path class="cls-10" d="M49.06,39.21c2.58-3.17,3.25-6.89,1.51-8.31s-5.25,0-7.83,3.18-3.25,6.89-1.5,8.31S46.49,42.38,49.06,39.21Z"/><path class="cls-11" d="M54.12,28.34C47.58,25.08,40.05,32,38,36.62c-.09.21-.1.81-.17,1-.44,1.09.81,2,2,1.8,2-.14,3,.53,3,2a1.71,1.71,0,0,0,2,1,8.86,8.86,0,0,1,3-.44,1.59,1.59,0,0,0,1.7-1.34,27.17,27.17,0,0,0,1,2.67,1.76,1.76,0,0,0,1.81.68c1.81-.24,2.6-2.52,3.14-3.76a6.9,6.9,0,0,0,.42-1.68c.63.37,1.24.8,1.82,1.17a1.8,1.8,0,0,0,1.94-.15C63.86,35.83,58.11,30.33,54.12,28.34Z"/><path class="cls-7" d="M39.62,37.34c.19-.37.16-.77-.08-.89s-.57.09-.76.47-.16.77.07.89S39.43,37.72,39.62,37.34Z"/><path class="cls-7" d="M44.36,40.53c.19-.37.15-.77-.08-.89s-.58.09-.77.46-.15.78.08.9S44.17,40.91,44.36,40.53Z"/><path class="cls-7" d="M43.84,39.28c.08-.16.06-.33,0-.38s-.24,0-.32.2-.07.32,0,.37S43.76,39.43,43.84,39.28Z"/><path class="cls-7" d="M58.72,38.11c-.17-.22-.41-.3-.55-.2s-.1.37.07.58.42.31.55.2S58.9,38.32,58.72,38.11Z"/><path class="cls-7" d="M51.81,42.15c-.06-.5-.31-.89-.57-.86s-.43.46-.37,1,.32.9.58.87S51.87,42.66,51.81,42.15Z"/><path class="cls-7" d="M51,28.48c-.35-.54-2.75.11-5.38,1.46s-4.47,2.88-4.12,3.42,1.94-1.48,4.56-2.83S51.35,29,51,28.48Z"/></g></g></g></svg>