<svg xmlns="http://www.w3.org/2000/svg" viewBox="0 0 90.82 56.73"><defs><style>.cls-1{isolation:isolate;}.cls-2{fill:#b8b5aa;mix-blend-mode:multiply;}.cls-3{fill:#9c5723;}.cls-4,.cls-5{fill:#b4703d;}.cls-5{opacity:0.5;mix-blend-mode:screen;}.cls-6{fill:#e6be8a;}.cls-7{fill:#fff;}.cls-8{fill:#ece2ac;}.cls-9{fill:#fcfbe6;}.cls-10{fill:#d9b26a;}.cls-11{fill:#e6d05e;}</style></defs><title>Recurso 16</title><g class="cls-1"><g id="Capa_2" data-name="Capa 2"><g id="Layer_1" data-name="Layer 1"><path class="cls-2" d="M71.45,48.65c.28-5.11-9.47-9.81-21.78-10.5s-22.53,2.9-22.81,8S36.32,56,48.64,56.65,71.16,53.75,71.45,48.65Z"/><path class="cls-3" d="M27.82,45.46c0,3.6,7.88,6.52,17.59,6.52S63,49.06,63,45.46s-7.88-17.2-17.59-17.2S27.82,41.87,27.82,45.46Z"/><path class="cls-4" d="M90.82,17.16c0-6-20.33-10.81-45.41-10.81S0,11.19,0,17.16,20.33,45.73,45.41,45.73,90.82,23.13,90.82,17.16Z"/><path class="cls-5" d="M5.11,12.75c-2.83,2.39-4,5-3,7.37,2.43,5.76,23.88,25.43,39,22.8s18.2-26.57,15.77-32.34a6.94,6.94,0,0,0-2.6-2.93c-3.2-.17-6.52-.26-9.93-.26C27.59,7.39,13,9.54,5.11,12.75Z"/><path class="cls-6" d="M90.82,17.16C90.82,7.68,70.49,0,45.41,0S0,7.68,0,17.16,20.33,34.32,45.41,34.32,90.82,26.64,90.82,17.16Z"/><path class="cls-4" d="M45.41,31.57c-23.09,0-42.59-6.85-42.59-15s19.5-15,42.59-15S88,8.5,88,16.61,68.5,31.57,45.41,31.57Z"/><path class="cls-3" d="M38.17,9.11C22,7.29,7.6,12.92,6.65,21.4a7.67,7.67,0,0,0,0,1.27c6.77,5.19,21.81,8.9,38.8,8.9a106.2,106.2,0,0,0,20.41-1.9,7.48,7.48,0,0,0,.34-1.56C67.12,19.63,54.3,10.92,38.17,9.11Z"/><path class="cls-7" d="M6.71,24.46c-.35,1.14,4.12,3.58,10,5.45s10.9,2.45,11.24,1.31-5.09-.78-11-2.64S7.06,23.32,6.71,24.46Z"/><path class="cls-7" d="M32.06,46.48c-1-.66-2-.85-2.31-.41s.26,1.33,1.24,2,2,.85,2.3.41S33,47.14,32.06,46.48Z"/><path class="cls-8" d="M34,14.51c.3.33,0,.92-.49,1.24s-1.08.45-1.22.3l-.18-.19a4.84,4.84,0,0,0-.64-.47,10.1,10.1,0,0,0-3.08-1.11c-.7-.16-1.46-.29-2.32-.41L25,13.8l-1.21.12a13.2,13.2,0,0,0-4.92,2.22,24.08,24.08,0,0,0-2.21,1.8,8.22,8.22,0,0,0-1.55,2,3.29,3.29,0,0,0-.4,1.95,3,3,0,0,0,.79,1.54,5.25,5.25,0,0,0,1.36,1,7.19,7.19,0,0,0,1.26.59,4.47,4.47,0,0,0,.78.22l.26,0c.16,0,.38.51.51,1.13s-.19,1.17-.68,1.16l-.46-.06a7,7,0,0,1-1.19-.32,10.12,10.12,0,0,1-1.63-.77,8.35,8.35,0,0,1-.93-.59,6,6,0,0,1-1-.87,5.3,5.3,0,0,1-1.37-2.77A5.58,5.58,0,0,1,13,18.88a10.14,10.14,0,0,1,2-2.61,25.45,25.45,0,0,1,2.47-2,15.39,15.39,0,0,1,5.83-2.6c.53-.06,1.05-.12,1.57-.16s1,.05,1.52.1c.86.11,1.72.26,2.49.43a12.55,12.55,0,0,1,3.78,1.4,6.81,6.81,0,0,1,1,.74Z"/><path class="cls-9" d="M33.16,15.28c.23.25.21.58,0,.69a.5.5,0,0,1-.63-.13l-.2-.2a4.22,4.22,0,0,0-.69-.51A10.73,10.73,0,0,0,28.48,14c-.71-.16-1.49-.29-2.35-.41l-1.19-.08-1.25.13a13.43,13.43,0,0,0-5.05,2.27,24.49,24.49,0,0,0-2.24,1.83,8.12,8.12,0,0,0-1.61,2.06,3.63,3.63,0,0,0-.43,2.14,3.37,3.37,0,0,0,.86,1.7,5.76,5.76,0,0,0,1.44,1.09,9,9,0,0,0,1.3.61,4.38,4.38,0,0,0,.84.23l.29,0a.5.5,0,0,1,.46.41c.05.23-.19.43-.53.44l-.35-.06a5.64,5.64,0,0,1-1-.26,10,10,0,0,1-1.45-.68,6.9,6.9,0,0,1-1.63-1.25A4.15,4.15,0,0,1,13.52,22,4.45,4.45,0,0,1,14,19.4a13.19,13.19,0,0,1,4.12-4.2,14.15,14.15,0,0,1,5.37-2.41c.47,0,.94-.11,1.39-.14l1.33.08c.87.12,1.68.26,2.41.42a11.12,11.12,0,0,1,3.43,1.26,5.4,5.4,0,0,1,.82.61Z"/><path class="cls-8" d="M21.78,22.53c.2,0,.2.6,0,1.2s-.48,1.05-.63,1l-.72-.19a19.22,19.22,0,0,1-2.06-.67,4.84,4.84,0,0,1-1.49-.93,2.66,2.66,0,0,1-.7-1.07,2.79,2.79,0,0,1-.11-1.27,4.37,4.37,0,0,1,.85-2,8.29,8.29,0,0,1,1.29-1.41,9.73,9.73,0,0,1,1.5-1.08,13.34,13.34,0,0,1,1.52-.83,12,12,0,0,1,3-1c.48-.05.92-.1,1.31-.11l1,.06c.57.11.89.19.89.19.22.05.23.58,0,1.19s-.47,1.07-.61,1l-.61-.14-.72,0c-.28,0-.6.05-.95.08a9.79,9.79,0,0,0-2.39.79,11.64,11.64,0,0,0-2.49,1.57,4,4,0,0,0-1.38,1.95.62.62,0,0,0,0,.25.75.75,0,0,0,.11.14,2.68,2.68,0,0,0,.8.47,14.67,14.67,0,0,0,1.77.57Z"/><path class="cls-9" d="M21.46,23.63a.38.38,0,0,1,.18.5c-.08.22-.26.36-.42.31l-.72-.2a15.6,15.6,0,0,1-2-.66,4.42,4.42,0,0,1-1.39-.86,2.45,2.45,0,0,1-.62-.95,2.59,2.59,0,0,1-.1-1.13,4.11,4.11,0,0,1,.79-1.84,8.14,8.14,0,0,1,1.25-1.36,13.59,13.59,0,0,1,3-1.87,12.05,12.05,0,0,1,2.93-1c.46,0,.88-.1,1.26-.1l1,.06c.55.1.85.18.85.18a.36.36,0,0,1,.24.49.43.43,0,0,1-.45.32l-.75-.16-.87-.05c-.34,0-.72.06-1.14.1A12.41,12.41,0,0,0,19,18.07a4.93,4.93,0,0,0-1.76,2.68,1.5,1.5,0,0,0,.47,1.36,3.82,3.82,0,0,0,1.14.7,15.55,15.55,0,0,0,1.91.62Z"/><path class="cls-10" d="M55.12,29.32c.54,0,1.08-.06,1.61-.13a3.08,3.08,0,0,1-.27-.25,1.82,1.82,0,0,1-.41-.78A.59.59,0,0,1,56,28c-.07.07-.15.12-.22.18a2.09,2.09,0,0,0,.41.8Z"/><path class="cls-10" d="M25.38,27.48l-.55,0a1.78,1.78,0,0,0,.26.22l.18.08h.83a2.75,2.75,0,0,1,.2-.38Z"/><path class="cls-10" d="M65.66,17.66l.89.07a.25.25,0,0,1,0-.08q-1.32-.33-2.64-.6l-.25,0c0,.1.07.19.1.29l.06.26C64.44,17.63,65.05,17.63,65.66,17.66Z"/><path class="cls-10" d="M53,13.75l1.15.17,1.12.24c.86.21,1.69.46,2.51.71h0l.34-.13c-.91-.28-1.84-.57-2.81-.81l-1.13-.24L53,13.51c-.42,0-.8-.06-1.25,0a5,5,0,0,0-1.32.28l-.08,0,.26.17a4.52,4.52,0,0,1,1.16-.24C52.16,13.69,52.54,13.74,53,13.75Z"/><path class="cls-10" d="M58.66,16.45l.1,0h0Z"/><path class="cls-10" d="M59.34,28.44l-.75-.21-.23.08-.12,0a2.34,2.34,0,0,1-.48-.27l-1.07-.3a1,1,0,0,0,.27.79,2.53,2.53,0,0,0,.76.53l.16,0A5,5,0,0,0,59.34,28.44Z"/><path class="cls-10" d="M67.08,24.61l-.79-.29h0a.25.25,0,0,1,0,.07l.25.34.24.06.23,0h0s0-.07,0-.1A.45.45,0,0,0,67.08,24.61Z"/><path class="cls-10" d="M62.08,22.51h.34l-.11-.11Z"/><path class="cls-10" d="M19.34,23.57l-.1,0s.05.1,0,.12-.06,0-.13,0a2.09,2.09,0,0,0,.17.37c0-.09.08-.18.13-.27A2,2,0,0,1,19.34,23.57Z"/><path class="cls-10" d="M48.2,15.69h0c.06-.07.1-.14.16-.2l0-.05-.17-.08a1.07,1.07,0,0,0-.06.27Z"/><path class="cls-10" d="M23.08,27.49h0l.17.06a5.49,5.49,0,0,0,.86.15L24,27.52C23.67,27.52,23.37,27.51,23.08,27.49Z"/><path class="cls-10" d="M56.34,16.1l.23.07a.76.76,0,0,1,.06-.16,2.26,2.26,0,0,1,.45-.64c-.67-.2-1.34-.4-2-.57L54,14.57c-.36-.05-.72-.11-1.09-.15s-.74-.06-1.11,0l-.56.08c.12.12.22.24.33.36a8.88,8.88,0,0,1,1.57.17A14.24,14.24,0,0,1,56.34,16.1Z"/><path class="cls-10" d="M44.7,19.23l-.23.28.3,0c0-.11-.05-.22-.07-.32Z"/><path class="cls-10" d="M63.33,23.43l0-.05-.67.08c.1.07.21.13.31.21l.55-.06Z"/><path class="cls-10" d="M20.82,26.12a.82.82,0,0,0,.2.17,4.65,4.65,0,0,0,2.11.54h.49a1.91,1.91,0,0,1-.11-.41h-.19a4.27,4.27,0,0,1-1.54-.35,2.31,2.31,0,0,1-.93-.73A3.27,3.27,0,0,0,20.82,26.12Z"/><path class="cls-10" d="M29.74,22.82l.08,0,.21-.05h-.21Z"/><path class="cls-10" d="M39.15,22.57l.2,0-.49,0Z"/><path class="cls-10" d="M33.47,26.24l0,.16.25-.06Z"/><path class="cls-10" d="M45.54,16.08h.11a1.88,1.88,0,0,0-.18-.12Z"/><path class="cls-10" d="M43,15.89l-.38-.05-.12.12h.62Z"/><path class="cls-10" d="M28.71,22.75l.09-.07-1.21-.06c-.48,0-1-.08-1.44-.13a7.89,7.89,0,0,0-1.24,1.34,5,5,0,0,0-.47.81h0c.3-.08.6-.19.91-.3.1,0,.19-.08.29-.12a1.31,1.31,0,0,1,.55-.72,1.93,1.93,0,0,1,.44-.22l.43-.12a5.07,5.07,0,0,1,.5-.09l.76-.07C28.46,22.91,28.59,22.84,28.71,22.75Z"/><path class="cls-10" d="M52.69,27.6l.42,0,.7-.21-1.33-.2s.05.07.06.1A2.17,2.17,0,0,1,52.69,27.6Z"/><path class="cls-10" d="M24.37,23.45a8.12,8.12,0,0,1,.93-1.08l-.58-.11-.06,0-.54.14-.49.19-.24.1-.2.12a1.88,1.88,0,0,0-.36.27c-.47.38-.68.95-.57,1.19a.54.54,0,0,0,.33.32,2.44,2.44,0,0,0,.83.17,1.07,1.07,0,0,0,.25,0A5.19,5.19,0,0,1,24.37,23.45Zm-1.6.48.45-.36a17.19,17.19,0,0,1,1.61-1.06,10.22,10.22,0,0,0-.66.79l-.34.53A6.44,6.44,0,0,1,22.77,23.93Z"/><path class="cls-10" d="M70.87,18.29l-.32-.21.15.36.15,0,.33.1Z"/><path class="cls-10" d="M30.54,26.71l.58.26.44-.11c0-.15,0-.32.06-.5C31.24,26.47,30.88,26.59,30.54,26.71Z"/><path class="cls-10" d="M19.89,22.7l0,.28s0,0,0,.06a5.94,5.94,0,0,1,.84-.95c-.25.06-.49.13-.73.21A1,1,0,0,0,19.89,22.7Z"/><path class="cls-10" d="M69.31,20.05a1,1,0,0,0,0-.16l-.39-.11a2,2,0,0,1-.34-.1h-.07a.59.59,0,0,1,0,.13Z"/><path class="cls-10" d="M25.33,26.81c.39,0,.78,0,1.16-.09v0l0-.07A3.92,3.92,0,0,1,25.8,26a7.51,7.51,0,0,1-1.62.43,2,2,0,0,0,.16.47C24.67,26.85,25,26.84,25.33,26.81Z"/><path class="cls-10" d="M38.94,26.31,40.11,26a1.57,1.57,0,0,1-.33-.46,10.23,10.23,0,0,0-1.52.37l-.09.16Z"/><path class="cls-10" d="M71.48,21l.15.1h.09l-.27-.2Z"/><path class="cls-10" d="M66.74,16.76l-.17,0-.71.06.81.21A1.55,1.55,0,0,1,66.74,16.76Z"/><path class="cls-10" d="M40.59,26.78h0a.33.33,0,0,1,0-.17.69.69,0,0,1,.11-.13l-.63.19Z"/><path class="cls-10" d="M29.59,29.07,30,29H30l-1.07.21h0Q29.24,29.13,29.59,29.07Z"/><path class="cls-10" d="M34.71,30.57a3.45,3.45,0,0,1-.43.12c.31.1.62.18.92.26l.54-.15-.38-.07C35.15,30.69,34.93,30.63,34.71,30.57Z"/><path class="cls-10" d="M38.89,15.73l-.44.11c-.37.1-.74.2-1.11.32l-.06,0,.52,0C38.16,16,38.52,15.86,38.89,15.73Z"/><path class="cls-10" d="M51.45,31h0Z"/><path class="cls-10" d="M74.14,23.59a2.26,2.26,0,0,1-.16.26,4.93,4.93,0,0,1,.27,1.73,4.28,4.28,0,0,1-.14.92l.26-.06a4.24,4.24,0,0,0,.12-.85A4.81,4.81,0,0,0,74.14,23.59Z"/><path class="cls-10" d="M45.58,30.28c0,.11-.08.21-.11.31l.48,0h.49c.12,0,.23,0,.35,0a9,9,0,0,1-1.26-.15l1.26-.28L46.25,30l-.64.14Z"/><path class="cls-10" d="M73.37,26.21a1.33,1.33,0,0,1-.16.17l.22.08c0-.16.08-.32.11-.48C73.48,26.06,73.43,26.14,73.37,26.21Z"/><path class="cls-10" d="M63.25,29.53l0,0-.29.24c.6,0,1.19,0,1.78-.08a8.19,8.19,0,0,1-.88-.09Z"/><path class="cls-10" d="M40.67,28.69h0Z"/><path class="cls-10" d="M47.35,23.37l.16,0,.58-.13.46-.07,0-.08-1,0H47.3C47.32,23.17,47.33,23.27,47.35,23.37Z"/><path class="cls-10" d="M42.07,29.86a2.16,2.16,0,0,0,.27.25c.39-.05.78-.11,1.16-.18a5.75,5.75,0,0,1-.46-.59l0-.06Z"/><path class="cls-10" d="M28.37,25.43H28l0,0,.43.22.49-.21.09,0h-.72Z"/><path class="cls-10" d="M67.78,28.52a5.25,5.25,0,0,1-.55.09,2.11,2.11,0,0,1-.6.69,2.5,2.5,0,0,1-.63.29l.56-.07c1.42-.29,2.78-.6,4.09-.95C69.68,28.6,68.72,28.57,67.78,28.52Z"/><path class="cls-10" d="M44.16,30.49h0Z"/><path class="cls-11" d="M56,28a.59.59,0,0,0,0,.13,1.82,1.82,0,0,0,.41.78,3.08,3.08,0,0,0,.27.25c.33-.05.66-.1,1-.17a2.53,2.53,0,0,1-.76-.53,1,1,0,0,1-.27-.79l-.27-.08h-.1A1.56,1.56,0,0,1,56,28Z"/><path class="cls-11" d="M71.5,21.11h.13l-.15-.1A.44.44,0,0,1,71.5,21.11Z"/><path class="cls-11" d="M63.82,24l-.35-.42-.55.06a3.81,3.81,0,0,1,.32.24l.32.07Z"/><path class="cls-11" d="M40.39,26.21a2.15,2.15,0,0,1-.28-.23l-1.17.33c.4.13.81.23,1.21.35l.63-.19,0,0-.13-.05C40.63,26.35,40.51,26.29,40.39,26.21Z"/><path class="cls-11" d="M67.26,24.68l-.18-.07a.45.45,0,0,1,0,.11s0,.06,0,.1l.18-.06a.13.13,0,0,1,0-.06Z"/><path class="cls-11" d="M46.25,30l-.56-.13a1.73,1.73,0,0,1-.08.27Z"/><path class="cls-11" d="M35.18,30.44l-.29.09-.18,0c.22.06.44.12.65.16l.38.07.31-.1-.68-.19Z"/><path class="cls-11" d="M68.37,17.77a.92.92,0,0,0,0,.19l.15,0-.13-.2Z"/><path class="cls-11" d="M53.65,27.45l.27-.08-.11,0-.7.21A5.17,5.17,0,0,0,53.65,27.45Z"/><path class="cls-11" d="M68.48,19.8l0,.12a9.37,9.37,0,0,1,.9.44c0-.1-.06-.2-.1-.31Z"/><path class="cls-11" d="M66.57,17.52c0-.17.06-.36.1-.53l-.81-.21c-.66.08-1.31.17-1.94.27q1.32.27,2.64.6A.62.62,0,0,1,66.57,17.52Z"/><path class="cls-11" d="M48.09,23.27l-.58.13.33.08h.8l-.09-.29Z"/><path class="cls-11" d="M52.89,14.42c.37,0,.73.1,1.09.15l1.09.23c.67.17,1.34.37,2,.57a2.08,2.08,0,0,1,.21-.21,2.57,2.57,0,0,1,.44-.29c-.82-.25-1.65-.5-2.51-.71l-1.12-.24L53,13.75c-.41,0-.79-.06-1.21,0a4.52,4.52,0,0,0-1.16.24c.21.15.42.32.63.5h0l.56-.08C52.15,14.36,52.52,14.41,52.89,14.42Z"/><path class="cls-11" d="M26.53,26.62l0,.07v0c-.38,0-.77.07-1.16.09s-.66,0-1,.05a2,2,0,0,1-.16-.47,4.92,4.92,0,0,1-.67,0,1.91,1.91,0,0,0,.11.41h-.49A4.65,4.65,0,0,1,21,26.29a.82.82,0,0,1-.2-.17,2.84,2.84,0,0,0,.08.42,11.17,11.17,0,0,0,2.16.95h0c.29,0,.59,0,.88,0l.13.18.94.1h.24l-.18-.08a1.78,1.78,0,0,1-.26-.22l.55,0,.92-.07a3.28,3.28,0,0,1,.49-.61Z"/><path class="cls-11" d="M38.89,15.73c-.37.13-.73.27-1.09.43l1.07-.09c.34-.13.67-.27,1-.42l.32-.17-.69.12Z"/><path class="cls-11" d="M19.59,23.5a4.43,4.43,0,0,1,.29-.46s0,0,0-.06l0-.28a1,1,0,0,1,.1-.4h0c-.05.08-.09.16-.13.24a1.3,1.3,0,0,1-.08.17.48.48,0,0,1-.09.13c-.13.15-.06.43-.2.63a.58.58,0,0,1-.12.1,2,2,0,0,0,.1.26A2.41,2.41,0,0,1,19.59,23.5Z"/><path class="cls-11" d="M42.74,15.73l-.1.11.38.05Z"/><path class="cls-11" d="M28.9,29.16a23.46,23.46,0,0,0,2.78,0l-.32-.13-.69,0A6,6,0,0,1,30,29l-.44.11Q29.24,29.13,28.9,29.16Z"/><path class="cls-11" d="M48.23,15.67l.34-.19-.14-.06,0,.05C48.33,15.53,48.29,15.6,48.23,15.67Z"/><path class="cls-11" d="M74,23.85a4.69,4.69,0,0,1-.33.4h0c0,.14.09.28.13.43a1.94,1.94,0,0,1-.12,1.06,1,1,0,0,1-.12.23c0,.16-.07.32-.11.48l.32.12.36-.08a4.28,4.28,0,0,0,.14-.92A4.93,4.93,0,0,0,74,23.85Z"/><path class="cls-11" d="M29.74,22.82l.08-.09h0l-1-.05-.09.07c-.12.09-.25.16-.38.25l.93-.05Z"/><path class="cls-11" d="M24.91,23.83a7.89,7.89,0,0,1,1.24-1.34l-.85-.12h0a8.12,8.12,0,0,0-.93,1.08,5.19,5.19,0,0,0-.7,1.32,3.85,3.85,0,0,0,.78-.13h0A5,5,0,0,1,24.91,23.83Z"/><path class="cls-11" d="M65.09,29.74h-.4c-.59.05-1.18.08-1.78.08a6.5,6.5,0,0,1-.65.49c1.48-.23,2.92-.49,4.3-.78l-.56.07A3.45,3.45,0,0,1,65.09,29.74Z"/><path class="cls-11" d="M44.15,30.49l-.15-.1a3.49,3.49,0,0,1-.5-.46c-.38.07-.77.13-1.16.18a2.16,2.16,0,0,1-.27-.25l-.43.24,1.2.23c.43.06.87.12,1.3.16Z"/><path class="cls-10" d="M53.13,25.42a10.66,10.66,0,0,0-2.21-.25h0l.56.09.5.11h.37Z"/><path class="cls-10" d="M64,28.75a5,5,0,0,0,1.09.08,1.84,1.84,0,0,0,1-.28,1.07,1.07,0,0,0,.16-.14,11.86,11.86,0,0,1-1.35-.14l-.58-.07A4.07,4.07,0,0,1,64,28.75Z"/><path class="cls-10" d="M33.73,15.43l-1,.3c-.31.08-.68.15-1,.23l-.4.09-.1,0-.52.24-.46.19,1.53-.32L32.77,16l.06,0a8.85,8.85,0,0,1,1.43-.6l2.34-.74.35-.2C35.85,14.74,34.78,15.1,33.73,15.43Z"/><path class="cls-10" d="M70,25.52c.71.15,1.39.31,2,.48h0a2.27,2.27,0,0,0,.41-.21l.08-.07h0a1.81,1.81,0,0,1-.31,0,2.9,2.9,0,0,1-.69-.42l-.29.09a9,9,0,0,1-1,.14h0a.27.27,0,0,1,0-.09s0-.07,0-.11c.24,0,.47,0,.71,0a2.81,2.81,0,0,0,.57-.05L71.32,25a2.23,2.23,0,0,1-.36,0c-.15,0-.28,0-.43,0l-.08.07-.42.27h0S70,25.48,70,25.52Z"/><path class="cls-10" d="M47.68,25.14l.06.18h1.13l-.81-.19Z"/><path class="cls-10" d="M29.57,17.34l2-.35s0,0,0,0l0-.05c-.65.13-1.3.26-1.94.41Z"/><path class="cls-10" d="M59.7,18l-.12-.09-.31.08.09.06Z"/><path class="cls-10" d="M25,17.83l.16-.06.09,0a.41.41,0,0,0,.07-.11l.16-.2-.17.05A4.6,4.6,0,0,0,25,17.83Z"/><path class="cls-10" d="M40.64,26.83a.08.08,0,0,1,0,0h0l-.44-.12c-.4-.12-.81-.22-1.21-.35l-.77-.26c0,.06-.06.12-.1.17a2.65,2.65,0,0,1-.32.34,2,2,0,0,1-.29.22q.65.22,1.29.42l.42-.06,1.35-.26h0S40.58,26.83,40.64,26.83Z"/><path class="cls-10" d="M19.74,27.83l-.4-.25a3.85,3.85,0,0,0,.58.92l.43.12a1.09,1.09,0,0,0-.11-.1A3.12,3.12,0,0,1,19.74,27.83Z"/><path class="cls-10" d="M34.28,30.69a3.45,3.45,0,0,0,.43-.12l.18,0,.29-.09.19.07.68.19.4-.13-1-.29-.26-.09-.37.11a5.76,5.76,0,0,1-1.15.25c-.64.1-1.28.16-1.92.2l1.18.14.78-.1A3.78,3.78,0,0,0,34.28,30.69Z"/><path class="cls-10" d="M58.4,18.28l0,0-.14,0v0Z"/><path class="cls-10" d="M50.73,29.49c0,.09-.09.21-.13.31s-.05.09-.07.14l.7.09a2.23,2.23,0,0,0,.58-.75h-1Z"/><path class="cls-10" d="M31.92,29.08h0l-.54,0,.32.13a23.46,23.46,0,0,1-2.78,0h0l-1.11.16a2.3,2.3,0,0,0,.23.51c0,.07.09.12.13.18a23.06,23.06,0,0,0,4.55,0h0A2.13,2.13,0,0,1,31.92,29.08Z"/><path class="cls-10" d="M37.18,20.68h.16l.16,0,0,0Z"/><path class="cls-10" d="M57.41,25.15a1,1,0,0,0,.12-.27l0-.13-.32,0-.54.13Z"/><path class="cls-10" d="M71.29,20.36c.06.19.11.38.16.55l.27.2,1.25,0-.12-.13A16.12,16.12,0,0,0,71.29,20.36Z"/><path class="cls-10" d="M24.78,29.58l1.28.19a2.81,2.81,0,0,1-.08-.31H25a13.93,13.93,0,0,1-2.23-.32c-.27-.08-.53-.18-.79-.27a6.46,6.46,0,0,0,.69.26A20.21,20.21,0,0,0,24.78,29.58Z"/><path class="cls-10" d="M22.46,18.77l-.27.25.26-.09C22.45,18.88,22.46,18.82,22.46,18.77Z"/><path class="cls-10" d="M45.06,23.26l.29,0,.16,0,0-.33L45,23A2.86,2.86,0,0,0,45.06,23.26Z"/><path class="cls-10" d="M39.27,31.29,39,31.4l.91,0h0Z"/><path class="cls-10" d="M45.05,15.37,45,15.28a6.78,6.78,0,0,1,.49.79h.08L45.47,16A5.46,5.46,0,0,0,45.05,15.37Z"/><path class="cls-10" d="M69.07,23a6,6,0,0,1,.42.65,1.3,1.3,0,0,0,.23-.26l-.1,0c-.11-.18-.23-.35-.35-.52l-.12-.13H69L69,23Z"/><path class="cls-10" d="M56.26,17.08h0A14.24,14.24,0,0,0,53,15.88l-.64-.1c.06.09.1.18.15.27a4.4,4.4,0,0,1,.66.81,11.52,11.52,0,0,1,1.75.57C55.32,17.33,55.78,17.21,56.26,17.08Z"/><path class="cls-10" d="M65.16,22.46c.06.12.13.23.2.35a13.15,13.15,0,0,0,1.29.67l.64.25a6.8,6.8,0,0,0-.09-.86c0-.11,0-.22-.07-.33-.71-.11-1.42-.23-2.12-.36C65.06,22.27,65.1,22.36,65.16,22.46Z"/><path class="cls-10" d="M73.42,24.15l-.06.05a3.66,3.66,0,0,1,.18.53,1.65,1.65,0,0,1-.1.93,1.9,1.9,0,0,1-.25.4,1.27,1.27,0,0,1-.25.22l.27.1a1.33,1.33,0,0,0,.16-.17c.06-.07.11-.15.17-.23a1,1,0,0,0,.12-.23,1.94,1.94,0,0,0,.12-1.06c0-.15-.08-.29-.13-.43h0a4.69,4.69,0,0,0,.33-.4,2.77,2.77,0,0,0,.41-.9,2,2,0,0,0,.06-.34l-.25,0c0,.08,0,.17,0,.25A2.6,2.6,0,0,1,73.42,24.15Z"/><path class="cls-10" d="M19.79,23.62A5.7,5.7,0,0,1,21.22,22l-.5.11a5.94,5.94,0,0,0-.84.95,4.43,4.43,0,0,0-.29.46,2.41,2.41,0,0,0-.15.33c-.05.09-.09.18-.13.27A5.38,5.38,0,0,0,19,25.22c.08.07.14.14.22.2A4.52,4.52,0,0,1,19.79,23.62Z"/><path class="cls-10" d="M25.3,22.37h0l.85.12c.48.05,1,.1,1.44.13l1.21.06,1,.05H30l.79-.2-1-.05-2.21-.11c-.75-.05-1.5-.12-2.27-.24a6.18,6.18,0,0,0-.62.12Z"/><path class="cls-10" d="M67.08,24.61l.18.07c0-.09,0-.17,0-.25-.31-.1-.6-.21-.9-.33L66,23.92c.08.13.16.26.25.39h0Z"/><path class="cls-10" d="M48.2,15.68h0c0,.1,0,.2,0,.3l.14-.1a3.15,3.15,0,0,1,.51-.28l-.27-.13-.34.19Z"/><path class="cls-10" d="M50.19,16.78a2.74,2.74,0,0,1,.39-.09,8.41,8.41,0,0,0-.9-.62L49.59,16a4.29,4.29,0,0,0-.89.43C49.19,16.53,49.69,16.65,50.19,16.78Z"/><path class="cls-10" d="M30.54,26.71c-.28.09-.54.19-.79.29l-.38.16.3.14L30.84,27l.28-.07Z"/><path class="cls-10" d="M63.47,23.61l.35.42.16,0-.42-.76A9.75,9.75,0,0,1,63,22.13l0-.08-.67.34.11.11c.3.29.59.58.86.88l0,.05Z"/><path class="cls-10" d="M56.48,16.43a2.09,2.09,0,0,1,.08-.23l-.22-.1A14.24,14.24,0,0,0,53.12,15a8.88,8.88,0,0,0-1.57-.17l.23.24a9.24,9.24,0,0,1,1.3.17A14.6,14.6,0,0,1,56.48,16.43Z"/><path class="cls-10" d="M51.09,27.62h.62a3.85,3.85,0,0,0-.39-.6H51.1C51.1,27.22,51.1,27.42,51.09,27.62Z"/><path class="cls-10" d="M52.44,27.62l.25,0a2.17,2.17,0,0,0-.15-.35s0-.06-.06-.1l-.31,0,.16.26A2,2,0,0,1,52.44,27.62Z"/><path class="cls-10" d="M57.76,28l.83.23.75.21a5,5,0,0,1-1.46.55l-.16,0c-.33.07-.66.12-1,.17-.53.07-1.07.11-1.61.13a20.31,20.31,0,0,1-2.34,0s0,0,0,0h-.26a2.77,2.77,0,0,1-.46.85,19,19,0,0,0,6-.25,4.79,4.79,0,0,0,2-.85,3.59,3.59,0,0,0,.39-.39l.06-.1-1-.29-2-.56c-.38,0-.76,0-1.11-.06l.27.08Z"/><path class="cls-10" d="M72.9,23.48a1.13,1.13,0,0,1,.1.13,1.76,1.76,0,0,0,.51-.87s0,0,0,0l-1.28.06A5.7,5.7,0,0,1,72.9,23.48Z"/><path class="cls-10" d="M43.14,16h0a.85.85,0,0,0-.41-.24h0l.28.16Z"/><path class="cls-10" d="M44.14,30.49c-.43,0-.87-.1-1.3-.16.46.08.93.15,1.4.21l-.08-.05Z"/><path class="cls-10" d="M69.26,19.89s0-.05,0-.08l-.71-.13a2,2,0,0,0,.34.1Z"/><path class="cls-10" d="M34.59,26.11a1.75,1.75,0,0,1-.46-.57l-.47.15a5.17,5.17,0,0,0-.19.55l.22.1Z"/><path class="cls-10" d="M35.16,25.29h0l.35.2a3.37,3.37,0,0,1,.37-.29A5.54,5.54,0,0,0,35.16,25.29Z"/><path class="cls-10" d="M26.06,25.87h0L25.8,26a3.92,3.92,0,0,0,.73.66l.26.18a1.54,1.54,0,0,1,.19-.17A3.66,3.66,0,0,1,26.06,25.87Z"/><path class="cls-10" d="M66.49,29.1a2.58,2.58,0,0,1-1.41.4,6.13,6.13,0,0,1-1.23-.1c-.13,0-.25-.06-.39-.09l-.21.22.56.11a8.19,8.19,0,0,0,.88.09h.4a3.45,3.45,0,0,0,.91-.15,2.5,2.5,0,0,0,.63-.29,2.11,2.11,0,0,0,.6-.69,5.25,5.25,0,0,0,.55-.09L67,28.47A1.77,1.77,0,0,1,66.49,29.1Z"/><path class="cls-10" d="M38.45,15.84l.44-.11.59-.13.69-.12a6.52,6.52,0,0,0,.59-.33l0-.05c-.68.18-1.35.37-2,.58l-1.32.41-.09.07C37.71,16,38.08,15.94,38.45,15.84Z"/><path class="cls-10" d="M47.35,23.37s0,.07,0,.1h.47l-.33-.08Z"/><path class="cls-10" d="M35.2,29.49l.12,0h0l-.23-.27h-.87C34.54,29.27,34.87,29.39,35.2,29.49Z"/><path class="cls-10" d="M20.85,25.36a1.61,1.61,0,0,1-.32-.57,2.1,2.1,0,0,1-.09-.95l-.06.1a3.89,3.89,0,0,0-.47,2L20,26c.29.2.61.39.94.58a2.84,2.84,0,0,1-.08-.42A3.27,3.27,0,0,1,20.85,25.36Z"/><path class="cls-10" d="M60.81,27.91c0-.05,0-.1,0-.16l-.61-.07H60Z"/><path class="cls-10" d="M28.2,25c-.47.17-1,.38-1.5.59a4.89,4.89,0,0,0,.84.59h0a6.94,6.94,0,0,1,1-.51l-.43-.22,0,0h1.05c.73-.29,1.45-.52,2.15-.74h-.13c-.33,0-.66-.08-1-.1h-.56Z"/><path class="cls-10" d="M59.9,25.12,59.77,25l-.16,0-.21,0a2.67,2.67,0,0,1-.18.6c0,.09-.08.19-.12.29l.13.06,1.11.13h.15A4.91,4.91,0,0,0,59.9,25.12Z"/><path class="cls-10" d="M61.06,25.18l-.32-.05a6.07,6.07,0,0,1,.46.83l.94-.12A8.68,8.68,0,0,1,61.06,25.18Z"/><path class="cls-10" d="M50.38,30.59l-.31-.05a1.32,1.32,0,0,1-.87.32,1.58,1.58,0,0,1-1.08-.5c-.06-.06-.11-.14-.17-.21-.75-.15-1.49-.31-2.23-.48l0,.24.56.13.54.12,1.25.26a10.43,10.43,0,0,1-1.25.17c-.12,0-.23,0-.35,0H46l-.48,0,0,.11c1.35.15,2.7.23,4.07.27A6.87,6.87,0,0,0,50.38,30.59Z"/><path class="cls-10" d="M55.13,23h.43l-.47-.09Z"/><path class="cls-10" d="M51.42,30.73,51,31h.61q1,0,2-.09C52.93,30.88,52.17,30.82,51.42,30.73Z"/><path class="cls-10" d="M61.51,27.84a2.38,2.38,0,0,1,0,.26l.37.1.23.07c.11-.11.21-.21.3-.32Z"/><path class="cls-10" d="M47.4,29.36c0-.09-.1-.19-.14-.28l-.36,0q-.6-.06-1.14-.15V29C46.3,29.12,46.85,29.25,47.4,29.36Z"/><path class="cls-10" d="M36.54,27.25l-.15.07a.81.81,0,0,0,0,.16h.29A2.39,2.39,0,0,0,36.54,27.25Z"/><path class="cls-10" d="M33.52,29.9h0a3.86,3.86,0,0,0,.49-.09l-.43-.15A.87.87,0,0,1,33.52,29.9Z"/><path class="cls-10" d="M64,19.34l.37,0h.09c-.2,0-.41,0-.62,0l.14.05Z"/><path class="cls-10" d="M40.38,28.6l.11,0,.18.05h0l.3-.17h-.05Z"/><path class="cls-10" d="M53.09,22.73l-.23.07-.09,0a.67.67,0,0,0,.17.15L53,23h.18C53.16,22.92,53.13,22.83,53.09,22.73Z"/><path class="cls-10" d="M61,29l-.11.11.54-.36-.23-.07A3.45,3.45,0,0,1,61,29Z"/><path class="cls-10" d="M65.55,19.32h-.2a8.17,8.17,0,0,1,.84.14h.43s0,0,0-.07Z"/><path class="cls-11" d="M69.07,23l0,0c0,.23.06.46.07.72v.23a1.43,1.43,0,0,0,.21-.12l.17-.14A6,6,0,0,0,69.07,23Z"/><path class="cls-11" d="M25,17.83a2.56,2.56,0,0,0-.23.27,2.33,2.33,0,0,0-.16.2l.43-.1a2.67,2.67,0,0,1,.09-.26l.12-.2-.09,0Z"/><path class="cls-11" d="M66.11,28.55a1.84,1.84,0,0,1-1,.28A5,5,0,0,1,64,28.75a5.47,5.47,0,0,1-.51.56c.14,0,.26.07.39.09a6.13,6.13,0,0,0,1.23.1,2.58,2.58,0,0,0,1.41-.4,1.77,1.77,0,0,0,.55-.63l-2.12-.2a11.86,11.86,0,0,0,1.35.14A1.07,1.07,0,0,1,66.11,28.55Z"/><path class="cls-11" d="M70,25.52s0-.08,0-.12h0l-.16.09Z"/><path class="cls-11" d="M39.27,31.29l.64.14-.62-.15Z"/><path class="cls-11" d="M71.32,25a4.47,4.47,0,0,1-.34-.4,2.88,2.88,0,0,1-.45.41c.15,0,.28,0,.43,0A2.23,2.23,0,0,0,71.32,25Z"/><path class="cls-11" d="M34.82,30.3l.37-.11.26.09,1,.29.41-.15a6,6,0,0,1-1.25-.74l-.29-.24-.12,0c-.33-.1-.66-.22-1-.33h-.55a1.65,1.65,0,0,1,0,.51l.43.15a3.86,3.86,0,0,1-.49.09h0a.55.55,0,0,1-.18.19.42.42,0,0,1-.25,0c0,.05,0,.1,0,.11s-.19,0-.35-.24a23.06,23.06,0,0,1-4.55,0,1.56,1.56,0,0,0,.17.25c1.12.18,2.27.34,3.43.49.64,0,1.28-.1,1.92-.2A5.76,5.76,0,0,0,34.82,30.3Z"/><path class="cls-11" d="M45.35,23.3l-.29,0c0,.07,0,.14,0,.21h.42s0-.09,0-.13Z"/><path class="cls-11" d="M24.78,29.58a20.21,20.21,0,0,1-2.16-.45,6.46,6.46,0,0,1-.69-.26,13.8,13.8,0,0,1-2.19-1,3.12,3.12,0,0,0,.5.69,1.09,1.09,0,0,1,.11.1c1.81.47,3.74.89,5.75,1.26a.49.49,0,0,1,0-.11Z"/><path class="cls-11" d="M36.9,20.67l.29,0H36.9Z"/><path class="cls-11" d="M57.1,25.48l0,0s0,0,0,0,0,0,0,0,0,0,.05,0a1.13,1.13,0,0,1,.1-.13l.1-.18-.69-.29-.34.07A2.11,2.11,0,0,0,57.1,25.48Z"/><path class="cls-11" d="M68.53,26.9l-.15,0,0,0Z"/><path class="cls-11" d="M73,21.07h.14l-.26-.12Z"/><path class="cls-11" d="M53.08,15.23a9.24,9.24,0,0,0-1.3-.17,8.86,8.86,0,0,1,.53.72l.64.1a14.24,14.24,0,0,1,3.33,1.19l.09,0a2.79,2.79,0,0,1,.11-.62A14.6,14.6,0,0,0,53.08,15.23Z"/><path class="cls-11" d="M49.07,25.16h-1l.81.19a1.45,1.45,0,0,1,.22-.09A.29.29,0,0,1,49.07,25.16Z"/><path class="cls-11" d="M51.32,27a3.85,3.85,0,0,1,.39.6h.73a2,2,0,0,0-.11-.26l-.16-.26L51.78,27Z"/><path class="cls-11" d="M31.72,16.2l-1.53.32-.08,0c-.36.16-.73.33-1.1.52s-.62.34-.92.52l.26,0,1.22-.22.12,0c.64-.15,1.29-.28,1.94-.41a2,2,0,0,1,.25-.3,3,3,0,0,1,.28-.24,4.92,4.92,0,0,1,.67-.42l-.06,0Z"/><path class="cls-11" d="M59.36,18.08,59.27,18l-.91.23,0,0Z"/><path class="cls-11" d="M34.13,25.54a1.75,1.75,0,0,0,.46.57l.23-.05L35,26a3.18,3.18,0,0,1,.4-.48l0,0-.35-.2Z"/><path class="cls-11" d="M72.38,23.46c.24.49.48.82.63,1.18a1,1,0,0,1,.19.86.32.32,0,0,1-.19.17s.07.1.06.13-.22,0-.51-.07l-.08.07a2.27,2.27,0,0,1-.41.21l.87.27a1.27,1.27,0,0,0,.25-.22,1.9,1.9,0,0,0,.25-.4,1.65,1.65,0,0,0,.1-.93,3.66,3.66,0,0,0-.18-.53l.06-.05a2.6,2.6,0,0,0,.74-1.26c0-.08,0-.17,0-.25a2.4,2.4,0,0,1-.28,0l-.4,0s0,0,0,0a1.76,1.76,0,0,1-.51.87,1.13,1.13,0,0,0-.1-.13,5.7,5.7,0,0,0-.66-.72H72A5.09,5.09,0,0,0,72.38,23.46Z"/><path class="cls-11" d="M26.7,25.61l-.64.26a3.66,3.66,0,0,0,.92.76l.16-.15.4-.28h0A4.89,4.89,0,0,1,26.7,25.61Z"/><path class="cls-11" d="M27.61,22.38l2.21.11,1,.05c.42-.1.85-.19,1.28-.27s.66-.11,1-.15l-1,0L29.47,22c-.85,0-1.68-.05-2.49,0-.41,0-.79.07-1.19.09l-.45.08C26.11,22.26,26.86,22.33,27.61,22.38Z"/><path class="cls-11" d="M28.71,27.5l1-.2-.3-.14A5.09,5.09,0,0,0,28.71,27.5Z"/><path class="cls-11" d="M47.69,29.83l-.16-.24-.11-.2,0,0c-.55-.11-1.1-.24-1.64-.37,0,.23,0,.46,0,.68.74.17,1.48.33,2.23.48A2.78,2.78,0,0,1,47.69,29.83Z"/><path class="cls-11" d="M31.11,24.7h.13l.33-.1-1.08,0h-.37C30.45,24.62,30.78,24.66,31.11,24.7Z"/><path class="cls-11" d="M59.23,25.88l-.13-.06s0,0,0,0Z"/><path class="cls-11" d="M60.74,25.13l-1-.14.13.13a4.91,4.91,0,0,1,.59.89c.24,0,.48,0,.71-.05h0A6.07,6.07,0,0,0,60.74,25.13Z"/><path class="cls-11" d="M61.42,25.23l-.36-.05a8.68,8.68,0,0,0,1.08.66l.52-.07a2.45,2.45,0,0,0-.31-.34Z"/><path class="cls-11" d="M60.11,19.65l.61.07.1,0,.34-.18C60.8,19.54,60.46,19.59,60.11,19.65Z"/><path class="cls-11" d="M37.46,26.78h0a5,5,0,0,1-.92.47,2.39,2.39,0,0,1,.13.21l1.17-.11c.29,0,.61-.09.91-.15Q38.11,27,37.46,26.78Z"/><path class="cls-11" d="M48.19,16c0,.13,0,.25,0,.38l.38.05.12,0a4.29,4.29,0,0,1,.89-.43c-.24-.15-.49-.28-.75-.41a3.15,3.15,0,0,0-.51.28Z"/><path class="cls-11" d="M67.28,24.43c0-.25,0-.48,0-.7l-.64-.25a13.15,13.15,0,0,1-1.29-.67c.21.39.43.75.66,1.11l.36.18C66.68,24.22,67,24.33,67.28,24.43Z"/><path class="cls-11" d="M61.46,28.1a2.38,2.38,0,0,0,0-.26l-.66-.09c0,.06,0,.11,0,.16l-.8-.22H59.8c-.81,0-1.55,0-2.27,0l2,.56,1,.29-.06.1a3.59,3.59,0,0,1-.39.39,4.79,4.79,0,0,1-2,.85,19,19,0,0,1-6,.25,2.77,2.77,0,0,0,.46-.85l-.19,0h-.53a2.23,2.23,0,0,1-.58.75l-.7-.09a4,4,0,0,1-.28.43,1.45,1.45,0,0,1-.18.17l.31.05a6.87,6.87,0,0,1-.88.38c.4,0,.8,0,1.21,0H51l.38-.26c.75.09,1.51.15,2.27.17s1.29-.1,1.93-.19a16.28,16.28,0,0,0,4.53-1.15,7.83,7.83,0,0,0,.75-.41L61,29a3.45,3.45,0,0,0,.2-.32l.23.07c.22-.17.43-.34.62-.52l-.23-.07Z"/><path class="cls-11" d="M20.38,23.94l.06-.1a2.63,2.63,0,0,1,.21-.72,3.61,3.61,0,0,1,.92-1.22h0l-.36.08a5.7,5.7,0,0,0-1.43,1.64,4.52,4.52,0,0,0-.53,1.8c.2.17.42.34.65.5A3.89,3.89,0,0,1,20.38,23.94Z"/><path class="cls-11" d="M41,28.51l.06,0-.11,0Z"/><path class="cls-11" d="M64.48,19.3h-.09l-.37,0h0l-.14-.05h-.07c.08.16.15.33.22.5a7.9,7.9,0,0,1,1.21-.28,6.24,6.24,0,0,1,1-.07,8.17,8.17,0,0,0-.84-.14Z"/><path class="cls-10" d="M47.51,27.43c.33,0,.67.07,1,.09-.08-.17-.15-.35-.22-.53h-1a0,0,0,0,0,0,0Z"/><path class="cls-10" d="M52.5,20.23l-.14.1.15-.07Z"/><path class="cls-10" d="M46.77,27.35l-.05-.11c0-.08,0-.17-.08-.25h-.26l.11.32Z"/><path class="cls-10" d="M61.2,17.82a1.53,1.53,0,0,0-.14-.21l-.26.05.14.19Z"/><path class="cls-10" d="M48,16.33l.24,0c0-.13,0-.25,0-.38s0-.2,0-.3v-.08a1.07,1.07,0,0,1,.06-.27l-.22-.1a2.66,2.66,0,0,0-.08.33A3.22,3.22,0,0,0,48,16.33Z"/><path class="cls-10" d="M42.37,18.36l-1-.07.2.45.77,0,.22,0,0,0C42.46,18.55,42.41,18.45,42.37,18.36Z"/><path class="cls-10" d="M66.74,16.76a1.55,1.55,0,0,0-.07.23c0,.17-.06.36-.1.53a.62.62,0,0,0,0,.13.25.25,0,0,0,0,.08l.42,0,.5.07a4.2,4.2,0,0,1,.06-.61,3,3,0,0,1,.19-.58c-.32,0-.65,0-1,.06h0A.09.09,0,0,0,66.74,16.76Z"/><path class="cls-10" d="M50.18,27.6a3.88,3.88,0,0,0,0-.59h-.9c0,.19,0,.38,0,.57Z"/><path class="cls-10" d="M57.35,18.53h0l-.59.16-.29.07s0,0,0,0Z"/><path class="cls-10" d="M38.05,18.33a2.67,2.67,0,0,1,.43.25l1.17.09h.23l-.34-.39Z"/><polygon class="cls-10" points="50.91 16.97 50.9 16.96 50.91 16.97 50.91 16.97"/><path class="cls-10" d="M46.37,16.15l.91.09a3.84,3.84,0,0,1,0-.76,2.7,2.7,0,0,1,.12-.47c-.29-.1-.58-.19-.87-.26a5.26,5.26,0,0,0-.15.6A7.31,7.31,0,0,0,46.37,16.15Z"/><path class="cls-10" d="M58.09,14.73l-.34.13h0a2.57,2.57,0,0,0-.44.29,2.08,2.08,0,0,0-.21.21,2.26,2.26,0,0,0-.45.64.76.76,0,0,0-.06.16v0a2.09,2.09,0,0,0-.08.23,2.79,2.79,0,0,0-.11.62l1-.26a2.07,2.07,0,0,1,.13-.4,1.49,1.49,0,0,1,1-.83,2.07,2.07,0,0,1,1.3,0,2.78,2.78,0,0,1,.73.42l.16,0c-.19-.15-.38-.3-.59-.44a11.27,11.27,0,0,0-1.69-.89l-.17,0Z"/><path class="cls-10" d="M45.71,27.2h.07s0-.05,0-.08Z"/><path class="cls-10" d="M43.17,18.5a.41.41,0,0,0,0-.09h-.09Z"/><path class="cls-10" d="M67.8,15s-.06,0-.08,0h.12Z"/><path class="cls-10" d="M62,17.74h0a1.88,1.88,0,0,0-.12-.3l-.11,0A2.75,2.75,0,0,1,62,17.74Z"/><path class="cls-10" d="M69.62,18.18l1.08.26-.15-.36c0-.09-.07-.18-.11-.28s-.23-.46-.36-.7a4.05,4.05,0,0,0-.25-.38.43.43,0,0,1,0-.07c-.41,0-.82,0-1.22,0A5,5,0,0,1,69.62,18.18Z"/><path class="cls-10" d="M44.93,19.16c0-.2-.12-.39-.18-.58l-.26,0c.07.23.14.45.21.69h0c0,.1,0,.21.07.32H45Z"/><path class="cls-10" d="M45.59,19a3.92,3.92,0,0,1,.47-.27l-.58-.09.09.31S45.58,19,45.59,19Z"/><path class="cls-10" d="M45.58,30.28l0-.1a1.73,1.73,0,0,0,.08-.27l0-.24c0-.22,0-.45,0-.68v-.1l-.23,0A3.12,3.12,0,0,1,45.39,30l-.15.55-.05.16.24,0,0-.11C45.5,30.49,45.54,30.39,45.58,30.28Z"/><path class="cls-10" d="M69.51,19.88l-.27-.07s0,.05,0,.08a1,1,0,0,1,0,.16c0,.11.07.21.1.31l.3.2C69.65,20.33,69.58,20.11,69.51,19.88Z"/><path class="cls-10" d="M68.46,19.67l-.24-.05c0,.07,0,.14,0,.2l.27.1,0-.12A.59.59,0,0,0,68.46,19.67Z"/><path class="cls-10" d="M58.64,16.2l-.22.08c-.05,0-.11.06-.15.1a.54.54,0,0,0-.15.21l.54-.14.05,0h0c.2-.05.38-.11.59-.15l.19,0A1.39,1.39,0,0,0,58.64,16.2Z"/><path class="cls-10" d="M71.45,20.91c0-.17-.1-.36-.16-.55-.31-.1-.63-.2-1-.28l-.08,0c.12.38.21.73.31,1.06h.93a.44.44,0,0,0,0-.1Z"/><path class="cls-10" d="M67.54,19.52l-.78-.11h-.15s0,.05,0,.07a5,5,0,0,1,.93.15Z"/><path class="cls-10" d="M44.6,25.35a1.55,1.55,0,0,0,0-.21h-.85l.08.1.06.08C44.1,25.35,44.34,25.35,44.6,25.35Z"/><path class="cls-10" d="M49.11,23.35l.08-.21-.66,0,0,.08.09.29h.41Z"/><path class="cls-10" d="M68.56,17.64a.47.47,0,0,0-.06-.09.92.92,0,0,0-.14-.14l-.08-.06s0,0-.06.07a.76.76,0,0,0-.08.21.38.38,0,0,0,0,.1c0,.05,0,.12,0,.19l.16,0,.08,0a.92.92,0,0,1,0-.19h0l.13.2.3.06c0-.06,0-.11-.08-.16Z"/><path class="cls-10" d="M54.15,23h1l0-.09L54,22.65Z"/><path class="cls-10" d="M47.2,25.32h.54l-.06-.18h-.41a.09.09,0,0,0,0,.05A1.47,1.47,0,0,1,47.2,25.32Z"/><path class="cls-10" d="M58.23,18.31v0l-.23.06v0Z"/><path class="cls-10" d="M67.2,22.87a6.8,6.8,0,0,1,.09.86c0,.22,0,.45,0,.7,0,.08,0,.16,0,.25v0a.13.13,0,0,0,0,.06c.31-.1.62-.22.92-.34a6.76,6.76,0,0,0-.08-1.69s0-.05,0-.08l-1-.11C67.16,22.65,67.18,22.76,67.2,22.87Z"/><path class="cls-10" d="M50.73,29.49l.07-.21h-.25a3,3,0,0,1-.44.89,1.13,1.13,0,0,1-.92.46,1.41,1.41,0,0,1-.94-.48,3.54,3.54,0,0,1-.38-.47l-.25-.4c0-.05,0-.11-.08-.16l-.28,0c0,.09.09.19.14.28l0,0,.11.2.16.24a2.78,2.78,0,0,0,.26.32c.06.07.11.15.17.21a1.58,1.58,0,0,0,1.08.5,1.32,1.32,0,0,0,.87-.32,1.45,1.45,0,0,0,.18-.17,4,4,0,0,0,.28-.43c0-.05,0-.09.07-.14S50.7,29.58,50.73,29.49Z"/><path class="cls-10" d="M50.92,25.17H50.8l.13,0Z"/><path class="cls-10" d="M72.57,25.23a2.53,2.53,0,0,1,.44.44.32.32,0,0,0,.19-.17,1,1,0,0,0-.19-.86c-.15-.36-.39-.69-.63-1.18a5.09,5.09,0,0,1-.34-.7h-.47a1.92,1.92,0,0,1,0,1l.07.13A6,6,0,0,0,72.57,25.23Z"/><path class="cls-10" d="M45,23h-.26c.05.17.09.34.13.51h.25c0-.07,0-.14,0-.21A2.86,2.86,0,0,1,45,23Z"/><path class="cls-10" d="M71.54,25.25h0a2.9,2.9,0,0,0,.69.42,1.81,1.81,0,0,0,.31,0l-.27-.11a3.76,3.76,0,0,1-1.14-1.17c0,.06-.1.14-.16.2a4.47,4.47,0,0,0,.34.4Z"/><path class="cls-10" d="M48.6,29.54a1,1,0,0,0,.56.41c.25,0,.44-.18.55-.38a3.05,3.05,0,0,0,.13-.32l-1.48-.07C48.44,29.3,48.51,29.42,48.6,29.54Z"/><path class="cls-10" d="M44.05,28.57l-.29.2c.08.12.15.24.23.35a2.82,2.82,0,0,0,.66.63l.1.06,0,0s0,0,0-.05l0-.23c0-.16,0-.31,0-.47s0-.22,0-.34h0Z"/><path class="cls-10" d="M43.17,16h.36a1.79,1.79,0,0,0-.59-.46c-.06.08-.12.14-.18.21A.85.85,0,0,1,43.17,16Z"/><path class="cls-10" d="M47.35,23.37c0-.1,0-.2-.05-.3l-.92,0c0,.15,0,.29.07.43h.92S47.36,23.4,47.35,23.37Z"/><path class="cls-10" d="M40.85,15.09h-.07l0,.05Z"/><path class="cls-10" d="M53.2,23h.25a3.62,3.62,0,0,1-.13-.35l-.23.08C53.13,22.83,53.16,22.92,53.2,23Z"/><path class="cls-10" d="M44,30.05a4.46,4.46,0,0,1-.79-.9l-.21.13,0,.06a5.75,5.75,0,0,0,.46.59,3.49,3.49,0,0,0,.5.46l.15.1h0l.08.05.56.08A8.66,8.66,0,0,1,44,30.05Z"/><path class="cls-10" d="M50.85,27.62h.24c0-.2,0-.4,0-.6h-.24C50.86,27.22,50.86,27.42,50.85,27.62Z"/><path class="cls-10" d="M58.83,25.83l.25,0s0,0,0,0,.09-.2.12-.29a2.67,2.67,0,0,0,.18-.6l-.24,0a3.16,3.16,0,0,1-.16.54A2.2,2.2,0,0,1,58.83,25.83Z"/><path class="cls-10" d="M63,22.13a9.75,9.75,0,0,0,.55,1.18l.42.76.32.06c-.18-.3-.36-.61-.53-.93A8.1,8.1,0,0,1,63.24,22a.93.93,0,0,1-.05-.1l-.21.11Z"/><path class="cls-10" d="M44.25,21.24h0Z"/><path class="cls-10" d="M68.87,23.72c0,.13,0,.25,0,.37l.25-.15v-.23c0-.26,0-.49-.07-.72l0-.25h0l-.21,0A9.87,9.87,0,0,1,68.87,23.72Z"/><path class="cls-10" d="M49.07,25.16a.29.29,0,0,0,0,.09,1.79,1.79,0,0,1,.35-.09Z"/><path class="cls-10" d="M51.78,15.06l-.23-.24c-.11-.12-.21-.24-.33-.36h0c-.21-.18-.42-.35-.63-.5l-.26-.17a4.14,4.14,0,0,0-.55-.31,2.1,2.1,0,0,0-.46-.18,2.69,2.69,0,0,0-.54-.12l-.29,0-.33.05a1.41,1.41,0,0,0-.43.13,13.46,13.46,0,0,1,3,1.34A8.9,8.9,0,0,1,52.37,16l.09.1c-.05-.09-.09-.18-.15-.27A8.86,8.86,0,0,0,51.78,15.06Z"/><path class="cls-10" d="M68.36,26.88l0,0-.29-.06a.34.34,0,0,1-.06.06Z"/><path class="cls-10" d="M44.11,23.21l-.46.23-.11.06.64,0C44.16,23.39,44.13,23.3,44.11,23.21Z"/><path class="cls-10" d="M56.26,25.59l1.85.17a3.61,3.61,0,0,0,.27-.56,2.52,2.52,0,0,0,.12-.39l-.78-.06h-.14l0,.13a1,1,0,0,1-.12.27l-.1.18a1.13,1.13,0,0,0-.1.13s0,0-.05,0,0,0,0,0,0,0,0,0l0,0a2.11,2.11,0,0,1-.72-.55l-.5.08a.67.67,0,0,1,.09.14A3.35,3.35,0,0,1,56.26,25.59Z"/><path class="cls-10" d="M45.7,23h-.24l0,.33s0,.09,0,.13h.24C45.75,23.31,45.73,23.16,45.7,23Z"/><path class="cls-10" d="M44,15.45a4.44,4.44,0,0,1,.42.55l1.08.07a6.78,6.78,0,0,0-.49-.79c-.11-.15-.22-.3-.35-.45a3.63,3.63,0,0,0-.28-.27l-.91.06a3.27,3.27,0,0,1-.14.33A2.18,2.18,0,0,1,44,15.45Z"/><path class="cls-10" d="M64.36,22.89c.27.51.57,1,.87,1.48h0l1.32.35-.25-.34a.25.25,0,0,0,0-.07c-.09-.13-.17-.26-.25-.39-.23-.36-.45-.72-.66-1.11-.07-.12-.14-.23-.2-.35s-.1-.19-.15-.28L63.93,22A7.7,7.7,0,0,0,64.36,22.89Z"/><path class="cls-10" d="M64,19.81c-.07-.17-.14-.34-.22-.5h-.12a3.28,3.28,0,0,1-.52.79h0C63.43,20,63.71,19.9,64,19.81Z"/><path class="cls-11" d="M46.77,27.35l.35,0,.39,0L47.35,27a0,0,0,0,1,0,0h-.7c0,.08,0,.17.08.25Z"/><path class="cls-11" d="M38.05,18.33H37.7l-.33.14,1.11.1A2.67,2.67,0,0,0,38.05,18.33Z"/><path class="cls-11" d="M43.07,18.4l-.7,0c0,.09.09.19.13.29l0,0h.12l.17,0h0a.22.22,0,0,0,.26-.06.26.26,0,0,0,.09-.09l0-.1Z"/><path class="cls-11" d="M47.28,16.24l.68.09a3.22,3.22,0,0,1,0-.76,2.66,2.66,0,0,1,.08-.33c-.21-.09-.42-.16-.62-.23a2.7,2.7,0,0,0-.12.47A3.84,3.84,0,0,0,47.28,16.24Z"/><path class="cls-11" d="M52.55,20.24h0v0Z"/><path class="cls-11" d="M50.18,27.6l.67,0c0-.2,0-.4,0-.6h-.67A3.88,3.88,0,0,1,50.18,27.6Z"/><path class="cls-11" d="M62,17.74a2.75,2.75,0,0,0-.19-.28c-.23.05-.47.09-.7.15a1.53,1.53,0,0,1,.14.21Z"/><path class="cls-11" d="M68.22,19.62l-.26,0-.42-.06v.1l.25.05.44.15C68.23,19.76,68.23,19.69,68.22,19.62Z"/><path class="cls-11" d="M44.93,19.16l.09.39h0a.91.91,0,0,1,.26-.22,1.67,1.67,0,0,1,.3-.29s0,0,0-.05l-.09-.31L45,18.61l-.22,0C44.81,18.77,44.88,19,44.93,19.16Z"/><path class="cls-11" d="M67.53,17.22a4.2,4.2,0,0,0-.06.61l.64.09c0-.07,0-.14,0-.19a.38.38,0,0,1,0-.1.76.76,0,0,1,.08-.21s0-.07.06-.07l.08.06a.92.92,0,0,1,.14.14.47.47,0,0,1,.06.09l.16.24c0,.05,0,.1.08.16l.82.14a5,5,0,0,0-1.05-1.55h-.85A3,3,0,0,0,67.53,17.22Z"/><path class="cls-11" d="M45.24,30.51l.15-.55a3.12,3.12,0,0,0,.14-1.11l-.61-.1c0,.12,0,.23,0,.34s0,.31,0,.47l0,.23s0,.05,0,.05l0,0-.1-.06a2.82,2.82,0,0,1-.66-.63c-.08-.11-.15-.23-.23-.35l-.55.38a4.46,4.46,0,0,0,.79.9,8.66,8.66,0,0,0,.8.57l.39.05Z"/><path class="cls-11" d="M44.56,25.14a1.55,1.55,0,0,1,0,.21h.45l.19-.22Z"/><path class="cls-11" d="M58.45,15.56a1.49,1.49,0,0,0-1,.83,2.07,2.07,0,0,0-.13.4l.8-.2a.54.54,0,0,1,.15-.21s.1-.06.15-.1l.22-.08a1.39,1.39,0,0,1,.9,0l.94-.22a2.78,2.78,0,0,0-.73-.42A2.07,2.07,0,0,0,58.45,15.56Z"/><path class="cls-11" d="M70.26,20.06q-.37-.11-.75-.18c.07.23.14.45.2.68l.27.18c.17.12.33.25.48.38h.11C70.47,20.79,70.38,20.44,70.26,20.06Z"/><path class="cls-11" d="M72.28,25.61l.27.11h0c.29.11.48.13.51.07s0-.08-.06-.13a2.53,2.53,0,0,0-.44-.44,6,6,0,0,1-1-1.32l-.07-.13a2.3,2.3,0,0,1-.17.39c-.07.1-.14.18-.21.27A3.76,3.76,0,0,0,72.28,25.61Z"/><path class="cls-11" d="M44.73,23h-.07l-.55.26c0,.09,0,.18.07.27h.68C44.82,23.3,44.78,23.13,44.73,23Z"/><path class="cls-11" d="M58,18.36v0l-.65.18h0Z"/><path class="cls-11" d="M53.45,23l.7,0L54,22.65l-.45-.1-.26.1A3.62,3.62,0,0,0,53.45,23Z"/><path class="cls-11" d="M46.38,23l-.68,0c0,.15,0,.3.07.45h.68C46.43,23.32,46.4,23.18,46.38,23Z"/><path class="cls-11" d="M43.53,16h.37l.48,0a4.44,4.44,0,0,0-.42-.55,2.18,2.18,0,0,0-.67-.5,3.52,3.52,0,0,1-.35.56A1.79,1.79,0,0,1,43.53,16Z"/><path class="cls-11" d="M44.25,21.23h0Z"/><path class="cls-11" d="M47.87,29.67a3.54,3.54,0,0,0,.38.47,1.41,1.41,0,0,0,.94.48,1.13,1.13,0,0,0,.92-.46,3,3,0,0,0,.44-.89l-.71,0a3.05,3.05,0,0,1-.13.32c-.11.2-.3.42-.55.38a1,1,0,0,1-.56-.41c-.09-.12-.16-.24-.24-.36l-.82-.07c0,.05.05.11.08.16Z"/><path class="cls-11" d="M68,26.86a.34.34,0,0,0,.06-.06l-1-.24-.43.12-.26.06C66.92,26.79,67.48,26.83,68,26.86Z"/><path class="cls-11" d="M68.17,24.42a5.53,5.53,0,0,0,.69-.33c0-.12,0-.24,0-.37a9.87,9.87,0,0,0-.11-1l-.68-.07s0,.05,0,.08A6.76,6.76,0,0,1,68.17,24.42Z"/><path class="cls-11" d="M63.15,20.11h0l0,0h0Z"/><path class="cls-11" d="M63.24,22a8.1,8.1,0,0,0,.53,1.16c.17.32.35.63.53.93l.12,0,.81.21c-.3-.48-.6-1-.87-1.48a7.7,7.7,0,0,1-.43-.92l-.57-.11-.17.08A.93.93,0,0,0,63.24,22Z"/><path class="cls-11" d="M58.83,25.83a2.2,2.2,0,0,0,.17-.39,3.16,3.16,0,0,0,.16-.54l-.48-.07-.18,0a2.52,2.52,0,0,1-.12.39,3.61,3.61,0,0,1-.27.56Z"/><path class="cls-8" d="M78.41,23.73c-.07-.24-.18-.45-.27-.68s-.24-.41-.37-.61a5,5,0,0,0-.45-.56l-.22.1a7,7,0,0,1,.47.58l.35.58a5.18,5.18,0,0,1,.26.65,2.71,2.71,0,0,1,0,1.47,2.67,2.67,0,0,1-.56,1l.42-.17a2.91,2.91,0,0,0,.38-.77A3,3,0,0,0,78.41,23.73Z"/><path class="cls-8" d="M76.25,23.34a2,2,0,0,1,.45,1.56,1.73,1.73,0,0,1-.41.61,3.94,3.94,0,0,1-.83.53,6.65,6.65,0,0,1-1.09.4l-.26.06-.36.08-.32-.12-.22-.08-.27-.1L72.07,26h0c-.61-.17-1.29-.33-2-.48l-.16,0a8.84,8.84,0,0,1-1.26.58c1.17.26,2.25.47,3.16.74a14.48,14.48,0,0,1,1.91.66,9,9,0,0,0,2.21-.69,4.8,4.8,0,0,0,1-.67,2.38,2.38,0,0,0,.65-1A2.74,2.74,0,0,0,77,22.89a7,7,0,0,0-.56-.66c-.35.1-.69.17-1,.23A5.19,5.19,0,0,1,76.25,23.34Z"/><path class="cls-8" d="M40.11,26a2.15,2.15,0,0,0,.28.23c.12.08.24.14.31.18l.13.05a1,1,0,0,1,.3-.12,3.08,3.08,0,0,1-.59-.28,1.63,1.63,0,0,1-.52-.56l-.24,0A1.57,1.57,0,0,0,40.11,26Z"/><path class="cls-8" d="M40.73,25.38a1.92,1.92,0,0,0,.22.18,3.88,3.88,0,0,0,1.13.39,7,7,0,0,0-.57-.5l-.19-.14Z"/><path class="cls-8" d="M65.65,17.88l1.29.1,1.29.18a22.36,22.36,0,0,1,2.56.53,17,17,0,0,1,4.8,2l.28-.06h0l-.14-.1a16.64,16.64,0,0,0-4.57-2l-.33-.1-.15,0-1.08-.26L68.8,18,68.5,18l-.15,0-.08,0-.16,0-.64-.09-.5-.07-.42,0-.89-.07c-.61,0-1.22,0-1.83,0a2.07,2.07,0,0,1,0,.22C64.46,17.85,65.05,17.86,65.65,17.88Z"/><path class="cls-8" d="M64.47,28c0,.08-.09.14-.13.21l.58.07,2.12.2.74.05c.94.05,1.9.08,2.87.05l1-.27A39.18,39.18,0,0,1,64.47,28Z"/><path class="cls-8" d="M51,23.13l-.81.05s0,0,0,0a1.17,1.17,0,0,0-.13.28h.24l.88,0A1.61,1.61,0,0,1,51,23.13Z"/><path class="cls-8" d="M47.74,25.32H47.2a2.91,2.91,0,0,1-.24.46L46.8,26a1.55,1.55,0,0,1-.13.17c.52,0,1,0,1.58,0-.07-.2,0-.45.37-.69a1.46,1.46,0,0,1,.25-.13H47.74Z"/><path class="cls-8" d="M53.13,25.42l-.77,0H52c.54.1,1.17.2,1.91.3l-.15-.07A4.06,4.06,0,0,0,53.13,25.42Z"/><path class="cls-8" d="M65,25.17l.35.09c.27-.06.53-.11.79-.18s.59-.16.89-.25l-.23,0-.24-.06-1.32-.35h0l-.81-.21-.12,0L64,24.07l-.16,0L63.56,24l-.32-.07a5.26,5.26,0,0,1,.66.6,3.43,3.43,0,0,1,.36.47Z"/><path class="cls-8" d="M61.46,27.61h0c-.42.05-.8.06-1.18.07l.61.07.66.09.85.11c.06-.07.12-.13.17-.2Z"/><path class="cls-8" d="M55.13,23h-1l-.7,0H53a2.92,2.92,0,0,0,.71.28,6.38,6.38,0,0,0,1,.12,6.62,6.62,0,0,0,1.85-.24l-1-.21Z"/><path class="cls-8" d="M59.23,25.88l-.15,0-.25,0-.72-.07-1.85-.17v0l.15.34a27,27,0,0,0,3.31.09c.19,0,.4,0,.61,0Z"/><path class="cls-8" d="M43.54,23.5l.11-.06.46-.23.55-.26-.23,0-.65.19c-.55.17-1.1.32-1.64.46Z"/><path class="cls-8" d="M63.86,19.3c.21,0,.42,0,.62,0l.87,0h.2l1.06.08h.15l.78.11.42.06.26,0,.24.05h.07l.71.13.27.07q.38.07.75.18l.08,0c.32.08.64.18,1,.28a16.12,16.12,0,0,1,1.56.58l.26.12.65,0c.31,0,.61-.07.91-.11a17.32,17.32,0,0,0-4.07-1.63,21,21,0,0,0-2.48-.52l-1.25-.17-1.26-.1c-.58,0-1.15,0-1.72,0a2.92,2.92,0,0,1-.09.5,2.37,2.37,0,0,1-.13.34h.19Z"/><path class="cls-8" d="M56.89,19.52h0a18.29,18.29,0,0,1,2.57.05l.64.08c.35-.06.69-.11,1-.15a4.52,4.52,0,0,0,.48-.34,1.54,1.54,0,0,0,.4-.6A27.24,27.24,0,0,0,56.89,19.52Z"/><path class="cls-8" d="M44.91,25.51a1,1,0,0,0,.14-.16H44.6c-.26,0-.5,0-.75,0l.11.15a3.17,3.17,0,0,1,.14.35,1.1,1.1,0,0,1,.11.35h0A8.39,8.39,0,0,0,44.91,25.51Z"/><path class="cls-8" d="M49.38,23.31l.06-.16h-.25l-.08.21-.06.15h.25C49.33,23.44,49.35,23.37,49.38,23.31Z"/><path class="cls-8" d="M52.63,20.45l.27-.13-.35-.08,0,0-.15.07-.14.09Z"/><path class="cls-8" d="M57.72,24.75l.78.06.18,0,.48.07.24,0,.21,0,.16,0,1,.14.32.05.36.05.93.2a3.31,3.31,0,0,0-.34-.3L61.47,25c-.59-.11-1.2-.18-1.82-.28l-.94-.13c-.29,0-.59-.05-.88-.07l-.52.17-.05,0,.32,0Z"/><path class="cls-8" d="M59.74,24.14l.7.1c-.31-.13-.61-.25-.93-.36l-.38.17Z"/><path class="cls-8" d="M61.2,17.82l-.26,0c-.42,0-.83.11-1.24.18l-.34,0-1,.2-.17,0-.24.05-.64.17-.88.24-.88.27-.29.1.42.1A27.91,27.91,0,0,1,62,18a1.6,1.6,0,0,0,0-.21h0Z"/><path class="cls-8" d="M48.17,26.77c-.66,0-1.29,0-1.93,0h-.12l-.21.22h5.87l-.66-.13c-.3-.06-.51-.09-.68-.11H50.2Z"/><path class="cls-8" d="M67.06,26.56l1,.24.29.06.15,0-.17,0-.33,0c-.55,0-1.11-.07-1.66-.12-.54.14-1.08.26-1.61.36a1,1,0,0,1,0,.17.5.5,0,0,1,0,.13,36,36,0,0,0,7.71.23c-.26-.08-.52-.17-.82-.25-1.11-.33-2.49-.58-4.07-.94Z"/><path class="cls-9" d="M48.4,26.49s0-.06,0-.1a.48.48,0,0,1-.17-.18.11.11,0,0,1,0-.05c-.54,0-1.06,0-1.58,0-.1.12-.21.26-.36.42l-.19.2h.12c.64,0,1.27,0,1.93,0l2,0h.24l-.36,0A5.47,5.47,0,0,1,49,26.6l-.2-.05C48.57,26.56,48.43,26.55,48.4,26.49Z"/><path class="cls-9" d="M65.61,18.49l1.26.1,1.25.17a21,21,0,0,1,2.48.52,17.32,17.32,0,0,1,4.07,1.63c.31-.05.62-.12.92-.19a17,17,0,0,0-4.8-2,22.36,22.36,0,0,0-2.56-.53L66.94,18l-1.29-.1c-.6,0-1.19,0-1.78,0a4.1,4.1,0,0,1,0,.61C64.46,18.46,65,18.46,65.61,18.49Z"/><path class="cls-9" d="M78.18,23.79a5.18,5.18,0,0,0-.26-.65l-.35-.58A7,7,0,0,0,77.1,22l-.65.25h0a7,7,0,0,1,.56.66,2.74,2.74,0,0,1,.56,2.22,2.38,2.38,0,0,1-.65,1,4.8,4.8,0,0,1-1,.67,9,9,0,0,1-2.21.69,14.48,14.48,0,0,0-1.91-.66c-.91-.27-2-.48-3.16-.74l-.09,0c-.35.13-.68.24-1,.34,1.58.36,3,.61,4.07.94.3.08.56.17.82.25a36,36,0,0,1-7.71-.23,3.42,3.42,0,0,1-.21.59,39.18,39.18,0,0,0,7.15.31,53.75,53.75,0,0,0,6-2,2.67,2.67,0,0,0,.56-1A2.71,2.71,0,0,0,78.18,23.79Z"/><path class="cls-9" d="M65.35,25.26,65,25.17,64.26,25a2.64,2.64,0,0,1,.25.47C64.79,25.4,65.07,25.33,65.35,25.26Z"/><path class="cls-9" d="M48.85,19.89l.38.06.32-.11Z"/><path class="cls-9" d="M61.46,27.61l1.07.14c.08-.1.14-.21.21-.31Z"/><path class="cls-9" d="M55.72,19.24c.41.09.8.18,1.17.28a27.24,27.24,0,0,1,5.15-1,0,0,0,0,0,0,0A1.18,1.18,0,0,0,62,18,27.91,27.91,0,0,0,55.72,19.24Z"/><path class="cls-9" d="M44.21,26.18v0l0,0Z"/><path class="cls-9" d="M58.71,24.61l.94.13c.62.1,1.23.17,1.82.28l.54.11a5.7,5.7,0,0,0-1.12-.69l-.45-.2-.7-.1-.61-.09c-.42.18-.85.34-1.3.49C58.12,24.56,58.42,24.57,58.71,24.61Z"/><path class="cls-9" d="M52.85,20.47l.23-.1-.18-.05-.27.13Z"/><path class="cls-9" d="M41,25.56a1.92,1.92,0,0,1-.22-.18c-.24,0-.47.06-.71.1a1.63,1.63,0,0,0,.52.56,3.08,3.08,0,0,0,.59.28,1.67,1.67,0,0,1,.34,0,2.9,2.9,0,0,1,.84.1h0l.07,0h0s0,0,0,0l-.08-.1a1.09,1.09,0,0,0-.21-.24h0A3.88,3.88,0,0,1,41,25.56Z"/><path class="cls-9" d="M50.15,23.18h0l-.68,0-.06.16c0,.06-.05.13-.08.19H50a1.17,1.17,0,0,1,.13-.28S50.14,23.19,50.15,23.18Z"/><path class="cls-8" d="M31.56,19H32a1.41,1.41,0,0,1-.3-.3l-2,.34C30.31,19,30.93,19,31.56,19Z"/><path class="cls-8" d="M44.46,18.53h-.12a1,1,0,0,1,0,.57,1.27,1.27,0,0,1-.2.38l.25,0a1.7,1.7,0,0,0,.14-.35A1,1,0,0,0,44.46,18.53Z"/><path class="cls-8" d="M41.74,28.33l-.69.14h0l-.06,0-.3.17h0c-.35.2-.71.39-1.1.59l-.43.2.32.1.23-.11C40.45,29.09,41.13,28.71,41.74,28.33Z"/><path class="cls-8" d="M43,29.28l.21-.13.55-.38.29-.2-.64-.14L43,28.29a23.68,23.68,0,0,1-2.59,1.53c.19.05.38.11.58.15l.7.13.43-.24Z"/><path class="cls-8" d="M20.72,22.09l.5-.11.36-.08a4.17,4.17,0,0,1,.4-.3,17.63,17.63,0,0,0-1.81.41l-.05.06a1,1,0,0,0-.1.14L20,22.3h0C20.23,22.22,20.47,22.15,20.72,22.09Z"/><path class="cls-8" d="M37.17,30.56l-.31-.14-.41.15-.4.13-.31.1L35.2,31l-.46.12.63.06C36,31,36.6,30.77,37.17,30.56Z"/><path class="cls-8" d="M33.37,27.28a1.36,1.36,0,0,0,0,.2l1.17,0a2.46,2.46,0,0,1,.06-.53Z"/><path class="cls-8" d="M34.86,26.28A2.61,2.61,0,0,1,35,26l-.21.06-.23.05-.9.23-.25.06a2,2,0,0,0,0,.24Z"/><path class="cls-8" d="M26.81,28.59c-.6.06-1.21,0-1.82,0a13.65,13.65,0,0,1-2-.29,12.49,12.49,0,0,1-3.56-1.72A8.75,8.75,0,0,1,18,25.37a2.88,2.88,0,0,1-.84-1.59A1.62,1.62,0,0,1,18,22.29l.24-.15a1.67,1.67,0,0,1,.25-.74,2.49,2.49,0,0,1,.24-.34l.11-.12a6.19,6.19,0,0,0-1.39.69,2.71,2.71,0,0,0-.88.9,2,2,0,0,0-.3,1.31,3.6,3.6,0,0,0,1.05,2.06,9.49,9.49,0,0,0,1.6,1.38l.47.3.4.25a13.8,13.8,0,0,0,2.19,1c.26.09.52.19.79.27a13.93,13.93,0,0,0,2.23.32h1a2.81,2.81,0,0,0,.08.31.49.49,0,0,0,0,.11l1,.19A2.65,2.65,0,0,1,26.81,28.59Z"/><path class="cls-8" d="M34.13,25.54l1-.24h0a5.54,5.54,0,0,1,.67-.08l.32-.23A1,1,0,0,0,36,25a5.47,5.47,0,0,0-.87.09,12.87,12.87,0,0,0-1.32.35c0,.09-.09.18-.13.27Z"/><path class="cls-8" d="M32.2,24.62h-.63l-.33.1c-.7.22-1.42.45-2.15.74l-.09,0-.49.21a6.94,6.94,0,0,0-1,.51l-.4.28-.16.15a1.54,1.54,0,0,0-.19.17,3.28,3.28,0,0,0-.49.61,2.75,2.75,0,0,0-.2.38H25l-.94-.1a5.49,5.49,0,0,1-.86-.15l-.17-.06a11.17,11.17,0,0,1-2.16-.95c-.33-.19-.65-.38-.94-.58l-.05,0c-.23-.16-.45-.33-.65-.5s-.14-.13-.22-.2-.27-.24-.39-.37A2.21,2.21,0,0,1,18,23.72a.51.51,0,0,1,.09-.38,1,1,0,0,1,.23-.25l-.07-.18a.43.43,0,0,1,0-.05,1,1,0,0,0-.48.88A2.36,2.36,0,0,0,18.47,25a8,8,0,0,0,1.34,1.14,11.83,11.83,0,0,0,3.35,1.63A13.23,13.23,0,0,0,25,28,15.94,15.94,0,0,0,27,28H27a2.56,2.56,0,0,1,.71-.83,6.68,6.68,0,0,1,1.65-.88c.79-.33,1.63-.57,2.47-.84A6.51,6.51,0,0,1,32.2,24.62Z"/><path class="cls-8" d="M30.41,27.37l.5-.12.64-.16c0-.07,0-.15,0-.23l-.44.11-.28.07-1.17.26-1,.2a5.09,5.09,0,0,1,.66-.34l.38-.16c.25-.1.51-.2.79-.29s.7-.24,1.08-.35a2.17,2.17,0,0,1,0-.25c-.7.22-1.39.43-2,.69a5,5,0,0,0-1.78,1.06c.42-.06.85-.14,1.27-.22A3.19,3.19,0,0,1,30.41,27.37Z"/><path class="cls-8" d="M23.16,20.78c.58-.09,1.16-.19,1.72-.31l1.43-.33a1.74,1.74,0,0,1-.25-.11,1.67,1.67,0,0,1-.31-.17.39.39,0,0,0-.1-.08c-.79.18-1.51.37-2.15.57a14.5,14.5,0,0,0-1.82.68Z"/><path class="cls-8" d="M39.29,31.28q-.63-.18-1.26-.39l-1,.38,2,.13.26-.11Z"/><path class="cls-8" d="M28.15,30c0-.06-.09-.11-.13-.18a2.3,2.3,0,0,1-.23-.51l1.11-.16L30,29a2.77,2.77,0,0,1-.91-.31c-.24-.05-.38-.11-.38-.18s0-.05.08-.08l0,0c-.41.07-.81.13-1.23.17l0,.14A2.63,2.63,0,0,0,28,30.21l.32.05A1.56,1.56,0,0,1,28.15,30Z"/><path class="cls-8" d="M37.46,26.78h0a2,2,0,0,0,.29-.22,2.65,2.65,0,0,0,.32-.34s.06-.11.1-.17l.09-.16a6.74,6.74,0,0,0-.79.29c-.58.29-1,.65-1.07,1.05,0,0,0,.06,0,.09l.15-.07A5,5,0,0,0,37.46,26.78Z"/><path class="cls-8" d="M37.72,19l2.19.11c1.1,0,2.22.13,3.36.25l.08,0a.86.86,0,0,0,.46-.9l-.59,0a.41.41,0,0,1,0,.09.26.26,0,0,1-.09.09.22.22,0,0,1-.26.06h0l-.17,0h-.12l-.22,0-.77,0c-.46,0-1,0-1.66-.06h-.23l-1.17-.09-1.11-.1-.33.14L36,19Z"/><path class="cls-8" d="M45.1,25.66c.19-.21.32-.38.41-.5l0,0h-.3l-.19.22a1,1,0,0,1-.14.16,8.39,8.39,0,0,1-.67.67l0,0a1.61,1.61,0,0,1,0,.31C44.59,26.19,44.88,25.89,45.1,25.66Z"/><path class="cls-8" d="M47,25.78a2.91,2.91,0,0,0,.24-.46,1.47,1.47,0,0,0,.06-.14.09.09,0,0,1,0-.05h-1a1,1,0,0,1-.11.2l-.14.19c-.1.13-.24.31-.45.54a11.25,11.25,0,0,1-1,.94l.61.13.46.08.06-.07.14-.13.21-.22.19-.2c.15-.16.26-.3.36-.42A1.55,1.55,0,0,0,46.8,26Z"/><path class="cls-9" d="M44.34,18.52,44,18.47l-.22,0a.86.86,0,0,1-.46.9l-.08,0,.87.08a1.27,1.27,0,0,0,.2-.38A1,1,0,0,0,44.34,18.52Z"/><path class="cls-9" d="M43,28.29l-.53-.15a6.34,6.34,0,0,1-.68.19c-.61.38-1.29.76-2.05,1.14l-.23.11q.43.14.9.24A23.68,23.68,0,0,0,43,28.29Z"/><path class="cls-9" d="M38,30.89h0c-.29-.1-.57-.22-.86-.33-.57.21-1.18.4-1.8.57l1.64.14Z"/><path class="cls-9" d="M34.62,27a.37.37,0,0,1,0-.11,2.27,2.27,0,0,1,.23-.58l-1.46.36a3.52,3.52,0,0,0,0,.63h0Z"/><path class="cls-9" d="M22,21.6l.2-.15.33-.19.33-.14.68-.27.67-.18a13,13,0,0,1,1.36-.25c.44,0,.88-.09,1.32-.1l-.06,0a3.83,3.83,0,0,1-.49-.15h0l-1.43.33c-.56.12-1.14.22-1.72.31L21.68,21a6,6,0,0,0-1.06.6,3,3,0,0,0-.45.38A17.63,17.63,0,0,1,22,21.6Z"/><path class="cls-9" d="M31.55,27.09l-.64.16-.5.12a1.82,1.82,0,0,1,.33,0l.82,0v-.31Z"/><path class="cls-9" d="M27.81,29.92a2.09,2.09,0,0,1-.34-1.27l0-.14c.42,0,.82-.1,1.23-.17a.41.41,0,0,1-.05-.18c0-.2.17-.38.46-.52-.42.08-.85.16-1.27.22a5,5,0,0,1,1.78-1.06c.62-.26,1.31-.47,2-.69a5.38,5.38,0,0,1,.19-.71c-.84.27-1.68.51-2.47.84a6.68,6.68,0,0,0-1.65.88A2.56,2.56,0,0,0,27,28H27A15.94,15.94,0,0,1,25,28a13.23,13.23,0,0,1-1.86-.26,11.83,11.83,0,0,1-3.35-1.63A8,8,0,0,1,18.47,25a2.36,2.36,0,0,1-.69-1.25,1,1,0,0,1,.48-.88,1.16,1.16,0,0,1-.09-.41,1.67,1.67,0,0,1,0-.31l-.24.15a1.62,1.62,0,0,0-.83,1.49A2.88,2.88,0,0,0,18,25.37a8.75,8.75,0,0,0,1.45,1.25A12.49,12.49,0,0,0,23,28.34a13.65,13.65,0,0,0,2,.29c.61,0,1.22,0,1.82,0a2.65,2.65,0,0,0,.34,1.48l.85.14A2.08,2.08,0,0,1,27.81,29.92Z"/><path class="cls-9" d="M34.16,24.83a3.82,3.82,0,0,0-.37.59,12.87,12.87,0,0,1,1.32-.35A5.47,5.47,0,0,1,36,25a1,1,0,0,1,.17,0c.16-.09.32-.19.47-.26l0,0h-.51c-.47,0-.91,0-1.34,0h-.53Z"/><path class="cls-9" d="M45.61,26.05c.21-.23.35-.41.45-.54l.14-.19a1,1,0,0,0,.11-.2h-.77l0,0c-.09.12-.22.29-.41.5s-.51.53-.89.86c0,0,0,.05,0,.07a1.4,1.4,0,0,1-.09.29l.52.11A11.25,11.25,0,0,0,45.61,26.05Z"/><path class="cls-8" d="M37.9,20.7l-.12,0,.6.05.19-.06Z"/><path class="cls-8" d="M60.56,30.3a8.52,8.52,0,0,0,2-1.32,4.19,4.19,0,0,0,1.22-1.71l-.71.12-.34.05c-.07.1-.13.21-.21.31s-.11.13-.17.2-.19.21-.3.32-.4.35-.62.52l-.54.36a7.83,7.83,0,0,1-.75.41,16.28,16.28,0,0,1-4.53,1.15c-.64.09-1.28.15-1.93.19s-1.36.08-2,.09h-.94c-.41,0-.81,0-1.21,0-1.37,0-2.72-.12-4.07-.27l-.24,0-.39-.05-.56-.08c-.47-.06-.94-.13-1.4-.21l-1.2-.23-.7-.13c-.2,0-.39-.1-.58-.15s-.61-.15-.9-.24l-.32-.1-.47-.14-.8-.32-1.15.11h-.39a8,8,0,0,0,2,1,23,23,0,0,0,2.37.67,42.87,42.87,0,0,0,5,.79,111.15,111.15,0,0,0,13.86-.88C59.89,30.57,60.23,30.45,60.56,30.3Z"/><path class="cls-8" d="M63.2,29.57l0,0,.21-.22a5.47,5.47,0,0,0,.51-.56,4.07,4.07,0,0,0,.37-.55c0-.07.09-.13.13-.21a3.42,3.42,0,0,0,.21-.59.5.5,0,0,0,0-.13,1,1,0,0,0,0-.17l-.25,0a.19.19,0,0,1,0,.08A4.41,4.41,0,0,1,63,29.42a9.81,9.81,0,0,1-1,.78l-.31.19.56-.09a6.5,6.5,0,0,0,.65-.49Z"/><path class="cls-8" d="M55.85,27.88a3.64,3.64,0,0,1-1.77.95,6.68,6.68,0,0,1-1.75.23,41.22,41.22,0,0,1-5.4-.24c-.75-.08-1.42-.19-2-.29l-1.46-.31-.68-.2-.37.12.53.15.46.14.64.14.84.18h0l.61.1.23,0q.54.09,1.14.15l.36,0,.28,0,.82.07,1.48.07.71,0h1.79l.19,0h.26a7.36,7.36,0,0,0,1.36-.21,4.21,4.21,0,0,0,1.66-.84c.07-.06.15-.11.22-.18h0a1.56,1.56,0,0,0,.28-.41l-.25,0A1.69,1.69,0,0,1,55.85,27.88Z"/><path class="cls-8" d="M63.71,24.65a3.42,3.42,0,0,1,.57.85l.23-.05a2.64,2.64,0,0,0-.25-.47,3.43,3.43,0,0,0-.36-.47,5.26,5.26,0,0,0-.66-.6,3.81,3.81,0,0,0-.32-.24c-.1-.08-.21-.14-.31-.21s-.42-.25-.63-.36a1.57,1.57,0,0,1,0,.23A6.54,6.54,0,0,1,63.71,24.65Z"/><path class="cls-8" d="M53.11,27.56l-.42,0-.25,0H50.85l-.67,0-.9,0-.74-.05c-.36,0-.7-.05-1-.09l-.39,0-.35,0-.28,0-.71-.1h-.07l-.46-.08L44.64,27l-.52-.11a.32.32,0,0,1,0,.09,1.79,1.79,0,0,1-.22.34,1.42,1.42,0,0,1-.29.26l0,0,.11,0,1.42.31c.56.08,1.21.2,1.94.28a41.71,41.71,0,0,0,5.32.23,6.15,6.15,0,0,0,1.57-.2,3.08,3.08,0,0,0,1.4-.72l-.83-.09-.55-.07-.27.08A5.17,5.17,0,0,1,53.11,27.56Z"/><path class="cls-8" d="M32.69,30a3.52,3.52,0,0,1-.53-.91h-.24A2.13,2.13,0,0,0,32.69,30Z"/><path class="cls-8" d="M38.11,30.68a8.2,8.2,0,0,1-2.35-1.17,2.76,2.76,0,0,1-.27-.23l-.1-.11h-.31l.23.27h0l.29.24a6,6,0,0,0,1.25.74l.31.14c.29.11.57.23.86.33h0q.63.21,1.26.39l.62.15h0l1.31.06-.67-.13A21.26,21.26,0,0,1,38.11,30.68Z"/><path class="cls-8" d="M32.83,29.12a5.65,5.65,0,0,1,.26,1,.42.42,0,0,0,.25,0,.55.55,0,0,0,.18-.19.87.87,0,0,0,.1-.24,1.65,1.65,0,0,0,0-.51Z"/><path class="cls-8" d="M55.77,25.27a3.18,3.18,0,0,1,.28.43,2.29,2.29,0,0,1,.1.23l.27,0-.15-.34v0a3.35,3.35,0,0,0-.29-.44.67.67,0,0,0-.09-.14l-.3,0A1,1,0,0,1,55.77,25.27Z"/><path class="cls-8" d="M44.29,21.23l.16-.05c-1.27-.15-2.51-.26-3.74-.33l-.46.09,2.26.17,1.61.13h.17Z"/><path class="cls-8" d="M45,19.55h-.18l.17,0S45,19.56,45,19.55Z"/><path class="cls-8" d="M45.24,25.13h4.2a2.7,2.7,0,0,1,.76-.06s.23,0,.6.06h.12a10.66,10.66,0,0,1,2.21.25,4.06,4.06,0,0,1,.62.19l.15.07.81.11.67.07a1.82,1.82,0,0,0-.47-.57l-.34-.22A5.48,5.48,0,0,1,52,24.4c-.59-.06-1.19-.07-1.79-.08-1.37,0-2.78,0-4.23,0-1,0-2,0-3.1.08a4.6,4.6,0,0,1,.52.47,4.12,4.12,0,0,1,.28.31h1.53Z"/><path class="cls-8" d="M53.58,22.55l.45.1,1.06.23.47.09,1,.21.21-.06a11.73,11.73,0,0,0,1.37-.48c-.41-.1-.83-.18-1.24-.25L56,22.22c-.62,0-1.23,0-1.84,0A3.73,3.73,0,0,1,53.58,22.55Z"/><path class="cls-8" d="M59.05,22.23l.17-.09L58.89,22l-.57.07Z"/><path class="cls-8" d="M37.05,25.45A2.56,2.56,0,0,0,35.52,27a1.83,1.83,0,0,0-.05.47l.91,0a.81.81,0,0,1,0-.16s0-.06,0-.09c.08-.4.49-.76,1.07-1.05a6.74,6.74,0,0,1,.79-.29,10.23,10.23,0,0,1,1.52-.37l.24,0c.24,0,.47-.08.71-.1l.59-.07-.47-.3c-.23-.14-.49-.25-.74-.38h0A10.7,10.7,0,0,0,37.05,25.45Z"/><path class="cls-8" d="M59.64,23.83l-.13.05c.32.11.62.23.93.36l.45.2a5.7,5.7,0,0,1,1.12.69,3.31,3.31,0,0,1,.34.3,2.45,2.45,0,0,1,.31.34l.13,0,.82-.14A2.84,2.84,0,0,0,63.2,25a5.83,5.83,0,0,0-1.59-1.18,1.32,1.32,0,0,1-1.54.08.4.4,0,0,1-.16-.25Z"/><path class="cls-8" d="M42.14,23.8c1.32-.09,2.62-.12,3.87-.12l2.16,0c.72,0,1.36,0,2.07,0l1,0,0,0c0-.05-.06-.13-.1-.19l-.88,0H44.18l-.64,0-1.4.08-.25.06Z"/><path class="cls-8" d="M48.85,19.89l-.6.06-.13,0,.74.1.37-.12Z"/><path class="cls-8" d="M41.47,26.28a1.67,1.67,0,0,0-.34,0,1,1,0,0,0-.3.12l0,0a.69.69,0,0,0-.11.13.33.33,0,0,0,0,.17v0a.08.08,0,0,0,0,0h.14a8.46,8.46,0,0,0,1.3-.34,1,1,0,0,0,.23-.11A2.9,2.9,0,0,0,41.47,26.28Z"/><path class="cls-8" d="M31.62,26.36c0,.18-.05.35-.06.5s0,.16,0,.23v.31h.24a.22.22,0,0,0,0-.08,5.15,5.15,0,0,1,.67-2.7H32.2a6.51,6.51,0,0,0-.35.78,5.38,5.38,0,0,0-.19.71A2.17,2.17,0,0,0,31.62,26.36Z"/><path class="cls-8" d="M32.46,27.31c0,.05,0,.08,0,.13l.92,0a1.36,1.36,0,0,1,0-.2h0a3.52,3.52,0,0,1,0-.63,2,2,0,0,1,0-.24l0-.16a5.17,5.17,0,0,1,.19-.55c0-.09.08-.18.13-.27a3.82,3.82,0,0,1,.37-.59l.12-.14-1.07,0A4.53,4.53,0,0,0,32.46,27.31Z"/><path class="cls-8" d="M36.15,25l-.32.23a3.37,3.37,0,0,0-.37.29l0,0A3.18,3.18,0,0,0,35,26a2.61,2.61,0,0,0-.17.28,2.27,2.27,0,0,0-.23.58.37.37,0,0,0,0,.11,2.46,2.46,0,0,0-.06.53h.24a2.38,2.38,0,0,1,.07-.59,2.47,2.47,0,0,1,.74-1.24,4.16,4.16,0,0,1,1.13-.76,8.18,8.18,0,0,1,.93-.37h0l-.71.11-.17,0h-.11l0,0C36.47,24.79,36.31,24.89,36.15,25Z"/><path class="cls-9" d="M53.9,28.25a6.15,6.15,0,0,1-1.57.2A41.71,41.71,0,0,1,47,28.22c-.73-.08-1.38-.2-1.94-.28l-1.42-.31-.11,0a1.19,1.19,0,0,1-.25.18,3.14,3.14,0,0,1-.5.23h0l.68.2,1.46.31c.58.1,1.25.21,2,.29a41.22,41.22,0,0,0,5.4.24,6.68,6.68,0,0,0,1.75-.23,3.64,3.64,0,0,0,1.77-.95,1.69,1.69,0,0,0,.22-.29l-.77-.06A3.08,3.08,0,0,1,53.9,28.25Z"/><path class="cls-9" d="M63,29.42a4.41,4.41,0,0,0,1.47-2.2.19.19,0,0,0,0-.08l-.72.13A4.19,4.19,0,0,1,62.57,29a8.52,8.52,0,0,1-2,1.32c-.33.15-.67.27-1,.39.73-.1,1.44-.19,2.15-.3L62,30.2A9.81,9.81,0,0,0,63,29.42Z"/><path class="cls-9" d="M40.64,26.83c-.06,0-.1,0-.12,0h0l.16,0,.1,0Z"/><path class="cls-9" d="M40.72,30.78a23,23,0,0,1-2.37-.67,8,8,0,0,1-2-1l-.86,0h-.08l.1.11a2.76,2.76,0,0,0,.27.23,8.2,8.2,0,0,0,2.35,1.17,21.26,21.26,0,0,0,2.45.69l.67.13c1.38.05,2.77.07,4.18.07h.28A42.87,42.87,0,0,1,40.72,30.78Z"/><path class="cls-9" d="M58.15,22.64l.66-.28.24-.13-.73-.18c-.77.09-1.53.14-2.29.17l.88.17C57.32,22.46,57.74,22.54,58.15,22.64Z"/><path class="cls-9" d="M32.83,29.12l-.67,0a3.52,3.52,0,0,0,.53.91h0c.16.19.29.28.35.24s0-.06,0-.11A5.65,5.65,0,0,0,32.83,29.12Z"/><path class="cls-9" d="M40.71,20.85l-.91-.06c-.42,0-.82,0-1.23-.06l-.19.06,1.87.15Z"/><path class="cls-9" d="M46,24.29c1.45,0,2.86.07,4.23,0,.6,0,1.2,0,1.79.08l-.16-.08a2.46,2.46,0,0,1-.62-.59l-1,0c-.71,0-1.35,0-2.07,0l-2.16,0c-1.25,0-2.55,0-3.87.12a4.15,4.15,0,0,1,.53.37l.24.2C44,24.32,45,24.29,46,24.29Z"/><path class="cls-9" d="M55.38,25.86l.77.07a2.29,2.29,0,0,0-.1-.23,3.18,3.18,0,0,0-.28-.43,1,1,0,0,0-.19-.23,6.85,6.85,0,0,1-.91,0h-.1l.34.22A1.82,1.82,0,0,1,55.38,25.86Z"/><path class="cls-9" d="M63.2,25a2.84,2.84,0,0,1,.41.57l.67-.11a3.42,3.42,0,0,0-.57-.85,6.54,6.54,0,0,0-1.77-1.32,1.17,1.17,0,0,1-.2.42l-.13.11A5.83,5.83,0,0,1,63.2,25Z"/><path class="cls-9" d="M31.79,27.33a.22.22,0,0,1,0,.08H32l.48,0c0-.05,0-.08,0-.13a4.53,4.53,0,0,1,.75-2.66l-.75,0A5.15,5.15,0,0,0,31.79,27.33Z"/><path class="cls-9" d="M36.74,24.91a4.16,4.16,0,0,0-1.13.76,2.47,2.47,0,0,0-.74,1.24,2.38,2.38,0,0,0-.07.59h.67a1.83,1.83,0,0,1,.05-.47,2.56,2.56,0,0,1,1.53-1.59,10.7,10.7,0,0,1,3-.82,8.83,8.83,0,0,0-1-.34c-.48.1-1,.18-1.43.25A8.18,8.18,0,0,0,36.74,24.91Z"/><path class="cls-8" d="M33.21,17.72l.17.11a2.71,2.71,0,0,0,.36,0l.44-.06c0-.12.08-.24.13-.37l-.84.12-.15.1Z"/><path class="cls-8" d="M39.57,28.76l.81-.16.56-.1.11,0h0l.69-.14a6.34,6.34,0,0,0,.68-.19l.37-.12h0a3.14,3.14,0,0,0,.5-.23,1.19,1.19,0,0,0,.25-.18l0,0a1.42,1.42,0,0,0,.29-.26,1.79,1.79,0,0,0,.22-.34.32.32,0,0,0,0-.09,1.4,1.4,0,0,0,.09-.29s0-.05,0-.07a1.61,1.61,0,0,0,0-.31v0a1.1,1.1,0,0,0-.11-.35,3.17,3.17,0,0,0-.14-.35l-.11-.15-.06-.08-.08-.1a4.12,4.12,0,0,0-.28-.31,4.6,4.6,0,0,0-.52-.47l-.24-.2a4.15,4.15,0,0,0-.53-.37l-.25-.16-.32.09.12.05c.28.19.58.35.83.56a9.13,9.13,0,0,1,.73.65,2.54,2.54,0,0,1,.34.38l.16.22a3,3,0,0,1,.13.3,1.39,1.39,0,0,1,.1.67c0,.11-.07.22-.11.33a2.51,2.51,0,0,1-.2.29,1.1,1.1,0,0,1-.25.23,1.71,1.71,0,0,1-.25.18,3.92,3.92,0,0,1-.47.22,10.51,10.51,0,0,1-1.7.45l-1.49.28-1.46.24-1.35.13-1.23,0c-1.55,0-2.75-.06-3.56-.09l-1.23-.06a9.62,9.62,0,0,1-1.62-.16A2.77,2.77,0,0,0,30,29H30a6,6,0,0,0,.64.07l.69,0,.54,0h.26l.67,0,.83,0h1.81l.86,0h.39L37.87,29l.22,0Z"/><path class="cls-8" d="M47.56,22.25l2.55.1.85-.06a1.26,1.26,0,0,1,.12-.29c-.7-.07-1.39-.15-2.08-.24-.66.18-1.3.33-1.92.47Z"/><path class="cls-8" d="M51.49,18.07a16,16,0,0,0-3.08-.83,38.35,38.35,0,0,0-4.08-.41l.9.13c.65.1,1.29.18,1.9.29l1.79.37.86.18.82.21.36.1.4,0Z"/><path class="cls-8" d="M37.28,16.2l-.32.26,1.21-.11.7-.28-1.07.09Z"/><path class="cls-8" d="M37.21,22.14c-1.72-.17-3.44-.21-5.15-.28l-2.58-.1c-.85,0-1.69-.05-2.51,0-.41,0-.81.07-1.21.1a10.37,10.37,0,0,0-1.16.21l-.56.15-.51.21a2.43,2.43,0,0,0-.87.52A1.5,1.5,0,0,0,22,24.36c.09.36.68.61,1.37.64a5.34,5.34,0,0,0,2.05-.46l.14-.05s0,0,0-.06a1.6,1.6,0,0,1,0-.21c-.1,0-.19.09-.29.12-.31.11-.61.22-.91.3a3.85,3.85,0,0,1-.78.13,1.07,1.07,0,0,1-.25,0,2.44,2.44,0,0,1-.83-.17.54.54,0,0,1-.33-.32c-.11-.24.1-.81.57-1.19a1.88,1.88,0,0,1,.36-.27l.2-.12.24-.1.49-.19.54-.14.06,0a6.18,6.18,0,0,1,.62-.12l.45-.08c.4,0,.78-.08,1.19-.09.81,0,1.64,0,2.49,0l2.58.1,1,0q-.5.06-1,.15c-.43.08-.86.17-1.28.27l-.79.2-.21.05-.08,0-.48.13h.9c.66-.18,1.32-.33,2-.45a14.41,14.41,0,0,1,4.53-.16c.67.09,1.33.2,2,.35l.49-.11-.29-.08.49,0,.75-.16Z"/><path class="cls-8" d="M33,23l1.93.06c.41,0,.84,0,1.25,0h.4l.16,0,.24,0A14.73,14.73,0,0,0,33,23Z"/><path class="cls-8" d="M27.07,18.63l.28.09.73.16a12.06,12.06,0,0,0,1.65.12l2-.34h0a1.41,1.41,0,0,1-.34-.78l-2.83.5C28,18.45,27.53,18.54,27.07,18.63Z"/><path class="cls-8" d="M28.35,17.56l-.26,0-.21.12-.29.19.8-.14,3.06-.53a1.92,1.92,0,0,1,.12-.25l-2,.35Z"/><path class="cls-8" d="M26.44,25.62c-.05,0-.19,0-.38-.2a1.62,1.62,0,0,1-.23-.18l-.1-.14h0a5.94,5.94,0,0,1-2.33.5,3.17,3.17,0,0,1-1.18-.26,1.39,1.39,0,0,1-.8-.81,2.05,2.05,0,0,1,.81-2,3.33,3.33,0,0,1,1-.63l.58-.24.6-.16c.41-.12.83-.15,1.25-.23s.84-.09,1.27-.1c1.7-.06,3.42.05,5.14.11s3.46.12,5.18.28l4.68.37c.43-.11.85-.22,1.28-.36l1-.29h-.1l-1.61-.13-2.26-.17-1.87-.15-.6-.05-.28,0-.16,0h-.15l-.29,0H35.55l-2,0c-.65,0-1.27,0-1.91,0a20.7,20.7,0,0,1-3.85-.13c-.3-.06-.6-.11-.89-.19-.44,0-.88.07-1.32.1a13,13,0,0,0-1.36.25l-.67.18-.68.27-.33.14-.33.19-.2.15a4.17,4.17,0,0,0-.4.3h0a3.61,3.61,0,0,0-.92,1.22,2.63,2.63,0,0,0-.21.72,2.1,2.1,0,0,0,.09.95,1.61,1.61,0,0,0,.32.57,2.31,2.31,0,0,0,.93.73,4.27,4.27,0,0,0,1.54.35h.19a4.92,4.92,0,0,0,.67,0A7.51,7.51,0,0,0,25.8,26l.24-.08h0l.64-.26c.53-.21,1-.42,1.5-.59l1.36-.42a15.46,15.46,0,0,0-1.72.12,2.28,2.28,0,0,0-.35.06,1.47,1.47,0,0,0-.16,0h0s-.13-.06-.26.07-.16.41-.37.54a.62.62,0,0,1-.24.08A.12.12,0,0,1,26.44,25.62Z"/><path class="cls-8" d="M24.46,18.58l.57-.14a1,1,0,0,1,0-.24l-.43.1A2.33,2.33,0,0,0,24.46,18.58Z"/><path class="cls-8" d="M20.06,21a3.42,3.42,0,0,0-.66.6,1.12,1.12,0,0,0-.17.24,1.84,1.84,0,0,0-.25,1.3.4.4,0,0,0,.1.24.46.46,0,0,0,.12.17.3.3,0,0,1,0,.08l.1,0a.58.58,0,0,0,.12-.1c.14-.2.07-.48.2-.63a.48.48,0,0,0,.09-.13,1.3,1.3,0,0,0,.08-.17c0-.08.08-.16.13-.24l.06-.09a1,1,0,0,1,.1-.14l.05-.06a3,3,0,0,1,.45-.38,6,6,0,0,1,1.06-.6,14.5,14.5,0,0,1,1.82-.68c.64-.2,1.36-.39,2.15-.57a1.67,1.67,0,0,1-.56-.72c-.46.1-.89.22-1.29.33l-.11.11-.16.11c-.09.11-.16.19-.24.19a.15.15,0,0,1-.07-.07.71.71,0,0,1-.25,0l-.16-.05A10.53,10.53,0,0,0,20.06,21Z"/><path class="cls-8" d="M43.89,16.19a42.28,42.28,0,0,1,4.64.45,18.77,18.77,0,0,1,2.39.56l.35.12-.22-.23L50.91,17h0l-.72-.19c-.5-.13-1-.25-1.49-.33l-.12,0-.38-.05-.24,0-.68-.09-.91-.09-.72-.06h-.19L44.38,16l-.48,0H42.52l0,0-.22.17C42.8,16.17,43.34,16.17,43.89,16.19Z"/><path class="cls-8" d="M44.73,23H45l.47,0h.24l.68,0,.92,0h.23l1,0,.66,0h.25l.68,0h0l.81-.05a2.07,2.07,0,0,0,0-.22c-.26,0-.53,0-.81.05l-2.57-.1L45,22.76l-.59.17.23,0Z"/><path class="cls-8" d="M18.44,21.4a2.1,2.1,0,0,0-.27,1.05,1.16,1.16,0,0,0,.09.41.43.43,0,0,0,0,.05l.07.18a0,0,0,0,0,0,0l.13.2a.58.58,0,0,0,.27.22.62.62,0,0,1-.2-.25l-.1-.19a1.42,1.42,0,0,0,0-.2,2,2,0,0,1-.05-.43,1.81,1.81,0,0,1,.29-.95,1.79,1.79,0,0,1,.22-.31,4.05,4.05,0,0,1,.78-.71,11.07,11.07,0,0,1,2.81-1.32h0a1.69,1.69,0,0,1,0-.23l-.26.09a10.71,10.71,0,0,0-2.69,1.3,4.18,4.18,0,0,0-.71.62l-.11.12A2.49,2.49,0,0,0,18.44,21.4Z"/><path class="cls-8" d="M30.71,28.2l1.24.05c.81,0,2,.1,3.51.09l1.2,0,1.3-.12L39.37,28l1.5-.29a9.33,9.33,0,0,0,1.57-.41,2,2,0,0,0,.7-.43,1,1,0,0,0,.12-.16l.06-.19a.79.79,0,0,0-.07-.4,4.06,4.06,0,0,0-1.16-1.26,7.18,7.18,0,0,0-.76-.51c-.22-.12-.45-.23-.69-.34h0l-1.53.33a8.83,8.83,0,0,1,1,.34h0c.25.13.51.24.74.38l.47.3.19.14a7,7,0,0,1,.57.5h0a1.09,1.09,0,0,1,.21.24l.08.1s0,0,0,0h0l-.07,0h0a1,1,0,0,1-.23.11,8.46,8.46,0,0,1-1.3.34l-.1,0-.16,0-1.35.26-.42.06c-.3.06-.62.11-.91.15l-1.17.11h-.29l-.91,0h-.91l-1.17,0-.92,0-.48,0h-.43l-.82,0a1.82,1.82,0,0,0-.33,0,3.19,3.19,0,0,0-1.27.27c-.29.14-.47.32-.46.52a.41.41,0,0,0,.05.18l0,0A5.41,5.41,0,0,1,30.71,28.2Z"/><path class="cls-8" d="M52.79,22.59h0c0,.06,0,.11,0,.12a.22.22,0,0,0,.06.11l.09,0,.23-.07.23-.08.26-.1a3.73,3.73,0,0,0,.61-.34h-.44A4.31,4.31,0,0,1,52.79,22.59Z"/><path class="cls-9" d="M19,23.7l.11,0c.07,0,.12,0,.13,0s0-.07,0-.12a.3.3,0,0,0,0-.08.46.46,0,0,1-.12-.17.4.4,0,0,1-.1-.24,1.84,1.84,0,0,1,.25-1.3,1.12,1.12,0,0,1,.17-.24,3.42,3.42,0,0,1,.66-.6,10.53,10.53,0,0,1,2.75-1.27.75.75,0,0,1-.35-.53,11.07,11.07,0,0,0-2.81,1.32,4.05,4.05,0,0,0-.78.71,1.79,1.79,0,0,0-.22.31,1.81,1.81,0,0,0-.29.95,2,2,0,0,0,.05.43,1.42,1.42,0,0,1,0,.2l.1.19a.62.62,0,0,0,.2.25l0,0A.68.68,0,0,0,19,23.7Z"/><path class="cls-9" d="M47.54,22.86l2.57.1c.28,0,.55,0,.81-.05a1.22,1.22,0,0,0,0-.17,1.63,1.63,0,0,1,.07-.45l-.85.06-2.55-.1-.48,0h0c-.57.13-1.12.26-1.64.41l-.37.11Z"/><path class="cls-9" d="M34.44,17.05a5.84,5.84,0,0,0-1,.48l.84-.12Z"/><path class="cls-9" d="M37,16.46l-.16.13-.09.1h.6l.86-.33Z"/><path class="cls-9" d="M36.68,22.33a14.41,14.41,0,0,0-4.53.16c-.67.12-1.33.27-2,.45h.34c.73,0,1.56,0,2.45,0a14.73,14.73,0,0,1,4,0l.43-.07c.42-.06.85-.15,1.3-.23C38,22.53,37.35,22.42,36.68,22.33Z"/><path class="cls-9" d="M27.59,17.91a4.15,4.15,0,0,0-.65.55l-.07.09.16.07h0c.46-.09.94-.18,1.45-.26l2.83-.5s0,0,0-.05a1.38,1.38,0,0,1,.05-.45l.06-.13-3.06.53Z"/><path class="cls-9" d="M25,18.44l-.57.14,0,0-.12.18a2.06,2.06,0,0,1-.3.41,1,1,0,0,1-.22.2c.4-.11.83-.23,1.29-.33a1,1,0,0,1-.08-.42A.65.65,0,0,1,25,18.44Z"/><path class="cls-9" d="M25.59,24.49l-.14.05A5.34,5.34,0,0,1,23.4,25c-.69,0-1.28-.28-1.37-.64a1.5,1.5,0,0,1,.63-1.42,2.43,2.43,0,0,1,.87-.52l.51-.21.56-.15a10.37,10.37,0,0,1,1.16-.21c.4,0,.8-.09,1.21-.1.82,0,1.66,0,2.51,0l2.58.1c1.71.07,3.43.11,5.15.28l2.89.23.08,0,1.76-.45-4.68-.37c-1.72-.16-3.45-.21-5.18-.28s-3.44-.17-5.14-.11c-.43,0-.85.07-1.27.1s-.84.11-1.25.23l-.6.16-.58.24a3.33,3.33,0,0,0-1,.63,2.05,2.05,0,0,0-.81,2,1.39,1.39,0,0,0,.8.81,3.17,3.17,0,0,0,1.18.26,5.94,5.94,0,0,0,2.33-.5h0A1,1,0,0,1,25.59,24.49Z"/><path class="cls-9" d="M43.24,16.74c.34,0,.68,0,1,.08h.08a38.35,38.35,0,0,1,4.08.41,16,16,0,0,1,3.08.83l.22,0a2,2,0,0,0-.44-.72l-.35-.12a18.77,18.77,0,0,0-2.39-.56,42.28,42.28,0,0,0-4.64-.45c-.55,0-1.09,0-1.63,0a4.87,4.87,0,0,1-.68.47Z"/><path class="cls-9" d="M30.68,28.8l1.23.06c.81,0,2,.1,3.56.09l1.23,0,1.35-.13,1.46-.24L41,28.26a10.51,10.51,0,0,0,1.7-.45,3.92,3.92,0,0,0,.47-.22,1.71,1.71,0,0,0,.25-.18,1.1,1.1,0,0,0,.25-.23,2.51,2.51,0,0,0,.2-.29c0-.11.08-.22.11-.33a1.39,1.39,0,0,0-.1-.67,3,3,0,0,0-.13-.3l-.16-.22a2.54,2.54,0,0,0-.34-.38,9.13,9.13,0,0,0-.73-.65c-.25-.21-.55-.37-.83-.56l-.12-.05-.93.23c.24.11.47.22.69.34a7.18,7.18,0,0,1,.76.51,4.06,4.06,0,0,1,1.16,1.26.79.79,0,0,1,.07.4l-.06.19a1,1,0,0,1-.12.16,2,2,0,0,1-.7.43,9.33,9.33,0,0,1-1.57.41l-1.5.29L38,28.18l-1.3.12-1.2,0c-1.51,0-2.7-.06-3.51-.09l-1.24-.05a5.41,5.41,0,0,0-1.95.18c-.05,0-.08.06-.08.08s.14.13.38.18A9.62,9.62,0,0,0,30.68,28.8Z"/><path class="cls-9" d="M53,22.37a1.32,1.32,0,0,0-.21.23h0a4.31,4.31,0,0,0,1-.39l-.5,0A2.43,2.43,0,0,0,53,22.37Z"/><path class="cls-8" d="M62.9,15.76A28.53,28.53,0,0,1,71,15.31a14,14,0,0,1,4.37,1.2,8.11,8.11,0,0,1,2,1.33,4.48,4.48,0,0,1,.81,1,1.81,1.81,0,0,1-.55,2.65,5.24,5.24,0,0,1-1.23.57,12.67,12.67,0,0,1-2.47.43c-.82.08-1.63.1-2.44.11h-.22c0,.06.06.11.08.17a1.71,1.71,0,0,1-.19,1.34,2.67,2.67,0,0,1-.83.87,11.6,11.6,0,0,1-3.73,1.53c-1.22.32-2.4.53-3.53.71l-1.65.22c-.56.05-1.09.05-1.6.07a33.31,33.31,0,0,1-5.29-.25c-1.44-.19-2.61-.37-3.33-.54a8.13,8.13,0,0,0-1.07-.14,11.05,11.05,0,0,0-1.16,0h-.18l.2.05a5.47,5.47,0,0,0,1.12.16l.36,0c.17,0,.38.05.68.11l.66.13.39.07.31,0,1.33.2.11,0,.55.07.83.09.77.06.25,0h.1c.35,0,.73.05,1.11.06.72,0,1.46.05,2.27,0h.44c.38,0,.76,0,1.18-.07h0l1.28-.17.34-.05.71-.12.72-.13.25,0c.53-.1,1.07-.22,1.61-.36l.26-.06.43-.12.44-.12c.34-.1.67-.21,1-.34l.09,0a8.84,8.84,0,0,0,1.26-.58l.16-.09.42-.27.08-.07a2.88,2.88,0,0,0,.45-.41c.06-.06.11-.14.16-.2s.14-.17.21-.27a2.3,2.3,0,0,0,.17-.39,1.92,1.92,0,0,0,0-1h.67l1.28-.06.4,0a2.4,2.4,0,0,0,.28,0l.25,0c.33,0,.65-.08,1-.15s.67-.13,1-.23h0L77.1,22l.22-.1a4.1,4.1,0,0,0,.43-.26,2.19,2.19,0,0,0,1-1.39,2.22,2.22,0,0,0-.35-1.54,4.94,4.94,0,0,0-.84-1,8.37,8.37,0,0,0-2-1.37,14.24,14.24,0,0,0-4.45-1.23A23.32,23.32,0,0,0,67.84,15h-.12a36.17,36.17,0,0,0-4.87.56l-.14,0a1.56,1.56,0,0,1,.16.2Z"/><path class="cls-8" d="M62.31,22.39l.67-.34.21-.11.17-.08.57.11,1.08.21c.7.13,1.41.25,2.12.36l1,.11.68.07.21,0h.65a1.12,1.12,0,0,1,.17.32.34.34,0,0,1-.05.32l0,0a1.3,1.3,0,0,1-.23.26l-.17.14a1.43,1.43,0,0,1-.21.12l-.25.15a5.53,5.53,0,0,1-.69.33c-.3.12-.61.24-.92.34l-.18.06h0c-.3.09-.6.18-.89.25s-.52.12-.79.18-.56.14-.84.19l-.23.05-.67.11-.82.14-.13,0-.52.07L61.2,26h0c-.23,0-.47,0-.71.05h-.15c-.21,0-.42,0-.61,0A27,27,0,0,1,56.42,26l-.27,0-.77-.07-.67-.07-.81-.11c-.74-.1-1.37-.2-1.91-.3l-.5-.11-.56-.09-.13,0c-.37-.05-.6-.06-.6-.06a2.7,2.7,0,0,0-.76.06,1.79,1.79,0,0,0-.35.09,1.45,1.45,0,0,0-.22.09h0a1.46,1.46,0,0,0-.25.13c-.33.24-.44.49-.37.69a.11.11,0,0,0,0,.05.48.48,0,0,0,.17.18,1,1,0,0,1,.38-.27,3.17,3.17,0,0,1,1.33-.19,10.92,10.92,0,0,1,1.17.15c.74.18,1.86.35,3.28.54a34.54,34.54,0,0,0,5.17.25c.5,0,1,0,1.55-.08s1.07-.13,1.62-.22a33.41,33.41,0,0,0,3.45-.69,11,11,0,0,0,3.5-1.41,1.51,1.51,0,0,0,.79-1.59,2.22,2.22,0,0,0-.14-.32h-.28c-.41,0-.84,0-1.26,0a62.22,62.22,0,0,1-6.69-1.08l-.77.41a1.4,1.4,0,0,0,.12.18,2.41,2.41,0,0,1,.2.38l.06.13a.13.13,0,0,1,0,.06l.16-.09Z"/><path class="cls-8" d="M56.32,17.29c1.37-.37,2.89-.77,4.53-1.12L60.64,16l-.16,0-.94.22-.19,0c-.21,0-.39.1-.59.15l-.1,0-.54.14-.8.2-1,.26-.09,0h0c-.48.13-.94.25-1.39.35s-.94.21-1.38.3a1.29,1.29,0,0,1,.06.21h0C54.4,17.77,55.33,17.56,56.32,17.29Z"/><path class="cls-8" d="M60.11,19.65l-.64-.08a18.29,18.29,0,0,0-2.57-.05l.49.13a16.43,16.43,0,0,1,1.72.58,7.39,7.39,0,0,0,1.61-.51Z"/><path class="cls-8" d="M45.59,19a1.67,1.67,0,0,0-.3.29,4.85,4.85,0,0,1,1.19-.5l-.42-.06A3.92,3.92,0,0,0,45.59,19Z"/><path class="cls-8" d="M70.06,22a6.75,6.75,0,0,0-.64-.56,5.36,5.36,0,0,0-4-1,8.39,8.39,0,0,0-2.14.64,52.78,52.78,0,0,0,5.81.93Z"/><path class="cls-8" d="M65.26,19.74a5.71,5.71,0,0,1,2.47.15,6.32,6.32,0,0,1,2.1,1,5.58,5.58,0,0,1,.86.76,3.42,3.42,0,0,1,.22.28h.54c.8,0,1.6,0,2.39-.1a12,12,0,0,0,2.32-.41,4.87,4.87,0,0,0,1-.47,1.43,1.43,0,0,0,.62-.87,1.46,1.46,0,0,0-.25-1,4.54,4.54,0,0,0-.7-.82,7.61,7.61,0,0,0-1.8-1.22,13,13,0,0,0-4.13-1.13,26.74,26.74,0,0,0-7.67.4l.23.37c0,.14.11.27.17.4l.25,0c.63-.1,1.28-.19,1.94-.27l.71-.06.18,0c.32,0,.65,0,1-.06h.85c.4,0,.81,0,1.22,0l1,.09a12.24,12.24,0,0,1,3.82,1,6.37,6.37,0,0,1,1.58,1.07,3.6,3.6,0,0,1,.56.65.67.67,0,0,1,.14.47c0,.09-.08.19-.27.33a3.59,3.59,0,0,1-.76.35h0l-.28.06c-.3.07-.61.14-.92.19s-.6.09-.91.11l-.65,0H73l-1.25,0H70.46c-.15-.13-.31-.26-.48-.38l-.27-.18-.3-.2a9.37,9.37,0,0,0-.9-.44l-.27-.1-.44-.15-.25-.05a5,5,0,0,0-.93-.15h-.43a6.24,6.24,0,0,0-1,.07,7.9,7.9,0,0,0-1.21.28c-.3.09-.58.19-.86.3h0a2,2,0,0,1-.2.21,3.37,3.37,0,0,1-.44.33A10.1,10.1,0,0,1,65.26,19.74Z"/><path class="cls-8" d="M49.32,19.41l-.83-.17-.46-.1-1.07.2-.13,0h0c-.5.11-.95.22-1.28.27l2.57.33.13,0,.6-.06.7-.05.38-.14.19-.08Z"/><path class="cls-8" d="M53.88,20.54l-.8-.17-.23.1Z"/><path class="cls-8" d="M59.94,23.3c0-.06.1-.11.19-.16a.26.26,0,0,0,0-.11.21.21,0,0,0-.13-.25.46.46,0,0,0-.07-.07c-.24.13-.48.26-.73.38a13.72,13.72,0,0,1-2.19.83,7.68,7.68,0,0,1-2.35.33,4.55,4.55,0,0,1-2.29-.6,1.21,1.21,0,0,1-.6-.92,1.08,1.08,0,0,1,.24-.64l-1-.09a1.26,1.26,0,0,0-.12.29,1.63,1.63,0,0,0-.07.45,1.22,1.22,0,0,1,0,.17,2.07,2.07,0,0,1,0,.22,1.61,1.61,0,0,0,.16.38c0,.06.06.14.1.19l0,0a2.46,2.46,0,0,0,.62.59l.16.08a5.48,5.48,0,0,0,2.54.67h.1a6.85,6.85,0,0,0,.91,0l.3,0,.5-.08.34-.07.54-.13.05,0,.52-.17c.45-.15.88-.31,1.3-.49l.38-.17.13-.05.27-.14s0-.06,0-.08a.85.85,0,0,1,.09-.22A.14.14,0,0,1,59.94,23.3Z"/><path class="cls-8" d="M55.07,19.09c.46-.1.92-.21,1.39-.34l.29-.07.59-.16.65-.18.23-.06.14,0,.91-.23.31-.08.22-.05,1-.23.26-.05c.23-.06.47-.1.7-.15l.11,0A2.68,2.68,0,0,0,61.6,17a2.34,2.34,0,0,0-.24-.31c-1.76.37-3.39.79-4.85,1.2-1.06.28-2,.51-2.95.69,0,.06,0,.12,0,.18Z"/><path class="cls-8" d="M51.49,18.07l-.13,0-.4,0,.63.17.17,0v-.08a.69.69,0,0,0,0-.13Z"/><path class="cls-8" d="M52.8,22.21a.81.81,0,0,0-.34.51.67.67,0,0,0,.34.44,3.91,3.91,0,0,0,1.91.48,7.18,7.18,0,0,0,2.14-.3,13.59,13.59,0,0,0,2.07-.79l.52-.27-.22-.14-.17.09-.24.13-.66.28a11.73,11.73,0,0,1-1.37.48l-.21.06a6.62,6.62,0,0,1-1.85.24,6.38,6.38,0,0,1-1-.12A2.92,2.92,0,0,1,53,23l-.08,0a.67.67,0,0,1-.17-.15.22.22,0,0,1-.06-.11s0-.06,0-.12a1.32,1.32,0,0,1,.21-.23,2.43,2.43,0,0,1,.29-.2l-.37,0Z"/><path class="cls-9" d="M62.3,21.44A62.22,62.22,0,0,0,69,22.52c.42,0,.85,0,1.26,0h.28a2.22,2.22,0,0,1,.14.32,1.51,1.51,0,0,1-.79,1.59,11,11,0,0,1-3.5,1.41,33.41,33.41,0,0,1-3.45.69c-.55.09-1.09.16-1.62.22s-1.05.05-1.55.08a34.54,34.54,0,0,1-5.17-.25c-1.42-.19-2.54-.36-3.28-.54a10.92,10.92,0,0,0-1.17-.15,3.17,3.17,0,0,0-1.33.19,1,1,0,0,0-.38.27s0,.07,0,.1.17.07.36.06h.18a11.05,11.05,0,0,1,1.16,0,8.13,8.13,0,0,1,1.07.14c.72.17,1.89.35,3.33.54a33.31,33.31,0,0,0,5.29.25c.51,0,1,0,1.6-.07L63,27.18c1.13-.18,2.31-.39,3.53-.71a11.6,11.6,0,0,0,3.73-1.53,2.67,2.67,0,0,0,.83-.87,1.71,1.71,0,0,0,.19-1.34c0-.06-.06-.11-.08-.17h.22c.81,0,1.62,0,2.44-.11A12.67,12.67,0,0,0,76.37,22a5.24,5.24,0,0,0,1.23-.57,1.81,1.81,0,0,0,.55-2.65,4.48,4.48,0,0,0-.81-1,8.11,8.11,0,0,0-2-1.33A14,14,0,0,0,71,15.31a28.53,28.53,0,0,0-8.12.45h0a2.78,2.78,0,0,1,.26.32c0,.07.09.15.14.23a26.74,26.74,0,0,1,7.67-.4,13,13,0,0,1,4.13,1.13,7.61,7.61,0,0,1,1.8,1.22,4.54,4.54,0,0,1,.7.82,1.46,1.46,0,0,1,.25,1,1.43,1.43,0,0,1-.62.87,4.87,4.87,0,0,1-1,.47,12,12,0,0,1-2.32.41c-.79.07-1.59.09-2.39.1h-.54a3.42,3.42,0,0,0-.22-.28,5.58,5.58,0,0,0-.86-.76,6.32,6.32,0,0,0-2.1-1,5.71,5.71,0,0,0-2.47-.15,10.1,10.1,0,0,0-2.78.92,4.85,4.85,0,0,1-.81.49c-.18.09-.37.16-.55.23l.2.22.21.25Zm6.74.48A52.78,52.78,0,0,1,63.23,21a8.39,8.39,0,0,1,2.14-.64,5.36,5.36,0,0,1,4,1,6.75,6.75,0,0,1,.64.56Z"/><path class="cls-9" d="M46.83,19.37h0l.13,0,1.07-.2-1.25-.26-.3-.05a4.85,4.85,0,0,0-1.19.5.91.91,0,0,0-.26.22s0,0,0,0l.53.06C45.88,19.59,46.33,19.48,46.83,19.37Z"/><path class="cls-9" d="M51.76,18.32v-.07l-.17,0Z"/><path class="cls-9" d="M56.51,17.88c1.46-.41,3.09-.83,4.85-1.2a4.09,4.09,0,0,0-.51-.51c-1.64.35-3.16.75-4.53,1.12-1,.27-1.92.48-2.77.65a1.89,1.89,0,0,1,0,.63C54.47,18.39,55.45,18.16,56.51,17.88Z"/><path class="cls-9" d="M51.8,22.73a1.21,1.21,0,0,0,.6.92,4.55,4.55,0,0,0,2.29.6A7.68,7.68,0,0,0,57,23.92a13.72,13.72,0,0,0,2.19-.83c.25-.12.49-.25.73-.38,0,0,0,0-.05-.06a.87.87,0,0,0-.26-.24l-.21-.13-.52.27a13.59,13.59,0,0,1-2.07.79,7.18,7.18,0,0,1-2.14.3,3.91,3.91,0,0,1-1.91-.48.67.67,0,0,1-.34-.44.81.81,0,0,1,.34-.51l.08-.06L52,22.09A1.08,1.08,0,0,0,51.8,22.73Z"/><path class="cls-8" d="M37,14.4l-.35.2,1-.32A25,25,0,0,1,41,12.89l.38-.11,0-.06a.55.55,0,0,0-.09-.14l-.34.11A21.6,21.6,0,0,0,37,14.4Z"/><path class="cls-8" d="M51,11.53l1.3.1,1.29.17a22.23,22.23,0,0,1,2.55.54,17,17,0,0,1,4.83,2,7.25,7.25,0,0,1,2,1.83l.35.58a6.29,6.29,0,0,1,.26.65,2.71,2.71,0,0,1,0,1.47,2.94,2.94,0,0,1-.82,1.27,5,5,0,0,1-1.2.77,8.11,8.11,0,0,1-1.67.59l.37.24a2.48,2.48,0,0,1,.59.63,1.78,1.78,0,0,1,.15.25.67.67,0,0,1,0,.67.74.74,0,0,1-.56.2.81.81,0,0,1-.45-.14.85.85,0,0,0-.09.22s0,.05,0,.08a.4.4,0,0,0,.16.25,1.32,1.32,0,0,0,1.54-.08l.13-.11a1.17,1.17,0,0,0,.2-.42,1.57,1.57,0,0,0,0-.23,1.46,1.46,0,0,0-.06-.5.13.13,0,0,0,0-.06l-.06-.13a2.41,2.41,0,0,0-.2-.38,1.4,1.4,0,0,1-.12-.18l-.21-.25-.2-.22c.18-.07.37-.14.55-.23a4.85,4.85,0,0,0,.81-.49,3.37,3.37,0,0,0,.44-.33,2,2,0,0,0,.2-.21l0,0a3.28,3.28,0,0,0,.52-.79A2.37,2.37,0,0,0,63.8,19a2.92,2.92,0,0,0,.09-.5,4.1,4.1,0,0,0,0-.61,2.07,2.07,0,0,0,0-.22l-.06-.26c0-.1-.06-.19-.1-.29s-.12-.26-.17-.4l-.23-.37c-.05-.08-.09-.16-.14-.23a2.78,2.78,0,0,0-.26-.32,1.56,1.56,0,0,0-.16-.2,8.35,8.35,0,0,0-1.6-1.37,17,17,0,0,0-4.9-2.07,20.74,20.74,0,0,0-2.58-.54l-1.3-.18L51,11.31a27.94,27.94,0,0,0-8,.77l.12.2A27.76,27.76,0,0,1,51,11.53Z"/><path class="cls-8" d="M39.54,18.29c.53,0,1.05,0,1.56,0h.24l1,.07.7,0h.15l.59,0,.22,0,.31.05h.15l.26,0,.22,0,.51.07.58.09.42.06.3.05,1.25.26.46.1.83.17.8.21.32-.15-.26-.06-.8-.21L48.55,19l-1.72-.36c-.6-.1-1.21-.18-1.83-.27l-.94-.14c-.32,0-.64,0-1-.07-.65,0-1.32-.1-2-.12-.9,0-1.84,0-2.82.05l-.59.23h.35Z"/><path class="cls-8" d="M29.73,19a12.06,12.06,0,0,1-1.65-.12l-.73-.16-.28-.09h0l-.16-.07.07-.09a4.15,4.15,0,0,1,.65-.55l.29-.19.21-.12c.3-.18.61-.36.92-.52s.74-.36,1.1-.52l.08,0,.46-.19.52-.24.1,0a21.91,21.91,0,0,1,3-1.14c.36-.11.63-.17.82-.21l.28-.06c1-.19,1.75-.52,1.8-1a.34.34,0,0,0-.07-.22,14,14,0,0,1-1.91.41l-.31.06a8.43,8.43,0,0,0-.88.23,23.74,23.74,0,0,0-3.2,1.22c-.66.32-1.43.6-2.22,1a8.81,8.81,0,0,0-2.33,1.58,1.18,1.18,0,0,0-.32.65.68.68,0,0,0,.4.61,5.22,5.22,0,0,0,1.61.5,20.93,20.93,0,0,0,3.66.11c1.29,0,2.62,0,4,0,.69,0,1.39,0,2.11,0l2.16.11c2.2.07,4.47.34,6.8.65.75-.17,1.49-.34,2.21-.55l-.74-.1-2.57-.33L45,19.58l-.17,0h-.08l-.3,0h-.08l-.25,0-.87-.08c-1.14-.12-2.26-.22-3.36-.25L37.72,19,36,19c-.31.11-.64.21-1,.3a6.62,6.62,0,0,1-1.17.2,2.46,2.46,0,0,1-1.59-.35L32,19h-.46C30.93,19,30.31,19,29.73,19Z"/><path class="cls-8" d="M26.06,20a1.74,1.74,0,0,0,.25.11h0a3.83,3.83,0,0,0,.49.15l.06,0c.29.08.59.13.89.19a20.7,20.7,0,0,0,3.85.13c.64,0,1.26,0,1.91,0l2,0H37.9l.67,0c.41,0,.81.05,1.23.06l.91.06c1.23.07,2.47.18,3.74.33l.41-.12L45,21c-1.77-.22-3.5-.4-5.19-.45l-2.15-.11c-.71,0-1.41,0-2.1,0l-2,0c-.66,0-1.29,0-1.93,0a21.86,21.86,0,0,1-3.8-.12c-.31-.07-.62-.12-.92-.21a3.22,3.22,0,0,1-1-.41,1.26,1.26,0,0,1-.65-1.06,1.3,1.3,0,0,1,.15-.6,1.91,1.91,0,0,1,.16-.27l.15-.19a6.43,6.43,0,0,1,1.28-1c.43-.27.84-.49,1.25-.71s.8-.39,1.19-.56l1.06-.47a22.7,22.7,0,0,1,3.29-1.25,9.25,9.25,0,0,1,.93-.24l.32-.07a5,5,0,0,1,1.73-.06A2.84,2.84,0,0,0,35,13l-.33.07a9.3,9.3,0,0,0-.94.24,24.4,24.4,0,0,0-3.33,1.26l-.5.24-.56.23q-.57.26-1.2.57c-.41.21-.83.45-1.27.72a6.46,6.46,0,0,0-1.32,1.07h0l-.16.2a.41.41,0,0,1-.07.11l-.12.2a2.67,2.67,0,0,0-.09.26,1,1,0,0,0,0,.24.65.65,0,0,0,0,.2,1,1,0,0,0,.08.42,1.67,1.67,0,0,0,.56.72.39.39,0,0,1,.1.08A1.67,1.67,0,0,0,26.06,20Z"/><path class="cls-8" d="M57.75,21.28c-.26-.09-.53-.17-.82-.25-1.15-.34-2.59-.6-4.23-1-.06.05-.12.12-.19.17h0l.35.08.18.05.8.17-1-.07-.22,0-.41,0a8.62,8.62,0,0,1-1.37.72A33.76,33.76,0,0,0,57.75,21.28Z"/><path class="cls-8" d="M41.13,17.45c.69,0,1.36.08,2,.12.33,0,.66,0,1,.08l1,.14c.63.09,1.26.17,1.86.27l1.75.37.84.18.81.21.86.22.11-.07a1.3,1.3,0,0,0,.36-.41.44.44,0,0,0,.07-.24l-.17,0L51,18.11,50.6,18l-.82-.21-.86-.18-1.79-.37c-.61-.11-1.25-.19-1.9-.29l-.9-.13h-.08c-.33,0-.67-.05-1-.08l-1.66-.1c-.29.18-.6.33-.9.48s-.49.23-.74.33Z"/><path class="cls-8" d="M51.08,22l1,.09.84.06.37,0,.5,0h.44c.61,0,1.22,0,1.84,0s1.52-.08,2.29-.17l.57-.07.33.16.22.14.21.13a.87.87,0,0,1,.26.24s0,0,.05.06a.46.46,0,0,1,.07.07.21.21,0,0,1,.13.25.26.26,0,0,1,0,.11l.07-.05a.24.24,0,0,0,.12-.14.28.28,0,0,0,0-.2l0-.07-.14-.17a1.28,1.28,0,0,0-.29-.27,5.38,5.38,0,0,0-.87-.49,35.39,35.39,0,0,1-9.39-.14l-.55.15C49.69,21.85,50.38,21.93,51.08,22Z"/><path class="cls-8" d="M57.12,20.44a13.91,13.91,0,0,1,1.91.67,9.31,9.31,0,0,0,2.21-.69,4.55,4.55,0,0,0,1-.68,2.26,2.26,0,0,0,.65-1,2.7,2.7,0,0,0-.56-2.21,6.6,6.6,0,0,0-1.79-1.66,16.17,16.17,0,0,0-4.62-2,23.71,23.71,0,0,0-2.48-.51l-1.26-.17L51,12.14a26.92,26.92,0,0,0-7.53.71s0,.07,0,.1l1-.06a13.54,13.54,0,0,1,2.25.18l.13,0A26.12,26.12,0,0,1,50.91,13l1.21.09,1.2.16a20.94,20.94,0,0,1,2.38.5,17.81,17.81,0,0,1,2.66.94,11.27,11.27,0,0,1,1.69.89c.21.14.4.29.59.44l.21.18a4.09,4.09,0,0,1,.51.51,2.34,2.34,0,0,1,.24.31,2.68,2.68,0,0,1,.27.45,1.88,1.88,0,0,1,.12.3A1.6,1.6,0,0,1,62,18a1.18,1.18,0,0,1,0,.59,0,0,0,0,1,0,0,1.54,1.54,0,0,1-.4.6,4.52,4.52,0,0,1-.48.34l-.34.18-.1,0a7.39,7.39,0,0,1-1.61.51,16.43,16.43,0,0,0-1.72-.58l-.49-.13h0c-.37-.1-.76-.19-1.17-.28l-.42-.1-.23-.05-1.55-.34a1.91,1.91,0,0,1-.19.52c0,.09-.12.17-.17.25C54.65,19.87,56,20.12,57.12,20.44Z"/><path class="cls-8" d="M35.48,16.86a2.86,2.86,0,0,0-.2.48l0,.06h.2l.84-.32c.33-.15.67-.28,1-.42h-.6l.09-.1.16-.13.32-.26.06,0,.09-.07-1.82.58C35.57,16.73,35.52,16.79,35.48,16.86Z"/><path class="cls-8" d="M34.31,17.41c-.05.13-.09.25-.13.37l.27-.06h0a7.51,7.51,0,0,1,.29-.76h0l-.3.1Z"/><path class="cls-9" d="M37.6,14.28l.57-.18a34.73,34.73,0,0,1,3.48-.89,2.25,2.25,0,0,0-.23-.43l-.38.11A25,25,0,0,0,37.6,14.28Z"/><path class="cls-9" d="M41.11,18.06c.67,0,1.34.08,2,.12.32,0,.64,0,1,.07l.94.14c.62.09,1.23.17,1.83.27l1.72.36.83.18.8.21.26.06a5.15,5.15,0,0,0,.78-.43l-.86-.22-.81-.21-.84-.18L47,18.06c-.6-.1-1.23-.18-1.86-.27l-1-.14c-.32,0-.65,0-1-.08-.67,0-1.34-.09-2-.12H39.94c-.55.24-1.1.45-1.65.66C39.27,18.08,40.21,18,41.11,18.06Z"/><path class="cls-9" d="M46.6,20.63h0c-2.33-.31-4.6-.58-6.8-.65l-2.16-.11c-.72,0-1.42,0-2.11,0-1.38,0-2.71-.06-4,0a20.93,20.93,0,0,1-3.66-.11,5.22,5.22,0,0,1-1.61-.5.68.68,0,0,1-.4-.61,1.18,1.18,0,0,1,.32-.65,8.81,8.81,0,0,1,2.33-1.58c.79-.42,1.56-.7,2.22-1A23.74,23.74,0,0,1,34,14.12a8.43,8.43,0,0,1,.88-.23l.31-.06a14,14,0,0,0,1.91-.41c.05,0,.08-.05.08-.08s-.14-.13-.4-.17a5,5,0,0,0-1.73.06l-.32.07a9.25,9.25,0,0,0-.93.24,22.7,22.7,0,0,0-3.29,1.25l-1.06.47c-.39.17-.78.36-1.19.56s-.82.44-1.25.71a6.43,6.43,0,0,0-1.28,1l-.15.19a1.91,1.91,0,0,0-.16.27,1.3,1.3,0,0,0-.15.6,1.26,1.26,0,0,0,.65,1.06,3.22,3.22,0,0,0,1,.41c.3.09.61.14.92.21a21.86,21.86,0,0,0,3.8.12c.64,0,1.27,0,1.93,0l2,0c.69,0,1.39,0,2.1,0l2.15.11c1.69.05,3.42.23,5.19.45C45.53,20.88,46.06,20.75,46.6,20.63Z"/><path class="cls-9" d="M58.94,21.75a5.38,5.38,0,0,1,.87.49,1.28,1.28,0,0,1,.29.27l.14.17,0,.07a.28.28,0,0,1,0,.2.24.24,0,0,1-.12.14l-.07.05c-.09.05-.18.1-.19.16a.14.14,0,0,0,.05.09.81.81,0,0,0,.45.14.74.74,0,0,0,.56-.2.67.67,0,0,0,0-.67,1.78,1.78,0,0,0-.15-.25,2.48,2.48,0,0,0-.59-.63l-.37-.24A8.11,8.11,0,0,0,61.55,21a5,5,0,0,0,1.2-.77,2.94,2.94,0,0,0,.82-1.27,2.71,2.71,0,0,0,0-1.47,6.29,6.29,0,0,0-.26-.65l-.35-.58a7.25,7.25,0,0,0-2-1.83,17,17,0,0,0-4.83-2,22.23,22.23,0,0,0-2.55-.54l-1.29-.17-1.3-.1a27.76,27.76,0,0,0-7.81.75,4.87,4.87,0,0,1,.24.57A26.92,26.92,0,0,1,51,12.14l1.26.1,1.26.17a23.71,23.71,0,0,1,2.48.51,16.17,16.17,0,0,1,4.62,2,6.6,6.6,0,0,1,1.79,1.66,2.7,2.7,0,0,1,.56,2.21,2.26,2.26,0,0,1-.65,1,4.55,4.55,0,0,1-1,.68,9.31,9.31,0,0,1-2.21.69,13.91,13.91,0,0,0-1.91-.67c-1.11-.32-2.47-.57-4-.92a3,3,0,0,1-.46.53c1.64.38,3.08.64,4.23,1,.29.08.56.16.82.25a33.76,33.76,0,0,1-6.9-.14l-.19.08c-.37.15-.74.27-1.11.39A35.39,35.39,0,0,0,58.94,21.75Z"/><path class="cls-9" d="M34.45,17.72h0l.1,0c.3-.08.61-.17.91-.28h-.2l0-.06a2.86,2.86,0,0,1,.2-.48c0-.07.09-.13.13-.19l-.76.24-.11,0h0A7.51,7.51,0,0,0,34.45,17.72Z"/><path class="cls-8" d="M22.45,18.93a1.69,1.69,0,0,0,0,.23h0a.75.75,0,0,0,.35.53l.16.05a.71.71,0,0,0,.25,0,.75.75,0,0,1,0-.38,1.83,1.83,0,0,1,.11-.45,3.59,3.59,0,0,1,.25-.53l.13-.2c.09-.13.22-.32.41-.56A13.69,13.69,0,0,1,26,15.71a23.31,23.31,0,0,1,3.45-2.41,24.52,24.52,0,0,1,5.08-2.24,13.63,13.63,0,0,1,3.15-.6,5.9,5.9,0,0,1,3.31.65,3.32,3.32,0,0,1,1.22,1.19,2.65,2.65,0,0,1,.5,1.58c.6-.09,1.21-.12,1.82-.16a12.45,12.45,0,0,1,2,.16,12.42,12.42,0,0,1,3.66,1.49,8.75,8.75,0,0,1,1.53,1.15,2.88,2.88,0,0,1,.94,1.53,1.62,1.62,0,0,1-.73,1.54,7.23,7.23,0,0,1-1.62.87,24,24,0,0,1-3.49,1c-.57.13-1.14.26-1.69.42l-1.62.47c-1,.33-2.1.58-3.09.83s-2,.43-2.9.57a10.12,10.12,0,0,1-2.66.14c-1.68-.05-3.15-.1-4.35-.11a20,20,0,0,0-2.8.14,4.15,4.15,0,0,0-.72.15.9.9,0,0,0-.22.1.87.87,0,0,0-.41.94,1.86,1.86,0,0,1,.11.42.62.62,0,0,0,.24-.08c.21-.13.23-.44.37-.54s.29-.08.26-.07h0a1.47,1.47,0,0,1,.16,0,2.28,2.28,0,0,1,.35-.06,15.46,15.46,0,0,1,1.72-.12h.93l1.08,0h.89l.75,0,1.07,0h.53c.43,0,.87,0,1.34,0h.62l.17,0,.71-.11h0c.47-.07.95-.15,1.43-.25L40.63,24h0l.93-.23.32-.09.25-.06c.54-.14,1.09-.29,1.64-.46l.65-.19.59-.17.37-.11c.52-.15,1.07-.28,1.64-.41h0c.62-.14,1.26-.29,1.92-.47l.55-.15c.37-.12.74-.24,1.11-.39l.19-.08a8.62,8.62,0,0,0,1.37-.72l.14-.09.14-.1h0c.07,0,.13-.12.19-.17a3,3,0,0,0,.46-.53c.05-.08.12-.16.17-.25a1.91,1.91,0,0,0,.19-.52c0-.06,0-.12,0-.18a1.89,1.89,0,0,0,0-.63h0a1.29,1.29,0,0,0-.06-.21,3.09,3.09,0,0,0-.37-.87,4.4,4.4,0,0,0-.66-.81l-.09-.1a8.9,8.9,0,0,0-1.69-1.27,13.46,13.46,0,0,0-3-1.34c-.28-.09-.58-.17-.87-.24l-.13,0a13.54,13.54,0,0,0-2.25-.18l-1,.06s0-.06,0-.1a4.87,4.87,0,0,0-.24-.57l-.12-.2a2.12,2.12,0,0,0-.12-.2,3.78,3.78,0,0,0-.65-.82,5.32,5.32,0,0,0-.85-.65,6.93,6.93,0,0,0-3.87-.78,14.5,14.5,0,0,0-3.37.64,25.55,25.55,0,0,0-5.28,2.33,25.27,25.27,0,0,0-3.59,2.5,14.71,14.71,0,0,0-2,2,7.15,7.15,0,0,0-.45.62l-.15.22a2.49,2.49,0,0,0-.26.62c0,.07,0,.13,0,.19S22.45,18.88,22.45,18.93Z"/><path class="cls-8" d="M33,17.74c0,.1,0,.1.28.27a1.07,1.07,0,0,0,.52.06,5.61,5.61,0,0,0,.86-.16,13.5,13.5,0,0,0,1.79-.61c1.21-.53,2.48-.94,3.56-1.45a4.83,4.83,0,0,0,1.7-1.18c-1,.21-2,.5-3,.8l-3.9,1.23a5.79,5.79,0,0,0-1.6.76l-.12.1-.06.06A.25.25,0,0,0,33,17.74Zm1.49-.69.3-.1.11,0,.76-.24,1.82-.58,1.32-.41c.68-.21,1.35-.4,2-.58h.07l-.09.06a6.52,6.52,0,0,1-.59.33l-.32.17c-.31.15-.64.29-1,.42l-.7.28-.86.33c-.34.14-.68.27-1,.42l-.84.32c-.3.11-.61.2-.91.28l-.1,0-.27.06-.44.06a2.71,2.71,0,0,1-.36,0l-.17-.11.11-.09.15-.1A5.84,5.84,0,0,1,34.44,17.05Z"/><path class="cls-8" d="M24,19.19a2.06,2.06,0,0,0,.3-.41l.12-.18,0,0a3.79,3.79,0,0,1,.35-.48,2.56,2.56,0,0,1,.23-.27,4.6,4.6,0,0,1,.31-.35,14.28,14.28,0,0,1,1.22-1.16A23,23,0,0,1,29.9,14a23.68,23.68,0,0,1,4.87-2.15,12.37,12.37,0,0,1,2.92-.56,5,5,0,0,1,2.77.52,2.36,2.36,0,0,1,.83.77.55.55,0,0,1,.09.14l0,.06a2.25,2.25,0,0,1,.23.43,34.73,34.73,0,0,0-3.48.89l-.57.18-1,.32-2.34.74a8.85,8.85,0,0,0-1.43.6,4.92,4.92,0,0,0-.67.42,3,3,0,0,0-.28.24,2,2,0,0,0-.25.3l0,.05s0,0,0,0a1.92,1.92,0,0,0-.12.25l-.06.13a1.38,1.38,0,0,0-.05.45s0,0,0,.05a1.41,1.41,0,0,0,.34.78h0a1.41,1.41,0,0,0,.3.3h0l.25.18a2.46,2.46,0,0,0,1.59.35A6.62,6.62,0,0,0,35,19.3c.34-.09.67-.19,1-.3l1-.38.33-.14.33-.14.59-.23c.55-.21,1.1-.42,1.65-.66.25-.1.49-.21.74-.33s.61-.3.9-.48a4.87,4.87,0,0,0,.68-.47l.22-.17,0,0,.12-.12.1-.11h0c.06-.07.12-.13.18-.21a3.52,3.52,0,0,0,.35-.56,3.27,3.27,0,0,0,.14-.33l.91-.06h.16a11.59,11.59,0,0,1,1.82.14l.23.06c.29.07.58.16.87.26s.41.14.62.23l.22.1.17.08.14.06.27.13c.26.13.51.26.75.41l.09.05a8.41,8.41,0,0,1,.9.62l.32.27h0l.14.12.22.23a2,2,0,0,1,.44.72.69.69,0,0,1,0,.13v.15a.44.44,0,0,1-.07.24,1.3,1.3,0,0,1-.36.41l-.11.07a5.15,5.15,0,0,1-.78.43l-.32.15-.19.08-.38.14-.32.11-.37.12c-.72.21-1.46.38-2.21.55h0c-.54.12-1.07.25-1.6.4l-.14,0-.41.12-.16.05h-.07l-1,.29c-.43.14-.85.25-1.28.36l-1.76.45-.08,0-.75.16-.2,0-.49.11c-.45.08-.88.17-1.3.23l-.43.07-.24,0-.16,0h-.4c-.41,0-.84,0-1.25,0L33,23c-.89,0-1.72,0-2.45,0H29.26l-.93.05-.76.07a5.07,5.07,0,0,0-.5.09l-.43.12a1.93,1.93,0,0,0-.44.22,1.31,1.31,0,0,0-.55.72,1.6,1.6,0,0,0,0,.21s0,0,0,.06a1,1,0,0,0,.14.61l.1.14a1.62,1.62,0,0,0,.23.18l-.16-.2a1,1,0,0,1-.11-.75,1.32,1.32,0,0,1,.56-.8,1.29,1.29,0,0,1,.38-.18,5.36,5.36,0,0,1,.87-.2,20.75,20.75,0,0,1,2.9-.13c1.22,0,2.7.05,4.37.1.41,0,.84,0,1.26,0h.43l.17,0,.67-.12c.9-.13,1.85-.34,2.84-.55s2-.5,3.06-.82l1.63-.48c.57-.16,1.15-.29,1.72-.43A21.87,21.87,0,0,0,50,19.9a7.42,7.42,0,0,0,1.46-.77,1,1,0,0,0,.5-1,2.31,2.31,0,0,0-.76-1.2,8.2,8.2,0,0,0-1.42-1.06,12.05,12.05,0,0,0-3.44-1.41,12.45,12.45,0,0,0-1.87-.14,15.9,15.9,0,0,0-1.94.18h-.05a2.68,2.68,0,0,1-.66.88,6.91,6.91,0,0,1-1.58,1c-1.15.55-2.4.94-3.6,1.47a14.85,14.85,0,0,1-1.88.64,5.39,5.39,0,0,1-1,.17,1.53,1.53,0,0,1-1-.18,1,1,0,0,1-.59-.72c0-.32.25-.58.5-.78a6.88,6.88,0,0,1,1.81-.87l3.91-1.23A30.38,30.38,0,0,1,42,14c0-.05,0-.09,0-.14a2.06,2.06,0,0,0-.42-1.25,2.71,2.71,0,0,0-1-1,5.24,5.24,0,0,0-2.91-.55,13.41,13.41,0,0,0-3,.57,23.17,23.17,0,0,0-4.92,2.18,22.86,22.86,0,0,0-3.36,2.34A12.39,12.39,0,0,0,24.61,18a6.2,6.2,0,0,0-.38.52l-.12.18c-.26.41-.44.74-.58.94l.16-.11.11-.11A1,1,0,0,0,24,19.19Z"/><path class="cls-9" d="M23.29,19.8c.08,0,.15-.08.24-.19s.32-.53.58-.94l.12-.18a6.2,6.2,0,0,1,.38-.52,12.39,12.39,0,0,1,1.8-1.81,22.86,22.86,0,0,1,3.36-2.34,23.17,23.17,0,0,1,4.92-2.18,13.41,13.41,0,0,1,3-.57,5.24,5.24,0,0,1,2.91.55,2.71,2.71,0,0,1,1,1A2.06,2.06,0,0,1,42,13.86c0,.05,0,.09,0,.14a30.38,30.38,0,0,0-3.53.89l-3.91,1.23a6.88,6.88,0,0,0-1.81.87c-.25.2-.52.46-.5.78a1,1,0,0,0,.59.72,1.53,1.53,0,0,0,1,.18,5.39,5.39,0,0,0,1-.17,14.85,14.85,0,0,0,1.88-.64c1.2-.53,2.45-.92,3.6-1.47a6.91,6.91,0,0,0,1.58-1,2.68,2.68,0,0,0,.66-.88h.05a15.9,15.9,0,0,1,1.94-.18,12.45,12.45,0,0,1,1.87.14,12.05,12.05,0,0,1,3.44,1.41,8.2,8.2,0,0,1,1.42,1.06,2.31,2.31,0,0,1,.76,1.2,1,1,0,0,1-.5,1A7.42,7.42,0,0,1,50,19.9a21.87,21.87,0,0,1-3.38.94c-.57.14-1.15.27-1.72.43l-1.63.48c-1,.32-2.07.57-3.06.82s-1.94.42-2.84.55l-.67.12-.17,0h-.43c-.42,0-.85,0-1.26,0-1.67-.05-3.15-.1-4.37-.1a20.75,20.75,0,0,0-2.9.13,5.36,5.36,0,0,0-.87.2,1.29,1.29,0,0,0-.38.18,1.32,1.32,0,0,0-.56.8,1,1,0,0,0,.11.75l.16.2c.19.2.33.23.38.2a.12.12,0,0,0,0-.11,1.86,1.86,0,0,0-.11-.42.87.87,0,0,1,.41-.94.9.9,0,0,1,.22-.1,4.15,4.15,0,0,1,.72-.15,20,20,0,0,1,2.8-.14c1.2,0,2.67.06,4.35.11a10.12,10.12,0,0,0,2.66-.14c.93-.14,1.89-.35,2.9-.57s2-.5,3.09-.83l1.62-.47c.55-.16,1.12-.29,1.69-.42a24,24,0,0,0,3.49-1,7.23,7.23,0,0,0,1.62-.87,1.62,1.62,0,0,0,.73-1.54,2.88,2.88,0,0,0-.94-1.53,8.75,8.75,0,0,0-1.53-1.15,12.42,12.42,0,0,0-3.66-1.49,12.45,12.45,0,0,0-2-.16c-.61,0-1.22.07-1.82.16a2.65,2.65,0,0,0-.5-1.58A3.32,3.32,0,0,0,41,11.11a5.9,5.9,0,0,0-3.31-.65,13.63,13.63,0,0,0-3.15.6,24.52,24.52,0,0,0-5.08,2.24A23.31,23.31,0,0,0,26,15.71a13.69,13.69,0,0,0-1.89,1.9c-.19.24-.32.43-.41.56l-.13.2a3.59,3.59,0,0,0-.25.53,1.83,1.83,0,0,0-.11.45.75.75,0,0,0,0,.38A.15.15,0,0,0,23.29,19.8Zm9.76-2.24.12-.1a5.79,5.79,0,0,1,1.6-.76l3.9-1.23c1-.3,2-.59,3-.8A4.83,4.83,0,0,1,40,15.85c-1.08.51-2.35.92-3.56,1.45a13.5,13.5,0,0,1-1.79.61,5.61,5.61,0,0,1-.86.16,1.07,1.07,0,0,1-.52-.06c-.27-.17-.25-.17-.28-.27a.25.25,0,0,1,0-.12Z"/></g></g></g></svg>