<svg xmlns="http://www.w3.org/2000/svg" xmlns:xlink="http://www.w3.org/1999/xlink" viewBox="0 0 79.51 56.17"><defs><style>.cls-1{isolation:isolate;}.cls-2{fill:#b8b5aa;mix-blend-mode:multiply;}.cls-3{fill:#9c5723;}.cls-4,.cls-5{fill:#b4703d;}.cls-5{opacity:0.5;}.cls-15,.cls-5{mix-blend-mode:screen;}.cls-6{fill:#e6be8a;}.cls-7{fill:#fff;}.cls-8{fill:#ff8d82;}.cls-9{fill:#ff685a;}.cls-10{fill:#f4493a;}.cls-11{fill:#adcc21;}.cls-12{fill:#93b010;}.cls-13{fill:#799400;}.cls-14{fill:#030800;}.cls-15{opacity:0.6;fill:url(#linear-gradient);}</style><linearGradient id="linear-gradient" x1="48.89" y1="30.72" x2="48.89" y2="40.21" gradientUnits="userSpaceOnUse"><stop offset="0" stop-color="#8f4e46"/><stop offset="1"/></linearGradient></defs><title>Recurso 13</title><g class="cls-1"><g id="Capa_2" data-name="Capa 2"><g id="Layer_1" data-name="Layer 1"><path class="cls-2" d="M35.52,32.46c.18-3.29-6.1-6.31-14-6.76S7,27.57,6.8,30.86s6.1,6.31,14,6.76S35.34,35.75,35.52,32.46Z"/><path class="cls-3" d="M7.82,29.66c0,2.61,5.25,4.72,11.73,4.72s11.73-2.11,11.73-4.72S26,17.22,19.55,17.22,7.82,27.06,7.82,29.66Z"/><path class="cls-4" d="M39.1,18c0-2.87-8.76-5.2-19.55-5.2S0,15.09,0,18,8.75,31.68,19.55,31.68,39.1,20.83,39.1,18Z"/><path class="cls-5" d="M2.2,15.84C1,17,.47,18.23.9,19.38c1,2.77,10.28,12.22,16.79,11s7.84-12.76,6.79-15.53a3.3,3.3,0,0,0-1.12-1.41c-1.38-.08-2.81-.13-4.28-.13C11.88,13.26,5.59,14.3,2.2,15.84Z"/><path class="cls-6" d="M39.1,18c0-4.55-8.76-8.24-19.55-8.24S0,13.41,0,18,8.75,26.2,19.55,26.2,39.1,22.51,39.1,18Z"/><path class="cls-4" d="M19.55,24.05c-8.79,0-16.22-2.91-16.22-6.35s7.43-6.36,16.22-6.36,16.21,2.91,16.21,6.36S28.34,24.05,19.55,24.05Z"/><path class="cls-7" d="M3.79,21c-.15.55,1.78,1.72,4.3,2.61s4.69,1.18,4.84.63S10.74,23.85,8.21,23,3.94,20.43,3.79,21Z"/><path class="cls-7" d="M11.3,30.43c-.64-.22-1.24-.17-1.34.12s.34.69,1,.92,1.24.17,1.34-.12S11.94,30.65,11.3,30.43Z"/><path class="cls-8" d="M11.25,14.14a6.27,6.27,0,0,1,1.16-1.46s0-.09,0-.13a3.87,3.87,0,0,1,0-.48c-4.11.63-7.24,3.76-7.24,7.55a7.06,7.06,0,0,0,.09,1A14.25,14.25,0,0,0,9,22.47a6.43,6.43,0,0,1-.68-2.85A6.8,6.8,0,0,1,11.25,14.14Z"/><path class="cls-9" d="M10.23,19.09a4.31,4.31,0,0,1,.33-1.28,5.85,5.85,0,0,1-.07-.85,5.72,5.72,0,0,1,.76-2.82,6.8,6.8,0,0,0-2.94,5.48A6.43,6.43,0,0,0,9,22.47a25.48,25.48,0,0,0,3.48.91A4.81,4.81,0,0,1,10.23,19.09Z"/><path class="cls-9" d="M19.49,24.05h.73l-.33-.19Z"/><path class="cls-10" d="M18.93,23.16a7.59,7.59,0,0,1-1.27.11c-3.63,0-6.62-2.38-7.1-5.46a4.31,4.31,0,0,0-.33,1.28,4.81,4.81,0,0,0,2.24,4.29,36.69,36.69,0,0,0,7,.67l.4-.2A7.3,7.3,0,0,1,18.93,23.16Z"/><path class="cls-8" d="M30,10.62a5.62,5.62,0,0,1,2.41,4.51,4.08,4.08,0,0,1,0,.61A5.3,5.3,0,0,1,32.56,17a4.63,4.63,0,0,1,0,.65c0,.12,0,.23,0,.35A6.47,6.47,0,0,1,31,22.13a14,14,0,0,0,2.54-1.3,6.94,6.94,0,0,0,1-3.5A7.59,7.59,0,0,0,30,10.62Z"/><path class="cls-9" d="M32.52,17.65c-.37,3.18-3.42,5.66-7.13,5.66a5.12,5.12,0,0,1-.56,0,3.88,3.88,0,0,1-2.56-.15,3.73,3.73,0,0,1-1-.7,7.93,7.93,0,0,1-2.3.73,7.3,7.3,0,0,0,1,.69l.33.19A31.7,31.7,0,0,0,31,22.13,6.47,6.47,0,0,0,32.54,18C32.54,17.88,32.53,17.77,32.52,17.65Z"/><path class="cls-10" d="M21.49,22.29l-.26.14a3.73,3.73,0,0,0,1,.7,3.88,3.88,0,0,0,2.56.15A7.67,7.67,0,0,1,21.49,22.29Z"/><path class="cls-8" d="M12.41,12.68a3.8,3.8,0,0,1,.37-.33,4.68,4.68,0,0,1,.57-.61,6.64,6.64,0,0,1,6.22-3.82,7.25,7.25,0,0,1,4.29,1.37,4.9,4.9,0,0,1,.55.13,8,8,0,0,1,1.3-.13,7.43,7.43,0,0,0-6.14-3c-3.77,0-6.86,2.57-7.14,5.83a3.87,3.87,0,0,0,0,.48S12.41,12.63,12.41,12.68Z"/><path class="cls-9" d="M20.2,9.06a5.15,5.15,0,0,1,1.68.29A5.24,5.24,0,0,1,23,9.22a6,6,0,0,1,.84.07,7.25,7.25,0,0,0-4.29-1.37,6.64,6.64,0,0,0-6.22,3.82,7,7,0,0,1,4.09-1.82A4.81,4.81,0,0,1,20.2,9.06Z"/><path class="cls-8" d="M20.15,21.31a7.86,7.86,0,0,1-2,.26c-3.67,0-6.64-2.62-6.64-5.85a5.35,5.35,0,0,1,1.23-3.37,3.8,3.8,0,0,0-.37.33,6.27,6.27,0,0,0-1.16,1.46A5.72,5.72,0,0,0,10.49,17a5.85,5.85,0,0,0,.07.85c.48,3.08,3.47,5.46,7.1,5.46a7.59,7.59,0,0,0,1.27-.11,7.93,7.93,0,0,0,2.3-.73l.26-.14A7.33,7.33,0,0,1,20.15,21.31Z"/><path class="cls-9" d="M11.55,15.72c0,3.23,3,5.85,6.64,5.85a7.86,7.86,0,0,0,2-.26,6.57,6.57,0,0,1-1.38-1.86,2.76,2.76,0,0,1-2.16.07c-1.58-.65-2.22-2.87-1.45-4.89a2.91,2.91,0,0,1-.05-.4,3.83,3.83,0,0,1,.86-2.4,3.88,3.88,0,0,1,1.47-1.91,7,7,0,0,0-4.09,1.82,4.68,4.68,0,0,0-.57.61A5.35,5.35,0,0,0,11.55,15.72Z"/><path class="cls-10" d="M15.16,14.63c-.77,2-.13,4.24,1.45,4.89a2.76,2.76,0,0,0,2.16-.07,5.26,5.26,0,0,1-.42-1.25A4.33,4.33,0,0,1,15.16,14.63Z"/><path class="cls-8" d="M25.81,21a6.91,6.91,0,0,1-5.49-2.56c-.14,0-.27,0-.41,0a5.31,5.31,0,0,1-1.56-.25,5.26,5.26,0,0,0,.42,1.25,6.57,6.57,0,0,0,1.38,1.86,7.33,7.33,0,0,0,1.34,1,7.67,7.67,0,0,0,3.34,1,5.12,5.12,0,0,0,.56,0c3.71,0,6.76-2.48,7.13-5.66a4.63,4.63,0,0,0,0-.65,5.3,5.3,0,0,0-.15-1.26C32.07,18.68,29.24,21,25.81,21Z"/><path class="cls-9" d="M27.24,11.47a1.89,1.89,0,0,1,.51.21c1.48.82,1.83,3.11.78,5s-3.19,2.75-4.66,1.92a2.22,2.22,0,0,1-.6-.5,4.48,4.48,0,0,1-.63.06,4.77,4.77,0,0,1-.76-.07,5.29,5.29,0,0,1-1.56.34A6.91,6.91,0,0,0,25.81,21c3.43,0,6.26-2.29,6.6-5.23a4.08,4.08,0,0,0,0-.61A5.62,5.62,0,0,0,30,10.62a7.22,7.22,0,0,0-4.23-1.33h-.1a8,8,0,0,0-1.3.13A4.68,4.68,0,0,1,27.24,11.47Z"/><path class="cls-10" d="M26.09,16.66a4.53,4.53,0,0,1-2.82,1.42,2.22,2.22,0,0,0,.6.5c1.47.83,3.6,0,4.66-1.92s.7-4.16-.78-5a1.89,1.89,0,0,0-.51-.21,3.78,3.78,0,0,1,.58,2A4,4,0,0,1,26.09,16.66Z"/><path class="cls-8" d="M19.32,16.81A4.08,4.08,0,0,1,15.75,13,3.35,3.35,0,0,1,16,11.83a3.83,3.83,0,0,0-.86,2.4,2.91,2.91,0,0,0,.05.4,4.33,4.33,0,0,0,3.19,3.57,5.31,5.31,0,0,0,1.56.25c.14,0,.27,0,.41,0a5.29,5.29,0,0,0,1.56-.34A4.61,4.61,0,0,1,19.32,16.81Z"/><path class="cls-9" d="M15.75,13a4.08,4.08,0,0,0,3.57,3.84,3.62,3.62,0,0,1-1.13-2.58,2.63,2.63,0,0,1,.06-.49c0-.1,0-.2,0-.3a4.37,4.37,0,0,1,3.67-4.09,5.15,5.15,0,0,0-1.68-.29,4.81,4.81,0,0,0-2.76.86A3.88,3.88,0,0,0,16,11.83,3.35,3.35,0,0,0,15.75,13Z"/><path class="cls-8" d="M21.88,9.35a4.37,4.37,0,0,0-3.67,4.09c0,.1,0,.2,0,.3a4.27,4.27,0,0,1,4.39-3.43,4.21,4.21,0,0,1,4.45,3.92,3.57,3.57,0,0,1-1,2.43,4,4,0,0,0,1.73-3.22,3.78,3.78,0,0,0-.58-2,4.68,4.68,0,0,0-2.83-2.05,4.9,4.9,0,0,0-.55-.13A6,6,0,0,0,23,9.22,5.24,5.24,0,0,0,21.88,9.35Z"/><path class="cls-9" d="M26.09,16.66a3.57,3.57,0,0,0,1-2.43,4.21,4.21,0,0,0-4.45-3.92,4.27,4.27,0,0,0-4.39,3.43,2.63,2.63,0,0,0-.06.49,3.62,3.62,0,0,0,1.13,2.58,4.61,4.61,0,0,0,2.56,1.26,4.77,4.77,0,0,0,.76.07,4.48,4.48,0,0,0,.63-.06A4.53,4.53,0,0,0,26.09,16.66ZM22,15.79c-.48-.19-.77-1.07-.42-2s1.15-1.36,1.64-1.17.77,1.07.42,2S22.51,16,22,15.79Z"/><path class="cls-10" d="M23.67,14.63c.35-.9.06-1.78-.42-2s-1.29.27-1.64,1.17-.06,1.77.42,2S23.32,15.52,23.67,14.63Z"/><path class="cls-7" d="M8.23,15.11c-.54-.17-1.41.7-1.94,1.94s-.52,2.39,0,2.57.07-1.15.6-2.4S8.77,15.28,8.23,15.11Z"/><path class="cls-7" d="M18.55,6.91c-.32-.47-1.54-.32-2.73.34s-1.88,1.56-1.56,2,.77-.86,2-1.51S18.87,7.38,18.55,6.91Z"/><path class="cls-7" d="M15.63,13.28c-.37.19-.37,1.11,0,2.05s1,1.54,1.37,1.34-.57-.64-1-1.58S16,13.08,15.63,13.28Z"/><path class="cls-2" d="M75.93,26.22c.19-3.29-6.09-6.31-14-6.76s-14.51,1.87-14.7,5.16,6.1,6.31,14,6.76S75.75,29.51,75.93,26.22Z"/><path class="cls-3" d="M48.24,23.42c0,2.6,5.25,4.71,11.72,4.71S71.69,26,71.69,23.42,66.44,11,60,11,48.24,20.82,48.24,23.42Z"/><path class="cls-4" d="M79.51,11.72c0-2.87-8.75-5.2-19.55-5.2s-19.55,2.33-19.55,5.2S49.16,25.44,60,25.44,79.51,14.59,79.51,11.72Z"/><path class="cls-5" d="M42.61,9.6c-1.21,1.15-1.73,2.39-1.29,3.54,1,2.77,10.27,12.22,16.78,11s7.84-12.76,6.79-15.53a3.23,3.23,0,0,0-1.12-1.41C62.39,7.07,61,7,59.5,7,52.29,7,46,8.06,42.61,9.6Z"/><path class="cls-6" d="M79.51,11.72c0-4.56-8.75-8.24-19.55-8.24S40.41,7.16,40.41,11.72,49.16,20,60,20,79.51,16.27,79.51,11.72Z"/><path class="cls-4" d="M60,17.81c8.79,0,16.22-2.91,16.22-6.36S68.75,5.1,60,5.1,43.75,8,43.75,11.45,51.17,17.81,60,17.81Z"/><path class="cls-7" d="M44.21,14.74c-.15.54,1.77,1.71,4.29,2.61s4.69,1.18,4.84.63-2.19-.37-4.71-1.27S44.36,14.19,44.21,14.74Z"/><path class="cls-7" d="M51.71,24.19c-.64-.22-1.24-.17-1.34.12s.34.69,1,.92,1.24.16,1.34-.12S52.35,24.41,51.71,24.19Z"/><path class="cls-11" d="M68.26,7.9A6.54,6.54,0,0,0,67.1,6.43s0-.08,0-.12a3.87,3.87,0,0,0,0-.48c4.11.62,7.24,3.76,7.24,7.55a7.06,7.06,0,0,1-.09,1,14.25,14.25,0,0,1-3.71,1.81,6.33,6.33,0,0,0,.68-2.85A6.77,6.77,0,0,0,68.26,7.9Z"/><path class="cls-12" d="M69.28,12.85A4.31,4.31,0,0,0,69,11.57a6,6,0,0,0,.07-.85,5.7,5.7,0,0,0-.76-2.82,6.77,6.77,0,0,1,2.94,5.48,6.33,6.33,0,0,1-.68,2.85,27,27,0,0,1-3.48.91A4.81,4.81,0,0,0,69.28,12.85Z"/><path class="cls-12" d="M60,17.81h-.73l.33-.19C59.75,17.68,59.88,17.75,60,17.81Z"/><path class="cls-13" d="M60.58,16.92a7.69,7.69,0,0,0,1.27.11c3.63,0,6.63-2.38,7.1-5.46a4.31,4.31,0,0,1,.33,1.28A4.81,4.81,0,0,1,67,17.14a37.51,37.51,0,0,1-7,.67c-.14-.06-.27-.13-.4-.2A7.3,7.3,0,0,0,60.58,16.92Z"/><path class="cls-11" d="M49.47,4.38a5.61,5.61,0,0,0-2.41,4.51,4.08,4.08,0,0,0,0,.61A5.3,5.3,0,0,0,47,10.76c0,.22,0,.44,0,.65s0,.23,0,.35a6.5,6.5,0,0,0,1.52,4.13,13.76,13.76,0,0,1-2.55-1.3,6.94,6.94,0,0,1-1-3.5A7.58,7.58,0,0,1,49.47,4.38Z"/><path class="cls-12" d="M47,11.41c.37,3.18,3.42,5.66,7.13,5.66.2,0,.38,0,.57,0a3.88,3.88,0,0,0,2.56-.15,3.68,3.68,0,0,0,1-.7,7.93,7.93,0,0,0,2.3.73,7.3,7.3,0,0,1-1,.69l-.33.19a31.6,31.6,0,0,1-10.8-1.91A6.5,6.5,0,0,1,47,11.76C47,11.64,47,11.53,47,11.41Z"/><path class="cls-13" d="M58,16.05l.25.14a3.68,3.68,0,0,1-1,.7,3.88,3.88,0,0,1-2.56.15A7.75,7.75,0,0,0,58,16.05Z"/><path class="cls-11" d="M67.1,6.43a3.87,3.87,0,0,0-.37-.32,4.68,4.68,0,0,0-.57-.61,6.64,6.64,0,0,0-6.22-3.83,7.13,7.13,0,0,0-4.28,1.38,4.59,4.59,0,0,0-.56.13,7.85,7.85,0,0,0-1.3-.13,7.43,7.43,0,0,1,6.14-3c3.78,0,6.87,2.57,7.14,5.83a3.87,3.87,0,0,1,0,.48S67.1,6.39,67.1,6.43Z"/><path class="cls-12" d="M59.31,2.82a5,5,0,0,0-1.67.29A5.4,5.4,0,0,0,56.49,3a5.69,5.69,0,0,0-.83.07,7.13,7.13,0,0,1,4.28-1.38A6.64,6.64,0,0,1,66.16,5.5a7,7,0,0,0-4.09-1.82A4.81,4.81,0,0,0,59.31,2.82Z"/><path class="cls-11" d="M59.36,15.06a7.42,7.42,0,0,0,2,.26C65,15.32,68,12.71,68,9.48a5.33,5.33,0,0,0-1.23-3.37,3.87,3.87,0,0,1,.37.32A6.54,6.54,0,0,1,68.26,7.9,5.7,5.7,0,0,1,69,10.72a6,6,0,0,1-.07.85c-.47,3.08-3.47,5.46-7.1,5.46a7.69,7.69,0,0,1-1.27-.11,7.93,7.93,0,0,1-2.3-.73L58,16.05A6.87,6.87,0,0,0,59.36,15.06Z"/><path class="cls-12" d="M68,9.48c0,3.23-3,5.84-6.64,5.84a7.42,7.42,0,0,1-2-.26,6.39,6.39,0,0,0,1.38-1.85,2.76,2.76,0,0,0,2.16.07c1.58-.65,2.22-2.87,1.46-4.89,0-.14,0-.27,0-.4a3.88,3.88,0,0,0-.86-2.41,3.9,3.9,0,0,0-1.47-1.9A7,7,0,0,1,66.16,5.5a4.68,4.68,0,0,1,.57.61A5.33,5.33,0,0,1,68,9.48Z"/><path class="cls-13" d="M64.36,8.39c.76,2,.12,4.24-1.46,4.89a2.76,2.76,0,0,1-2.16-.07A5.41,5.41,0,0,0,61.16,12,4.36,4.36,0,0,0,64.36,8.39Z"/><path class="cls-11" d="M53.7,14.73a6.9,6.9,0,0,0,5.49-2.56c.14,0,.27,0,.41,0A5.31,5.31,0,0,0,61.16,12a5.41,5.41,0,0,1-.42,1.25,6.39,6.39,0,0,1-1.38,1.85,6.87,6.87,0,0,1-1.33,1,7.75,7.75,0,0,1-3.34,1c-.19,0-.37,0-.57,0-3.71,0-6.76-2.48-7.13-5.66,0-.21,0-.43,0-.65A5.3,5.3,0,0,1,47.1,9.5C47.44,12.44,50.27,14.73,53.7,14.73Z"/><path class="cls-12" d="M52.27,5.23a1.89,1.89,0,0,0-.51.21c-1.47.82-1.83,3.1-.77,5s3.18,2.75,4.65,1.92a2.08,2.08,0,0,0,.6-.5,4.48,4.48,0,0,0,.63.06,4.77,4.77,0,0,0,.76-.07,5.29,5.29,0,0,0,1.56.34,6.9,6.9,0,0,1-5.49,2.56c-3.43,0-6.26-2.29-6.6-5.23a4.08,4.08,0,0,1,0-.61,5.61,5.61,0,0,1,2.41-4.51A7.22,7.22,0,0,1,53.7,3.05h.1a7.85,7.85,0,0,1,1.3.13A4.68,4.68,0,0,0,52.27,5.23Z"/><path class="cls-13" d="M53.42,10.42a4.53,4.53,0,0,0,2.82,1.42,2.08,2.08,0,0,1-.6.5c-1.47.83-3.6-.05-4.65-1.92s-.7-4.16.77-5a1.89,1.89,0,0,1,.51-.21,3.78,3.78,0,0,0-.58,2A4,4,0,0,0,53.42,10.42Z"/><path class="cls-11" d="M60.19,10.57a4.08,4.08,0,0,0,3.57-3.84,3.45,3.45,0,0,0-.22-1.15A3.88,3.88,0,0,1,64.4,8c0,.13,0,.26,0,.4A4.36,4.36,0,0,1,61.16,12a5.31,5.31,0,0,1-1.56.25c-.14,0-.27,0-.41,0a5.29,5.29,0,0,1-1.56-.34A4.55,4.55,0,0,0,60.19,10.57Z"/><path class="cls-12" d="M63.76,6.73a4.08,4.08,0,0,1-3.57,3.84A3.62,3.62,0,0,0,61.32,8a2.63,2.63,0,0,0-.06-.49c0-.1,0-.2,0-.3a4.37,4.37,0,0,0-3.66-4.09,5,5,0,0,1,1.67-.29,4.81,4.81,0,0,1,2.76.86,3.9,3.9,0,0,1,1.47,1.9A3.45,3.45,0,0,1,63.76,6.73Z"/><path class="cls-11" d="M57.64,3.11A4.37,4.37,0,0,1,61.3,7.2c0,.1,0,.2,0,.3a4.27,4.27,0,0,0-4.39-3.43A4.21,4.21,0,0,0,52.42,8a3.61,3.61,0,0,0,1,2.43A4,4,0,0,1,51.69,7.2a3.78,3.78,0,0,1,.58-2A4.68,4.68,0,0,1,55.1,3.18a4.59,4.59,0,0,1,.56-.13A5.69,5.69,0,0,1,56.49,3,5.4,5.4,0,0,1,57.64,3.11Z"/><path class="cls-12" d="M56.24,11.84a4.48,4.48,0,0,0,.63.06,4.77,4.77,0,0,0,.76-.07,4.55,4.55,0,0,0,2.56-1.26A3.62,3.62,0,0,0,61.32,8a2.63,2.63,0,0,0-.06-.49,4.27,4.27,0,0,0-4.39-3.43A4.21,4.21,0,0,0,52.42,8a3.61,3.61,0,0,0,1,2.43A4.53,4.53,0,0,0,56.24,11.84Zm-.4-3.45c-.34-.9-.06-1.78.42-2s1.29.27,1.64,1.17.07,1.77-.42,2S56.19,9.28,55.84,8.39Z"/><path class="cls-13" d="M55.84,8.39c-.34-.9-.06-1.78.42-2s1.29.27,1.64,1.17.07,1.77-.42,2S56.19,9.28,55.84,8.39Z"/><path class="cls-7" d="M46.41,12.82c-.56-.1-.93-1.27-.83-2.62s.65-2.36,1.21-2.26-.47,1-.57,2.4S47,12.91,46.41,12.82Z"/><path class="cls-7" d="M53.13,5.27c-.1-.49.69-1.22,1.77-1.63s2-.34,2.14.16-1,0-2,.41S53.24,5.76,53.13,5.27Z"/><path class="cls-7" d="M63.88,7c.37.19.37,1.11,0,2.05s-1,1.54-1.37,1.34.57-.64,1-1.58S63.5,6.84,63.88,7Z"/><path class="cls-2" d="M66.8,50.07c.21-3.86-7.14-7.4-16.44-7.92s-17,2.18-17.21,6,7.14,7.4,16.43,7.91S66.58,53.92,66.8,50.07Z"/><path class="cls-3" d="M34.35,46.79c0,3,6.15,5.52,13.74,5.52s13.74-2.48,13.74-5.52S55.67,32.21,48.09,32.21,34.35,43.74,34.35,46.79Z"/><path class="cls-4" d="M71,33.08C71,29.71,60.74,27,48.09,27s-22.91,2.72-22.91,6.09S35.44,49.15,48.09,49.15,71,36.44,71,33.08Z"/><path class="cls-5" d="M27.76,30.59c-1.43,1.35-2,2.8-1.52,4.15,1.22,3.24,12,14.31,19.67,12.83s9.18-15,8-18.2a3.76,3.76,0,0,0-1.31-1.65c-1.61-.1-3.29-.15-5-.15C39.1,27.57,31.73,28.79,27.76,30.59Z"/><path class="cls-6" d="M71,33.08c0-5.34-10.25-9.66-22.9-9.66s-22.91,4.32-22.91,9.66,10.26,9.65,22.91,9.65S71,38.41,71,33.08Z"/><path class="cls-4" d="M48.09,40.21c-10.3,0-19-3.41-19-7.45s8.7-7.44,19-7.44,19,3.41,19,7.44S58.38,40.21,48.09,40.21Z"/><path class="cls-14" d="M48.09,40.21c7.82,0,14.71-2,17.58-4.68C63.83,32.41,56.53,30,48.09,30S32.35,32.41,30.5,35.53C33.37,38.24,40.27,40.21,48.09,40.21Z"/><path class="cls-15" d="M32.31,36.84c3.44,2,9.29,3.37,15.78,3.37,7.65,0,14.41-1.89,17.38-4.51-2.95-3.28-8.68-5-15-5C42.55,30.72,34.64,34,32.31,36.84Z"/><path class="cls-7" d="M29.63,36.61c-.18.64,2.08,2,5,3.06s5.49,1.38,5.67.74S37.76,40,34.8,38.93,29.8,36,29.63,36.61Z"/><path class="cls-7" d="M63,34.61c.13-.65-2.22-1.81-5.24-2.58s-5.58-.86-5.71-.2,2.6.19,5.62,1S62.83,35.27,63,34.61Z"/><path class="cls-7" d="M38.42,47.69c-.75-.26-1.45-.2-1.57.13s.4.82,1.15,1.08,1.45.2,1.57-.14S39.17,48,38.42,47.69Z"/></g></g></g></svg>